<?xml version="1.0" encoding="UTF-8" standalone="no"?>
<!-- Created with Inkscape (http://www.inkscape.org/) -->

<svg
   xmlns:dc="http://purl.org/dc/elements/1.1/"
   xmlns:cc="http://creativecommons.org/ns#"
   xmlns:rdf="http://www.w3.org/1999/02/22-rdf-syntax-ns#"
   xmlns:svg="http://www.w3.org/2000/svg"
   xmlns="http://www.w3.org/2000/svg"
   xmlns:xlink="http://www.w3.org/1999/xlink"
   xmlns:sodipodi="http://sodipodi.sourceforge.net/DTD/sodipodi-0.dtd"
   xmlns:inkscape="http://www.inkscape.org/namespaces/inkscape"
   sodipodi:docname="logo.svg"
   height="80"
   width="180"
   inkscape:version="0.48.3.1 r9886"
   version="1.1"
   id="svg2"
   inkscape:export-filename="/media/desarrollo/tribus/tribus/skins/canaima/images/logo.png"
   inkscape:export-xdpi="322.875"
   inkscape:export-ydpi="322.875">
  <metadata
     id="metadata8">
    <rdf:RDF>
      <cc:Work
         rdf:about="">
        <dc:format>image/svg+xml</dc:format>
        <dc:type
           rdf:resource="http://purl.org/dc/dcmitype/StillImage" />
        <dc:title></dc:title>
      </cc:Work>
    </rdf:RDF>
  </metadata>
  <defs
     id="defs6">
    <inkscape:perspective
       sodipodi:type="inkscape:persp3d"
       inkscape:vp_x="0 : 0.5 : 1"
       inkscape:vp_y="0 : 1000 : 0"
       inkscape:vp_z="1 : 0.5 : 1"
       inkscape:persp3d-origin="0.5 : 0.33333333 : 1"
       id="perspective10" />
    <inkscape:perspective
       id="perspective2940"
       inkscape:persp3d-origin="0.5 : 0.33333333 : 1"
       inkscape:vp_z="1 : 0.5 : 1"
       inkscape:vp_y="0 : 1000 : 0"
       inkscape:vp_x="0 : 0.5 : 1"
       sodipodi:type="inkscape:persp3d" />
    <inkscape:perspective
       id="perspective2934"
       inkscape:persp3d-origin="0.5 : 0.33333333 : 1"
       inkscape:vp_z="1 : 0.5 : 1"
       inkscape:vp_y="0 : 1000 : 0"
       inkscape:vp_x="0 : 0.5 : 1"
       sodipodi:type="inkscape:persp3d" />
    <filter
       id="filter3701"
       inkscape:label="Drop shadow"
       width="1.5"
       height="1.5"
       x="-0.25"
       y="-0.25"
       color-interpolation-filters="sRGB">
      <feGaussianBlur
         id="feGaussianBlur3703"
         in="SourceAlpha"
         stdDeviation="2,000000"
         result="blur" />
      <feColorMatrix
         id="feColorMatrix3705"
         result="bluralpha"
         type="matrix"
         values="1 0 0 0 0 0 1 0 0 0 0 0 1 0 0 0 0 0 0,500000 0 " />
      <feOffset
         id="feOffset3707"
         in="bluralpha"
         dx="0,000000"
         dy="0,000000"
         result="offsetBlur" />
      <feMerge
         id="feMerge3709">
        <feMergeNode
           id="feMergeNode3711"
           in="offsetBlur" />
        <feMergeNode
           id="feMergeNode3713"
           in="SourceGraphic" />
      </feMerge>
    </filter>
    <linearGradient
       x1="48"
       y1="20.220806"
       x2="48"
       y2="138.66119"
       id="linearGradient2885"
       xlink:href="#linearGradient3737-6"
       gradientUnits="userSpaceOnUse" />
    <linearGradient
       id="linearGradient3737-6">
      <stop
         id="stop3739-73"
         style="stop-color:#ffffff;stop-opacity:1"
         offset="0" />
      <stop
         id="stop3741-6"
         style="stop-color:#ffffff;stop-opacity:0"
         offset="1" />
    </linearGradient>
    <clipPath
       id="clipPath3613">
      <rect
         width="84"
         height="84"
         rx="6"
         ry="6"
         x="6"
         y="6"
         id="rect3615"
         style="fill:#ffffff;fill-opacity:1;fill-rule:nonzero;stroke:none" />
    </clipPath>
    <filter
       x="-0.192"
       y="-0.192"
       width="1.3839999"
       height="1.3839999"
       color-interpolation-filters="sRGB"
       id="filter3794">
      <feGaussianBlur
         id="feGaussianBlur3796"
         stdDeviation="5.28" />
    </filter>
    <linearGradient
       x1="48"
       y1="20.220806"
       x2="48"
       y2="138.66119"
       id="linearGradient3613"
       xlink:href="#linearGradient3737-19"
       gradientUnits="userSpaceOnUse" />
    <linearGradient
       id="linearGradient3737-19">
      <stop
         id="stop3739-4"
         style="stop-color:#ffffff;stop-opacity:1"
         offset="0" />
      <stop
         id="stop3741-78"
         style="stop-color:#ffffff;stop-opacity:0"
         offset="1" />
    </linearGradient>
    <clipPath
       id="clipPath3613-4">
      <rect
         width="84"
         height="84"
         rx="6"
         ry="6"
         x="6"
         y="6"
         id="rect3615-5"
         style="fill:#ffffff;fill-opacity:1;fill-rule:nonzero;stroke:none" />
    </clipPath>
    <filter
       x="-0.192"
       y="-0.192"
       width="1.3839999"
       height="1.3839999"
       color-interpolation-filters="sRGB"
       id="filter3794-0">
      <feGaussianBlur
         id="feGaussianBlur3796-3"
         stdDeviation="5.28" />
    </filter>
    <linearGradient
       id="linearGradient3737-2">
      <stop
         id="stop3739-1"
         style="stop-color:#ffffff;stop-opacity:1"
         offset="0" />
      <stop
         id="stop3741-7"
         style="stop-color:#ffffff;stop-opacity:0"
         offset="1" />
    </linearGradient>
    <linearGradient
       id="linearGradient2966">
      <stop
         id="stop2968"
         style="stop-color:#ffffff;stop-opacity:1"
         offset="0" />
      <stop
         id="stop2970"
         style="stop-color:#ffffff;stop-opacity:0"
         offset="1" />
    </linearGradient>
    <linearGradient
       id="linearGradient2973">
      <stop
         id="stop2975"
         style="stop-color:#ffffff;stop-opacity:1"
         offset="0" />
      <stop
         id="stop2977"
         style="stop-color:#ffffff;stop-opacity:0"
         offset="1" />
    </linearGradient>
    <linearGradient
       id="linearGradient3614">
      <stop
         id="stop3616"
         style="stop-color:#c9a83c;stop-opacity:1;"
         offset="0" />
      <stop
         id="stop3618"
         style="stop-color:#e6e3a2;stop-opacity:1;"
         offset="1" />
    </linearGradient>
    <linearGradient
       x1="32.251034"
       y1="6.1317081"
       x2="32.251034"
       y2="90.238609"
       id="linearGradient3071"
       xlink:href="#ButtonShadow-0-1"
       gradientUnits="userSpaceOnUse"
       gradientTransform="matrix(1.0238095,0,0,1.0119048,-1.1428571,-98.071429)" />
    <linearGradient
       x1="45.447727"
       y1="92.539597"
       x2="45.447727"
       y2="7.0165396"
       id="ButtonShadow-0-1"
       gradientUnits="userSpaceOnUse"
       gradientTransform="matrix(1.0058652,0,0,0.994169,100,0)">
      <stop
         id="stop3750-8-0"
         style="stop-color:#000000;stop-opacity:1"
         offset="0" />
      <stop
         id="stop3752-5-6"
         style="stop-color:#000000;stop-opacity:0.58823532"
         offset="1" />
    </linearGradient>
    <linearGradient
       x1="32.251034"
       y1="6.1317081"
       x2="32.251034"
       y2="90.238609"
       id="linearGradient3780-3"
       xlink:href="#ButtonShadow-0-1"
       gradientUnits="userSpaceOnUse"
       gradientTransform="matrix(1.0238095,0,0,1.0119048,-1.1428571,-98.071429)" />
    <linearGradient
       x1="45.447727"
       y1="92.539597"
       x2="45.447727"
       y2="7.0165396"
       id="linearGradient2988"
       gradientUnits="userSpaceOnUse"
       gradientTransform="matrix(1.0058652,0,0,0.994169,100,0)">
      <stop
         id="stop2990"
         style="stop-color:#000000;stop-opacity:1"
         offset="0" />
      <stop
         id="stop2992"
         style="stop-color:#000000;stop-opacity:0.58823532"
         offset="1" />
    </linearGradient>
    <linearGradient
       x1="32.251034"
       y1="6.1317081"
       x2="32.251034"
       y2="90.238609"
       id="linearGradient3772-2"
       xlink:href="#ButtonShadow-0-1"
       gradientUnits="userSpaceOnUse"
       gradientTransform="matrix(1.0238095,0,0,1.0119048,-1.1428571,-98.071429)" />
    <linearGradient
       x1="45.447727"
       y1="92.539597"
       x2="45.447727"
       y2="7.0165396"
       id="linearGradient2995"
       gradientUnits="userSpaceOnUse"
       gradientTransform="matrix(1.0058652,0,0,0.994169,100,0)">
      <stop
         id="stop2997"
         style="stop-color:#000000;stop-opacity:1"
         offset="0" />
      <stop
         id="stop2999"
         style="stop-color:#000000;stop-opacity:0.58823532"
         offset="1" />
    </linearGradient>
    <linearGradient
       x1="32.251034"
       y1="6.1317081"
       x2="32.251034"
       y2="90.238609"
       id="linearGradient3725-0"
       xlink:href="#ButtonShadow-0-1"
       gradientUnits="userSpaceOnUse"
       gradientTransform="matrix(1.0238095,0,0,1.0119048,-1.1428571,-98.071429)" />
    <linearGradient
       x1="45.447727"
       y1="92.539597"
       x2="45.447727"
       y2="7.0165396"
       id="linearGradient3002"
       gradientUnits="userSpaceOnUse"
       gradientTransform="matrix(1.0058652,0,0,0.994169,100,0)">
      <stop
         id="stop3004"
         style="stop-color:#000000;stop-opacity:1"
         offset="0" />
      <stop
         id="stop3006"
         style="stop-color:#000000;stop-opacity:0.58823532"
         offset="1" />
    </linearGradient>
    <linearGradient
       y2="90.238609"
       x2="32.251034"
       y1="6.1317081"
       x1="32.251034"
       gradientTransform="translate(0,-97)"
       gradientUnits="userSpaceOnUse"
       id="linearGradient3098"
       xlink:href="#ButtonShadow-0-1"
       inkscape:collect="always" />
    <linearGradient
       x1="45.447727"
       y1="92.539597"
       x2="45.447727"
       y2="7.0165396"
       id="linearGradient3009"
       gradientUnits="userSpaceOnUse"
       gradientTransform="matrix(1.0058652,0,0,0.994169,100,0)">
      <stop
         id="stop3011"
         style="stop-color:#000000;stop-opacity:1"
         offset="0" />
      <stop
         id="stop3013"
         style="stop-color:#000000;stop-opacity:0.58823532"
         offset="1" />
    </linearGradient>
    <linearGradient
       y2="90.238609"
       x2="32.251034"
       y1="6.1317081"
       x1="32.251034"
       gradientTransform="translate(0,-97)"
       gradientUnits="userSpaceOnUse"
       id="linearGradient3031"
       xlink:href="#ButtonShadow-0-1"
       inkscape:collect="always" />
    <filter
       id="filter3187"
       inkscape:label="Drop shadow"
       width="1.5"
       height="1.5"
       x="-0.25"
       y="-0.25"
       color-interpolation-filters="sRGB">
      <feGaussianBlur
         id="feGaussianBlur3189"
         in="SourceAlpha"
         stdDeviation="2,000000"
         result="blur" />
      <feColorMatrix
         id="feColorMatrix3191"
         result="bluralpha"
         type="matrix"
         values="1 0 0 0 0 0 1 0 0 0 0 0 1 0 0 0 0 0 0,500000 0 " />
      <feOffset
         id="feOffset3193"
         in="bluralpha"
         dx="0,000000"
         dy="0,000000"
         result="offsetBlur" />
      <feMerge
         id="feMerge3195">
        <feMergeNode
           id="feMergeNode3197"
           in="offsetBlur" />
        <feMergeNode
           id="feMergeNode3199"
           in="SourceGraphic" />
      </feMerge>
    </filter>
    <inkscape:perspective
       id="perspective3305"
       inkscape:persp3d-origin="0.5 : 0.33333333 : 1"
       inkscape:vp_z="1 : 0.5 : 1"
       inkscape:vp_y="0 : 1000 : 0"
       inkscape:vp_x="0 : 0.5 : 1"
       sodipodi:type="inkscape:persp3d" />
    <linearGradient
       id="linearGradient8370">
      <stop
         style="stop-color:#000000;stop-opacity:1;"
         offset="0"
         id="stop8372" />
      <stop
         style="stop-color:#261500;stop-opacity:1;"
         offset="1"
         id="stop8374" />
    </linearGradient>
    <linearGradient
       id="linearGradient8386">
      <stop
         style="stop-color:#e5deda;stop-opacity:1;"
         offset="0"
         id="stop8388" />
      <stop
         style="stop-color:#c49f86;stop-opacity:1;"
         offset="1"
         id="stop8390" />
    </linearGradient>
    <linearGradient
       inkscape:collect="always"
       xlink:href="#linearGradient4565"
       id="linearGradient28233"
       gradientUnits="userSpaceOnUse"
       x1="-487.90366"
       y1="656.29718"
       x2="-465.68033"
       y2="695.60718" />
    <linearGradient
       id="linearGradient4565"
       inkscape:collect="always">
      <stop
         id="stop4567"
         offset="0"
         style="stop-color:#ad7664;stop-opacity:1;" />
      <stop
         id="stop4569"
         offset="1"
         style="stop-color:#c89b7a;stop-opacity:1" />
    </linearGradient>
    <linearGradient
       gradientTransform="matrix(1.0238095,0,0,1.0119048,-1.1428571,-98.071429)"
       gradientUnits="userSpaceOnUse"
       xlink:href="#ButtonShadow-0"
       id="linearGradient2918"
       y2="90.238609"
       x2="32.251034"
       y1="6.1317081"
       x1="32.251034" />
    <linearGradient
       gradientTransform="translate(0,-97)"
       gradientUnits="userSpaceOnUse"
       xlink:href="#ButtonShadow-0"
       id="linearGradient3721"
       y2="90.238609"
       x2="32.251034"
       y1="6.1317081"
       x1="32.251034" />
    <linearGradient
       gradientTransform="matrix(1.0238095,0,0,1.0119048,-1.1428571,-98.071429)"
       gradientUnits="userSpaceOnUse"
       xlink:href="#ButtonShadow-0"
       id="linearGradient3725"
       y2="90.238609"
       x2="32.251034"
       y1="6.1317081"
       x1="32.251034" />
    <linearGradient
       gradientTransform="matrix(1.0238095,0,0,1.0119048,-1.1428571,-98.071429)"
       gradientUnits="userSpaceOnUse"
       xlink:href="#ButtonShadow-0"
       id="linearGradient3772"
       y2="90.238609"
       x2="32.251034"
       y1="6.1317081"
       x1="32.251034" />
    <linearGradient
       gradientTransform="matrix(1.0238095,0,0,1.0119048,-1.1428571,-98.071429)"
       gradientUnits="userSpaceOnUse"
       xlink:href="#ButtonShadow-0"
       id="linearGradient3780"
       y2="90.238609"
       x2="32.251034"
       y1="6.1317081"
       x1="32.251034" />
    <linearGradient
       gradientTransform="matrix(1.0058652,0,0,0.994169,100,0)"
       gradientUnits="userSpaceOnUse"
       id="ButtonShadow-0"
       y2="7.0165396"
       x2="45.447727"
       y1="92.539597"
       x1="45.447727">
      <stop
         offset="0"
         style="stop-color:#000000;stop-opacity:1"
         id="stop3750-8" />
      <stop
         offset="1"
         style="stop-color:#000000;stop-opacity:0.58823532"
         id="stop3752-5" />
    </linearGradient>
    <radialGradient
       gradientTransform="matrix(1.1573129,0,0,0.99590774,-7.551021,0.1971319)"
       gradientUnits="userSpaceOnUse"
       xlink:href="#linearGradient3737-3"
       id="radialGradient2858"
       fy="90.171875"
       fx="48"
       r="42"
       cy="90.171875"
       cx="48" />
    <linearGradient
       id="linearGradient3737-3">
      <stop
         offset="0"
         style="stop-color:#ffffff;stop-opacity:1"
         id="stop3739-5" />
      <stop
         offset="1"
         style="stop-color:#ffffff;stop-opacity:0"
         id="stop3741-7-6" />
    </linearGradient>
    <linearGradient
       gradientTransform="translate(100,-1)"
       gradientUnits="userSpaceOnUse"
       xlink:href="#linearGradient3641"
       id="linearGradient3707"
       y2="21"
       x2="51"
       y1="62"
       x1="51" />
    <clipPath
       id="clipPath3703">
      <rect
         style="fill:#ff00ff;fill-opacity:1;fill-rule:nonzero;stroke:none"
         id="rect3705"
         y="6"
         x="106"
         ry="6"
         rx="6"
         height="84"
         width="84" />
    </clipPath>
    <linearGradient
       gradientTransform="translate(100,0)"
       gradientUnits="userSpaceOnUse"
       xlink:href="#linearGradient3641"
       id="linearGradient3701"
       y2="80"
       x2="48"
       y1="32"
       x1="48" />
    <clipPath
       id="clipPath3696">
      <rect
         style="fill:#ff00ff;fill-opacity:1;fill-rule:nonzero;stroke:none"
         id="rect3698"
         y="6"
         x="106"
         ry="6"
         rx="6"
         height="84"
         width="84" />
    </clipPath>
    <linearGradient
       gradientUnits="userSpaceOnUse"
       xlink:href="#linearGradient3700"
       id="linearGradient3689"
       y2="5.9877172"
       x2="48"
       y1="90"
       x1="48" />
    <linearGradient
       gradientUnits="userSpaceOnUse"
       xlink:href="#linearGradient3737"
       id="linearGradient3687"
       y2="63.893143"
       x2="36.357143"
       y1="6"
       x1="36.357143" />
    <filter
       id="filter3665"
       color-interpolation-filters="sRGB">
      <feGaussianBlur
         stdDeviation="0.69"
         id="feGaussianBlur3667" />
    </filter>
    <filter
       id="filter3649"
       color-interpolation-filters="sRGB">
      <feGaussianBlur
         stdDeviation="1.38"
         id="feGaussianBlur3651" />
    </filter>
    <linearGradient
       gradientUnits="userSpaceOnUse"
       xlink:href="#linearGradient3727"
       id="linearGradient3635"
       y2="36"
       x2="48"
       y1="88"
       x1="48" />
    <linearGradient
       gradientUnits="userSpaceOnUse"
       xlink:href="#linearGradient3700"
       id="linearGradient3627"
       y2="32"
       x2="48"
       y1="88"
       x1="48" />
    <clipPath
       id="clipPath3613-8">
      <rect
         style="fill:#ffffff;fill-opacity:1;fill-rule:nonzero;stroke:none"
         id="rect3615-8"
         y="6"
         x="6"
         ry="6"
         rx="6"
         height="84"
         width="84" />
    </clipPath>
    <radialGradient
       gradientTransform="matrix(1.1573129,0,0,0.99590774,-7.5510206,0.19713193)"
       gradientUnits="userSpaceOnUse"
       xlink:href="#linearGradient3737"
       id="radialGradient3619"
       fy="90.171875"
       fx="48"
       r="42"
       cy="90.171875"
       cx="48" />
    <linearGradient
       gradientUnits="userSpaceOnUse"
       xlink:href="#linearGradient3737"
       id="linearGradient3613-8"
       y2="138.66119"
       x2="48"
       y1="20.220806"
       x1="48" />
    <filter
       id="filter3794-9"
       color-interpolation-filters="sRGB"
       height="1.3839999"
       width="1.3839999"
       y="-0.192"
       x="-0.192">
      <feGaussianBlur
         stdDeviation="5.28"
         id="feGaussianBlur3796-2" />
    </filter>
    <filter
       id="filter3174"
       color-interpolation-filters="sRGB">
      <feGaussianBlur
         stdDeviation="1.71"
         id="feGaussianBlur3176" />
    </filter>
    <linearGradient
       id="linearGradient3700">
      <stop
         offset="0"
         style="stop-color:#dcdcdc;stop-opacity:1"
         id="stop3702" />
      <stop
         offset="1"
         style="stop-color:#f0f0f0;stop-opacity:1"
         id="stop3704" />
    </linearGradient>
    <linearGradient
       id="linearGradient3737">
      <stop
         offset="0"
         style="stop-color:#ffffff;stop-opacity:1"
         id="stop3739" />
      <stop
         offset="1"
         style="stop-color:#ffffff;stop-opacity:0"
         id="stop3741" />
    </linearGradient>
    <linearGradient
       gradientTransform="scale(1.0058652,0.994169)"
       gradientUnits="userSpaceOnUse"
       id="ButtonShadow"
       y2="7.0165396"
       x2="45.447727"
       y1="92.539597"
       x1="45.447727">
      <stop
         offset="0"
         style="stop-color:#000000;stop-opacity:1"
         id="stop3750" />
      <stop
         offset="1"
         style="stop-color:#000000;stop-opacity:0.58823532"
         id="stop3752" />
    </linearGradient>
    <linearGradient
       id="linearGradient3641">
      <stop
         offset="0"
         style="stop-color:#000000;stop-opacity:1"
         id="stop3643" />
      <stop
         offset="1"
         style="stop-color:#000000;stop-opacity:0"
         id="stop3645" />
    </linearGradient>
    <linearGradient
       id="linearGradient3727">
      <stop
         offset="0"
         style="stop-color:#d5d5d5;stop-opacity:1"
         id="stop3729" />
      <stop
         offset="1"
         style="stop-color:#f1f1f1;stop-opacity:1"
         id="stop3731" />
    </linearGradient>
    <inkscape:perspective
       id="perspective3341"
       inkscape:persp3d-origin="48 : 32 : 1"
       inkscape:vp_z="96 : 48 : 1"
       inkscape:vp_y="0 : 1000 : 0"
       inkscape:vp_x="0 : 48 : 1"
       sodipodi:type="inkscape:persp3d" />
    <linearGradient
       inkscape:collect="always"
       xlink:href="#linearGradient3641"
       id="linearGradient6587"
       gradientUnits="userSpaceOnUse"
       gradientTransform="translate(100,0)"
       x1="48"
       y1="32"
       x2="48"
       y2="80" />
    <linearGradient
       inkscape:collect="always"
       xlink:href="#linearGradient3641"
       id="linearGradient6591"
       gradientUnits="userSpaceOnUse"
       gradientTransform="translate(100,-1)"
       x1="51"
       y1="62"
       x2="51"
       y2="21" />
    <linearGradient
       inkscape:collect="always"
       xlink:href="#linearGradient3737"
       id="linearGradient6595"
       gradientUnits="userSpaceOnUse"
       x1="48"
       y1="20.220806"
       x2="48"
       y2="138.66119" />
    <linearGradient
       gradientTransform="matrix(1.0238095,0,0,1.0119048,-1.1428571,-98.071429)"
       gradientUnits="userSpaceOnUse"
       xlink:href="#ButtonShadow-0-8"
       id="linearGradient2918-6"
       y2="90.238609"
       x2="32.251034"
       y1="6.1317081"
       x1="32.251034" />
    <linearGradient
       gradientTransform="translate(0,-97)"
       gradientUnits="userSpaceOnUse"
       xlink:href="#ButtonShadow-0-8"
       id="linearGradient3721-6"
       y2="90.238609"
       x2="32.251034"
       y1="6.1317081"
       x1="32.251034" />
    <linearGradient
       gradientTransform="matrix(1.0238095,0,0,1.0119048,-1.1428571,-98.071429)"
       gradientUnits="userSpaceOnUse"
       xlink:href="#ButtonShadow-0-8"
       id="linearGradient3725-1"
       y2="90.238609"
       x2="32.251034"
       y1="6.1317081"
       x1="32.251034" />
    <linearGradient
       gradientTransform="matrix(1.0238095,0,0,1.0119048,-1.1428571,-98.071429)"
       gradientUnits="userSpaceOnUse"
       xlink:href="#ButtonShadow-0-8"
       id="linearGradient3772-6"
       y2="90.238609"
       x2="32.251034"
       y1="6.1317081"
       x1="32.251034" />
    <linearGradient
       gradientTransform="matrix(1.0238095,0,0,1.0119048,-1.1428571,-98.071429)"
       gradientUnits="userSpaceOnUse"
       xlink:href="#ButtonShadow-0-8"
       id="linearGradient3780-8"
       y2="90.238609"
       x2="32.251034"
       y1="6.1317081"
       x1="32.251034" />
    <linearGradient
       gradientTransform="matrix(1.0058652,0,0,0.994169,100,0)"
       gradientUnits="userSpaceOnUse"
       id="ButtonShadow-0-8"
       y2="7.0165396"
       x2="45.447727"
       y1="92.539597"
       x1="45.447727">
      <stop
         offset="0"
         style="stop-color:#000000;stop-opacity:1"
         id="stop3750-8-2" />
      <stop
         offset="1"
         style="stop-color:#000000;stop-opacity:0.58823532"
         id="stop3752-5-3" />
    </linearGradient>
    <radialGradient
       gradientTransform="matrix(1.1573129,0,0,0.99590774,-7.551021,0.1971319)"
       gradientUnits="userSpaceOnUse"
       xlink:href="#linearGradient3737-3-0"
       id="radialGradient2858-9"
       fy="90.171875"
       fx="48"
       r="42"
       cy="90.171875"
       cx="48" />
    <linearGradient
       id="linearGradient3737-3-0">
      <stop
         offset="0"
         style="stop-color:#ffffff;stop-opacity:1"
         id="stop3739-5-2" />
      <stop
         offset="1"
         style="stop-color:#ffffff;stop-opacity:0"
         id="stop3741-7-5" />
    </linearGradient>
    <linearGradient
       gradientTransform="translate(100,-1)"
       gradientUnits="userSpaceOnUse"
       xlink:href="#linearGradient3641-8"
       id="linearGradient3707-3"
       y2="21"
       x2="51"
       y1="62"
       x1="51" />
    <clipPath
       id="clipPath3703-5">
      <rect
         style="fill:#ff00ff;fill-opacity:1;fill-rule:nonzero;stroke:none"
         id="rect3705-6"
         y="6"
         x="106"
         ry="6"
         rx="6"
         height="84"
         width="84" />
    </clipPath>
    <linearGradient
       gradientTransform="translate(100,0)"
       gradientUnits="userSpaceOnUse"
       xlink:href="#linearGradient3641-8"
       id="linearGradient3701-5"
       y2="80"
       x2="48"
       y1="32"
       x1="48" />
    <clipPath
       id="clipPath3696-1">
      <rect
         style="fill:#ff00ff;fill-opacity:1;fill-rule:nonzero;stroke:none"
         id="rect3698-7"
         y="6"
         x="106"
         ry="6"
         rx="6"
         height="84"
         width="84" />
    </clipPath>
    <linearGradient
       gradientUnits="userSpaceOnUse"
       xlink:href="#linearGradient3700-1"
       id="linearGradient3689-6"
       y2="5.9877172"
       x2="48"
       y1="90"
       x1="48" />
    <linearGradient
       gradientUnits="userSpaceOnUse"
       xlink:href="#linearGradient3737-62"
       id="linearGradient3687-6"
       y2="63.893143"
       x2="36.357143"
       y1="6"
       x1="36.357143" />
    <filter
       id="filter3665-5"
       color-interpolation-filters="sRGB">
      <feGaussianBlur
         stdDeviation="0.69"
         id="feGaussianBlur3667-9" />
    </filter>
    <filter
       id="filter3649-1"
       color-interpolation-filters="sRGB">
      <feGaussianBlur
         stdDeviation="1.38"
         id="feGaussianBlur3651-8" />
    </filter>
    <linearGradient
       gradientUnits="userSpaceOnUse"
       xlink:href="#linearGradient3727-6"
       id="linearGradient3635-6"
       y2="36"
       x2="48"
       y1="88"
       x1="48" />
    <linearGradient
       gradientUnits="userSpaceOnUse"
       xlink:href="#linearGradient3700-1"
       id="linearGradient3627-9"
       y2="32"
       x2="48"
       y1="88"
       x1="48" />
    <clipPath
       id="clipPath3613-6">
      <rect
         style="fill:#ffffff;fill-opacity:1;fill-rule:nonzero;stroke:none"
         id="rect3615-6"
         y="6"
         x="6"
         ry="6"
         rx="6"
         height="84"
         width="84" />
    </clipPath>
    <radialGradient
       gradientTransform="matrix(1.1573129,0,0,0.99590774,-7.5510206,0.19713193)"
       gradientUnits="userSpaceOnUse"
       xlink:href="#linearGradient3737-62"
       id="radialGradient3619-8"
       fy="90.171875"
       fx="48"
       r="42"
       cy="90.171875"
       cx="48" />
    <linearGradient
       gradientUnits="userSpaceOnUse"
       xlink:href="#linearGradient3737-62"
       id="linearGradient3613-7"
       y2="138.66119"
       x2="48"
       y1="20.220806"
       x1="48" />
    <filter
       id="filter3794-8"
       color-interpolation-filters="sRGB"
       height="1.3839999"
       width="1.3839999"
       y="-0.192"
       x="-0.192">
      <feGaussianBlur
         stdDeviation="5.28"
         id="feGaussianBlur3796-0" />
    </filter>
    <filter
       id="filter3174-8"
       color-interpolation-filters="sRGB">
      <feGaussianBlur
         stdDeviation="1.71"
         id="feGaussianBlur3176-6" />
    </filter>
    <linearGradient
       id="linearGradient3700-1">
      <stop
         offset="0"
         style="stop-color:#dcdcdc;stop-opacity:1"
         id="stop3702-7" />
      <stop
         offset="1"
         style="stop-color:#f0f0f0;stop-opacity:1"
         id="stop3704-1" />
    </linearGradient>
    <linearGradient
       id="linearGradient3737-62">
      <stop
         offset="0"
         style="stop-color:#ffffff;stop-opacity:1"
         id="stop3739-7" />
      <stop
         offset="1"
         style="stop-color:#ffffff;stop-opacity:0"
         id="stop3741-67" />
    </linearGradient>
    <linearGradient
       gradientTransform="scale(1.0058652,0.994169)"
       gradientUnits="userSpaceOnUse"
       id="ButtonShadow-9"
       y2="7.0165396"
       x2="45.447727"
       y1="92.539597"
       x1="45.447727">
      <stop
         offset="0"
         style="stop-color:#000000;stop-opacity:1"
         id="stop3750-5" />
      <stop
         offset="1"
         style="stop-color:#000000;stop-opacity:0.58823532"
         id="stop3752-4" />
    </linearGradient>
    <linearGradient
       id="linearGradient3641-8">
      <stop
         offset="0"
         style="stop-color:#000000;stop-opacity:1"
         id="stop3643-9" />
      <stop
         offset="1"
         style="stop-color:#000000;stop-opacity:0"
         id="stop3645-2" />
    </linearGradient>
    <linearGradient
       id="linearGradient3727-6">
      <stop
         offset="0"
         style="stop-color:#d5d5d5;stop-opacity:1"
         id="stop3729-8" />
      <stop
         offset="1"
         style="stop-color:#f1f1f1;stop-opacity:1"
         id="stop3731-1" />
    </linearGradient>
    <inkscape:perspective
       id="perspective6678"
       inkscape:persp3d-origin="48 : 32 : 1"
       inkscape:vp_z="96 : 48 : 1"
       inkscape:vp_y="0 : 1000 : 0"
       inkscape:vp_x="0 : 48 : 1"
       sodipodi:type="inkscape:persp3d" />
    <inkscape:perspective
       id="perspective9375"
       inkscape:persp3d-origin="0.5 : 0.33333333 : 1"
       inkscape:vp_z="1 : 0.5 : 1"
       inkscape:vp_y="0 : 1000 : 0"
       inkscape:vp_x="0 : 0.5 : 1"
       sodipodi:type="inkscape:persp3d" />
    <linearGradient
       gradientTransform="matrix(1.0058652,0,0,0.994169,100,0)"
       gradientUnits="userSpaceOnUse"
       id="ButtonShadow-0-8-1"
       y2="7.0165396"
       x2="45.447727"
       y1="92.539597"
       x1="45.447727">
      <stop
         offset="0"
         style="stop-color:#000000;stop-opacity:1"
         id="stop3750-8-2-5" />
      <stop
         offset="1"
         style="stop-color:#000000;stop-opacity:0.58823532"
         id="stop3752-5-3-2" />
    </linearGradient>
    <linearGradient
       gradientTransform="matrix(1.0058652,0,0,0.994169,100,0)"
       gradientUnits="userSpaceOnUse"
       id="linearGradient9384"
       y2="7.0165396"
       x2="45.447727"
       y1="92.539597"
       x1="45.447727">
      <stop
         offset="0"
         style="stop-color:#000000;stop-opacity:1"
         id="stop9386" />
      <stop
         offset="1"
         style="stop-color:#000000;stop-opacity:0.58823532"
         id="stop9388" />
    </linearGradient>
    <linearGradient
       gradientTransform="matrix(1.0058652,0,0,0.994169,100,0)"
       gradientUnits="userSpaceOnUse"
       id="linearGradient9391"
       y2="7.0165396"
       x2="45.447727"
       y1="92.539597"
       x1="45.447727">
      <stop
         offset="0"
         style="stop-color:#000000;stop-opacity:1"
         id="stop9393" />
      <stop
         offset="1"
         style="stop-color:#000000;stop-opacity:0.58823532"
         id="stop9395" />
    </linearGradient>
    <linearGradient
       gradientTransform="matrix(1.0058652,0,0,0.994169,100,0)"
       gradientUnits="userSpaceOnUse"
       id="linearGradient9398"
       y2="7.0165396"
       x2="45.447727"
       y1="92.539597"
       x1="45.447727">
      <stop
         offset="0"
         style="stop-color:#000000;stop-opacity:1"
         id="stop9400" />
      <stop
         offset="1"
         style="stop-color:#000000;stop-opacity:0.58823532"
         id="stop9402" />
    </linearGradient>
    <linearGradient
       gradientTransform="matrix(1.0058652,0,0,0.994169,100,0)"
       gradientUnits="userSpaceOnUse"
       id="linearGradient9405"
       y2="7.0165396"
       x2="45.447727"
       y1="92.539597"
       x1="45.447727">
      <stop
         offset="0"
         style="stop-color:#000000;stop-opacity:1"
         id="stop9407" />
      <stop
         offset="1"
         style="stop-color:#000000;stop-opacity:0.58823532"
         id="stop9409" />
    </linearGradient>
    <linearGradient
       id="linearGradient3700-1-9">
      <stop
         offset="0"
         style="stop-color:#dcdcdc;stop-opacity:1"
         id="stop3702-7-9" />
      <stop
         offset="1"
         style="stop-color:#f0f0f0;stop-opacity:1"
         id="stop3704-1-0" />
    </linearGradient>
    <linearGradient
       inkscape:collect="always"
       xlink:href="#linearGradient3641-8-4"
       id="linearGradient9353"
       gradientUnits="userSpaceOnUse"
       gradientTransform="translate(100,0)"
       x1="48"
       y1="32"
       x2="48"
       y2="80" />
    <linearGradient
       id="linearGradient3641-8-4">
      <stop
         offset="0"
         style="stop-color:#000000;stop-opacity:1"
         id="stop3643-9-7" />
      <stop
         offset="1"
         style="stop-color:#000000;stop-opacity:0"
         id="stop3645-2-9" />
    </linearGradient>
    <clipPath
       id="clipPath3696-1-9">
      <rect
         style="fill:#ff00ff;fill-opacity:1;fill-rule:nonzero;stroke:none"
         id="rect3698-7-2"
         y="6"
         x="106"
         ry="6"
         rx="6"
         height="84"
         width="84" />
    </clipPath>
    <filter
       id="filter3665-5-4"
       color-interpolation-filters="sRGB">
      <feGaussianBlur
         stdDeviation="0.69"
         id="feGaussianBlur3667-9-0" />
    </filter>
    <linearGradient
       id="linearGradient3727-6-1">
      <stop
         offset="0"
         style="stop-color:#d5d5d5;stop-opacity:1"
         id="stop3729-8-9" />
      <stop
         offset="1"
         style="stop-color:#f1f1f1;stop-opacity:1"
         id="stop3731-1-1" />
    </linearGradient>
    <linearGradient
       inkscape:collect="always"
       xlink:href="#linearGradient3641-8-4"
       id="linearGradient9357"
       gradientUnits="userSpaceOnUse"
       gradientTransform="translate(100,-1)"
       x1="51"
       y1="62"
       x2="51"
       y2="21" />
    <linearGradient
       id="linearGradient9428">
      <stop
         offset="0"
         style="stop-color:#000000;stop-opacity:1"
         id="stop9430" />
      <stop
         offset="1"
         style="stop-color:#000000;stop-opacity:0"
         id="stop9432" />
    </linearGradient>
    <clipPath
       id="clipPath3703-5-0">
      <rect
         style="fill:#ff00ff;fill-opacity:1;fill-rule:nonzero;stroke:none"
         id="rect3705-6-9"
         y="6"
         x="106"
         ry="6"
         rx="6"
         height="84"
         width="84" />
    </clipPath>
    <filter
       id="filter3649-1-7"
       color-interpolation-filters="sRGB">
      <feGaussianBlur
         stdDeviation="1.38"
         id="feGaussianBlur3651-8-5" />
    </filter>
    <linearGradient
       id="linearGradient9439">
      <stop
         offset="0"
         style="stop-color:#dcdcdc;stop-opacity:1"
         id="stop9441" />
      <stop
         offset="1"
         style="stop-color:#f0f0f0;stop-opacity:1"
         id="stop9443" />
    </linearGradient>
    <clipPath
       id="clipPath3613-6-4">
      <rect
         style="fill:#ffffff;fill-opacity:1;fill-rule:nonzero;stroke:none"
         id="rect3615-6-7"
         y="6"
         x="6"
         ry="6"
         rx="6"
         height="84"
         width="84" />
    </clipPath>
    <filter
       id="filter3794-8-9"
       color-interpolation-filters="sRGB"
       height="1.3839999"
       width="1.3839999"
       y="-0.192"
       x="-0.192">
      <feGaussianBlur
         stdDeviation="5.28"
         id="feGaussianBlur3796-0-0" />
    </filter>
    <linearGradient
       id="linearGradient3737-62-5">
      <stop
         offset="0"
         style="stop-color:#ffffff;stop-opacity:1"
         id="stop3739-7-2" />
      <stop
         offset="1"
         style="stop-color:#ffffff;stop-opacity:0"
         id="stop3741-67-9" />
    </linearGradient>
    <linearGradient
       id="linearGradient9454">
      <stop
         offset="0"
         style="stop-color:#ffffff;stop-opacity:1"
         id="stop9456" />
      <stop
         offset="1"
         style="stop-color:#ffffff;stop-opacity:0"
         id="stop9458" />
    </linearGradient>
    <radialGradient
       inkscape:collect="always"
       xlink:href="#linearGradient3737-3-0-9"
       id="radialGradient9365"
       gradientUnits="userSpaceOnUse"
       gradientTransform="matrix(1.1573129,0,0,0.76377783,262.84964,638.90851)"
       cx="48"
       cy="90.171875"
       fx="48"
       fy="90.171875"
       r="42" />
    <linearGradient
       id="linearGradient3737-3-0-9">
      <stop
         offset="0"
         style="stop-color:#ffffff;stop-opacity:1"
         id="stop3739-5-2-3" />
      <stop
         offset="1"
         style="stop-color:#ffffff;stop-opacity:0"
         id="stop3741-7-5-7" />
    </linearGradient>
    <inkscape:perspective
       id="perspective3432"
       inkscape:persp3d-origin="0.5 : 0.33333333 : 1"
       inkscape:vp_z="1 : 0.5 : 1"
       inkscape:vp_y="0 : 1000 : 0"
       inkscape:vp_x="0 : 0.5 : 1"
       sodipodi:type="inkscape:persp3d" />
    <inkscape:perspective
       id="perspective9727"
       inkscape:persp3d-origin="0.5 : 0.33333333 : 1"
       inkscape:vp_z="1 : 0.5 : 1"
       inkscape:vp_y="0 : 1000 : 0"
       inkscape:vp_x="0 : 0.5 : 1"
       sodipodi:type="inkscape:persp3d" />
    <linearGradient
       inkscape:collect="always"
       xlink:href="#linearGradient3614-1"
       id="linearGradient3781-6"
       gradientUnits="userSpaceOnUse"
       x1="48"
       y1="90"
       x2="48"
       y2="5.9877172"
       gradientTransform="matrix(1.0210455,0,0,1.0210455,-0.43284648,-0.045376)" />
    <linearGradient
       id="linearGradient3614-1">
      <stop
         id="stop3616-6"
         style="stop-color:#c9a83c;stop-opacity:1;"
         offset="0" />
      <stop
         id="stop3618-8"
         style="stop-color:#e6e3a2;stop-opacity:1;"
         offset="1" />
    </linearGradient>
    <clipPath
       clipPathUnits="userSpaceOnUse"
       id="clipPath9757">
      <rect
         style="fill:#000000;fill-opacity:0.33744854;fill-rule:nonzero;stroke:none"
         id="rect9759"
         y="5.9819803"
         x="5.793726"
         ry="2.1888943"
         rx="2.1888943"
         height="85.767822"
         width="85.767822" />
    </clipPath>
    <linearGradient
       inkscape:collect="always"
       xlink:href="#linearGradient3737-2"
       id="linearGradient3380"
       gradientUnits="userSpaceOnUse"
       gradientTransform="matrix(1.0210455,0,0,1.0210455,-0.43284648,-0.045376)"
       x1="48"
       y1="6"
       x2="48"
       y2="109.10714" />
    <radialGradient
       inkscape:collect="always"
       xlink:href="#linearGradient3737-19"
       id="radialGradient3383"
       gradientUnits="userSpaceOnUse"
       gradientTransform="matrix(1.1816691,0,0,1.016867,-8.1427863,0.1559074)"
       cx="48"
       cy="90.171875"
       fx="48"
       fy="90.171875"
       r="42" />
    <linearGradient
       inkscape:collect="always"
       xlink:href="#linearGradient3737-19"
       id="linearGradient3386"
       gradientUnits="userSpaceOnUse"
       gradientTransform="matrix(1.0210455,0,0,1.0210455,-0.43284648,-0.045376)"
       x1="36.357143"
       y1="6"
       x2="36.357143"
       y2="63.893143" />
    <linearGradient
       inkscape:collect="always"
       xlink:href="#linearGradient3614"
       id="linearGradient3389"
       gradientUnits="userSpaceOnUse"
       gradientTransform="matrix(1.0210455,0,0,1.0210455,-0.43284648,-0.045376)"
       x1="48"
       y1="90"
       x2="48"
       y2="5.9877172" />
    <linearGradient
       inkscape:collect="always"
       xlink:href="#linearGradient3641-8-4"
       id="linearGradient3421"
       gradientUnits="userSpaceOnUse"
       gradientTransform="translate(100,0)"
       x1="48"
       y1="32"
       x2="48"
       y2="80" />
    <linearGradient
       inkscape:collect="always"
       xlink:href="#linearGradient3641-8-4"
       id="linearGradient3425"
       gradientUnits="userSpaceOnUse"
       gradientTransform="translate(100,-1)"
       x1="51"
       y1="62"
       x2="51"
       y2="21" />
    <filter
       id="filter3572"
       inkscape:label="Simple blur"
       inkscape:menu="ABCs"
       inkscape:menu-tooltip="Simple Gaussian blur, same as the blur slider in Fill and Stroke dialog"
       color-interpolation-filters="sRGB">
      <feGaussianBlur
         id="feGaussianBlur3574"
         stdDeviation="3" />
    </filter>
    <linearGradient
       inkscape:collect="always"
       xlink:href="#linearGradient8386"
       id="linearGradient3658"
       gradientUnits="userSpaceOnUse"
       gradientTransform="matrix(-0.54723712,0,0,0.53452145,-102.39949,1694.5783)"
       x1="-403.48862"
       y1="-3260.7307"
       x2="-315.64145"
       y2="-3159.4741" />
    <linearGradient
       inkscape:collect="always"
       xlink:href="#linearGradient8370"
       id="linearGradient3660"
       gradientUnits="userSpaceOnUse"
       gradientTransform="matrix(-0.54723712,0,0,0.53452145,-102.39949,1694.5783)"
       x1="-444"
       y1="-3257.9055"
       x2="-431.8457"
       y2="-3230.9055" />
    <linearGradient
       inkscape:collect="always"
       xlink:href="#linearGradient8370"
       id="linearGradient3663"
       gradientUnits="userSpaceOnUse"
       gradientTransform="matrix(-0.54723712,0,0,0.53452145,-143.5203,1758.7758)"
       x1="-444"
       y1="-3257.9055"
       x2="-431.8457"
       y2="-3230.9055" />
    <linearGradient
       inkscape:collect="always"
       xlink:href="#linearGradient8386"
       id="linearGradient3675"
       gradientUnits="userSpaceOnUse"
       gradientTransform="matrix(-0.54723712,0,0,0.53452145,-143.5203,1758.7758)"
       x1="-403.48862"
       y1="-3260.7307"
       x2="-315.64145"
       y2="-3159.4741" />
    <linearGradient
       x1="184.46346"
       y1="711.15393"
       x2="184.46346"
       y2="804.79529"
       id="linearGradient3983"
       xlink:href="#linearGradient3977"
       gradientUnits="userSpaceOnUse" />
    <linearGradient
       id="linearGradient3977">
      <stop
         id="stop3979"
         style="stop-color:#f9f9f9;stop-opacity:1"
         offset="0" />
      <stop
         id="stop3981"
         style="stop-color:#f9f9f9;stop-opacity:0"
         offset="1" />
    </linearGradient>
    <clipPath
       id="clipPath3983">
      <path
         d="m 184.12,701.5 a 2.2363,2.2363 0 0 0 -1.4688,0.90625 c 0,0 -3.328,4.7671 -4.0312,11.156 -5.0181,-4.0229 -10.75,-5.0625 -10.75,-5.0625 a 2.2363,2.2363 0 0 0 -2.5938,2.5625 c 0,0 1.034,5.7649 5.0625,10.781 -6.3978,0.70283 -11.188,4.0312 -11.188,4.0312 a 2.2363,2.2363 0 0 0 0,3.625 c 0,0 4.7948,3.3031 11.188,4 -4.0285,5.0164 -5.0625,10.781 -5.0625,10.781 a 2.2363,2.2363 0 0 0 2.5938,2.5625 c 0,0 5.7319,-1.0396 10.75,-5.0625 0.70267,6.3934 4.0312,11.188 4.0312,11.188 a 2.2363,2.2363 0 0 0 3.625,0 c 0,0 3.3111,-4.8145 4,-11.219 5.0262,4.0467 10.781,5.0938 10.781,5.0938 a 2.2363,2.2363 0 0 0 2.5938,-2.5938 c 0,0 -1.0624,-5.7373 -5.0938,-10.75 6.397,-0.69632 11.219,-4 11.219,-4 a 2.2363,2.2363 0 0 0 0,-3.625 c 0,0 -4.8167,-3.329 -11.219,-4.0312 4.0313,-5.0127 5.0938,-10.75 5.0938,-10.75 a 2.2363,2.2363 0 0 0 -2.59,-2.6 c 0,0 -5.755,1.047 -10.781,5.0938 -0.69265,-6.3936 -4,-11.188 -4,-11.188 a 2.2363,2.2363 0 0 0 -2.16,-0.91 z"
         inkscape:connector-curvature="0"
         id="path3985"
         style="color:#000000;fill:#eeeeec;fill-rule:evenodd;enable-background:new" />
    </clipPath>
    <clipPath
       id="clipPath4169">
      <path
         d="m 471.43,685.93 c 0,22.097 -12.842,40.01 -12.842,40.01 0,0 -12.842,-17.913 -12.842,-40.01 0,-22.097 12.842,-40.01 12.842,-40.01 0,0 12.842,17.913 12.842,40.01 z"
         inkscape:connector-curvature="0"
         id="path4171"
         style="color:#000000;fill:#edd400;fill-rule:evenodd;enable-background:new" />
    </clipPath>
    <filter
       x="-0.24693"
       y="-0.079258002"
       width="1.4938999"
       height="1.1585"
       color-interpolation-filters="sRGB"
       id="filter4173">
      <feGaussianBlur
         stdDeviation="2.642588"
         id="feGaussianBlur4175" />
    </filter>
    <clipPath
       id="clipPath4145">
      <path
         d="m 401.43,865.8 c 0,22.097 -12.842,40.01 -12.842,40.01 0,0 -12.842,-17.913 -12.842,-40.01 0,-22.097 12.842,-40.01 12.842,-40.01 0,0 12.842,17.913 12.842,40.01 z"
         inkscape:connector-curvature="0"
         id="path4147"
         style="color:#000000;fill:#3465a4;fill-rule:evenodd;enable-background:new" />
    </clipPath>
    <filter
       x="-0.24693"
       y="-0.079258002"
       width="1.4938999"
       height="1.1585"
       color-interpolation-filters="sRGB"
       id="filter4149">
      <feGaussianBlur
         stdDeviation="2.642588"
         id="feGaussianBlur4151" />
    </filter>
    <clipPath
       id="clipPath4181">
      <path
         d="m 348.71,698.73 c -22.064,0 -39.951,-12.861 -39.951,-12.861 0,0 17.887,-12.861 39.951,-12.861 22.064,0 39.951,12.861 39.951,12.861 0,0 -17.887,12.861 -39.951,12.861 z"
         inkscape:connector-curvature="0"
         id="path4183"
         style="color:#000000;fill:#ef2929;fill-rule:evenodd;enable-background:new" />
    </clipPath>
    <filter
       x="-0.079314999"
       y="-0.24639"
       width="1.1586"
       height="1.4928"
       color-interpolation-filters="sRGB"
       id="filter4189">
      <feGaussianBlur
         stdDeviation="2.6406013"
         id="feGaussianBlur4191" />
    </filter>
    <clipPath
       id="clipPath4197">
      <path
         d="m 299.47,763.2 c -15.602,15.625 -37.33,19.197 -37.33,19.197 0,0 3.5672,-21.76 19.169,-37.385 15.6018,-15.625 37.33,-19.197 37.33,-19.197 0,0 -3.5672,21.76 -19.169,37.385 z"
         inkscape:connector-curvature="0"
         id="path4199"
         style="color:#000000;fill:#75507b;fill-rule:evenodd;enable-background:new" />
    </clipPath>
    <filter
       x="-0.12009"
       y="-0.11991"
       width="1.2402"
       height="1.2398"
       color-interpolation-filters="sRGB"
       id="filter4201">
      <feGaussianBlur
         stdDeviation="2.8270453"
         id="feGaussianBlur4203" />
    </filter>
    <clipPath
       id="clipPath4133">
      <path
         d="m 538.47,738.73 c -22.064,0 -39.951,-12.861 -39.951,-12.861 0,0 17.887,-12.861 39.951,-12.861 22.064,0 39.951,12.861 39.951,12.861 0,0 -17.887,12.861 -39.951,12.861 z"
         inkscape:connector-curvature="0"
         id="path4135"
         style="color:#000000;fill:#65c808;fill-rule:evenodd;enable-background:new" />
    </clipPath>
    <filter
       x="-0.079314999"
       y="-0.24639"
       width="1.1586"
       height="1.4928"
       color-interpolation-filters="sRGB"
       id="filter4137">
      <feGaussianBlur
         stdDeviation="2.6406015"
         id="feGaussianBlur4139" />
    </filter>
    <clipPath
       id="clipPath4071">
      <path
         d="m 515.87,706.72 c -15.602,15.625 -37.33,19.197 -37.33,19.197 0,0 3.5672,-21.76 19.169,-37.385 15.6018,-15.625 37.33,-19.197 37.33,-19.197 0,0 -3.5672,21.76 -19.169,37.385 z"
         inkscape:connector-curvature="0"
         id="path4073"
         style="color:#000000;fill:#afea2c;fill-rule:evenodd;enable-background:new" />
    </clipPath>
    <filter
       x="-0.12009"
       y="-0.11991"
       width="1.2402"
       height="1.2398"
       color-interpolation-filters="sRGB"
       id="filter4075">
      <feGaussianBlur
         stdDeviation="2.8270455"
         id="feGaussianBlur4077" />
    </filter>
    <clipPath
       id="clipPath4083">
      <path
         d="m 515.87,745.01 c 15.602,15.625 19.169,37.385 19.169,37.385 0,0 -21.729,-3.5724 -37.33,-19.197 -15.602,-15.625 -19.169,-37.385 -19.169,-37.385 0,0 21.729,3.5724 37.33,19.197 z"
         inkscape:connector-curvature="0"
         id="path4085"
         style="color:#000000;fill:#729fcf;fill-rule:evenodd;enable-background:new" />
    </clipPath>
    <filter
       x="-0.12009"
       y="-0.11991"
       width="1.2402"
       height="1.2398"
       color-interpolation-filters="sRGB"
       id="filter4087">
      <feGaussianBlur
         stdDeviation="2.8270455"
         id="feGaussianBlur4089" />
    </filter>
    <clipPath
       id="clipPath4157">
      <path
         d="m 269.47,688.53 c 15.602,15.625 19.169,37.385 19.169,37.385 0,0 -21.729,-3.5724 -37.33,-19.197 -15.602,-15.625 -19.169,-37.385 -19.169,-37.385 0,0 21.729,3.5724 37.33,19.197 z"
         inkscape:connector-curvature="0"
         id="path4159"
         style="color:#000000;fill:#f57900;fill-rule:evenodd;enable-background:new" />
    </clipPath>
    <filter
       x="-0.12009"
       y="-0.11991"
       width="1.2402"
       height="1.2398"
       color-interpolation-filters="sRGB"
       id="filter4161">
      <feGaussianBlur
         stdDeviation="2.8270453"
         id="feGaussianBlur4163" />
    </filter>
    <linearGradient
       inkscape:collect="always"
       xlink:href="#linearGradient3977"
       id="linearGradient3774"
       gradientUnits="userSpaceOnUse"
       x1="184.46346"
       y1="711.15393"
       x2="184.46346"
       y2="804.79529" />
    <linearGradient
       inkscape:collect="always"
       xlink:href="#linearGradient3977"
       id="linearGradient3792"
       gradientUnits="userSpaceOnUse"
       x1="184.46346"
       y1="711.15393"
       x2="184.46346"
       y2="804.79529" />
    <linearGradient
       inkscape:collect="always"
       xlink:href="#linearGradient3977"
       id="linearGradient3815"
       gradientUnits="userSpaceOnUse"
       x1="184.46346"
       y1="711.15393"
       x2="184.46346"
       y2="804.79529" />
  </defs>
  <sodipodi:namedview
     pagecolor="#ffffff"
     bordercolor="#666666"
     borderopacity="1"
     objecttolerance="10"
     gridtolerance="10"
     guidetolerance="10"
     inkscape:pageopacity="0"
     inkscape:pageshadow="2"
     inkscape:window-width="1440"
     inkscape:window-height="846"
     id="namedview4"
     showgrid="false"
     inkscape:zoom="2.1242266"
     inkscape:cx="172.04792"
     inkscape:cy="5.7006087"
     inkscape:window-x="0"
     inkscape:window-y="25"
     inkscape:window-maximized="1"
     inkscape:current-layer="svg2"
     fit-margin-top="-0.5"
     fit-margin-left="0"
     fit-margin-right="0"
     fit-margin-bottom="0" />
  <g
     transform="matrix(0.99251545,0,0,0.99251545,1.9645087,4.9851828)"
     id="layer4" />
  <g
     id="g3794"
     transform="translate(270.2966,-36.967293)">
    <g
       transform="matrix(0.96741232,-0.18961018,0.18961018,0.96741232,-24.953814,-38.688224)"
       id="g3756">
      <path
         inkscape:connector-curvature="0"
         style="opacity:0.1;color:#000000;fill:#f9f9f9;fill-rule:evenodd;enable-background:new"
         id="path3975"
         d="m -256.85568,56.465629 c -0.0648,0.135714 -0.0455,0.139639 -0.0509,0.169067 -10e-4,0.0073 -0.0221,0.03178 -0.0219,0.03672 0.002,-0.0023 -0.006,0.01261 -0.0219,0.03672 -0.008,0.01147 0.0238,0.04305 0.0149,0.05868 -0.004,0.0056 -0.0531,0.0048 -0.0587,0.01475 -0.009,0.01567 0.01,0.05744 -0.007,0.09551 -0.007,0.01718 -0.0167,0.02531 -0.0219,0.03672 -0.005,0.01129 -0.0219,0.03658 -0.0219,0.03672 -0.0225,0.06447 -0.0417,0.136612 -0.0509,0.169067 -0.0443,0.128679 -0.0621,0.168742 -0.0729,0.205844 0.0349,-0.120717 -0.004,-0.0089 -0.0219,0.03672 -0.0176,0.04565 -0.0192,-0.021 -0.0729,0.205843 -0.0685,0.290537 -0.041,0.28047 -0.043,0.323393 -0.006,0.03782 0.0155,0.04273 0.0149,0.05868 0.0129,-0.03765 0.008,-0.14147 -0.029,0.132233 -0.0169,0.02566 -0.0172,9.16e-4 -0.0359,0.227877 -0.0177,0.212883 -0.0148,0.134588 -0.014,0.191101 8.5e-4,0.05651 -0.01,0.18658 -0.007,0.09551 -0.004,0.108681 0.0419,0.148035 0.0448,0.176229 0.004,-0.04278 -0.0247,-0.131172 -0.0219,0.03672 -0.007,0.02494 -0.0139,0.02346 9e-4,0.24984 0.0115,0.175133 -0.003,0.213769 9.1e-4,0.24984 -0.002,-0.01752 0.025,0.06965 0.0299,0.117549 0.005,0.0479 -0.0119,0.03329 0.008,0.154266 0.0248,0.14914 0.0342,0.136875 0.0448,0.176229 0.0106,0.03936 0.028,0.118822 0.0149,0.05868 0.0265,0.121904 0.0456,0.182437 0.0598,0.235098 0.07,0.259164 0.0774,0.212906 0.0967,0.257096 0.009,0.0398 0.009,0.0067 0.0817,0.198263 0.0423,0.111041 0.0595,0.172054 0.0967,0.257096 0,0 2.92824,6.002974 8.75692,11.306189 -7.09937,3.396983 -11.63248,8.268903 -11.63248,8.268903 a 1.0601192,1.0571039 30.814646 0 0 -0.0219,0.03672 c -0.0253,0.02896 -0.0946,0.03978 -0.22732,0.213435 -0.12188,0.159544 -0.10786,0.178852 -0.13161,0.220656 -0.0238,0.04183 -0.0755,0.115809 -0.0219,0.03672 -0.12883,0.191831 -0.14216,0.238123 -0.15355,0.257432 0.009,-0.01452 -0.0498,0.05472 -0.15356,0.257432 -0.0981,0.191567 -0.0523,0.151019 -0.0729,0.205844 -0.008,0.02188 -0.0143,0.01589 -0.0219,0.03672 -0.0258,0.0406 -0.0273,0.01466 -0.13867,0.316171 -0.10626,0.287601 -0.046,0.204843 -0.0578,0.264653 -0.0118,0.0598 -0.0724,0.203468 -0.0219,0.03672 0.0236,-0.07797 -0.004,-0.0089 -0.0219,0.03672 -0.0176,0.04565 -0.0291,0.02191 -0.0729,0.205843 -0.0342,0.143528 -0.0284,0.176681 -0.0359,0.227877 -0.008,0.05121 -0.0128,0.129083 -0.007,0.09552 -0.0122,0.06899 -0.0397,0.107929 -0.0578,0.264653 0.009,-0.07748 0.0238,0.0078 0.0149,0.05868 -0.009,0.05105 -0.0251,0.03672 -0.0359,0.227877 -0.0133,0.241746 -0.006,0.342037 -0.006,0.345426 0,-6.51e-4 -0.007,0.03945 -0.007,0.09552 -1.6e-4,0.05607 0.0149,0.08949 0.0228,0.213065 0.01,0.15163 0.0305,0.212572 0.0378,0.271874 0.0308,0.247123 0.0234,0.219413 0.0378,0.271874 0.0239,0.128963 0.0459,0.18246 0.0598,0.235097 0.0139,0.05264 0.0176,0.06971 0.0149,0.05868 0.006,0.02375 0.0478,0.111339 0.1116,0.315871 -0.0316,-0.10132 -0.0347,-0.0159 -0.0219,0.03672 0.0126,0.05297 0.0168,0.0464 0.0967,0.257096 0.0363,0.09583 0.052,0.157523 0.0967,0.257096 0.061,0.135945 0.0546,0.149053 0.0817,0.198263 0.0271,0.04921 0.0638,0.103816 0.0519,0.08071 0.0248,0.0475 0.034,0.113122 0.13354,0.279095 0.11035,0.183733 0.14514,0.16491 0.17741,0.205543 0.0323,0.04062 0.0938,0.105281 0.0368,0.02196 0.009,0.03242 -0.0523,0.03946 0.13354,0.279095 0.19413,0.250455 0.21355,0.217843 0.25117,0.249539 0.0165,0.02867 -10e-4,0.03975 0.14054,0.183544 0.14661,0.148721 0.19398,0.163892 0.19938,0.168708 0.0979,0.08806 0.17496,0.134355 0.27315,0.212705 -0.0857,-0.06832 -0.0577,0.0031 -0.0219,0.03672 0.0356,0.03398 0.0221,0.04367 0.19938,0.168708 0.13282,0.09358 0.1344,0.0808 0.18441,0.109992 0.05,0.02917 0.1407,0.08463 0.11058,0.06596 0.0516,0.032 0.0884,0.06072 0.22129,0.13199 -0.0787,-0.04215 0.0245,0.01364 0.0738,0.044 0.0493,0.03035 0.0256,0.04079 0.22128,0.131991 0.12569,0.05853 0.1377,0.04256 0.16943,0.05128 0.007,0.0012 0.0282,0.01842 0.0368,0.02196 a 1.0601192,1.0571039 30.814646 0 0 0.0587,-0.01475 1.0601192,1.0571039 30.814646 0 0 0.0738,0.044 c 0,0 6.34337,2.168427 14.22497,1.803529 -2.60393,7.432969 -2.32258,14.121154 -2.32258,14.121154 -0.0158,-0.1753 -0.021,-0.0189 -0.0219,0.0367 -0.001,0.0561 -0.0282,0.0137 0.0159,0.30865 0.0298,0.19973 0.0455,0.18255 0.0598,0.2351 0.0143,0.0525 0.032,0.13972 0.0149,0.0587 0.0345,0.16371 0.0557,0.22424 0.0747,0.29387 0.0581,0.21256 0.0773,0.21303 0.0967,0.2571 0.0122,0.0531 -0.0278,0.0413 0.0747,0.29387 0.009,0.0214 0.0157,0.0869 0.0967,0.2571 0.0897,0.18879 0.13733,0.20923 0.15552,0.24225 -0.008,-0.0161 0.0405,0.0899 0.0667,0.13952 0.0262,0.0496 0.0286,0.0422 0.10365,0.16154 0.094,0.14923 0.10841,0.14285 0.14053,0.18355 0.0322,0.0407 0.0513,0.10976 0.0149,0.0587 0.074,0.10347 0.11415,0.12712 0.17741,0.20554 -0.0311,-0.0385 0.0208,0.0392 0.0519,0.0807 0.031,0.0416 0.0306,0.0628 0.14053,0.18355 0.11955,0.1313 0.12549,0.11442 0.16251,0.14671 0.0373,0.0318 0.0869,0.0708 0.0368,0.022 0.11021,0.10754 0.11732,0.10923 0.1625,0.14671 0.0449,0.0379 0.12995,0.0823 0.11059,0.066 -0.0272,-0.0242 -0.0214,0.0252 0.0149,0.0587 0.0364,0.0329 0.0482,0.0589 0.1625,0.14671 -0.0801,-0.0621 0.0297,0.005 0.0738,0.044 0.0441,0.0391 0.009,0.0397 0.19939,0.1687 0.17412,0.11822 0.22039,0.13146 0.22128,0.132 9e-4,5.3e-4 0.0345,0.0349 0.22129,0.13199 0.2039,0.10566 0.18822,0.0746 0.24319,0.0953 0.0553,0.0202 0.16641,0.0849 0.0738,0.044 0.13158,0.0587 0.15984,0.0574 0.2063,0.0733 0.0462,0.0164 0.0928,-0.002 0.0587,-0.0148 -0.0235,-0.009 0.0559,0.0445 0.11058,0.066 0.0547,0.0215 0.0593,0.0274 0.20631,0.0733 -0.0667,-0.0208 -0.009,0.004 0.0368,0.022 0.0457,0.0177 0.0343,0.03 0.2063,0.0733 0.15855,0.0394 0.17694,0.029 0.22828,0.0364 0.0514,0.008 0.14433,0.0164 0.0957,0.007 0.0991,0.0184 0.13891,0.0425 0.26516,0.0584 -0.0622,-0.008 0.008,-0.0236 0.0587,-0.0148 0.0511,0.009 0.0523,0.0248 0.22828,0.0364 0.14065,0.009 0.13525,0.0149 0.19139,0.0144 0.0561,-5e-4 0.17242,-0.007 0.15446,-0.008 0.0377,3.3e-4 0.0784,0.0324 0.28706,0.0217 0.18819,-0.01 0.24915,-0.0346 0.27215,-0.0371 0.27049,-0.03 0.24157,-0.0594 0.29408,-0.0739 0.048,-0.004 0.0575,0.0128 0.27215,-0.0371 0.0703,-0.0163 0.13366,-0.0264 0.29408,-0.0739 -0.0793,0.0235 0.006,-0.003 0.0587,-0.0148 0.053,-0.0124 0.0454,0.01 0.23527,-0.0591 0.28054,-0.10137 0.23028,-0.10502 0.27914,-0.13266 0.0488,-0.0277 0.18368,-0.10621 0.0219,-0.0367 a 1.0601192,1.0571039 30.814646 0 0 0.0368,0.022 c 0,0 5.95932,-2.97361 11.24777,-8.797534 3.42553,7.111404 8.34751,11.662474 8.34751,11.662474 a 1.0601192,1.0571039 30.814646 0 0 0.0738,0.044 1.0601192,1.0571039 30.814646 0 0 0.0519,0.0807 c 0.023,0.0233 0.0143,0.042 0.12562,0.12471 0.17322,0.12885 0.17115,0.10306 0.22129,0.13199 0.0501,0.0289 0.14826,0.0932 0.0738,0.044 0.12584,0.083 0.1686,0.10177 0.22128,0.132 -0.0306,-0.0176 0.0612,0.0358 0.11059,0.066 0.0494,0.0301 0.039,0.0376 0.1844,0.10999 0.19429,0.0966 0.19661,0.0798 0.24319,0.0953 0.0468,0.0151 0.12279,0.006 0.0219,-0.0367 0.11563,0.0492 0.19293,0.095 0.31695,0.13927 0.007,0.002 0.0428,0.0367 0.24318,0.0953 0.22813,0.0663 0.21377,0.0514 0.26516,0.0584 0.0513,0.007 0.1798,0.0128 0.0587,-0.0148 0.0235,0.0172 0.0133,0.0571 0.24319,0.0953 0.3353,0.0556 0.28972,0.009 0.34591,0.007 0.0511,0.009 0.051,0.0486 0.26516,0.0584 0.19336,0.009 0.25537,-0.0144 0.30903,-0.0151 -0.026,4.4e-4 0.0395,0.007 0.0957,0.007 0.0562,4.9e-4 0.0647,-0.0113 0.2133,-0.0223 0.10879,-0.008 0.17064,-0.0235 0.27214,-0.0371 0.22329,-0.0299 0.21963,-0.023 0.27215,-0.0371 0.0526,-0.0141 0.12605,-0.0571 0.0219,-0.0367 0.21027,-0.041 0.30727,-0.0458 0.33097,-0.0519 -0.0113,0.003 0.006,-10e-4 0.0587,-0.0148 0.0529,-0.0128 0.11045,-0.0188 0.23527,-0.0591 0.0531,-0.0122 0.0252,-0.006 0.2572,-0.0959 0.0557,-0.0217 0.1192,-0.0324 0.2572,-0.0959 0.11249,-0.0518 0.14907,-0.0544 0.19833,-0.0811 0.0493,-0.0268 0.0813,-0.0518 0.0807,-0.0516 0.003,-0.002 0.0947,-0.0429 0.30108,-0.16944 0.16344,-0.10018 0.14274,-0.10787 0.18344,-0.13988 0.0407,-0.032 0.12272,-0.0596 0.0587,-0.0148 0.1293,-0.0904 0.15049,-0.13318 0.20538,-0.17666 -0.0269,0.021 0.0392,-0.0206 0.0807,-0.0516 0.0415,-0.0309 0.0734,-0.0416 0.18345,-0.13988 0.1409,-0.12597 0.11435,-0.12493 0.1465,-0.16192 0.0318,-0.0372 0.0793,-0.0947 0.0219,-0.0367 -0.12269,0.12361 -0.0251,0.002 0.0219,-0.0367 0.047,-0.0388 0.003,0.0535 0.20537,-0.17666 0.21239,-0.24126 0.18935,-0.22999 0.21231,-0.27225 0.0148,-0.0167 0.007,-0.0191 0.0219,-0.0367 0.0389,-0.0438 0.0246,0.0154 0.14651,-0.16192 0.12903,-0.18763 0.16225,-0.27187 0.15355,-0.25743 0.0116,-0.0192 0.046,-0.053 0.15355,-0.25743 -0.0441,0.0846 -0.004,0.004 0.0219,-0.0367 0.0255,-0.0408 0.0491,-0.0376 0.13161,-0.22066 0.0898,-0.1993 0.0661,-0.2656 0.0798,-0.30143 a 1.0601192,1.0571039 30.814646 0 0 0.0219,-0.0367 c 0,0 2.1328,-6.30365 1.74839,-14.164486 7.4468,2.617526 14.14615,2.354833 14.14615,2.354833 -0.1755,0.0153 -0.0189,0.02096 0.0368,0.02196 0.0562,0.0013 0.0138,0.02815 0.30903,-0.01511 0.19993,-0.02929 0.18269,-0.045 0.23527,-0.05911 0.0526,-0.01411 0.13983,-0.03163 0.0587,-0.01475 0.16385,-0.03406 0.2244,-0.05506 0.29409,-0.07389 0.2127,-0.05747 0.21312,-0.07664 0.2572,-0.09589 0.0531,-0.01204 0.0414,0.02791 0.29408,-0.07389 0.0215,-0.0086 0.0869,-0.01552 0.25721,-0.09589 0.18882,-0.08909 0.20917,-0.136613 0.24219,-0.154696 -0.0161,0.0083 0.0899,-0.04019 0.13954,-0.06627 0.0496,-0.02608 0.0422,-0.02842 0.1615,-0.103108 0.14919,-0.09346 0.14277,-0.107903 0.18345,-0.139883 0.0406,-0.03192 0.10977,-0.05099 0.0587,-0.01475 0.10343,-0.07361 0.12713,-0.113609 0.20537,-0.176659 -0.0384,0.03086 0.0392,-0.02066 0.0807,-0.05159 0.0416,-0.03086 0.0628,-0.03037 0.18344,-0.139884 0.13118,-0.119058 0.11426,-0.125033 0.1465,-0.161917 0.0318,-0.0372 0.0707,-0.08659 0.0219,-0.03672 0.10741,-0.109796 0.10908,-0.116889 0.1465,-0.161917 0.0379,-0.04473 0.0821,-0.129564 0.0658,-0.110269 -0.0242,0.02708 0.0253,0.02146 0.0587,-0.01475 0.0328,-0.03626 0.0589,-0.04801 0.1465,-0.161917 -0.0619,0.07969 0.005,-0.02976 0.0439,-0.07355 0.0389,-0.04379 0.0398,-0.0093 0.16844,-0.198693 0.11794,-0.173591 0.13108,-0.219762 0.13161,-0.220656 5.4e-4,-8.95e-4 0.0349,-0.03438 0.13162,-0.220656 0.1053,-0.203359 0.0742,-0.187784 0.0948,-0.24262 0.02,-0.05506 0.0846,-0.165973 0.0439,-0.07355 0.0585,-0.131261 0.0571,-0.15948 0.0729,-0.205843 0.0163,-0.04612 -0.002,-0.0927 -0.0149,-0.05868 -0.009,0.02341 0.0444,-0.05568 0.0658,-0.110269 0.0214,-0.05459 0.0273,-0.05918 0.0729,-0.205844 -0.0206,0.06651 0.004,0.0089 0.0219,-0.03672 0.0176,-0.04565 0.03,-0.03414 0.0729,-0.205843 0.039,-0.158233 0.0285,-0.176622 0.0359,-0.227877 0.007,-0.05128 0.016,-0.143974 0.007,-0.09552 0.0183,-0.09885 0.0422,-0.138611 0.0579,-0.264653 -0.008,0.06207 -0.0237,-0.0078 -0.0149,-0.05868 0.009,-0.05093 0.0247,-0.05213 0.0359,-0.227877 0.009,-0.140437 0.0146,-0.135036 0.014,-0.191101 -6.4e-4,-0.05607 -0.008,-0.172199 -0.008,-0.154266 2.3e-4,-0.03768 0.0323,-0.07824 0.021,-0.286617 -0.0102,-0.188034 -0.0352,-0.2489 -0.0378,-0.271874 -0.0307,-0.270206 -0.0601,-0.241395 -0.0747,-0.293872 -0.004,-0.0479 0.0126,-0.0574 -0.0378,-0.271874 -0.0165,-0.07018 -0.0267,-0.133545 -0.0747,-0.293872 0.0237,0.07939 -0.003,-0.0063 -0.0149,-0.05868 -0.0126,-0.05297 0.009,-0.04528 -0.0598,-0.235097 -0.10221,-0.280414 -0.10574,-0.230234 -0.13355,-0.279095 -0.0278,-0.04883 -0.10681,-0.183693 -0.0368,-0.02196 a 1.0601192,1.0571039 30.814646 0 0 0.0219,-0.03672 c 0,0 -3.01166,-5.97733 -8.87455,-11.276633 7.13463,-3.395577 11.6913,-8.283681 11.6913,-8.283681 a 1.0601192,1.0571039 30.814646 0 0 0.0219,-0.03672 c 0.0312,-0.03614 0.10012,-0.04766 0.22731,-0.213436 0.12309,-0.160486 0.10789,-0.178838 0.13162,-0.220656 0.0237,-0.04184 0.0763,-0.117139 0.0219,-0.03672 0.132,-0.194482 0.14431,-0.241804 0.15355,-0.257432 -0.007,0.0118 0.0511,-0.05745 0.15355,-0.257433 0.0975,-0.190355 0.0523,-0.151031 0.0729,-0.205843 0.008,-0.02188 0.0144,-0.01601 0.0219,-0.03672 0.0307,-0.04884 0.0278,0.007 0.1606,-0.352948 0.0968,-0.262894 0.0653,-0.238417 0.0579,-0.264653 -0.0239,0.07955 0.004,0.0089 0.0219,-0.03672 0.0176,-0.04565 0.0289,-0.02038 0.0728,-0.205844 0.0176,-0.07436 0.0323,-0.173193 0.0649,-0.360168 0.0103,-0.05973 0.002,-0.120344 0.021,-0.286616 -0.009,0.08225 0.013,0.01414 0.0219,-0.03672 0.009,-0.05097 0.0475,-0.06897 0.0579,-0.264653 0.0118,-0.226269 -0.0157,-0.288763 -0.0159,-0.30865 -0.002,-0.17183 -0.0169,-0.165331 -0.0228,-0.213064 -0.006,-0.04773 -0.0195,-0.125065 -0.0149,-0.05868 -0.0107,-0.15558 -0.014,-0.151954 -0.0228,-0.213065 -0.009,-0.06118 -0.0326,-0.13817 -0.0299,-0.117548 0.005,0.03701 0.0115,-0.04771 0.007,-0.09552 -0.005,-0.04788 -0.0179,-0.03572 -0.0448,-0.176229 -0.0447,-0.233416 -0.0745,-0.292838 -0.0747,-0.293872 -2.6e-4,-0.001 -0.003,-0.0674 -0.0747,-0.293873 -0.0436,-0.136415 -0.0259,-0.132065 -0.0448,-0.176229 -0.019,-0.04435 -0.0653,-0.115667 -0.0519,-0.08071 0.008,0.01897 -0.009,-0.05956 -0.0299,-0.117549 -0.0213,-0.05799 -0.0168,-0.05642 -0.0818,-0.198263 0.0277,0.06057 0.002,-0.01458 -0.0149,-0.05868 -0.0176,-0.0448 -9.1e-4,-0.04649 -0.0817,-0.198263 -0.009,-0.01814 -0.0151,-0.08556 -0.13354,-0.279094 -0.10252,-0.167573 -0.14518,-0.164938 -0.17741,-0.205543 -0.0323,-0.04062 -0.0843,-0.08998 -0.0368,-0.02196 -0.0959,-0.137474 -0.11778,-0.194703 -0.15551,-0.24226 -0.11803,-0.14922 -0.17815,-0.229118 -0.22927,-0.286257 -0.10283,-0.115101 -0.0994,-0.105231 -0.12563,-0.12471 0.0148,0.02159 -0.0434,-0.02708 -0.0368,-0.02196 -0.0373,-0.03184 -0.096,-0.08073 -0.0368,-0.02196 -0.006,-0.02659 0.0335,-0.01992 -0.17742,-0.205543 -0.28869,-0.254049 -0.25932,-0.206693 -0.31002,-0.234703 -0.0167,-0.01472 -0.0191,-0.0066 -0.0368,-0.02196 -0.0439,-0.03898 0.0143,-0.02529 -0.1625,-0.146709 -0.18575,-0.127551 -0.26966,-0.160907 -0.25817,-0.153989 -0.0155,-0.0094 -0.049,-0.04521 -0.25816,-0.153989 0.0862,0.04506 0.004,0.0037 -0.0368,-0.02196 -0.0409,-0.0256 -0.0363,-0.04892 -0.22129,-0.131991 -0.19113,-0.08576 -0.25729,-0.06348 -0.30204,-0.08044 a 1.0601192,1.0571039 30.814646 0 0 -0.0368,-0.02196 c 0,0 -6.33528,-2.12473 -14.21003,-1.744754 2.61719,-7.428495 2.41828,-14.113936 2.41828,-14.113936 a 1.0601192,1.0571039 30.814646 0 0 -0.0368,-0.02196 c 0.0158,0.175304 0.021,0.01893 0.0219,-0.03672 0.001,-0.05611 0.0282,-0.01368 -0.0159,-0.30865 -0.0298,-0.199732 -0.0455,-0.182555 -0.0598,-0.235098 -0.0143,-0.05254 -0.032,-0.139723 -0.0149,-0.05868 -0.0345,-0.163709 -0.0557,-0.224239 -0.0747,-0.293873 -0.0581,-0.212563 -0.0773,-0.213033 -0.0967,-0.257096 -0.0122,-0.05306 0.0278,-0.04131 -0.0747,-0.293872 -0.009,-0.02144 -0.0157,-0.0869 -0.0967,-0.257097 -0.0897,-0.188796 -0.13732,-0.209232 -0.15551,-0.24226 0.008,0.01612 -0.0405,-0.08988 -0.0667,-0.139512 -0.0262,-0.04963 -0.0286,-0.04225 -0.10366,-0.161545 -0.094,-0.149224 -0.1084,-0.142843 -0.14053,-0.183545 -0.0322,-0.04074 -0.0513,-0.109759 -0.0149,-0.05868 -0.074,-0.103473 -0.11415,-0.127123 -0.17741,-0.205543 0.0311,0.0385 -0.0208,-0.0392 -0.0519,-0.08071 -0.031,-0.04163 -0.0306,-0.06275 -0.14054,-0.183544 -0.11955,-0.131299 -0.12549,-0.11442 -0.1625,-0.146709 -0.0373,-0.03184 -0.0869,-0.07081 -0.0368,-0.02196 -0.11022,-0.107542 -0.11732,-0.109228 -0.16251,-0.146709 -0.0449,-0.03794 -0.12994,-0.0823 -0.11058,-0.06596 0.0272,0.02419 0.0214,-0.02519 -0.0149,-0.05868 -0.0364,-0.03288 -0.0482,-0.05892 -0.16251,-0.14671 0.0801,0.06212 -0.0297,-0.0049 -0.0738,-0.044 -0.0441,-0.03905 -0.009,-0.03976 -0.19938,-0.168707 -0.17412,-0.118219 -0.22039,-0.131456 -0.22129,-0.131991 -9e-4,-5.35e-4 -0.0345,-0.03495 -0.22128,-0.13199 -0.2039,-0.105665 -0.18823,-0.07462 -0.24319,-0.09527 -0.0553,-0.02022 -0.16641,-0.0849 -0.0738,-0.044 -0.13159,-0.0587 -0.15984,-0.05737 -0.20631,-0.07328 -0.0462,-0.0164 -0.0928,0.0019 -0.0587,0.01475 0.0235,0.0092 -0.0559,-0.04449 -0.11058,-0.06596 -0.0547,-0.02147 -0.0593,-0.02741 -0.20631,-0.07327 0.0667,0.02077 0.009,-0.0042 -0.0368,-0.02196 -0.0458,-0.01772 -0.0343,-0.03001 -0.20631,-0.07328 -0.15854,-0.03936 -0.17693,-0.02895 -0.22827,-0.03644 -0.0514,-0.0075 -0.14433,-0.01636 -0.0957,-0.0073 -0.0991,-0.01842 -0.1389,-0.04249 -0.26515,-0.05844 0.0622,0.0079 -0.008,0.02365 -0.0587,0.01475 -0.0511,-0.009 -0.0522,-0.02479 -0.22827,-0.03644 -0.14065,-0.0094 -0.13526,-0.01494 -0.1914,-0.01444 -0.0561,4.99e-4 -0.17241,0.0074 -0.15445,0.0076 -0.0377,-3.25e-4 -0.0784,-0.03242 -0.28706,-0.02172 -0.1882,0.0096 -0.24915,0.03456 -0.27215,0.03711 -0.2705,0.03002 -0.24157,0.05943 -0.29408,0.07389 -0.048,0.0039 -0.0575,-0.01276 -0.27215,0.03711 -0.0703,0.01628 -0.13366,0.02638 -0.29409,0.07389 0.0793,-0.02353 -0.006,0.0026 -0.0587,0.01475 -0.053,0.01242 -0.0454,-0.0095 -0.23527,0.05911 -0.28053,0.101369 -0.23028,0.10502 -0.27914,0.132662 -0.0488,0.02768 -0.18367,0.106207 -0.0219,0.03672 a 1.0601192,1.0571039 30.814646 0 0 -0.0368,-0.02196 c 0,0 -5.99917,2.980054 -11.30658,8.812316 -3.40752,-7.109432 -8.28734,-11.674286 -8.28734,-11.674286 a 1.0601192,1.0571039 30.814646 0 0 -0.0368,-0.02196 c -0.0363,-0.03121 -0.048,-0.100098 -0.21429,-0.227541 -0.16101,-0.123323 -0.17935,-0.10819 -0.22129,-0.13199 -0.042,-0.02381 -0.11749,-0.07646 -0.0368,-0.02196 -0.19508,-0.132312 -0.24249,-0.14472 -0.25817,-0.153989 0.0118,0.007 -0.0576,-0.05114 -0.25816,-0.153989 -0.19086,-0.09789 -0.15137,-0.05263 -0.20631,-0.07327 -0.0219,-0.0083 -0.0161,-0.01437 -0.0368,-0.02196 -0.049,-0.03081 0.007,-0.02776 -0.35383,-0.161268 -0.26349,-0.09734 -0.2389,-0.06576 -0.26516,-0.05844 -0.12182,-0.03692 -0.0444,-0.02529 -0.0368,-0.02196 -0.0458,-0.01772 -0.0205,-0.02897 -0.2063,-0.07328 -0.0746,-0.01787 -0.17351,-0.03265 -0.36082,-0.06572 -0.0598,-0.01048 -0.12052,-0.0026 -0.28706,-0.02172 0.0824,0.0094 0.0141,-0.01295 -0.0368,-0.02196 -0.0511,-0.0091 -0.0692,-0.04765 -0.26516,-0.05844 -0.22661,-0.01231 -0.28912,0.01499 -0.30903,0.01511 -0.17206,0.0011 -0.16551,0.01647 -0.2133,0.02228 -0.0478,0.0058 -0.12518,0.01915 -0.0587,0.01475 -0.15576,0.01032 -0.15224,0.01354 -0.2133,0.02228 -0.0611,0.0089 -0.13827,0.03224 -0.11763,0.02955 0.037,-0.0047 -0.0477,-0.01153 -0.0957,-0.0073 -0.0481,0.0044 -0.0357,0.01778 -0.17636,0.04431 -0.23362,0.04401 -0.29305,0.07363 -0.29408,0.07389 -0.001,2.6e-4 -0.0674,0.0022 -0.29409,0.07389 -0.13649,0.0432 -0.13218,0.02551 -0.17635,0.04431 -0.0443,0.01873 -0.11566,0.06488 -0.0807,0.05159 0.019,-0.0077 -0.0595,0.0084 -0.11763,0.02956 -0.0581,0.0212 -0.0565,0.01658 -0.19833,0.08114 0.0606,-0.02753 -0.0146,-0.0023 -0.0587,0.01475 -0.0448,0.01746 -0.0465,7.92e-4 -0.19833,0.08114 -0.0181,0.009 -0.0856,0.01481 -0.27914,0.132663 -0.16754,0.101963 -0.16479,0.144573 -0.20537,0.176659 -0.0406,0.03211 -0.0899,0.08391 -0.0219,0.03672 -0.13742,0.09546 -0.19468,0.117133 -0.2422,0.154696 -0.14913,0.117496 -0.22899,0.177338 -0.28607,0.228249 -0.115,0.102398 -0.10513,0.09899 -0.12457,0.125141 0.0424,-0.02976 0.13536,-0.106483 -0.0439,0.07355 -0.0266,0.006 -0.02,-0.03349 -0.20538,0.176659 -0.25367,0.28767 -0.20632,0.258456 -0.23424,0.309021 -0.0147,0.0166 -0.007,0.01906 -0.0219,0.03672 -0.0389,0.0438 -0.0254,-0.01436 -0.1465,0.161917 -0.12726,0.185186 -0.16045,0.26889 -0.15355,0.257433 -0.009,0.0155 -0.0452,0.04886 -0.15356,0.257432 0.0449,-0.08602 0.004,-0.0042 -0.0219,0.03672 -0.0255,0.04077 -0.0489,0.0361 -0.13161,0.220656 -0.0854,0.190656 -0.0629,0.256782 -0.0798,0.30143 a 1.0601192,1.0571039 30.814646 0 0 -0.0219,0.03672 c 0,0 -2.136,6.33209 -1.73345,14.223256 -7.43682,-2.629976 -14.10227,-2.428386 -14.10227,-2.428386 a 1.0601192,1.0571039 30.814646 0 0 -0.0219,0.03672 c 0.14996,-0.01187 0.0189,-0.02096 -0.0368,-0.02196 -0.0562,-0.0013 -0.0389,-0.02336 -0.30903,0.01511 -0.19611,0.0279 -0.18269,0.045 -0.23527,0.05911 -0.0526,0.01411 -0.13576,0.03071 -0.0587,0.01475 -0.15559,0.03229 -0.21656,0.05267 -0.29409,0.07389 -0.18526,0.05066 -0.1409,0.05891 -0.19832,0.08114 -0.0575,0.02216 -0.17133,0.04795 -0.11764,0.02956 -0.0532,0.01185 -0.0391,-0.0313 -0.29408,0.07389 -0.17744,0.07348 -0.17124,0.09073 -0.22027,0.11792 -0.049,0.02723 -0.14261,0.08189 -0.0807,0.05159 -0.12563,0.06148 -0.18678,0.08004 -0.27914,0.132662 0.0452,-0.02586 -0.0312,0.02556 -0.0807,0.05159 -0.0498,0.02582 -0.0154,0.0071 -0.16151,0.103107 -0.10577,0.0695 -0.14256,0.108103 -0.18344,0.139884 -0.0409,0.03178 -0.091,0.05918 -0.0807,0.05159 -0.11189,0.08404 -0.0788,0.08512 -0.12457,0.125141 -0.0458,0.04002 -0.10771,0.09259 -0.10259,0.08831 0.0753,-0.06424 -0.0167,-0.01632 -0.0587,0.01475 -0.0419,0.03054 -0.0529,0.0289 -0.20538,0.176659 -0.14186,0.137499 -0.10933,0.116772 -0.1465,0.161917 -0.0367,0.04544 -0.0904,0.124754 -0.0439,0.07355 -0.0944,0.103852 -0.13973,0.181416 -0.21231,0.272245 0.0641,-0.08002 -0.003,-0.05754 -0.0368,-0.02196 -0.0339,0.03544 -0.0478,0.02683 -0.16844,0.198693 -0.0853,0.121572 -0.0806,0.134091 -0.10968,0.18388 -0.0291,0.04981 -0.0773,0.129043 -0.0658,0.110269 -0.0171,0.02794 -0.0603,0.09855 -0.10968,0.183881 7.3e-4,-0.0012 -0.0295,0.04943 -0.0439,0.07355 -0.007,0.01212 -0.0223,0.03743 -0.0219,0.03672 a 1.0601192,1.0571039 30.814646 0 0 -0.0219,0.03672 z" />
      <path
         inkscape:connector-curvature="0"
         style="opacity:0.2;color:#000000;fill:#f9f9f9;fill-rule:evenodd;enable-background:new"
         id="path3971"
         d="m -255.88978,56.942037 c -0.0158,0.03189 -0.0371,0.136289 -0.0509,0.169068 -0.0109,0.02635 -0.0701,0.09875 -0.0878,0.147104 -0.004,0.012 -0.0196,0.03014 -0.0219,0.03672 -0.0188,0.04753 -0.0415,0.14181 -0.0509,0.169068 -0.012,0.03353 -0.0409,0.134835 -0.0509,0.169067 -0.009,0.03458 -0.0646,0.17112 -0.0729,0.205843 -0.008,0.03482 -0.008,0.155957 -0.014,0.191101 -0.006,0.03505 -0.009,0.155748 -0.014,0.191101 -0.005,0.03531 -0.0479,0.133493 -0.0509,0.169068 -0.003,0.03556 0.002,0.214197 9e-4,0.24984 -10e-4,0.0357 0.007,0.118614 0.008,0.154266 5.9e-4,0.03577 -0.0164,0.155428 -0.014,0.191101 0.002,0.03572 0.0187,0.177582 0.0228,0.213065 0.004,0.03548 0.0171,0.177901 0.0228,0.213064 0.006,0.03525 0.0373,0.141409 0.0448,0.176229 0.008,0.03489 0.0356,0.141835 0.0448,0.176229 0.009,0.03447 0.0707,0.16437 0.0818,0.198263 0.011,0.03404 0.0321,0.142993 0.0448,0.17623 0.0127,0.03343 0.0674,0.16559 0.0817,0.198263 0,0 3.13641,6.642694 9.5912,12.003253 -7.72268,3.276638 -12.64595,8.712023 -12.64595,8.712023 -0.0275,0.03273 -0.14246,0.164534 -0.16844,0.198693 -0.0266,0.03378 -0.0854,0.148477 -0.10968,0.18388 -0.0243,0.03543 -0.10981,0.183674 -0.13161,0.220657 -0.0218,0.03695 -0.0901,0.145684 -0.10968,0.18388 -0.0196,0.03824 -0.0775,0.203357 -0.0948,0.242619 -0.0171,0.03942 -0.0951,0.14341 -0.10968,0.183881 -0.0145,0.04047 -0.0454,0.223597 -0.0579,0.264653 -0.0119,0.04141 -0.0628,0.164109 -0.0728,0.205843 -0.0104,0.04152 -0.0285,0.185594 -0.0359,0.227877 -0.007,0.04229 -0.031,0.185233 -0.0359,0.227877 -0.005,0.04267 -0.0335,0.185001 -0.0359,0.227877 -0.002,0.04292 7.5e-4,0.206909 9.1e-4,0.249841 1.9e-4,0.04287 -0.002,0.207041 9e-4,0.24984 0.003,0.04282 0.0175,0.170433 0.0228,0.213064 0.005,0.04258 0.052,0.192835 0.0598,0.235098 0.008,0.04234 0.0494,0.193377 0.0598,0.235098 0.0103,0.04173 0.047,0.194065 0.0598,0.235098 0.0128,0.041 0.0445,0.194884 0.0598,0.235098 0.0152,0.04019 0.0642,0.159058 0.0818,0.198263 0.0176,0.0392 0.0987,0.182201 0.11863,0.220261 0.0199,0.03821 0.0965,0.183422 0.11863,0.220261 0.0222,0.03685 0.11626,0.148004 0.14053,0.183545 0.0242,0.03553 0.0922,0.186318 0.11864,0.220261 0.0264,0.03409 0.13415,0.114323 0.1625,0.146709 0.0282,0.03275 0.11031,0.152911 0.14053,0.183544 0.0301,0.03074 0.13045,0.118016 0.16251,0.14671 0.032,0.02867 0.1657,0.141914 0.19938,0.168708 0.0338,0.02653 0.12726,0.122018 0.1625,0.146709 0.0354,0.02432 0.1847,0.109319 0.22129,0.13199 0.0366,0.02266 0.14676,0.08914 0.18441,0.109993 0.0376,0.02086 0.1824,0.113586 0.22128,0.13199 0.0389,0.01843 0.1663,0.05739 0.20631,0.07327 a 0.90517231,0.90259775 30.814646 0 0 0.0368,0.02196 c 0,0 6.96009,2.483469 15.32851,1.713855 -3.12813,7.779493 -2.72345,15.128554 -2.72345,15.128554 0.004,0.0425 -0.005,0.20773 9e-4,0.24984 0.006,0.0422 0.051,0.19341 0.0598,0.2351 0.009,0.0417 0.0485,0.19398 0.0598,0.2351 0.0112,0.0411 0.0681,0.15789 0.0818,0.19826 0.0137,0.0404 0.0438,0.19558 0.0598,0.2351 0.016,0.0395 0.0634,0.15974 0.0817,0.19826 0.0183,0.0385 0.0981,0.18294 0.11863,0.22026 0.0206,0.0373 0.0959,0.1842 0.11863,0.22027 0.0228,0.0361 0.11574,0.14881 0.14053,0.18354 0.0248,0.0347 0.11374,0.15033 0.14054,0.18354 0.0268,0.0332 0.11177,0.15203 0.14053,0.18355 0.0287,0.0315 0.13192,0.11697 0.1625,0.14671 0.0307,0.0295 0.1671,0.14083 0.19939,0.1687 0.0326,0.0274 0.12863,0.12077 0.1625,0.14671 0.0335,0.0264 0.16405,0.14476 0.19939,0.16871 0.0352,0.0242 0.14775,0.0881 0.1844,0.10999 0.0367,0.0219 0.14641,0.0905 0.18441,0.11 0.038,0.0195 0.20426,0.0778 0.24318,0.0953 0.0392,0.017 0.16644,0.0581 0.20631,0.0733 0.0396,0.0157 0.20249,0.0825 0.24319,0.0953 0.0405,0.013 0.16491,0.0629 0.2063,0.0733 0.0414,0.0103 0.18632,0.0286 0.22828,0.0364 0.0419,0.008 0.18594,0.0311 0.22827,0.0364 0.0423,0.005 0.18574,0.0336 0.22828,0.0364 0.0426,0.003 0.20756,-6.4e-4 0.25018,-2.7e-4 0.0427,3.9e-4 0.20758,0.002 0.25018,-2.8e-4 0.0426,-0.002 0.17098,-0.0177 0.21329,-0.0223 0.0423,-0.005 0.19325,-0.0519 0.23527,-0.0591 0.042,-0.007 0.17183,-0.0127 0.21329,-0.0223 0.0415,-0.01 0.19441,-0.047 0.23527,-0.0591 0.0409,-0.0122 0.19519,-0.0446 0.23527,-0.0591 0.0401,-0.0146 0.18123,-0.10104 0.22026,-0.11792 0,0 6.63446,-3.15879 11.98057,-9.606956 3.29947,7.729156 8.79162,12.673116 8.79162,12.673116 a 0.90517231,0.90259775 30.814646 0 0 0.0368,0.022 c 0.033,0.0276 0.12791,0.12112 0.16251,0.14671 0.0347,0.0255 0.18505,0.10878 0.22128,0.13199 0.0362,0.0232 0.14707,0.0886 0.18441,0.10999 0.0373,0.0214 0.18302,0.11236 0.22128,0.13199 0.0382,0.0196 0.16673,0.0564 0.20631,0.0733 0.0394,0.0171 0.20271,0.0807 0.24319,0.0953 0.0404,0.0145 0.16498,0.0612 0.2063,0.0733 0.0414,0.0119 0.18631,0.0269 0.22828,0.0364 0.0422,0.009 0.16389,0.0662 0.2063,0.0733 0.0425,0.007 0.20744,-0.005 0.25018,-2.8e-4 0.0428,0.004 0.18533,0.0344 0.22828,0.0364 0.043,0.002 0.20721,2.6e-4 0.25017,-2.8e-4 0.0431,-6.2e-4 0.2073,0.003 0.25018,-2.7e-4 0.0428,-0.003 0.17068,-0.0166 0.2133,-0.0223 0.0426,-0.006 0.19307,-0.0509 0.23526,-0.0591 0.0422,-0.008 0.19364,-0.0484 0.23527,-0.0591 0.0416,-0.0108 0.19436,-0.0459 0.23527,-0.0591 0.041,-0.0132 0.19523,-0.0435 0.23527,-0.0591 0.04,-0.0156 0.15944,-0.0632 0.19832,-0.0811 0.039,-0.0179 0.18242,-0.0977 0.22027,-0.11792 0.0378,-0.0202 0.18366,-0.0955 0.22026,-0.11793 0.0366,-0.0225 0.14827,-0.11526 0.18344,-0.13988 0.0352,-0.0247 0.14978,-0.11324 0.18344,-0.13989 0.0337,-0.0267 0.15148,-0.11123 0.18344,-0.13988 0.0316,-0.0289 0.11631,-0.13143 0.1465,-0.16192 0.0308,-0.0302 0.17703,-0.14443 0.20538,-0.17666 0.0287,-0.032 0.0831,-0.15011 0.10968,-0.18388 0.0265,-0.0338 0.14413,-0.1633 0.16844,-0.19869 0.0243,-0.0354 0.0875,-0.14713 0.10968,-0.18388 0.0222,-0.0367 0.11202,-0.18244 0.13161,-0.22066 0.0196,-0.0382 0.0926,-0.14444 0.10968,-0.18388 0.0171,-0.0394 0.0795,-0.20251 0.0948,-0.24262 0,0 2.4432,-6.91468 1.65583,-15.26675 7.79398,3.141255 15.15592,2.757689 15.15592,2.757689 0.0425,-0.0037 0.20802,0.0059 0.25017,-2.77e-4 0.0423,-0.0062 0.19354,-0.05045 0.23527,-0.05911 0.0417,-0.0087 0.19412,-0.04799 0.23527,-0.05911 0.0411,-0.01104 0.15793,-0.06761 0.19833,-0.08114 0.0404,-0.01355 0.19573,-0.04323 0.23526,-0.05911 0.0395,-0.01583 0.15992,-0.06289 0.19833,-0.08114 0.0385,-0.01818 0.18294,-0.09747 0.22026,-0.11792 0.0373,-0.02049 0.18421,-0.09529 0.22027,-0.117921 0.0361,-0.02267 0.14872,-0.115213 0.18344,-0.139883 0.0347,-0.02462 0.15025,-0.113205 0.18344,-0.139883 0.0332,-0.02664 0.15196,-0.111244 0.18344,-0.139884 0.0315,-0.02862 0.11681,-0.131445 0.1465,-0.161917 0.0295,-0.03061 0.14061,-0.166518 0.16844,-0.198693 0.0274,-0.03249 0.1206,-0.128157 0.1465,-0.161917 0.0263,-0.03343 0.14455,-0.163466 0.16844,-0.198693 0.0241,-0.03507 0.0879,-0.147327 0.10968,-0.18388 0.0218,-0.0366 0.0903,-0.145979 0.10968,-0.18388 0.0194,-0.03789 0.0774,-0.203792 0.0948,-0.24262 0.0169,-0.03906 0.0578,-0.166066 0.0729,-0.205843 0.0156,-0.03953 0.0821,-0.202011 0.0948,-0.242619 0.0129,-0.04047 0.0626,-0.164533 0.0729,-0.205844 0.0102,-0.04129 0.0282,-0.185993 0.0359,-0.227877 0.008,-0.04185 0.0307,-0.185608 0.0359,-0.227877 0.005,-0.04222 0.0331,-0.1854 0.0359,-0.227877 0.003,-0.04252 -0.001,-0.207284 -9.1e-4,-0.24984 2.9e-4,-0.04259 0.001,-0.20737 -9e-4,-0.249841 -0.002,-0.04254 -0.0181,-0.170797 -0.0228,-0.213064 -0.005,-0.0423 -0.0525,-0.193114 -0.0598,-0.235098 -0.007,-0.04199 -0.0132,-0.171627 -0.0228,-0.213064 -0.01,-0.04145 -0.0476,-0.194264 -0.0598,-0.235098 -0.0122,-0.04076 -0.0452,-0.195036 -0.0598,-0.235098 -0.0146,-0.04015 -0.10163,-0.181242 -0.11863,-0.220261 0,0 -3.1981,-6.65421 -9.6869,-12.010474 7.75789,-3.271497 12.70517,-8.726002 12.70517,-8.726002 0.0289,-0.03238 0.14215,-0.164286 0.16843,-0.198693 0.0268,-0.03414 0.0852,-0.148147 0.10968,-0.18388 0.0246,-0.03578 0.10958,-0.183365 0.13162,-0.220656 0.022,-0.03728 0.0899,-0.145355 0.10968,-0.183881 0.0197,-0.03848 0.0774,-0.202968 0.0948,-0.242619 0.0173,-0.03977 0.11689,-0.179868 0.13162,-0.220656 0.0147,-0.04082 0.0235,-0.186363 0.0359,-0.227877 0.0121,-0.04176 0.0628,-0.163745 0.0729,-0.205844 0.0105,-0.04176 0.0505,-0.221946 0.0579,-0.264653 0.007,-0.04267 0.031,-0.184833 0.0359,-0.227877 0.005,-0.04304 0.0336,-0.184625 0.0359,-0.227877 0.002,-0.0433 -6.4e-4,-0.206556 -9.1e-4,-0.24984 -4e-4,-0.04332 -0.02,-0.169866 -0.0228,-0.213064 -0.003,-0.04327 -0.0323,-0.228872 -0.0378,-0.271874 -0.006,-0.04303 -0.0148,-0.17052 -0.0228,-0.213065 -0.008,-0.04267 -0.0491,-0.193062 -0.0598,-0.235097 -0.0107,-0.04194 -0.0466,-0.193772 -0.0598,-0.235098 -0.0131,-0.04133 -0.0661,-0.157808 -0.0817,-0.198263 -0.0157,-0.04048 -0.0786,-0.217634 -0.0967,-0.257097 -0.0181,-0.03948 -0.0613,-0.160074 -0.0818,-0.198263 -0.0204,-0.03831 -0.096,-0.183279 -0.11863,-0.220261 -0.0227,-0.03701 -0.11567,-0.147972 -0.14053,-0.183544 -0.0249,-0.03557 -0.11361,-0.149459 -0.14053,-0.183544 -0.0269,-0.03407 -0.1485,-0.173139 -0.17742,-0.205543 -0.0293,-0.03185 -0.13164,-0.116175 -0.1625,-0.146709 -0.0306,-0.03103 -0.10794,-0.154847 -0.14053,-0.183545 -0.0325,-0.02895 -0.18709,-0.105207 -0.22129,-0.13199 -0.0342,-0.02681 -0.16357,-0.144152 -0.19938,-0.168708 -0.0358,-0.02453 -0.1472,-0.08759 -0.18441,-0.109992 -0.0372,-0.0224 -0.18263,-0.112128 -0.22129,-0.131991 -0.0387,-0.01989 -0.14455,-0.0926 -0.1844,-0.109992 -0.0399,-0.0174 -0.2026,-0.07984 -0.24319,-0.09527 0,0 -6.94861,-2.436289 -15.31356,-1.65508 3.13802,-7.774166 2.78226,-15.143329 2.78226,-15.143329 -0.004,-0.04247 0.005,-0.207729 -9e-4,-0.249841 -0.006,-0.04216 -0.051,-0.193403 -0.0598,-0.235097 -0.009,-0.04173 -0.0485,-0.193981 -0.0598,-0.235098 -0.0112,-0.04112 -0.0681,-0.157892 -0.0817,-0.198263 -0.0137,-0.04039 -0.0438,-0.195577 -0.0598,-0.235098 -0.016,-0.03951 -0.0635,-0.159742 -0.0817,-0.198263 -0.0183,-0.03852 -0.0981,-0.182941 -0.11864,-0.220262 -0.0206,-0.03734 -0.0959,-0.184196 -0.11863,-0.220261 -0.0228,-0.03609 -0.11574,-0.148813 -0.14053,-0.183544 -0.0247,-0.0347 -0.11374,-0.150329 -0.14053,-0.183544 -0.0268,-0.03319 -0.11178,-0.152032 -0.14054,-0.183545 -0.0287,-0.0315 -0.13191,-0.116976 -0.1625,-0.146709 -0.0307,-0.0295 -0.1671,-0.140833 -0.19939,-0.168708 -0.0326,-0.02743 -0.12863,-0.120763 -0.1625,-0.146709 -0.0335,-0.02639 -0.16405,-0.14476 -0.19938,-0.168708 -0.0352,-0.02418 -0.14775,-0.08813 -0.18441,-0.109992 -0.0367,-0.02189 -0.1464,-0.09052 -0.1844,-0.109992 -0.038,-0.01947 -0.20427,-0.0778 -0.24319,-0.09527 -0.0392,-0.01698 -0.16644,-0.05811 -0.20631,-0.07328 -0.0396,-0.01566 -0.20249,-0.08249 -0.24318,-0.09527 -0.0406,-0.01302 -0.16492,-0.06294 -0.20631,-0.07327 -0.0414,-0.01031 -0.18631,-0.02864 -0.22827,-0.03644 -0.0419,-0.0078 -0.18594,-0.03113 -0.22828,-0.03644 -0.0423,-0.0053 -0.18574,-0.03356 -0.22828,-0.03644 -0.0426,-0.0029 -0.20756,6.46e-4 -0.25017,2.78e-4 -0.0427,-3.9e-4 -0.20759,-0.0019 -0.25018,2.77e-4 -0.0426,0.0022 -0.17099,0.01768 -0.2133,0.02228 -0.0423,0.0047 -0.19324,0.05191 -0.23526,0.05911 -0.042,0.0072 -0.17183,0.01271 -0.2133,0.02228 -0.0415,0.0097 -0.19441,0.04702 -0.23527,0.05911 -0.0409,0.01217 -0.19519,0.04463 -0.23527,0.05911 -0.04,0.01456 -0.18123,0.101041 -0.22026,0.11792 0,0 -6.67703,3.165102 -12.03938,9.621724 -3.28742,-7.731384 -8.73281,-12.687892 -8.73281,-12.687892 -0.0325,-0.02895 -0.16486,-0.142374 -0.19938,-0.168708 -0.0343,-0.02681 -0.14857,-0.08542 -0.18441,-0.109992 -0.0359,-0.0246 -0.18389,-0.109892 -0.22128,-0.131991 -0.0374,-0.02209 -0.14578,-0.09014 -0.18441,-0.109992 -0.0386,-0.01982 -0.20344,-0.07779 -0.24319,-0.09527 -0.0399,-0.0174 -0.1804,-0.11718 -0.22128,-0.131991 -0.0409,-0.01483 -0.18668,-0.02391 -0.22828,-0.03644 -0.0418,-0.0122 -0.16412,-0.06311 -0.2063,-0.07328 -0.042,-0.01067 -0.22238,-0.05095 -0.26516,-0.05844 -0.0427,-0.0075 -0.18516,-0.03146 -0.22828,-0.03644 -0.0431,-0.005 -0.18496,-0.03406 -0.22827,-0.03644 -0.0434,-0.0024 -0.20684,1.22e-4 -0.25018,2.77e-4 -0.0434,2.93e-4 -0.17005,0.01951 -0.2133,0.02228 -0.0433,0.0029 -0.2291,0.03166 -0.27214,0.03711 -0.0431,0.0054 -0.17072,0.01433 -0.2133,0.02228 -0.0426,0.0081 -0.1932,0.04854 -0.23527,0.05911 -0.042,0.01055 -0.19392,0.04604 -0.23526,0.05911 -0.0414,0.01311 -0.15786,0.0656 -0.19833,0.08114 -0.0405,0.01558 -0.21773,0.07795 -0.25721,0.09589 -0.0395,0.01793 -0.16013,0.06084 -0.19832,0.08114 -0.0383,0.02023 -0.18329,0.09536 -0.22027,0.11792 -0.037,0.0226 -0.14788,0.115142 -0.18344,0.139883 -0.0356,0.02474 -0.14937,0.113086 -0.18344,0.139884 -0.034,0.02676 -0.173,0.147865 -0.20537,0.176659 -0.0318,0.02909 -0.11601,0.131174 -0.14651,0.161917 -0.031,0.0305 -0.15478,0.107402 -0.18344,0.139883 -0.0289,0.03238 -0.10488,0.186567 -0.13161,0.220657 -0.0268,0.03414 -0.14394,0.162983 -0.16844,0.198693 -0.0245,0.03566 -0.0873,0.146772 -0.10968,0.18388 -0.0223,0.0371 -0.11182,0.182107 -0.13161,0.220656 -0.0198,0.0386 -0.0924,0.144124 -0.10968,0.18388 -0.0173,0.03977 -0.0794,0.202125 -0.0948,0.24262 0,0 -2.44881,6.944975 -1.64088,15.325529 -7.78504,-3.152965 -15.13398,-2.794466 -15.13398,-2.794466 -0.0451,0.0035 -0.20537,-0.006 -0.25018,2.77e-4 -0.0449,0.0064 -0.19091,0.04992 -0.23526,0.05911 -0.0443,0.0091 -0.19159,0.04716 -0.23527,0.05911 -0.0436,0.01196 -0.21437,0.08121 -0.2572,0.09589 -0.0428,0.01466 -0.19344,0.04178 -0.23527,0.05911 -0.0419,0.01732 -0.17971,0.09795 -0.22026,0.11792 -0.0407,0.01993 -0.18097,0.09549 -0.22027,0.11792 -0.0393,0.02249 -0.18253,0.09302 -0.22026,0.11792 -0.0378,0.02482 -0.14724,0.112731 -0.18344,0.139884 -0.0362,0.02721 -0.17104,0.147251 -0.20538,0.176659 -0.0344,0.02944 -0.15092,0.108432 -0.18344,0.139884 -0.033,0.0312 -0.13806,0.165198 -0.16844,0.198693 -0.031,0.0332 -0.14017,0.163378 -0.16843,0.198693 -0.0289,0.03496 -0.12057,0.124876 -0.1465,0.161917 -0.0255,0.03731 -0.10802,0.182081 -0.13162,0.220656 -0.0236,0.03858 -0.11084,0.18046 -0.13161,0.220656 a 0.90517231,0.90259775 30.814646 0 0 -0.0219,0.03672 z" />
      <path
         style="color:#000000;fill:url(#linearGradient3815);fill-opacity:1;fill-rule:evenodd;enable-background:new"
         id="path3979"
         clip-path="url(#clipPath3983)"
         transform="matrix(0.7019474,-1.1768333,1.1801901,0.7039496,-1212.3375,-219.52633)"
         inkscape:connector-curvature="0"
         d="m 184.12,701.5 a 2.2363,2.2363 0 0 0 -1.4688,0.90625 c 0,0 -3.328,4.7671 -4.0312,11.156 -5.0181,-4.0229 -10.75,-5.0625 -10.75,-5.0625 a 2.2363,2.2363 0 0 0 -2.5938,2.5625 c 0,0 1.034,5.7649 5.0625,10.781 -6.3978,0.70283 -11.188,4.0312 -11.188,4.0312 a 2.2363,2.2363 0 0 0 0,3.625 c 0,0 4.7948,3.3031 11.188,4 -4.0285,5.0164 -5.0625,10.781 -5.0625,10.781 a 2.2363,2.2363 0 0 0 2.5938,2.5625 c 0,0 5.7319,-1.0396 10.75,-5.0625 0.70267,6.3934 4.0312,11.188 4.0312,11.188 a 2.2363,2.2363 0 0 0 3.625,0 c 0,0 3.3111,-4.8145 4,-11.219 5.0262,4.0467 10.781,5.0938 10.781,5.0938 a 2.2363,2.2363 0 0 0 2.5938,-2.5938 c 0,0 -1.0624,-5.7373 -5.0938,-10.75 6.397,-0.69632 11.219,-4 11.219,-4 a 2.2363,2.2363 0 0 0 0,-3.625 c 0,0 -4.8167,-3.329 -11.219,-4.0312 4.0313,-5.0127 5.0938,-10.75 5.0938,-10.75 a 2.2363,2.2363 0 0 0 -2.59,-2.6 c 0,0 -5.755,1.047 -10.781,5.0938 -0.69265,-6.3936 -4,-11.188 -4,-11.188 a 2.2363,2.2363 0 0 0 -2.16,-0.91 z" />
      <path
         style="color:#000000;fill:#d5be00;fill-rule:evenodd;enable-background:new"
         id="path3689"
         inkscape:connector-curvature="0"
         d="m -235.4686,62.671442 c 7.81872,4.663643 11.44693,12.987864 11.44693,12.987864 0,0 -9.04845,0.76296 -16.86717,-3.900683 -7.81872,-4.663643 -11.44692,-12.987863 -11.44692,-12.987863 0,0 9.04844,-0.762961 16.86716,3.900682 z" />
      <path
         style="color:#000000;fill:#edd400;fill-rule:evenodd;filter:url(#filter4173);enable-background:new"
         id="path4165"
         clip-path="url(#clipPath4169)"
         transform="matrix(0.21103047,-0.35379816,0.35385505,0.2110644,-577.6657,84.697155)"
         inkscape:connector-curvature="0"
         d="m 471.43,685.93 c 0,22.097 -12.842,40.01 -12.842,40.01 0,0 -12.842,-17.913 -12.842,-40.01 0,-22.097 12.842,-40.01 12.842,-40.01 0,0 12.842,17.913 12.842,40.01 z" />
      <path
         style="color:#000000;fill:#56aa07;fill-rule:evenodd;enable-background:new"
         id="path3693"
         inkscape:connector-curvature="0"
         d="m -211.07983,64.252039 c -4.65635,7.806487 -12.98174,11.420493 -12.98174,11.420493 0,0 -0.77601,-9.042734 3.88033,-16.849221 4.65635,-7.806489 12.98175,-11.420495 12.98175,-11.420495 0,0 0.77601,9.042734 -3.88034,16.849223 z" />
      <path
         style="color:#000000;fill:#ca0f0f;fill-rule:evenodd;enable-background:new"
         id="path3695"
         inkscape:connector-curvature="0"
         d="m -227.91102,92.46998 c -4.65635,7.80649 -12.98174,11.42049 -12.98174,11.42049 0,0 -0.77602,-9.04273 3.88033,-16.849218 4.65635,-7.806489 12.98174,-11.420493 12.98174,-11.420493 0,0 0.77601,9.042732 -3.88033,16.849221 z" />
      <path
         style="color:#000000;fill:#85b912;fill-rule:evenodd;enable-background:new"
         id="path3697"
         inkscape:connector-curvature="0"
         d="m -222.95558,58.414243 c 2.23625,8.817622 -1.08542,17.259371 -1.08542,17.259371 0,0 -6.94702,-5.854806 -9.1832,-14.672541 -2.23619,-8.817737 1.08514,-17.259541 1.08514,-17.259541 0,0 6.94701,5.854805 9.18319,14.672541 z" />
      <path
         style="color:#000000;fill:#ef2929;fill-rule:evenodd;filter:url(#filter4189);enable-background:new"
         id="path4177"
         clip-path="url(#clipPath4181)"
         transform="matrix(0.21103047,-0.35379816,0.35385505,0.2110644,-548.74091,68.372565)"
         inkscape:connector-curvature="0"
         d="m 348.71,698.73 c -22.064,0 -39.951,-12.861 -39.951,-12.861 0,0 17.887,-12.861 39.951,-12.861 22.064,0 39.951,12.861 39.951,12.861 0,0 -17.887,12.861 -39.951,12.861 z" />
      <path
         style="color:#000000;fill:#c96300;fill-rule:evenodd;enable-background:new"
         id="path3701"
         inkscape:connector-curvature="0"
         d="m -241.29167,74.528978 c 8.82118,-2.22218 17.27386,1.108334 17.27386,1.108334 0,0 -5.84947,6.933607 -14.67068,9.156154 -8.82027,2.22388 -17.27295,-1.106633 -17.27295,-1.106633 0,0 5.84951,-6.933592 14.67097,-9.155985 z" />
      <path
         style="color:#000000;fill:#65c808;fill-rule:evenodd;filter:url(#filter4137);enable-background:new"
         id="path4129"
         clip-path="url(#clipPath4133)"
         transform="matrix(0.21103047,-0.35379816,0.35385505,0.2110644,-586.10726,98.849656)"
         inkscape:connector-curvature="0"
         d="m 538.47,738.73 c -22.064,0 -39.951,-12.861 -39.951,-12.861 0,0 17.887,-12.861 39.951,-12.861 22.064,0 39.951,12.861 39.951,12.861 0,0 -17.887,12.861 -39.951,12.861 z" />
      <path
         style="color:#000000;fill:#afea2c;fill-rule:evenodd;filter:url(#filter4075);enable-background:new"
         id="path4067"
         clip-path="url(#clipPath4071)"
         transform="matrix(0.21103047,-0.35379816,0.35385505,0.2110644,-581.88732,91.774817)"
         inkscape:connector-curvature="0"
         d="m 515.87,706.72 c -15.602,15.625 -37.33,19.197 -37.33,19.197 0,0 3.5672,-21.76 19.169,-37.385 15.6018,-15.625 37.33,-19.197 37.33,-19.197 0,0 -3.5672,21.76 -19.169,37.385 z" />
      <path
         style="color:#000000;fill:#f57900;fill-rule:evenodd;filter:url(#filter4161);enable-background:new"
         id="path4153"
         clip-path="url(#clipPath4157)"
         transform="matrix(0.21103047,-0.35379816,0.35385505,0.2110644,-541.79036,24.551188)"
         inkscape:connector-curvature="0"
         d="m 269.47,688.53 c 15.602,15.625 19.169,37.385 19.169,37.385 0,0 -21.729,-3.5724 -37.33,-19.197 -15.602,-15.625 -19.169,-37.385 -19.169,-37.385 0,0 21.729,3.5724 37.33,19.197 z" />
      <path
         style="opacity:0.1;color:#000000;fill:#ffffff;fill-rule:evenodd;enable-background:new"
         id="path3705"
         inkscape:connector-curvature="0"
         d="m -220.52915,69.566918 c 3.48209,2.076965 4.62593,6.575176 2.55491,10.047294 -2.07101,3.472117 -6.57249,4.60306 -10.05457,2.526095 -3.48209,-2.076965 -4.62593,-6.575177 -2.55491,-10.047295 2.07101,-3.472118 6.57249,-4.603059 10.05457,-2.526094 z" />
      <path
         style="opacity:0.1;color:#000000;fill:#ffffff;fill-rule:evenodd;enable-background:new"
         id="path3707"
         inkscape:connector-curvature="0"
         d="m -216.28788,62.278902 c 7.4957,4.470972 9.95787,14.154233 5.49955,21.628726 -4.45832,7.474493 -14.14852,9.909214 -21.64422,5.438241 -7.4957,-4.470972 -9.95787,-14.154232 -5.49955,-21.628725 4.45832,-7.474494 14.14852,-9.909214 21.64422,-5.438242 z" />
      <path
         style="opacity:0.1;color:#000000;fill:#ffffff;fill-rule:evenodd;enable-background:new"
         id="path3906"
         inkscape:connector-curvature="0"
         d="m -244.59831,63.728416 c -0.70422,1.180646 -1.28348,2.39718 -1.76037,3.638329 1.52018,1.573282 3.33369,3.121391 5.46667,4.393648 1.43371,0.855168 2.9104,1.531901 4.36345,2.060329 -1.54321,0.08881 -3.14667,0.305983 -4.76456,0.713597 -2.44187,0.615185 -4.65236,1.592072 -6.57716,2.681704 0.177,2.877891 0.87896,5.704359 2.0685,8.332648 2.22658,0.05095 4.65768,-0.137419 7.11654,-0.757087 1.61489,-0.406857 3.12274,-0.967119 4.52086,-1.618435 -1.02379,1.150895 -1.99808,2.440586 -2.84985,3.868608 -1.29939,2.17846 -2.16758,4.452596 -2.75571,6.600238 1.04588,0.90721 2.18223,1.747563 3.4132,2.4818 1.2871,0.767716 2.6157,1.387342 3.97254,1.887405 1.60216,-1.533548 3.18028,-3.371843 4.47324,-5.539522 0.84981,-1.424722 1.51874,-2.892188 2.04438,-4.33671 0.0918,1.535439 0.32133,3.128315 0.72955,4.737814 0.61348,2.419176 1.58025,4.615918 2.66209,6.529212 2.89967,-0.215384 5.73692,-0.965221 8.36598,-2.205204 0.0319,-2.168089 -0.15916,-4.520626 -0.76341,-6.903556 -0.41012,-1.617231 -0.98095,-3.131299 -1.63607,-4.531388 1.15539,1.027447 2.45254,2.00521 3.88625,2.860378 2.0699,1.234639 4.22592,2.0827 6.27685,2.671307 0.87899,-1.020479 1.68678,-2.120677 2.40025,-3.316827 0.82176,-1.377698 1.48009,-2.813773 1.99306,-4.270904 -1.47516,-1.495397 -3.21966,-2.956948 -5.25107,-4.168629 -1.43377,-0.855202 -2.91037,-1.531907 -4.36345,-2.06033 1.54342,-0.08879 3.1464,-0.305942 4.76455,-0.713598 2.24961,-0.566756 4.30627,-1.436346 6.12168,-2.423072 -0.20135,-2.980545 -0.95725,-5.904172 -2.24309,-8.605717 -2.05017,-0.0038 -4.25378,0.201269 -6.48103,0.762423 -1.6102,0.405646 -3.1261,0.969514 -4.52087,1.618434 1.0238,-1.150896 1.99277,-2.431682 2.84443,-3.859505 1.17235,-1.965475 2.00066,-4.0095 2.58343,-5.967883 -1.11855,-1.00043 -2.34261,-1.903506 -3.67997,-2.701203 -1.28103,-0.764101 -2.60817,-1.392066 -3.95842,-1.891019 -1.45442,1.448152 -2.86964,3.154098 -4.04824,5.130042 -0.85545,1.434195 -1.52776,2.900651 -2.05506,4.354634 -0.091,-1.542168 -0.30345,-3.147308 -0.7136,-4.764556 -0.57448,-2.265243 -1.46384,-4.331963 -2.46219,-6.156967 -2.96388,0.138747 -5.8778,0.832204 -8.58131,2.040512 -0.0176,2.113522 0.18789,4.394674 0.77357,6.704821 0.41017,1.617487 0.98082,3.13114 1.63607,4.531388 -1.1554,-1.027486 -2.45247,-2.005177 -3.88624,-2.860379 -2.09443,-1.249266 -4.27688,-2.101369 -6.34977,-2.690658 -1.02455,1.133596 -1.96305,2.381842 -2.77554,3.744008 z" />
    </g>
    <text
       sodipodi:linespacing="125%"
       id="text3501"
       y="93.527237"
       x="-219.60516"
       style="font-size:40px;font-style:normal;font-weight:normal;line-height:125%;letter-spacing:0px;word-spacing:0px;fill:#000000;fill-opacity:1;stroke:none;font-family:Sans"
       xml:space="preserve"><tspan
         style="font-style:italic;font-variant:normal;font-weight:bold;font-stretch:normal;letter-spacing:0px;word-spacing:0px;baseline-shift:baseline;font-family:Century Schoolbook L;-inkscape-font-specification:Century Schoolbook L Bold Italic"
         y="93.527237"
         x="-219.60516"
         id="tspan3503"
         sodipodi:role="line">tribus</tspan></text>
  </g>
</svg>
