<?xml version="1.0" encoding="UTF-8" standalone="no"?>
<!-- Generator: Adobe Illustrator 15.0.0, SVG Export Plug-In . SVG Version: 6.00 Build 0)  -->

<svg
   xmlns:dc="http://purl.org/dc/elements/1.1/"
   xmlns:cc="http://creativecommons.org/ns#"
   xmlns:rdf="http://www.w3.org/1999/02/22-rdf-syntax-ns#"
   xmlns:svg="http://www.w3.org/2000/svg"
   xmlns="http://www.w3.org/2000/svg"
   xmlns:sodipodi="http://sodipodi.sourceforge.net/DTD/sodipodi-0.dtd"
   xmlns:inkscape="http://www.inkscape.org/namespaces/inkscape"
   version="1.1"
   id="Layer_1"
   x="0px"
   y="0px"
   width="400"
   height="400"
   viewBox="0 0 400 400"
   enable-background="new 0 0 200 200"
   xml:space="preserve"
   inkscape:version="0.48.3.1 r9886"
   sodipodi:docname="flat_earth.svg"><metadata
   id="metadata15"><rdf:RDF><cc:Work
       rdf:about=""><dc:format>image/svg+xml</dc:format><dc:type
         rdf:resource="http://purl.org/dc/dcmitype/StillImage" /><dc:title /></cc:Work></rdf:RDF></metadata><defs
   id="defs13">
	
	
</defs><sodipodi:namedview
   pagecolor="#ffffff"
   bordercolor="#666666"
   borderopacity="1"
   objecttolerance="10"
   gridtolerance="10"
   guidetolerance="10"
   inkscape:pageopacity="0"
   inkscape:pageshadow="2"
   inkscape:window-width="1366"
   inkscape:window-height="705"
   id="namedview11"
   showgrid="false"
   inkscape:zoom="0.013037281"
   inkscape:cx="-31814.274"
   inkscape:cy="-11260.924"
   inkscape:window-x="0"
   inkscape:window-y="28"
   inkscape:window-maximized="1"
   inkscape:current-layer="Layer_1" />

<g
   id="g3790"
   transform="matrix(0.44444445,0,0,0.44444445,-22.22221,66.666664)"><path
     transform="matrix(5.3639098,0,0,6.7048876,-2418.5713,-3672.7445)"
     d="m 628.0067,592.51471 c 0,37.06671 -37.56064,67.11522 -83.89403,67.11522 -46.33339,0 -83.89403,-30.04851 -83.89403,-67.11522 0,-37.06671 37.56064,-67.11522 83.89403,-67.11522 46.33339,0 83.89403,30.04851 83.89403,67.11522 z"
     sodipodi:ry="67.115219"
     sodipodi:rx="83.894028"
     sodipodi:cy="592.51471"
     sodipodi:cx="544.11267"
     id="path3763"
     style="fill:#33b5c2;fill-opacity:1;stroke:none"
     sodipodi:type="arc" /><g
     transform="translate(0,-200)"
     style="fill:#71e06a;fill-opacity:1"
     id="g3957"><path
       style="fill:#71e06a;fill-opacity:1;stroke:none"
       d="m 214.52901,153.26958 c 17.83887,-13.49471 81.21529,44.6692 88.5874,62.0372 7.37212,17.368 -43.34882,45.61707 -20.2737,66.80007 11.91799,10.94073 -65.56885,42.64315 -71.90916,57.52732 -5.46851,12.83757 3.38388,24.65435 9.58789,37.15307 3.49871,7.04858 19.38078,20.00748 21.57274,27.56518 4.8147,16.60071 -35.597,-18.67426 -51.5349,-11.98486 -44.24223,18.56922 -97.588176,46.24593 -86.291,59.9243 20.00654,24.22347 8.51599,25.26051 19.17578,56.32885 9.34925,27.24873 30.71212,-7.06266 59.9243,45.54248 13.01034,23.42894 71.20567,-16.81188 60.52356,-1.1985 -11.44597,16.72986 59.03393,-12.3864 74.90537,11.98487 13.91415,21.36575 47.60454,23.75527 55.99395,47.42536 6.40602,18.07412 -41.12177,39.57916 -40.70443,54.94239 1.12808,41.52677 2.9615,42.26516 -19.7221,55.71196 -33.16822,19.66207 -29.09915,-14.35506 -15.6655,28.59331 10.32605,33.01315 -6.73935,42.73436 -27.84136,93.77272 -6.76892,16.37163 21.11396,42.79872 1.79773,39.55005 -28.07604,-4.72194 -29.12847,-10.40429 -59.54833,-33.55762 -26.87249,-20.45334 -25.91529,-62.90178 -60.89952,-127.03953 -21.57275,-39.55004 -1.82563,-0.53243 -4.03609,-92.40253 -0.82825,-34.42336 34.1965,-50.36619 -28.55658,-96.11849 C 66.802011,497.32201 48.958356,487.34364 50.935653,463.67749 60.331322,351.22127 110.43563,232.01391 214.52901,153.26958 z"
       id="path3767"
       inkscape:connector-curvature="0"
       sodipodi:nodetypes="ssssssssssssssssssssssss" /><path
       style="fill:#71e06a;fill-opacity:1;stroke:none"
       d="m 700.13303,107.31662 c -22.32882,-1.32528 -135.86383,20.05035 -143.23594,37.41835 -7.37212,17.368 -22.75288,38.8374 -45.828,60.0204 -11.91799,10.94073 52.00953,47.7279 58.34984,62.61207 5.46851,12.83757 -76.26524,22.95943 -82.46925,35.45815 -3.49871,7.04858 -9.21128,33.56681 10.63065,37.73468 16.91567,3.55319 67.79909,-20.35171 78.65355,-6.90012 27.29308,33.82346 17.91941,24.95882 35.44354,27.72091 13.89176,2.18957 28.2037,-82.47351 63.87507,32.60004 8.52971,27.51629 -71.39009,-47.74063 -100.60227,4.86451 -13.01034,23.42894 -31.18246,-12.10289 -43.57441,2.19133 -10.06367,11.60852 -102.84046,14.31019 -69.82062,91.64589 10.01199,23.44907 3.24292,22.06035 33.83656,50.81519 13.97274,13.13292 41.12177,39.57916 40.70443,54.94239 -1.12808,41.52677 78.39443,88.02787 84.12888,111.64416 9.09821,37.46933 69.04218,-62.12399 52.95364,-118.86431 -8.80848,-31.06531 20.29866,-153.87582 97.33288,-41.82051 10.03616,14.59877 49.97179,-38.7637 37.61422,-53.96109 -20.16303,-24.79657 49.25742,52.12237 65.29985,24.48076 25.67594,-44.24049 21.42979,64.09641 56.41402,-0.0413 66.2463,-197.29031 -105.00846,-403.45069 -229.70664,-412.5615 z"
       id="path3767-5"
       inkscape:connector-curvature="0"
       sodipodi:nodetypes="csssssssssssssssssscc" /><path
       style="fill:#71e06a;fill-opacity:1;stroke:none"
       d="m 196.5737,483.0636 c 13.9728,13.13292 12.3582,-4.76481 62.2773,22.58325 -15.522,-29.00053 -54.9272,-27.15397 -62.2773,-22.58325 z"
       id="path3767-5-5-5-5"
       inkscape:connector-curvature="0"
       sodipodi:nodetypes="ccc" /><path
       style="fill:#71e06a;fill-opacity:1;stroke:none"
       d="m 288.85713,485.46058 c -8.00807,2.84636 -0.25501,12.15401 6.24808,9.10028 6.50308,-3.05372 1.75998,-11.94664 -6.24808,-9.10028 z"
       id="path3767-5-5-5-5-6"
       inkscape:connector-curvature="0"
       sodipodi:nodetypes="zzz" /><path
       style="fill:#71e06a;fill-opacity:1;stroke:none"
       d="m 315.70031,515.76219 c -8.00807,2.84636 -0.25501,12.15401 6.24808,9.10028 6.50308,-3.05372 1.75998,-11.94664 -6.24808,-9.10028 z"
       id="path3767-5-5-5-5-6-4"
       inkscape:connector-curvature="0"
       sodipodi:nodetypes="zzz" /><path
       style="fill:#71e06a;fill-opacity:1;stroke:none"
       d="m 322.47998,536.10118 c -8.00807,2.84636 -0.25501,12.15401 6.24808,9.10028 6.50308,-3.05372 1.75998,-11.94664 -6.24808,-9.10028 z"
       id="path3767-5-5-5-5-6-6"
       inkscape:connector-curvature="0"
       sodipodi:nodetypes="zzz" /><path
       style="fill:#71e06a;fill-opacity:1;stroke:none"
       d="m 466.07621,208.79621 c 3.7857,20.92308 -6.2183,44.37312 37.1091,48.3507 -15.522,-29.00053 6.1956,-48.72671 -37.1091,-48.3507 z"
       id="path3767-5-5-5-8"
       inkscape:connector-curvature="0"
       sodipodi:nodetypes="ccc" /><path
       style="fill:#71e06a;fill-opacity:1;stroke:none"
       d="m 860.12373,675.35101 c 1.89285,10.46154 -19.57698,-0.90281 -36.10409,29.68246 -16.52712,30.58526 2.39695,86.17098 24.06065,88.15977 9.18815,-9.41552 64.36735,-89.66272 70.67752,-124.17461 6.12691,-33.50961 -36.98173,6.14438 -58.63408,6.33238 z"
       id="path3767-5-5-5"
       inkscape:connector-curvature="0"
       sodipodi:nodetypes="cscsc" /></g><g
     id="g3785"><path
       style="fill:#2da6b1;fill-opacity:1;stroke:none"
       d="m 275.6518,-60.513 c 19.46946,19.82221 44.00662,24.83085 62.32127,43.1455 41.80087,41.80087 -35.82526,124.25458 -43.1455,146.2153 -4.18455,12.55365 13.89906,81.49705 -2.39697,81.49705 -7.6754,0 3.0473,26.14992 -4.79394,28.76367 -4.88137,1.62712 -50.2696,3.24051 -33.55761,14.38183 19.34033,12.89356 46.58028,7.97812 67.11522,16.77881 51.14134,21.91772 47.18564,70.40156 64.71824,105.46677 13.9288,27.8576 44.73679,38.37164 31.16064,79.10008 -9.80986,29.42957 -40.93975,48.70437 -47.93944,76.70311 -3.29687,13.1875 6.09718,35.74508 0,47.93944 -6.578,13.15601 -32.99009,56.26541 -23.96972,74.30614 9.14616,18.29233 132.21324,65.39065 155.80319,57.52733 20.80029,-6.93343 41.50449,-24.22171 62.32127,-31.16064 23.6516,-7.88386 53.09477,3.07551 76.70311,-4.79394 38.60373,-12.86791 109.7478,-35.44166 136.62741,-62.32128 2.49639,-2.49638 -0.67697,-18.18789 0,-21.57275 9.05148,-45.25736 -94.11618,-31.62094 -127.03952,-33.55761 -26.61818,-1.56577 -61.79817,-1.42361 -86.291,-9.58788 -25.28722,-8.42908 -7.36627,-50.4241 -11.98486,-52.73339 -8.11067,-4.05534 -52.27834,-21.11771 -45.54247,-14.38183 2.25989,2.25988 0,-6.39193 0,-9.58789 0,-23.56043 -34.30513,-42.99109 -40.74853,-62.32128 -3.22512,-9.67537 4.50301,-24.55159 0,-33.55761 -4.31998,-8.63996 -29.87539,-17.89053 -35.95458,-23.96972 -10.52709,-10.52709 4.03229,-37.47789 -2.39697,-50.33641 -14.15469,-28.30938 -16.7788,-27.64412 -16.7788,-69.5122 0,-26.83836 32.7058,-15.927 45.54247,-28.76366 4.46406,-4.46406 6.35365,-28.0709 11.98486,-35.95458 3.34886,-4.68841 15.17746,-12.98444 9.58789,-14.38184 -16.4775,-4.11937 -39.32244,-5.91656 -57.52734,-11.98486 -4.76787,-1.58929 4.16434,-23.46158 2.39698,-28.76366 -5.90042,-17.70126 -11.18587,-80.69807 -2.39698,-98.27586 0.094,-0.18789 111.46106,-97.67754 112.65769,-98.27586 22.66216,-11.33108 34.94136,9.21738 50.33642,-21.57275 0.29081,-0.58162 0.15728,-9.53546 0,-9.58789 C 450.66001,-159.5781 379.8053,-102.1744 275.6518,-60.513 z"
       id="path3981"
       inkscape:connector-curvature="0" /><path
       style="fill:#2da6b1;fill-opacity:1;stroke:none"
       d="m 932.42216,375.73593 c -47.56104,-18.19094 -97.48131,-15.17637 -131.83347,19.17578 -20.88858,20.88858 -63.17338,-13.52973 -88.68797,11.98486 -21.41364,21.41364 -10.10149,41.77573 -21.57274,64.71825 -2.39524,4.79046 -7.05131,38.49117 -2.39698,43.1455 38.205,38.205 84.84867,-48.57587 98.27586,-57.52734 20.88107,-13.92071 68.79246,7.91065 86.291,-9.58788 6.38618,-6.38618 11.53257,-22.5451 23.96972,-28.76367 19.78291,-9.89145 31.71419,-21.94356 35.95458,-43.1455 z"
       id="path3983"
       inkscape:connector-curvature="0" /><path
       style="fill:#2da6b1;fill-opacity:1;stroke:none"
       d="m 51.534901,339.18211 c 58.208989,26.02741 82.850079,56.19322 78.500839,104.26829 -2.62006,28.96134 -23.07131,69.06298 22.77123,119.8486 4.33769,4.80541 -3.96025,9.49669 -10.78637,7.79016 C 97.929645,514.29232 62.889446,437.18022 51.534901,339.18211 z"
       id="path3985"
       inkscape:connector-curvature="0"
       sodipodi:nodetypes="csscc" /></g><path
     sodipodi:nodetypes="zczcz"
     inkscape:connector-curvature="0"
     id="path2996"
     d="m 228.93352,325.39954 c 5.55053,290.93139 160.59714,402.69132 160.59714,402.69132 0,0 -297.22456,-35.05414 -321.19428,-397.89738 -23.96972,-362.84324 309.20942,-453.02773 309.20942,-453.02773 0,0 -154.1628,157.30239 -148.61228,448.23379 z"
     style="fill:#f1f3d0;fill-opacity:0.21561339;stroke:none" /></g></svg>