<?xml version="1.0" encoding="utf-8"?>
<!-- Generator: Adobe Illustrator 15.0.0, SVG Export Plug-In . SVG Version: 6.00 Build 0)  -->
<!DOCTYPE svg PUBLIC "-//W3C//DTD SVG 1.1//EN" "http://www.w3.org/Graphics/SVG/1.1/DTD/svg11.dtd">
<svg version="1.1" id="Layer_1" xmlns="http://www.w3.org/2000/svg" xmlns:xlink="http://www.w3.org/1999/xlink" x="0px" y="0px"
	 width="200px" height="200px" viewBox="0 0 200 200" enable-background="new 0 0 200 200" xml:space="preserve">
<circle fill="#666666" cx="100" cy="100" r="100"/>
<g enable-background="new    ">
	<path fill="#FFFFFF" d="M85.779,81.168c-1.2-1.248-2.688-1.872-4.464-1.872c-1.825,0-3.348,0.54-4.572,1.62
		c-1.224,1.08-2.196,2.4-2.916,3.96c-0.72,1.561-1.249,3.229-1.584,5.004c-0.336,1.776-0.529,3.36-0.576,4.752l0.144,0.145
		c1.392-2.017,3.024-3.456,4.896-4.32s4.032-1.296,6.48-1.296c2.16,0,4.271,0.468,6.336,1.404c2.063,0.936,3.816,2.195,5.256,3.779
		c1.343,1.537,2.328,3.289,2.952,5.256c0.623,1.969,0.936,3.96,0.936,5.977c0,2.592-0.421,5.004-1.26,7.235
		c-0.84,2.232-2.041,4.177-3.6,5.832c-1.561,1.656-3.42,2.952-5.58,3.889c-2.16,0.936-4.561,1.403-7.2,1.403
		c-3.792,0-6.937-0.756-9.432-2.268c-2.497-1.512-4.489-3.492-5.976-5.94c-1.489-2.447-2.52-5.22-3.096-8.315
		s-0.864-6.252-0.864-9.468c0-3.12,0.36-6.239,1.08-9.36c0.72-3.119,1.872-5.94,3.456-8.46c1.584-2.521,3.624-4.572,6.12-6.156
		c2.495-1.584,5.544-2.376,9.144-2.376c2.16,0,4.176,0.312,6.048,0.937s3.528,1.524,4.968,2.699c1.44,1.177,2.616,2.629,3.528,4.356
		c0.911,1.728,1.512,3.721,1.8,5.976h-9.72C87.747,83.881,86.979,82.417,85.779,81.168z M77.175,97.62
		c-1.033,0.504-1.884,1.188-2.556,2.052c-0.673,0.864-1.177,1.861-1.512,2.988c-0.336,1.128-0.504,2.316-0.504,3.563
		c0,1.152,0.18,2.293,0.54,3.42c0.36,1.129,0.888,2.137,1.584,3.024c0.695,0.889,1.548,1.597,2.556,2.124
		c1.008,0.528,2.16,0.792,3.456,0.792c1.248,0,2.34-0.264,3.276-0.792c0.936-0.527,1.739-1.224,2.412-2.088
		c0.672-0.864,1.176-1.848,1.512-2.952c0.335-1.104,0.504-2.232,0.504-3.384c0-1.199-0.156-2.364-0.468-3.492
		c-0.313-1.127-0.781-2.135-1.404-3.024c-0.624-0.887-1.429-1.607-2.412-2.159c-0.984-0.552-2.124-0.828-3.42-0.828
		C79.395,96.864,78.207,97.116,77.175,97.62z"/>
</g>
<g enable-background="new    ">
	<path fill="#FFFFFF" d="M102.809,85.236c0.982-3.336,2.314-6.013,3.996-8.028c1.68-2.016,3.636-3.456,5.867-4.32
		c2.232-0.863,4.596-1.296,7.092-1.296c2.545,0,4.933,0.433,7.164,1.296c2.232,0.864,4.2,2.305,5.904,4.32
		c1.703,2.016,3.048,4.692,4.032,8.028c0.983,3.336,1.476,7.452,1.476,12.348c0,5.04-0.492,9.252-1.476,12.636
		c-0.984,3.384-2.329,6.084-4.032,8.101c-1.704,2.016-3.672,3.456-5.904,4.319c-2.231,0.864-4.619,1.296-7.164,1.296
		c-2.496,0-4.859-0.432-7.092-1.296c-2.231-0.863-4.188-2.304-5.867-4.319c-1.682-2.017-3.014-4.717-3.996-8.101
		c-0.984-3.384-1.477-7.596-1.477-12.636C101.332,92.688,101.824,88.572,102.809,85.236z M111.7,102.804
		c0.096,2.041,0.396,4.009,0.899,5.904c0.505,1.896,1.309,3.517,2.412,4.86s2.688,2.016,4.752,2.016
		c2.112,0,3.732-0.672,4.861-2.016c1.127-1.344,1.943-2.964,2.447-4.86c0.504-1.896,0.803-3.863,0.9-5.904
		c0.096-2.039,0.144-3.779,0.144-5.22c0-0.864-0.013-1.908-0.036-3.132c-0.024-1.225-0.12-2.484-0.287-3.78
		c-0.17-1.296-0.409-2.579-0.721-3.852c-0.312-1.271-0.781-2.412-1.404-3.42c-0.624-1.009-1.416-1.824-2.375-2.448
		c-0.961-0.623-2.137-0.937-3.529-0.937s-2.555,0.313-3.491,0.937c-0.937,0.624-1.704,1.439-2.304,2.448
		c-0.602,1.008-1.069,2.148-1.404,3.42c-0.336,1.272-0.576,2.556-0.721,3.852c-0.144,1.296-0.229,2.556-0.252,3.78
		c-0.024,1.224-0.035,2.268-0.035,3.132C111.557,99.024,111.604,100.765,111.7,102.804z"/>
</g>
</svg>
