									<svg width="100px" height="100px" version="1.1" id="clock" xmlns="http://www.w3.org/2000/svg" xmlns:xlink="http://www.w3.org/1999/xlink" x="0px" y="0px" viewBox="0 0 100 100" enable-background="new 0 0 100 100" xml:space="preserve">
                                        <circle fill="#33495f" cx="50" cy="50" r="50"/>
                                        <path fill="#FFFFFF" d="M50,10c22.093,0,40,17.909,40,40c0,22.091-17.906,40-40,40c-22.091,0-40-17.909-40-40C10,27.909,27.91,10,50,10z"/>
                                        <path fill="#DAD9D9" d="M50,10.015c-11.806,0-22.413,5.119-29.733,13.254C27.352,16.896,36.723,13.015,47,13.015c22.085,0,39.986,17.902,39.986,39.985c0,10.277-3.881,19.646-10.254,26.729C84.871,72.41,89.988,61.805,89.988,50C89.988,27.917,72.086,10.015,50,10.015z"/>
                                        <path fill="none" d="M45.972,42.544c3.918-2.287,8.928-0.93,11.189,3.03c2.262,3.963,0.92,9.027-2.998,11.314c-3.918,2.286-8.928,0.93-11.189-3.031C40.713,49.896,42.054,44.832,45.972,42.544z"/>
                                        <path transform="rotate(315,50,50)"  id="hrs" fill="#33495f" d="M46,27c0-2.209,1.791-4,4-4l0,0c2.209,0,4,1.791,4,4v19c0,2.209-1.791,4-4,4l0,0c-2.209,0-4-1.791-4-4V27z"/>
                                        <path transform="rotate(90,50,50)" id="min" fill="#33495f" d="M49.996,19.988C51.652,19.99,52.998,21.209,53,23v24c0,1.789-1.333,3.002-2.988,3c-1.658-0.002-3.01-1.209-3.012-3V23C46.999,21.21,48.34,19.986,49.996,19.988z"/>
                                        <circle fill="#33495f" cx="50" cy="50" r="8"/>
                                        <path transform="rotate(225,50,50)" id="sec" fill="#E44D41" d="M52,24c0-1.104-0.896-2-2-2l0,0c-1.104,0-2,0.896-2,2v26c0,1.104,0.896,2,2,2l0,0c1.104,0,2-0.896,2-2V24z"/>
                                    </svg>