									<svg version="1.1" id="aligned" xmlns="http://www.w3.org/2000/svg" xmlns:xlink="http://www.w3.org/1999/xlink" x="0px" y="0px" width="100px" height="100px" viewBox="0 0 100 100" enable-background="new 0 0 100 100" xml:space="preserve">
                                        <clipPath id="iconmask">
                                        	<circle cx="50" cy="50" r="50"/>
                                        </clipPath>
										<g  clip-path="url(#iconmask)">
											<path id="bg" fill="#34495E" d="M100,50c0,6.67-1.306,13.093-3.676,18.999C61.5,68.999,32.5,69,3.677,69C1.306,63.094,0,56.67,0,50C0,22.386,22.386,0,50,0C77.613,0,100,22.386,100,50z"/>
											<g id="surface">
												<rect x="-1" y="70" fill="#D7DBDE" width="102" height="31"/>
												<path fill="#FFFFFF" d="M100,71v29H0V71H100 M102,69h-2H0h-2v2v29v2h2h100h2v-2V71V69L102,69z"/>
											</g>
											<g id="finger">
												<path fill-rule="evenodd" clip-rule="evenodd" fill="#DF9274" d="M-22.758-33.75c8.363-8.362,21.921-8.362,30.284,0l66.203,66.203c8.362,8.363,8.362,21.921,0,30.284c-4.034,4.033-9.441,6.262-14.729,6.262c-5.673,0-11.227-1.934-15.556-6.262L-22.758-3.465C-31.121-11.828-31.121-25.387-22.758-33.75z"/>
												<path opacity="0.3" fill-rule="evenodd" clip-rule="evenodd" fill="#FFFFFF" d="M61.215,19.844l12.5,12.5c6.195,6.195,7.804,15.227,4.856,22.91L61.275,37.958C56.276,32.959,56.259,24.87,61.215,19.844z"/>
												<path opacity="0.2" fill-rule="evenodd" clip-rule="evenodd" d="M46.456,14.131c-0.391,0.391-1.023,0.391-1.414,0c-0.391-0.39-0.391-1.022,0-1.415l4.502-4.5l1.414,1.414L46.456,14.131z M39.456,16.132c-0.391,0.391-1.023,0.391-1.414,0s-0.391-1.024,0-1.414l9.002-9.002l1.414,1.414L39.456,16.132z"/>
											</g>
										</g>
									</svg>