<svg version="1.1" id="spaceship" xmlns="http://www.w3.org/2000/svg" xmlns:xlink="http://www.w3.org/1999/xlink" x="0px" y="0px" width="100px" height="100px" viewBox="0 0 100 100" enable-background="new 0 0 100 100" xml:space="preserve">
                                        <circle id="bg" fill="#33495F" cx="50" cy="50" r="50"/>
                                        <g id="Stars" clip-path="url(#starmask)">
                                            <path id="star0" opacity="0.2" fill="#f6f8f8" enable-background="new    " d="M91,4.5c2.55-0.45,4.051-1.95,4.5-4.5c0.45,2.55,1.951,4.05,4.5,4.5c-2.549,0.451-4.05,1.95-4.5,4.5C95.051,6.45,93.55,4.951,91,4.5z" />
                                            <path id="star1" opacity="0.1" fill="#f6f8f8" enable-background="new    " d="M91,4.5c2.55-0.45,4.051-1.95,4.5-4.5c0.45,2.55,1.951,4.05,4.5,4.5c-2.549,0.451-4.05,1.95-4.5,4.5C95.051,6.45,93.55,4.951,91,4.5z" />
                                            <path id="star2" opacity="0.1" fill="#f6f8f8" enable-background="new    " d="M91,4.5c2.55-0.45,4.051-1.95,4.5-4.5c0.45,2.55,1.951,4.05,4.5,4.5c-2.549,0.451-4.05,1.95-4.5,4.5C95.051,6.45,93.55,4.951,91,4.5z" />
                                        </g>
                                        <clipPath id="starmask">
                                        	<circle cx="50" cy="50" r="50"/>
                                        </clipPath>
                                        <clipPath id="rocketmask2">
                                        	<path id="rocketmask1" d="M100,50c0,27.614-22.387,50-50,50C22.386,100,0,77.614,0,50S22.386,0,50,0c14.117,0,50,0,50,0S100,36.503,100,50z"/>
                                        </clipPath>
                                        <g id="rocket-maskgroup">
											<g id="rocket-raw" clip-path="url(#rocketmask2)">
												<path id="det7" fill="#E94B35" d="M100,0.1c-0.156,0.018-0.117,0.058-0.1-0.1C76.584,2.979,63.361,12.281,55.865,22.035c-0.268,0.349-0.528,0.698-0.782,1.047c-0.002,0.003-0.005,0.007-0.008,0.01C47.015,34.196,46.087,45.812,46,49h-1l-1,3l4,4l3-1v-1c1.152-0.021,3.741-0.111,7.066-0.773l0.002,0.002C58.797,53.047,59,53.305,59,57c0,4.062,0,6.609,0,9c0,1.809,0.943,2.497,1.945,1.494c2.423-2.428,3.003-3.023,8.5-8.528c4.16-4.167,4.676-6.595,2.957-11.059C83.953,41.369,96.432,27.888,100,0.1z"/>
												<path id="det6" fill="#C23824" d="M48,56l-4-4l1-3h2l4,4v2L48,56z M52,28c-1.718-0.69-2-1-4-1s-4.183,1.38-6.861,4.063c-4.254,4.259-4.85,4.839-8.516,8.508C31.425,40.771,33.263,41,36,41c5.233,0,9.297-0.125,10.791,1.42C48.764,44.46,52,28,52,28z"/>
												<path id="det5" fill="#C23824" d="M100,0C100.1,0,100,0,100,0c-0.639,4.973-1.566,9.579-2.721,13.678c-1.049-1.97-2.562-4.364-4.5-6.272c-2.151-2.12-4.812-3.632-6.826-4.585C91.979,1.091,96.783,0.412,100,0z"/>
												<path id="det4" opacity="0.3" fill="#FFFFFF" enable-background="new    " d="M72.402,47.907c1.719,4.463,1.312,6.788-2.854,10.954c-0.844,0.844-7.828,7.859-8.604,8.633C59.941,68.496,59.033,67.809,59,66c-0.01-0.521,0.003,0.021,0-0.652c3-3,9.689-8.938,11-11.348c0.768-1.411,0.352-3.654,0-5c-3.312,1.76-11.516,4.094-11.932,4.229l0,0C54.906,53.875,52.467,53.943,51,54v-0.656c0,0,29.975-9.663,49-53.344c0.014,0-0.064,0.008,0,0C96.406,28.047,83.953,41.369,72.402,47.907z"/>
												<g id="det3">
													<path fill="#FFFFFF" d="M77.5,28c-3.584,0-6.5-2.916-6.5-6.5s2.916-6.5,6.5-6.5s6.5,2.916,6.5,6.5S81.084,28,77.5,28z"/>
													<path fill="#C23824" d="M77.5,16c3.037,0,5.5,2.462,5.5,5.5S80.537,27,77.5,27S72,24.538,72,21.5S74.463,16,77.5,16 M77.5,14c-4.137,0-7.5,3.364-7.5,7.5s3.363,7.5,7.5,7.5s7.5-3.364,7.5-7.5S81.637,14,77.5,14L77.5,14z"/>
												</g>
												<path id="det2" fill="#D7DCDE" d="M44,52l4,4L13,92l-6-6L44,52z"/>
												<path id="det1" fill="#F7F7F7" d="M43.875,52l2,2L7.5,91.5l-3-3L43.875,52z"/>
											</g>
                                        </g>
                                    </svg>