<svg version="1.1" id="freefont" xmlns="http://www.w3.org/2000/svg" xmlns:xlink="http://www.w3.org/1999/xlink" x="0px" y="0px" width="100px" height="100px" viewBox="0 0 100 100" enable-background="new 0 0 100 100" xml:space="preserve">
<clipPath id="circlemask">
<circle cx="50" cy="50" r="50" id="groupmask"/>
</clipPath>
<circle id="bg" fill="#D7DBDE" cx="50" cy="50" r="50"/>
<g clip-path="url(#circlemask)" id="group">
<polygon id="shadow" fill-rule="evenodd" clip-rule="evenodd" fill="#BDC3C7" points="10.167,147.834 79,79 21,21 -52,94 "/>
<path fill-rule="evenodd" clip-rule="evenodd" fill="#ECF0F1" d="M-47.5,80c-3.033,0-5.5-2.468-5.5-5.5v-49c0-3.033,2.467-5.5,5.5-5.5h49C4.533,20,7,22.467,7,25.5v49C7,77.532,4.533,80,1.5,80H-47.5z"/>
<path fill="#8B9298" d="M1.25,21C3.735,21,6,23.015,6,25.5v49C6,76.985,3.985,79,1.5,79h-49c-2.485,0-4.5-2.015-4.5-4.5v-49c0-2.485,2.015-4.5,4.5-4.5H1 M1.5,19h-49c-3.584,0-6.5,2.916-6.5,6.5v49c0,3.584,2.916,6.5,6.5,6.5h49C5.084,81,8,78.084,8,74.5v-49C8,21.916,5.084,19,1.5,19L1.5,19z"/>
<path fill-rule="evenodd" clip-rule="evenodd" fill="#ECF0F1" d="M62.5,8C59.468,8,57,5.533,57,2.5v-49c0-3.033,2.468-5.5,5.5-5.5h49c3.032,0,5.5,2.467,5.5,5.5v49c0,3.033-2.468,5.5-5.5,5.5H62.5z"/>
<path fill="#8B9298" d="M111.25-51c2.485,0,4.75,2.015,4.75,4.5v49c0,2.485-2.015,4.5-4.5,4.5h-49C60.015,7,58,4.985,58,2.5v-49c0-2.485,2.015-4.5,4.5-4.5H111 M111.5-53h-49c-3.584,0-6.5,2.916-6.5,6.5v49C56,6.084,58.916,9,62.5,9h49c3.584,0,6.5-2.916,6.5-6.5v-49C118-50.084,115.084-53,111.5-53L111.5-53z"/>
<path fill-rule="evenodd" clip-rule="evenodd" fill="#ECF0F1" d="M-11.5,8C-14.533,8-17,5.533-17,2.5v-49c0-3.033,2.467-5.5,5.5-5.5h49c3.033,0,5.5,2.467,5.5,5.5v49C43,5.533,40.533,8,37.5,8H-11.5z"/>
<path fill="#8B9298" d="M37.25-51c2.485,0,4.75,2.015,4.75,4.5v49C42,4.985,39.985,7,37.5,7h-49C-13.985,7-16,4.985-16,2.5v-49c0-2.485,2.015-4.5,4.5-4.5H37 M37.5-53h-49c-3.584,0-6.5,2.916-6.5,6.5v49c0,3.584,2.916,6.5,6.5,6.5h49C41.084,9,44,6.084,44,2.5v-49C44-50.084,41.084-53,37.5-53L37.5-53z"/>
<path fill-rule="evenodd" clip-rule="evenodd" fill="#ECF0F1" d="M62.5,152c-3.032,0-5.5-2.468-5.5-5.5v-49c0-3.032,2.468-5.5,5.5-5.5h49c3.032,0,5.5,2.468,5.5,5.5v49c0,3.032-2.468,5.5-5.5,5.5H62.5z"/>
<path fill="#8B9298" d="M111.25,93c2.485,0,4.75,2.015,4.75,4.5v49c0,2.485-2.015,4.5-4.5,4.5h-49c-2.485,0-4.5-2.015-4.5-4.5v-49c0-2.485,2.015-4.5,4.5-4.5H111 M111.5,91h-49c-3.584,0-6.5,2.916-6.5,6.5v49c0,3.584,2.916,6.5,6.5,6.5h49c3.584,0,6.5-2.916,6.5-6.5v-49C118,93.916,115.084,91,111.5,91L111.5,91z"/>
<path fill-rule="evenodd" clip-rule="evenodd" fill="#ECF0F1" d="M-11.5,152c-3.033,0-5.5-2.468-5.5-5.5v-49c0-3.032,2.467-5.5,5.5-5.5h49c3.033,0,5.5,2.468,5.5,5.5v49c0,3.032-2.467,5.5-5.5,5.5H-11.5z"/>
<path fill="#8B9298" d="M37.25,93c2.485,0,4.75,2.015,4.75,4.5v49c0,2.485-2.015,4.5-4.5,4.5h-49c-2.485,0-4.5-2.015-4.5-4.5v-49c0-2.485,2.015-4.5,4.5-4.5H37 M37.5,91h-49c-3.584,0-6.5,2.916-6.5,6.5v49c0,3.584,2.916,6.5,6.5,6.5h49c3.584,0,6.5-2.916,6.5-6.5v-49C44,93.916,41.084,91,37.5,91L37.5,91z"/>
<path fill-rule="evenodd" clip-rule="evenodd" fill="#ECF0F1" d="M98.5,80c-3.032,0-5.5-2.468-5.5-5.5v-49c0-3.033,2.468-5.5,5.5-5.5h49c3.032,0,5.5,2.467,5.5,5.5v49c0,3.032-2.468,5.5-5.5,5.5H98.5z"/>
<path fill="#8B9298" d="M147.25,21c2.485,0,4.75,2.015,4.75,4.5v49c0,2.485-2.015,4.5-4.5,4.5h-49c-2.485,0-4.5-2.015-4.5-4.5v-49c0-2.485,2.015-4.5,4.5-4.5H147 M147.5,19h-49c-3.584,0-6.5,2.916-6.5,6.5v49c0,3.584,2.916,6.5,6.5,6.5h49c3.584,0,6.5-2.916,6.5-6.5v-49C154,21.916,151.084,19,147.5,19L147.5,19z"/>
<g id="button">
<path fill-rule="evenodd" clip-rule="evenodd" fill="#ECF0F1" d="M25.5,80c-3.033,0-5.5-2.468-5.5-5.5v-49c0-3.033,2.467-5.5,5.5-5.5h49c3.032,0,5.5,2.467,5.5,5.5v49c0,3.032-2.468,5.5-5.5,5.5H25.5z"/>
<path id="buttonstroke" fill="#8B9298" d="M74.25,21c2.485,0,4.75,2.015,4.75,4.5v49c0,2.485-2.015,4.5-4.5,4.5h-49c-2.485,0-4.5-2.015-4.5-4.5v-49c0-2.485,2.015-4.5,4.5-4.5H74 M74.5,19h-49c-3.584,0-6.5,2.916-6.5,6.5v49c0,3.584,2.916,6.5,6.5,6.5h49c3.584,0,6.5-2.916,6.5-6.5v-49C81,21.916,78.084,19,74.5,19L74.5,19z"/>
<g id="pimple">
<path fill-rule="evenodd" clip-rule="evenodd" fill="#E1E5E6" d="M59,69c0,1.104-0.896,2-2,2H43c-1.104,0-2-0.896-2-2l0,0c0-1.104,0.896-2,2-2h14C58.104,67,59,67.896,59,69L59,69z"/>
<path fill-rule="evenodd" clip-rule="evenodd" fill="#FFFFFF" d="M59,69H41l0,0c0-1.104,0.896-2,2-2h14C58.104,67,59,67.896,59,69L59,69z"/>
</g>
<g id="letters">
<path id="symbol-o" opacity="0" fill="#00A184" d="M42.542,53.379c0.362,1.254,0.902,2.38,1.622,3.381c0.719,1,1.619,1.791,2.701,2.37c1.081,0.58,2.29,0.87,3.628,0.87c1.347,0,2.564-0.295,3.656-0.885c1.09-0.588,1.988-1.372,2.693-2.349c0.705-0.978,1.241-2.1,1.607-3.367C58.816,52.133,59,50.83,59,49.493c0-1.337-0.184-2.639-0.55-3.907c-0.366-1.267-0.905-2.392-1.614-3.374c-0.71-0.982-1.604-1.763-2.68-2.343C53.079,39.29,51.858,39,50.493,39c-1.356,0-2.565,0.288-3.628,0.863c-1.063,0.575-1.959,1.366-2.687,2.371c-0.729,1.005-1.274,2.132-1.636,3.381S42,48.156,42,49.493C42,50.83,42.181,52.126,42.542,53.379z M47.327,55.867c-0.835-0.738-1.435-1.678-1.8-2.818c-0.366-1.14-0.548-2.325-0.548-3.557c0-1.214,0.183-2.395,0.548-3.544c0.365-1.149,0.963-2.094,1.794-2.836S49.21,42,50.493,42c1.285,0,2.341,0.369,3.168,1.106c0.826,0.738,1.427,1.679,1.8,2.823c0.374,1.146,0.561,2.333,0.561,3.563c0,1.238-0.187,2.429-0.561,3.568c-0.373,1.141-0.976,2.078-1.806,2.812c-0.831,0.732-1.886,1.1-3.162,1.1C49.218,56.973,48.162,56.604,47.327,55.867z"/>
<path id="symbol-t" opacity="0" fill="#00A184" d="M55.5,39h-10c-0.829,0-1.5,0.671-1.5,1.5s0.671,1.5,1.5,1.5H49v16.5c0,0.828,0.671,1.5,1.5,1.5c0.828,0,1.5-0.672,1.5-1.5V42h3.5c0.828,0,1.5-0.671,1.5-1.5S56.328,39,55.5,39z"/>
<path id="symbol-f" fill="#00A184" d="M54.5,42c0.828,0,1.5-0.671,1.5-1.5S55.328,39,54.5,39h-7c-0.829,0-1.5,0.671-1.5,1.5v18c0,0.828,0.671,1.5,1.5,1.5s1.5-0.672,1.5-1.5V51h4.5c0.828,0,1.5-0.672,1.5-1.5c0-0.829-0.672-1.5-1.5-1.5H49v-6H54.5z"/>
<path id="symbol-n" opacity="0" fill="#00A184" d="M56.5,39c-0.828,0-1.5,0.671-1.5,1.5v13.046l-9.252-13.878h0C45.479,39.266,45.021,39,44.5,39c-0.829,0-1.5,0.671-1.5,1.5v18c0,0.828,0.671,1.5,1.5,1.5s1.5-0.672,1.5-1.5V45.454l9.252,13.878h0.001C55.521,59.734,55.979,60,56.5,60c0.828,0,1.5-0.672,1.5-1.5v-18C58,39.671,57.328,39,56.5,39z"/>
<path id="symbol-e" opacity="0" fill="#00A184" d="M53.5,51c0.828,0,1.5-0.672,1.5-1.5c0-0.829-0.672-1.5-1.5-1.5H49v-6h4.5c0.828,0,1.5-0.671,1.5-1.5S54.328,39,53.5,39h-6c-0.829,0-1.5,0.671-1.5,1.5v18c0,0.828,0.671,1.5,1.5,1.5h6c0.828,0,1.5-0.672,1.5-1.5S54.328,57,53.5,57H49v-6H53.5z"/>
<path id="symbol-r" opacity="0" fill="#00A184" d="M50.883,51H51c3.313,0,6-2.687,6-6s-2.687-6-6-6h-5.5c-0.829,0-1.5,0.671-1.5,1.5v18c0,0.828,0.671,1.5,1.5,1.5s1.5-0.672,1.5-1.5v-7.366l7.373,8.356c0.297,0.336,0.71,0.508,1.126,0.508c0.353,0,0.706-0.124,0.991-0.375c0.621-0.548,0.681-1.496,0.133-2.117L50.883,51z M47,42h4c2.209,0,3,0.791,3,3s-0.791,3-3,3h-4V42z"/>
</g>
<path id="hl" fill-rule="evenodd" clip-rule="evenodd" fill="#FFFFFF" d="M74.5,21h-49c-1.76,0-3.268,1.02-4.007,2.493C22.099,23.188,22.774,23,23.5,23h49c2.485,0,4.5,2.015,4.5,4.5v49c0,0.726-0.188,1.4-0.492,2.008C77.979,77.768,79,76.26,79,74.5v-49C79,23.015,76.985,21,74.5,21z"/>
</g>
</g>
<path id="shade" opacity="0.15" d="M50,0C22.386,0,0,22.386,0,50c0,0.335,0.019,0.666,0.025,1C0.56,24.955,21.827,4,48,4c26.509,0,48,21.491,48,48c0,26.172-20.954,47.44-47,47.975c0.334,0.007,0.665,0.025,1,0.025c27.614,0,50-22.387,50-50C100,22.386,77.614,0,50,0z"/>
</svg>