<svg version="1.1" id="responsive" xmlns="http://www.w3.org/2000/svg" xmlns:xlink="http://www.w3.org/1999/xlink" x="0px" y="0px" width="100px" height="100px" viewBox="0 0 100 100" enable-background="new 0 0 100 100" xml:space="preserve">
<g id="responsive-window">
<path id="window-body" fill="#35495E" d="M74,15H6c-3.313,0-6,2.686-6,6v73c0,3.313,2.687,6,6,6h68c3.314,0,6-2.687,6-6V21C80,17.686,77.314,15,74,15z"/>
<rect id="shade" x="49" y="15" rx="5" fill-rule="evenodd" clip-rule="evenodd" fill="#000000" opacity="0.2" width="31" height="76"/>
<path id="window-bg" fill="#FFFFFF" d="M76,93c0,1.657-1.343,3-3,3H7c-1.657,0-3-1.343-3-3V32h72V93z"/>
<circle id="close" fill-rule="evenodd" clip-rule="evenodd" fill="#D15527" cx="9" cy="24" r="3"/>
<circle id="hide" fill-rule="evenodd" clip-rule="evenodd" fill="#F19B2D" cx="17" cy="24" r="3"/>
<circle id="expand" fill-rule="evenodd" clip-rule="evenodd" fill="#53BB72" cx="25" cy="24" r="3"/>
<rect id="window-screen1" x="8" y="36" fill-rule="evenodd" clip-rule="evenodd" fill="#14A085" width="64" height="56"/>
<rect id="window-screen2" x="34" y="36" fill-rule="evenodd" clip-rule="evenodd" fill="#26B99A" width="38" height="56"/>
</g>
<g id="responsive-iphone">
<path fill-rule="evenodd" clip-rule="evenodd" fill="#35495E" d="M94,0H58c-3.313,0-6,2.687-6,6v76.001c0,3.312,2.687,5.998,6,5.998h36c3.314,0,6-2.686,6-5.998V6C100,2.687,97.314,0,94,0z M96,74H56V14h40V74z"/>
<rect id="iphone-bg" x="56" y="14" fill-rule="evenodd" clip-rule="evenodd" fill="#FFFFFF" width="40" height="60"/>
<rect id="iphone-screen1" x="59" y="17" fill-rule="evenodd" clip-rule="evenodd" fill="#14A085" width="34" height="54"/>
<rect id="iphone-screen2" x="59" y="44" fill-rule="evenodd" clip-rule="evenodd" fill="#26B99A" width="34" height="27"/>
<path id="details-2" fill-rule="evenodd" clip-rule="evenodd" fill="#2C3D4F" d="M69.5,6h12C82.328,6,83,6.672,83,7.5C83,8.329,82.328,9,81.5,9h-12C68.672,9,68,8.329,68,7.5C68,6.672,68.672,6,69.5,6z"/>
<path id="details-1" fill-rule="evenodd" clip-rule="evenodd" fill="#2C3D4F" d="M76,78.001c1.657,0,3,1.342,3,2.998c0,1.658-1.343,3-3,3c-1.656,0-3-1.342-3-3C73,79.343,74.344,78.001,76,78.001z"/>
</g>
</svg>