<?xml version="1.0" encoding="UTF-8" standalone="no"?>
<svg
   xmlns:dc="http://purl.org/dc/elements/1.1/"
   xmlns:cc="http://creativecommons.org/ns#"
   xmlns:rdf="http://www.w3.org/1999/02/22-rdf-syntax-ns#"
   xmlns:svg="http://www.w3.org/2000/svg"
   xmlns="http://www.w3.org/2000/svg"
   xmlns:sodipodi="http://sodipodi.sourceforge.net/DTD/sodipodi-0.dtd"
   xmlns:inkscape="http://www.inkscape.org/namespaces/inkscape"
   width="370"
   height="125"
   id="svg2"
   version="1.1"
   inkscape:version="0.48.4 r9939"
   sodipodi:docname="ch-ci.svg">
  <metadata
     id="metadata80">
    <rdf:RDF>
      <cc:Work
         rdf:about="">
        <dc:format>image/svg+xml</dc:format>
        <dc:type
           rdf:resource="http://purl.org/dc/dcmitype/StillImage" />
      </cc:Work>
    </rdf:RDF>
  </metadata>
  <defs
     id="defs78" />
  <sodipodi:namedview
     pagecolor="#ffffff"
     bordercolor="#666666"
     borderopacity="1"
     objecttolerance="10"
     gridtolerance="10"
     guidetolerance="10"
     inkscape:pageopacity="0"
     inkscape:pageshadow="2"
     inkscape:window-width="1438"
     inkscape:window-height="875"
     id="namedview76"
     showgrid="false"
     inkscape:zoom="2.6222222"
     inkscape:cx="207.5753"
     inkscape:cy="77.59836"
     inkscape:window-x="0"
     inkscape:window-y="0"
     inkscape:window-maximized="1"
     inkscape:current-layer="svg2" />
  <rect
     width="370"
     height="120"
     id="rect4"
     x="0"
     y="-2.3841864e-08"
     style="fill:#2ecc71;fill-opacity:1" />
  <g
     id="g3949"
     transform="translate(0,-5)">
    <path
       sodipodi:nodetypes="ccccc"
       inkscape:connector-curvature="0"
       id="polygon6-2"
       d="m 134.54347,5.0000011 -49.999996,-4e-6 L -35.456531,125 l 50.000002,0 z"
       style="fill:#31d376;fill-opacity:1;enable-background:new" />
    <path
       sodipodi:nodetypes="ccccc"
       inkscape:connector-curvature="0"
       id="polygon6-2-5"
       d="m 416.96487,5.000001 -50,-4e-6 -120,120.000003 50.00001,0 z"
       style="fill:#31d376;fill-opacity:1;enable-background:new" />
    <path
       sodipodi:nodetypes="ccccc"
       inkscape:connector-curvature="0"
       id="polygon6-2-5-8"
       d="m 322.82438,5.000007 -50,-4e-6 -120,119.999997 50,0 z"
       style="fill:#31d376;fill-opacity:1;enable-background:new" />
    <path
       sodipodi:nodetypes="ccccc"
       inkscape:connector-curvature="0"
       id="polygon6-2-5-2"
       d="m 228.68393,5.0000021 -50,-4e-6 L 58.683937,125 l 49.999993,0 z"
       style="fill:#31d376;fill-opacity:1;enable-background:new" />
    <path
       sodipodi:nodetypes="ccccc"
       inkscape:connector-curvature="0"
       id="polygon6-2-5-2-7"
       d="m 40.403004,5.0000062 -50,-4e-6 L -129.597,125 l 50.000004,0 z"
       style="fill:#31d376;fill-opacity:1;enable-background:new" />
    <path
       sodipodi:nodetypes="ccccc"
       inkscape:connector-curvature="0"
       id="polygon6-2-5-2-0"
       d="m 511.10536,5.000004 -50,-4e-6 -120,120 50,0 z"
       style="fill:#31d376;fill-opacity:1;enable-background:new" />
  </g>
  <path
     d="m 344,100.5 c 0,2.48535 -2.01536,4.5 -4.5,4.5 l -309.000361,0 c -2.484285,0 -4.49964,-2.01465 -4.49964,-4.5 l 0,-80.999642 C 25.999999,17.015001 28.015354,15 30.499639,15 L 339.5,15 c 2.48464,0 4.5,2.015001 4.5,4.500358 z"
     id="path8"
     inkscape:connector-curvature="0"
     style="fill:#27ae60;fill-opacity:1"
     sodipodi:nodetypes="sssssssss" />
  <g
     id="g3975"
     style="fill:#a4ebc2;fill-opacity:1">
    <path
       style="fill:#a4ebc2;fill-opacity:1"
       inkscape:connector-curvature="0"
       id="path26-2"
       d="m 113.80383,38.16312 c 2.66888,0 4.39905,1.927526 4.39905,5.815869 0,2.916343 -0.92257,6.112754 -4.39905,6.112754 -3.47648,0 -4.39906,-3.19641 -4.39906,-6.112754 0,-3.888343 1.72983,-5.815869 4.39906,-5.815869 z m 0,9.951674 c 1.26854,0 1.99342,-1.037898 1.99342,-3.987191 0,-2.471529 -0.54366,-3.98719 -1.99342,-3.98719 -1.45011,0 -1.99377,1.516004 -1.99377,3.98719 3.4e-4,2.94895 0.72522,3.987191 1.99377,3.987191 z" />
    <path
       style="fill:#a4ebc2;fill-opacity:1"
       inkscape:connector-curvature="0"
       id="path28-8"
       d="m 125.69092,38.16312 c 2.66888,0 4.39905,1.927526 4.39905,5.815869 0,2.916343 -0.92257,6.112754 -4.39905,6.112754 -3.47648,0 -4.39905,-3.19641 -4.39905,-6.112754 0,-3.888343 1.73017,-5.815869 4.39905,-5.815869 z m 0,9.951674 c 1.26854,0 1.99342,-1.037898 1.99342,-3.987191 0,-2.471529 -0.54366,-3.98719 -1.99342,-3.98719 -1.45011,0 -1.99377,1.516004 -1.99377,3.98719 3.5e-4,2.94895 0.72523,3.987191 1.99377,3.987191 z" />
    <path
       style="fill:#a4ebc2;fill-opacity:1"
       inkscape:connector-curvature="0"
       id="path30-6"
       d="m 138.04685,53.608036 c 2.66888,0 4.39906,1.927525 4.39906,5.815868 0,2.916343 -0.92258,6.112755 -4.39906,6.112755 -3.47648,0 -4.39905,-3.196412 -4.39905,-6.112755 0,-3.888343 1.73017,-5.815868 4.39905,-5.815868 z m 0,9.951673 c 1.26854,0 1.99343,-1.038241 1.99343,-3.987534 0,-2.471529 -0.54367,-3.98719 -1.99343,-3.98719 -1.4501,0 -1.99377,1.516004 -1.99377,3.98719 3.5e-4,2.949293 0.72523,3.987534 1.99377,3.987534 z" />
    <path
       style="fill:#a4ebc2;fill-opacity:1"
       inkscape:connector-curvature="0"
       id="path32-7"
       d="m 150.87197,53.608036 c 2.66853,0 4.39871,1.927525 4.39871,5.815868 0,2.916343 -0.92258,6.112755 -4.39871,6.112755 -3.4758,0 -4.39906,-3.196068 -4.39906,-6.112755 -6.9e-4,-3.888343 1.72949,-5.815868 4.39906,-5.815868 z m 0,9.951673 c 1.2682,0 1.99376,-1.038241 1.99376,-3.987534 0,-2.471529 -0.54366,-3.98719 -1.99376,-3.98719 -1.45011,0 -1.99377,1.516004 -1.99377,3.98719 0,2.949293 0.72454,3.987534 1.99377,3.987534 z" />
    <path
       style="fill:#a4ebc2;fill-opacity:1"
       inkscape:connector-curvature="0"
       id="path34-1"
       d="m 164.47516,23.145514 c 2.6682,0 4.39837,1.927526 4.39837,5.815869 0,2.916344 -0.92257,6.112754 -4.39837,6.112754 -3.47648,0 -4.3994,-3.196411 -4.3994,-6.112754 0,-3.888343 1.73018,-5.815869 4.3994,-5.815869 z m 0,9.951675 c 1.2682,0 1.99343,-1.038241 1.99343,-3.987534 0,-2.47153 -0.54367,-3.987191 -1.99343,-3.987191 -1.45045,0 -1.99411,1.516004 -1.99411,3.98719 6.9e-4,2.949294 0.72523,3.987535 1.99411,3.987535 z" />
    <path
       style="fill:#a4ebc2;fill-opacity:1"
       inkscape:connector-curvature="0"
       id="path36-4"
       d="m 150.87197,23.145514 c 2.66853,0 4.39871,1.927526 4.39871,5.815869 0,2.916344 -0.92258,6.112754 -4.39871,6.112754 -3.4758,0 -4.39906,-3.196411 -4.39906,-6.112754 -6.9e-4,-3.888343 1.72949,-5.815869 4.39906,-5.815869 z m 0,9.951675 c 1.2682,0 1.99376,-1.037898 1.99376,-3.98719 0,-2.47153 -0.54366,-3.987191 -1.99376,-3.987191 -1.45011,0 -1.99377,1.516004 -1.99377,3.987191 0,2.948949 0.72454,3.98719 1.99377,3.98719 z" />
    <path
       style="fill:#a4ebc2;fill-opacity:1"
       inkscape:connector-curvature="0"
       id="path38-1"
       d="m 125.90578,84.497866 c 2.66888,0 4.39905,1.927526 4.39905,5.81587 0,2.915657 -0.92258,6.112754 -4.39905,6.112754 -3.47648,0 -4.39906,-3.196068 -4.39906,-6.112754 -3.4e-4,-3.888344 1.72983,-5.81587 4.39906,-5.81587 z m 0,9.951331 c 1.26854,0 1.99342,-1.037212 1.99342,-3.987191 0,-2.471187 -0.54366,-3.986847 -1.99342,-3.986847 -1.45011,0 -1.99377,1.51566 -1.99377,3.986847 0,2.949979 0.72522,3.987191 1.99377,3.987191 z" />
    <path
       style="fill:#a4ebc2;fill-opacity:1"
       inkscape:connector-curvature="0"
       id="path40-9"
       d="m 164.47516,84.925176 c 2.6682,0 4.39837,1.927526 4.39837,5.815869 0,2.916 -0.92257,6.112754 -4.39837,6.112754 -3.47648,0 -4.3994,-3.196411 -4.3994,-6.112754 0,-3.888343 1.73018,-5.815869 4.3994,-5.815869 z m 0,9.951331 c 1.2682,0 1.99343,-1.037555 1.99343,-3.987191 0,-2.471186 -0.54367,-3.98719 -1.99343,-3.98719 -1.45045,0 -1.99411,1.516004 -1.99411,3.98719 6.9e-4,2.949636 0.72523,3.987191 1.99411,3.987191 z" />
    <path
       style="fill:#a4ebc2;fill-opacity:1"
       inkscape:connector-curvature="0"
       id="path42-4"
       d="m 113.33499,69.266778 c 2.66888,0 4.39905,1.927526 4.39905,5.815869 0,2.915657 -0.92257,6.112754 -4.39905,6.112754 -3.47648,0 -4.39906,-3.197097 -4.39906,-6.112754 0,-3.888343 1.73018,-5.815869 4.39906,-5.815869 z m 0,9.95133 c 1.26854,0 1.99342,-1.037211 1.99342,-3.98719 0,-2.471187 -0.54366,-3.986847 -1.99342,-3.986847 -1.45011,0 -1.99377,1.51566 -1.99377,3.986847 3.4e-4,2.949979 0.72522,3.98719 1.99377,3.98719 z" />
    <path
       style="fill:#a4ebc2;fill-opacity:1"
       inkscape:connector-curvature="0"
       id="path44-3"
       d="m 164.47516,53.608036 c 2.6682,0 4.39837,1.927525 4.39837,5.815868 0,2.916343 -0.92257,6.112755 -4.39837,6.112755 -3.47648,0 -4.3994,-3.196068 -4.3994,-6.112755 0,-3.888343 1.73018,-5.815868 4.3994,-5.815868 z m 0,9.951673 c 1.2682,0 1.99343,-1.038241 1.99343,-3.98719 0,-2.47153 -0.54367,-3.987534 -1.99343,-3.987534 -1.45045,0 -1.99411,1.516004 -1.99411,3.987534 6.9e-4,2.948949 0.72523,3.98719 1.99411,3.98719 z" />
    <path
       style="fill:#a4ebc2;fill-opacity:1"
       inkscape:connector-curvature="0"
       id="path46-4"
       d="m 178.43256,38.16312 c 2.66853,0 4.39871,1.927526 4.39871,5.815869 0,2.916343 -0.92258,6.112754 -4.39871,6.112754 -3.4758,0 -4.39906,-3.196067 -4.39906,-6.112754 0,-3.888343 1.73018,-5.815869 4.39906,-5.815869 z m 0,9.951674 c 1.2682,0 1.99376,-1.038241 1.99376,-3.987191 0,-2.471529 -0.54366,-3.987533 -1.99376,-3.987533 -1.45011,0 -1.99377,1.516004 -1.99377,3.987533 6.9e-4,2.94895 0.72522,3.987191 1.99377,3.987191 z" />
    <path
       style="fill:#a4ebc2;fill-opacity:1"
       inkscape:connector-curvature="0"
       id="path26-2-6"
       d="m 192.03661,38.16312 c 2.66889,0 4.39906,1.927526 4.39906,5.815869 0,2.916343 -0.92258,6.112754 -4.39906,6.112754 -3.47647,0 -4.39905,-3.19641 -4.39905,-6.112754 0,-3.888343 1.72983,-5.815869 4.39905,-5.815869 z m 0,9.951674 c 1.26855,0 1.99343,-1.037898 1.99343,-3.987191 0,-2.471529 -0.54366,-3.98719 -1.99343,-3.98719 -1.4501,0 -1.99376,1.516004 -1.99376,3.98719 3.4e-4,2.94895 0.72522,3.987191 1.99376,3.987191 z" />
    <path
       style="fill:#a4ebc2;fill-opacity:1"
       inkscape:connector-curvature="0"
       id="path28-8-2"
       d="m 203.92371,38.16312 c 2.66888,0 4.39905,1.927526 4.39905,5.815869 0,2.916343 -0.92257,6.112754 -4.39905,6.112754 -3.47648,0 -4.39906,-3.19641 -4.39906,-6.112754 0,-3.888343 1.73018,-5.815869 4.39906,-5.815869 z m 0,9.951674 c 1.26854,0 1.99342,-1.037898 1.99342,-3.987191 0,-2.471529 -0.54366,-3.98719 -1.99342,-3.98719 -1.45011,0 -1.99377,1.516004 -1.99377,3.98719 3.5e-4,2.94895 0.72523,3.987191 1.99377,3.987191 z" />
    <path
       style="fill:#a4ebc2;fill-opacity:1"
       inkscape:connector-curvature="0"
       id="path30-6-5"
       d="m 216.27964,53.608036 c 2.66888,0 4.39906,1.927525 4.39906,5.815868 0,2.916343 -0.92258,6.112755 -4.39906,6.112755 -3.47648,0 -4.39905,-3.196412 -4.39905,-6.112755 0,-3.888343 1.73017,-5.815868 4.39905,-5.815868 z m 0,9.951673 c 1.26854,0 1.99342,-1.038241 1.99342,-3.987534 0,-2.471529 -0.54366,-3.98719 -1.99342,-3.98719 -1.4501,0 -1.99377,1.516004 -1.99377,3.98719 3.5e-4,2.949293 0.72523,3.987534 1.99377,3.987534 z" />
    <path
       style="fill:#a4ebc2;fill-opacity:1"
       inkscape:connector-curvature="0"
       id="path32-7-7"
       d="m 229.10476,53.608036 c 2.66853,0 4.39871,1.927525 4.39871,5.815868 0,2.916343 -0.92258,6.112755 -4.39871,6.112755 -3.4758,0 -4.39906,-3.196068 -4.39906,-6.112755 -6.9e-4,-3.888343 1.72949,-5.815868 4.39906,-5.815868 z m 0,9.951673 c 1.2682,0 1.99376,-1.038241 1.99376,-3.987534 0,-2.471529 -0.54366,-3.98719 -1.99376,-3.98719 -1.45011,0 -1.99377,1.516004 -1.99377,3.98719 0,2.949293 0.72454,3.987534 1.99377,3.987534 z" />
    <path
       style="fill:#a4ebc2;fill-opacity:1"
       inkscape:connector-curvature="0"
       id="path34-1-6"
       d="m 242.70795,23.145514 c 2.6682,0 4.39837,1.927526 4.39837,5.815869 0,2.916344 -0.92257,6.112754 -4.39837,6.112754 -3.47648,0 -4.3994,-3.196411 -4.3994,-6.112754 0,-3.888343 1.73018,-5.815869 4.3994,-5.815869 z m 0,9.951675 c 1.2682,0 1.99343,-1.038241 1.99343,-3.987534 0,-2.47153 -0.54367,-3.987191 -1.99343,-3.987191 -1.45045,0 -1.99411,1.516004 -1.99411,3.98719 6.9e-4,2.949294 0.72523,3.987535 1.99411,3.987535 z" />
    <path
       style="fill:#a4ebc2;fill-opacity:1"
       inkscape:connector-curvature="0"
       id="path36-4-0"
       d="m 229.10476,23.145514 c 2.66853,0 4.39871,1.927526 4.39871,5.815869 0,2.916344 -0.92258,6.112754 -4.39871,6.112754 -3.4758,0 -4.39906,-3.196411 -4.39906,-6.112754 -6.9e-4,-3.888343 1.72949,-5.815869 4.39906,-5.815869 z m 0,9.951675 c 1.2682,0 1.99376,-1.037898 1.99376,-3.98719 0,-2.47153 -0.54366,-3.987191 -1.99376,-3.987191 -1.45011,0 -1.99377,1.516004 -1.99377,3.987191 0,2.948949 0.72454,3.98719 1.99377,3.98719 z" />
    <path
       style="fill:#a4ebc2;fill-opacity:1"
       inkscape:connector-curvature="0"
       id="path38-1-4"
       d="m 204.13856,84.497866 c 2.66889,0 4.39906,1.927526 4.39906,5.81587 0,2.915657 -0.92258,6.112754 -4.39906,6.112754 -3.47647,0 -4.39905,-3.196068 -4.39905,-6.112754 -3.4e-4,-3.888344 1.72983,-5.81587 4.39905,-5.81587 z m 0,9.951331 c 1.26855,0 1.99343,-1.037212 1.99343,-3.987191 0,-2.471187 -0.54366,-3.986847 -1.99343,-3.986847 -1.4501,0 -1.99376,1.51566 -1.99376,3.986847 0,2.949979 0.72522,3.987191 1.99376,3.987191 z" />
    <path
       style="fill:#a4ebc2;fill-opacity:1"
       inkscape:connector-curvature="0"
       id="path40-9-0"
       d="m 242.70795,84.925176 c 2.6682,0 4.39837,1.927526 4.39837,5.815869 0,2.916 -0.92257,6.112754 -4.39837,6.112754 -3.47648,0 -4.3994,-3.196411 -4.3994,-6.112754 0,-3.888343 1.73018,-5.815869 4.3994,-5.815869 z m 0,9.951331 c 1.2682,0 1.99343,-1.037555 1.99343,-3.987191 0,-2.471186 -0.54367,-3.98719 -1.99343,-3.98719 -1.45045,0 -1.99411,1.516004 -1.99411,3.98719 6.9e-4,2.949636 0.72523,3.987191 1.99411,3.987191 z" />
    <path
       style="fill:#a4ebc2;fill-opacity:1"
       inkscape:connector-curvature="0"
       id="path42-4-1"
       d="m 191.56778,69.266778 c 2.66888,0 4.39905,1.927526 4.39905,5.815869 0,2.915657 -0.92257,6.112754 -4.39905,6.112754 -3.47648,0 -4.39906,-3.197097 -4.39906,-6.112754 0,-3.888343 1.73017,-5.815869 4.39906,-5.815869 z m 0,9.95133 c 1.26854,0 1.99342,-1.037211 1.99342,-3.98719 0,-2.471187 -0.54366,-3.986847 -1.99342,-3.986847 -1.45011,0 -1.99377,1.51566 -1.99377,3.986847 3.4e-4,2.949979 0.72522,3.98719 1.99377,3.98719 z" />
    <path
       style="fill:#a4ebc2;fill-opacity:1"
       inkscape:connector-curvature="0"
       id="path44-3-7"
       d="m 242.70795,53.608036 c 2.6682,0 4.39837,1.927525 4.39837,5.815868 0,2.916343 -0.92257,6.112755 -4.39837,6.112755 -3.47648,0 -4.3994,-3.196068 -4.3994,-6.112755 0,-3.888343 1.73018,-5.815868 4.3994,-5.815868 z m 0,9.951673 c 1.2682,0 1.99343,-1.038241 1.99343,-3.98719 0,-2.47153 -0.54367,-3.987534 -1.99343,-3.987534 -1.45045,0 -1.99411,1.516004 -1.99411,3.987534 6.9e-4,2.948949 0.72523,3.98719 1.99411,3.98719 z" />
    <path
       style="fill:#a4ebc2;fill-opacity:1"
       inkscape:connector-curvature="0"
       id="path46-4-6"
       d="m 256.66535,38.16312 c 2.66853,0 4.39871,1.927526 4.39871,5.815869 0,2.916343 -0.92258,6.112754 -4.39871,6.112754 -3.4758,0 -4.39906,-3.196067 -4.39906,-6.112754 0,-3.888343 1.73018,-5.815869 4.39906,-5.815869 z m 0,9.951674 c 1.2682,0 1.99376,-1.038241 1.99376,-3.987191 0,-2.471529 -0.54366,-3.987533 -1.99376,-3.987533 -1.45011,0 -1.99377,1.516004 -1.99377,3.987533 6.9e-4,2.94895 0.72522,3.987191 1.99377,3.987191 z" />
    <path
       style="fill:#a4ebc2;fill-opacity:1"
       inkscape:connector-curvature="0"
       id="path26-2-6-3"
       d="m 270.26941,38.16312 c 2.66889,0 4.39906,1.927526 4.39906,5.815869 0,2.916343 -0.92258,6.112754 -4.39906,6.112754 -3.47647,0 -4.39905,-3.19641 -4.39905,-6.112754 0,-3.888343 1.72983,-5.815869 4.39905,-5.815869 z m 0,9.951674 c 1.26855,0 1.99343,-1.037898 1.99343,-3.987191 0,-2.471529 -0.54366,-3.98719 -1.99343,-3.98719 -1.4501,0 -1.99376,1.516004 -1.99376,3.98719 3.4e-4,2.94895 0.72522,3.987191 1.99376,3.987191 z" />
    <path
       style="fill:#a4ebc2;fill-opacity:1"
       inkscape:connector-curvature="0"
       id="path28-8-2-4"
       d="m 282.15651,38.16312 c 2.66888,0 4.39905,1.927526 4.39905,5.815869 0,2.916343 -0.92257,6.112754 -4.39905,6.112754 -3.47648,0 -4.39906,-3.19641 -4.39906,-6.112754 0,-3.888343 1.73018,-5.815869 4.39906,-5.815869 z m 0,9.951674 c 1.26854,0 1.99342,-1.037898 1.99342,-3.987191 0,-2.471529 -0.54366,-3.98719 -1.99342,-3.98719 -1.45011,0 -1.99377,1.516004 -1.99377,3.98719 3.5e-4,2.94895 0.72523,3.987191 1.99377,3.987191 z" />
    <path
       style="fill:#a4ebc2;fill-opacity:1"
       inkscape:connector-curvature="0"
       id="path30-6-5-7"
       d="m 294.51244,53.608036 c 2.66888,0 4.39906,1.927525 4.39906,5.815868 0,2.916343 -0.92258,6.112755 -4.39906,6.112755 -3.47648,0 -4.39905,-3.196412 -4.39905,-6.112755 0,-3.888343 1.73017,-5.815868 4.39905,-5.815868 z m 0,9.951673 c 1.26854,0 1.99343,-1.038241 1.99343,-3.987534 0,-2.471529 -0.54367,-3.98719 -1.99343,-3.98719 -1.4501,0 -1.99377,1.516004 -1.99377,3.98719 3.5e-4,2.949293 0.72523,3.987534 1.99377,3.987534 z" />
    <path
       style="fill:#a4ebc2;fill-opacity:1"
       inkscape:connector-curvature="0"
       id="path32-7-7-3"
       d="m 307.33756,53.608036 c 2.66853,0 4.39871,1.927525 4.39871,5.815868 0,2.916343 -0.92258,6.112755 -4.39871,6.112755 -3.4758,0 -4.39906,-3.196068 -4.39906,-6.112755 -6.9e-4,-3.888343 1.72949,-5.815868 4.39906,-5.815868 z m 0,9.951673 c 1.2682,0 1.99376,-1.038241 1.99376,-3.987534 0,-2.471529 -0.54366,-3.98719 -1.99376,-3.98719 -1.45011,0 -1.99377,1.516004 -1.99377,3.98719 0,2.949293 0.72454,3.987534 1.99377,3.987534 z" />
    <path
       style="fill:#a4ebc2;fill-opacity:1"
       inkscape:connector-curvature="0"
       id="path34-1-6-2"
       d="m 320.94075,23.145514 c 2.6682,0 4.39837,1.927526 4.39837,5.815869 0,2.916344 -0.92257,6.112754 -4.39837,6.112754 -3.47648,0 -4.3994,-3.196411 -4.3994,-6.112754 0,-3.888343 1.73018,-5.815869 4.3994,-5.815869 z m 0,9.951675 c 1.2682,0 1.99343,-1.038241 1.99343,-3.987534 0,-2.47153 -0.54367,-3.987191 -1.99343,-3.987191 -1.45045,0 -1.99411,1.516004 -1.99411,3.98719 6.9e-4,2.949294 0.72523,3.987535 1.99411,3.987535 z" />
    <path
       style="fill:#a4ebc2;fill-opacity:1"
       inkscape:connector-curvature="0"
       id="path36-4-0-6"
       d="m 307.33756,23.145514 c 2.66853,0 4.39871,1.927526 4.39871,5.815869 0,2.916344 -0.92258,6.112754 -4.39871,6.112754 -3.4758,0 -4.39906,-3.196411 -4.39906,-6.112754 -6.9e-4,-3.888343 1.72949,-5.815869 4.39906,-5.815869 z m 0,9.951675 c 1.2682,0 1.99376,-1.037898 1.99376,-3.98719 0,-2.47153 -0.54366,-3.987191 -1.99376,-3.987191 -1.45011,0 -1.99377,1.516004 -1.99377,3.987191 0,2.948949 0.72454,3.98719 1.99377,3.98719 z" />
    <path
       style="fill:#a4ebc2;fill-opacity:1"
       inkscape:connector-curvature="0"
       id="path38-1-4-2"
       d="m 282.37137,84.497866 c 2.66888,0 4.39905,1.927526 4.39905,5.81587 0,2.915657 -0.92258,6.112754 -4.39905,6.112754 -3.47648,0 -4.39906,-3.196068 -4.39906,-6.112754 -3.4e-4,-3.888344 1.72983,-5.81587 4.39906,-5.81587 z m 0,9.951331 c 1.26854,0 1.99342,-1.037212 1.99342,-3.987191 0,-2.471187 -0.54366,-3.986847 -1.99342,-3.986847 -1.45011,0 -1.99377,1.51566 -1.99377,3.986847 0,2.949979 0.72522,3.987191 1.99377,3.987191 z" />
    <path
       style="fill:#a4ebc2;fill-opacity:1"
       inkscape:connector-curvature="0"
       id="path40-9-0-4"
       d="m 320.94075,84.925176 c 2.6682,0 4.39837,1.927526 4.39837,5.815869 0,2.916 -0.92257,6.112754 -4.39837,6.112754 -3.47648,0 -4.3994,-3.196411 -4.3994,-6.112754 0,-3.888343 1.73018,-5.815869 4.3994,-5.815869 z m 0,9.951331 c 1.2682,0 1.99343,-1.037555 1.99343,-3.987191 0,-2.471186 -0.54367,-3.98719 -1.99343,-3.98719 -1.45045,0 -1.99411,1.516004 -1.99411,3.98719 6.9e-4,2.949636 0.72523,3.987191 1.99411,3.987191 z" />
    <path
       style="fill:#a4ebc2;fill-opacity:1"
       inkscape:connector-curvature="0"
       id="path42-4-1-4"
       d="m 269.80058,69.266778 c 2.66888,0 4.39905,1.927526 4.39905,5.815869 0,2.915657 -0.92257,6.112754 -4.39905,6.112754 -3.47648,0 -4.39906,-3.197097 -4.39906,-6.112754 0,-3.888343 1.73018,-5.815869 4.39906,-5.815869 z m 0,9.95133 c 1.26854,0 1.99342,-1.037211 1.99342,-3.98719 0,-2.471187 -0.54366,-3.986847 -1.99342,-3.986847 -1.45011,0 -1.99377,1.51566 -1.99377,3.986847 3.4e-4,2.949979 0.72522,3.98719 1.99377,3.98719 z" />
    <path
       style="fill:#a4ebc2;fill-opacity:1"
       inkscape:connector-curvature="0"
       id="path44-3-7-8"
       d="m 320.94075,53.608036 c 2.6682,0 4.39837,1.927525 4.39837,5.815868 0,2.916343 -0.92257,6.112755 -4.39837,6.112755 -3.47648,0 -4.3994,-3.196068 -4.3994,-6.112755 0,-3.888343 1.73018,-5.815868 4.3994,-5.815868 z m 0,9.951673 c 1.2682,0 1.99343,-1.038241 1.99343,-3.98719 0,-2.47153 -0.54367,-3.987534 -1.99343,-3.987534 -1.45045,0 -1.99411,1.516004 -1.99411,3.987534 6.9e-4,2.948949 0.72523,3.98719 1.99411,3.98719 z" />
    <path
       style="fill:#a4ebc2;fill-opacity:1"
       inkscape:connector-curvature="0"
       id="path46-4-6-7"
       d="m 334.89815,38.16312 c 2.66853,0 4.39871,1.927526 4.39871,5.815869 0,2.916343 -0.92258,6.112754 -4.39871,6.112754 -3.4758,0 -4.39906,-3.196067 -4.39906,-6.112754 0,-3.888343 1.73018,-5.815869 4.39906,-5.815869 z m 0,9.951674 c 1.2682,0 1.99376,-1.038241 1.99376,-3.987191 0,-2.471529 -0.54366,-3.987533 -1.99376,-3.987533 -1.45011,0 -1.99377,1.516004 -1.99377,3.987533 6.9e-4,2.94895 0.72522,3.987191 1.99377,3.987191 z" />
    <path
       style="fill:#a4ebc2;fill-opacity:1"
       inkscape:connector-curvature="0"
       id="path26-2-5"
       d="m 35.571034,38.16312 c 2.668882,0 4.399056,1.927526 4.399056,5.815869 0,2.916343 -0.922577,6.112754 -4.399056,6.112754 -3.476478,0 -4.399055,-3.19641 -4.399055,-6.112754 0,-3.888343 1.729831,-5.815869 4.399055,-5.815869 z m 0,9.951674 c 1.268543,0 1.993424,-1.037898 1.993424,-3.987191 0,-2.471529 -0.543661,-3.98719 -1.993424,-3.98719 -1.450105,0 -1.993767,1.516004 -1.993767,3.98719 3.44e-4,2.94895 0.725225,3.987191 1.993767,3.987191 z" />
    <path
       style="fill:#a4ebc2;fill-opacity:1"
       inkscape:connector-curvature="0"
       id="path28-8-0"
       d="m 47.458128,38.16312 c 2.668881,0 4.399055,1.927526 4.399055,5.815869 0,2.916343 -0.922577,6.112754 -4.399055,6.112754 -3.476479,0 -4.399055,-3.19641 -4.399055,-6.112754 0,-3.888343 1.730173,-5.815869 4.399055,-5.815869 z m 0,9.951674 c 1.268542,0 1.993423,-1.037898 1.993423,-3.987191 0,-2.471529 -0.543661,-3.98719 -1.993423,-3.98719 -1.450106,0 -1.993767,1.516004 -1.993767,3.98719 3.43e-4,2.94895 0.725224,3.987191 1.993767,3.987191 z" />
    <path
       style="fill:#a4ebc2;fill-opacity:1"
       inkscape:connector-curvature="0"
       id="path30-6-8"
       d="m 59.81406,53.608036 c 2.668881,0 4.399055,1.927525 4.399055,5.815868 0,2.916343 -0.922576,6.112755 -4.399055,6.112755 -3.476479,0 -4.399055,-3.196412 -4.399055,-6.112755 0,-3.888343 1.730173,-5.815868 4.399055,-5.815868 z m 0,9.951673 c 1.268542,0 1.993424,-1.038241 1.993424,-3.987534 0,-2.471529 -0.543661,-3.98719 -1.993424,-3.98719 -1.450106,0 -1.993767,1.516004 -1.993767,3.98719 3.43e-4,2.949293 0.725224,3.987534 1.993767,3.987534 z" />
    <path
       style="fill:#a4ebc2;fill-opacity:1"
       inkscape:connector-curvature="0"
       id="path32-7-6"
       d="m 72.639177,53.608036 c 2.66853,0 4.39871,1.927525 4.39871,5.815868 0,2.916343 -0.92258,6.112755 -4.39871,6.112755 -3.475795,0 -4.399058,-3.196068 -4.399058,-6.112755 -6.86e-4,-3.888343 1.729487,-5.815868 4.399058,-5.815868 z m 0,9.951673 c 1.2682,0 1.99376,-1.038241 1.99376,-3.987534 0,-2.471529 -0.54366,-3.98719 -1.99376,-3.98719 -1.450109,0 -1.99377,1.516004 -1.99377,3.98719 0,2.949293 0.724538,3.987534 1.99377,3.987534 z" />
    <path
       style="fill:#a4ebc2;fill-opacity:1"
       inkscape:connector-curvature="0"
       id="path34-1-0"
       d="m 86.242369,23.145514 c 2.6682,0 4.39837,1.927526 4.39837,5.815869 0,2.916344 -0.92257,6.112754 -4.39837,6.112754 -3.47648,0 -4.3994,-3.196411 -4.3994,-6.112754 0,-3.888343 1.73018,-5.815869 4.3994,-5.815869 z m 0,9.951675 c 1.2682,0 1.99343,-1.038241 1.99343,-3.987534 0,-2.47153 -0.54367,-3.987191 -1.99343,-3.987191 -1.45045,0 -1.99411,1.516004 -1.99411,3.98719 6.9e-4,2.949294 0.72523,3.987535 1.99411,3.987535 z" />
    <path
       style="fill:#a4ebc2;fill-opacity:1"
       inkscape:connector-curvature="0"
       id="path36-4-4"
       d="m 72.639177,23.145514 c 2.66853,0 4.39871,1.927526 4.39871,5.815869 0,2.916344 -0.92258,6.112754 -4.39871,6.112754 -3.475795,0 -4.399058,-3.196411 -4.399058,-6.112754 -6.86e-4,-3.888343 1.729487,-5.815869 4.399058,-5.815869 z m 0,9.951675 c 1.2682,0 1.99376,-1.037898 1.99376,-3.98719 0,-2.47153 -0.54366,-3.987191 -1.99376,-3.987191 -1.450109,0 -1.99377,1.516004 -1.99377,3.987191 0,2.948949 0.724538,3.98719 1.99377,3.98719 z" />
    <path
       style="fill:#a4ebc2;fill-opacity:1"
       inkscape:connector-curvature="0"
       id="path38-1-2"
       d="m 47.672984,84.497866 c 2.668881,0 4.399055,1.927526 4.399055,5.81587 0,2.915657 -0.922577,6.112754 -4.399055,6.112754 -3.476479,0 -4.399055,-3.196068 -4.399055,-6.112754 -3.44e-4,-3.888344 1.72983,-5.81587 4.399055,-5.81587 z m 0,9.951331 c 1.268542,0 1.993423,-1.037212 1.993423,-3.987191 0,-2.471187 -0.543661,-3.986847 -1.993423,-3.986847 -1.450106,0 -1.993767,1.51566 -1.993767,3.986847 0,2.949979 0.725224,3.987191 1.993767,3.987191 z" />
    <path
       style="fill:#a4ebc2;fill-opacity:1"
       inkscape:connector-curvature="0"
       id="path40-9-07"
       d="m 86.242369,84.925176 c 2.6682,0 4.39837,1.927526 4.39837,5.815869 0,2.916 -0.92257,6.112754 -4.39837,6.112754 -3.47648,0 -4.3994,-3.196411 -4.3994,-6.112754 0,-3.888343 1.73018,-5.815869 4.3994,-5.815869 z m 0,9.951331 c 1.2682,0 1.99343,-1.037555 1.99343,-3.987191 0,-2.471186 -0.54367,-3.98719 -1.99343,-3.98719 -1.45045,0 -1.99411,1.516004 -1.99411,3.98719 6.9e-4,2.949636 0.72523,3.987191 1.99411,3.987191 z" />
    <path
       style="fill:#a4ebc2;fill-opacity:1"
       inkscape:connector-curvature="0"
       id="path42-4-6"
       d="m 35.102195,69.266778 c 2.668882,0 4.399056,1.927526 4.399056,5.815869 0,2.915657 -0.922577,6.112754 -4.399056,6.112754 -3.476478,0 -4.399055,-3.197097 -4.399055,-6.112754 0,-3.888343 1.730174,-5.815869 4.399055,-5.815869 z m 0,9.95133 c 1.268543,0 1.993424,-1.037211 1.993424,-3.98719 0,-2.471187 -0.543661,-3.986847 -1.993424,-3.986847 -1.450105,0 -1.993766,1.51566 -1.993766,3.986847 3.43e-4,2.949979 0.725224,3.98719 1.993766,3.98719 z" />
    <path
       style="fill:#a4ebc2;fill-opacity:1"
       inkscape:connector-curvature="0"
       id="path44-3-6"
       d="m 86.242369,53.608036 c 2.6682,0 4.39837,1.927525 4.39837,5.815868 0,2.916343 -0.92257,6.112755 -4.39837,6.112755 -3.47648,0 -4.3994,-3.196068 -4.3994,-6.112755 0,-3.888343 1.73018,-5.815868 4.3994,-5.815868 z m 0,9.951673 c 1.2682,0 1.99343,-1.038241 1.99343,-3.98719 0,-2.47153 -0.54367,-3.987534 -1.99343,-3.987534 -1.45045,0 -1.99411,1.516004 -1.99411,3.987534 6.9e-4,2.948949 0.72523,3.98719 1.99411,3.98719 z" />
    <path
       style="fill:#a4ebc2;fill-opacity:1"
       inkscape:connector-curvature="0"
       id="path46-4-9"
       d="m 100.19977,38.16312 c 2.66853,0 4.39871,1.927526 4.39871,5.815869 0,2.916343 -0.92258,6.112754 -4.39871,6.112754 -3.475801,0 -4.399061,-3.196067 -4.399061,-6.112754 0,-3.888343 1.73018,-5.815869 4.399061,-5.815869 z m 0,9.951674 c 1.2682,0 1.99376,-1.038241 1.99376,-3.987191 0,-2.471529 -0.54366,-3.987533 -1.99376,-3.987533 -1.450111,0 -1.993771,1.516004 -1.993771,3.987533 6.9e-4,2.94895 0.72522,3.987191 1.993771,3.987191 z" />
  </g>
  <g
     id="g3933"
     style="fill:#ffffff;fill-opacity:1">
    <path
       style="opacity:0.8;fill:#ffffff;fill-opacity:1"
       inkscape:connector-curvature="0"
       id="path10-1"
       d="m 112.60942,27.363349 h -2.12522 c -0.54366,0 -0.8402,-0.197695 -0.8402,-0.873152 0,-0.60956 0.32949,-0.774305 1.18651,-0.939051 l 0.60956,-0.131797 c 1.82868,-0.395733 1.31762,-2.273835 2.7183,-2.273835 0.52719,0 0.95553,0.230645 0.95553,1.120272 v 9.358589 c 0,0.856679 -0.32949,1.449762 -1.25207,1.449762 -0.92258,0 -1.25207,-0.593083 -1.25207,-1.449762 l -3.4e-4,-6.261026 z" />
    <path
       style="opacity:0.8;fill:#ffffff;fill-opacity:1"
       inkscape:connector-curvature="0"
       id="path12-6"
       d="m 124.25763,57.82587 h -2.12522 c -0.54366,0 -0.8402,-0.197695 -0.8402,-0.873494 0,-0.609216 0.32949,-0.774305 1.18651,-0.939051 l 0.60956,-0.131454 c 1.82902,-0.395389 1.31797,-2.273834 2.71865,-2.273834 0.52718,0 0.95552,0.230644 0.95552,1.120271 v 9.358932 c 0,0.856678 -0.32949,1.450106 -1.25206,1.450106 -0.92258,0 -1.25207,-0.593428 -1.25207,-1.450106 v -6.26137 h -6.9e-4 z" />
    <path
       style="opacity:0.8;fill:#ffffff;fill-opacity:1"
       inkscape:connector-curvature="0"
       id="path14-6"
       d="m 112.82428,88.715702 h -2.12522 c -0.54367,0 -0.84021,-0.197695 -0.84021,-0.873496 0,-0.608873 0.32949,-0.774305 1.18652,-0.938709 l 0.60955,-0.131795 c 1.82902,-0.395048 1.31797,-2.273836 2.71865,-2.273836 0.52719,0 0.95553,0.230644 0.95553,1.120616 v 9.358931 c 0,0.856678 -0.32949,1.450107 -1.25207,1.450107 -0.92258,0 -1.25207,-0.593429 -1.25207,-1.450107 v -6.261369 h -6.8e-4 z" />
    <path
       style="opacity:0.8;fill:#ffffff;fill-opacity:1"
       inkscape:connector-curvature="0"
       id="path16-3"
       d="m 136.61356,42.380955 h -2.12522 c -0.54366,0 -0.8402,-0.197695 -0.8402,-0.873496 0,-0.609216 0.32949,-0.774305 1.18651,-0.93905 l 0.60956,-0.131454 c 1.82902,-0.39539 1.31797,-2.273835 2.71865,-2.273835 0.52719,0 0.95553,0.230644 0.95553,1.120272 v 9.358932 c 0,0.856678 -0.3295,1.449762 -1.25207,1.449762 -0.92258,0 -1.25207,-0.593084 -1.25207,-1.449762 v -6.261369 h -6.9e-4 z" />
    <path
       style="opacity:0.8;fill:#ffffff;fill-opacity:1"
       inkscape:connector-curvature="0"
       id="path18-4"
       d="m 163.04153,42.380955 h -2.12488 c -0.54366,0 -0.8402,-0.197695 -0.8402,-0.873496 0,-0.609216 0.32949,-0.774305 1.18651,-0.93905 l 0.60888,-0.131454 c 1.82867,-0.39539 1.3183,-2.273835 2.71899,-2.273835 0.52684,0 0.95518,0.230644 0.95518,1.120272 v 9.358932 c 0,0.856678 -0.32915,1.449762 -1.25173,1.449762 -0.92257,0 -1.25172,-0.593084 -1.25172,-1.449762 v -6.261369 h -0.001 z" />
    <path
       style="opacity:0.8;fill:#ffffff;fill-opacity:1"
       inkscape:connector-curvature="0"
       id="path20-5"
       d="m 163.96376,73.270786 h -2.12487 c -0.54366,0 -0.84055,-0.197694 -0.84055,-0.873496 0,-0.608873 0.32983,-0.774305 1.18651,-0.938708 l 0.60922,-0.131796 c 1.82868,-0.395047 1.31796,-2.273835 2.71899,-2.273835 0.52684,0 0.95518,0.230644 0.95518,1.120614 v 9.358932 c 0,0.856678 -0.32915,1.450106 -1.25207,1.450106 -0.92257,0 -1.25172,-0.593428 -1.25172,-1.450106 l -6.9e-4,-6.261711 z" />
    <path
       style="opacity:0.8;fill:#ffffff;fill-opacity:1"
       inkscape:connector-curvature="0"
       id="path22-2"
       d="m 149.67722,73.270786 h -2.12488 c -0.54366,0 -0.84055,-0.197694 -0.84055,-0.873496 0,-0.608873 0.32984,-0.774305 1.18651,-0.938708 l 0.60922,-0.131796 c 1.82868,-0.395047 1.31797,-2.273835 2.71899,-2.273835 0.52685,0 0.95519,0.230644 0.95519,1.120614 v 9.358932 c 0,0.856678 -0.32915,1.450106 -1.25207,1.450106 -0.92258,0 -1.25173,-0.593428 -1.25173,-1.450106 l -6.8e-4,-6.261711 z" />
    <path
       style="opacity:0.8;fill:#ffffff;fill-opacity:1"
       inkscape:connector-curvature="0"
       id="path24-5"
       d="m 136.82808,88.715702 h -2.12522 c -0.54367,0 -0.84021,-0.197695 -0.84021,-0.873496 0,-0.608873 0.32949,-0.774305 1.18651,-0.938709 l 0.60956,-0.131795 c 1.82903,-0.395048 1.31797,-2.273836 2.71865,-2.273836 0.52719,0 0.95553,0.230644 0.95553,1.120616 v 9.358931 c 0,0.856678 -0.32949,1.450107 -1.25207,1.450107 -0.92258,0 -1.25207,-0.593429 -1.25207,-1.450107 v -6.261369 h -6.8e-4 z" />
    <path
       style="opacity:0.8;fill:#ffffff;fill-opacity:1"
       inkscape:connector-curvature="0"
       id="path48-8"
       d="m 177.29032,27.363349 h -2.12522 c -0.54366,0 -0.8402,-0.197695 -0.8402,-0.873496 0,-0.609216 0.32983,-0.774305 1.18651,-0.93905 l 0.60921,-0.131454 c 1.82868,-0.39539 1.31797,-2.273835 2.71865,-2.273835 0.52719,0 0.95553,0.230645 0.95553,1.120272 v 9.358932 c 0,0.856678 -0.32949,1.449763 -1.25207,1.449763 -0.92258,0 -1.25172,-0.593085 -1.25172,-1.449763 l -6.9e-4,-6.261369 z" />
    <path
       style="opacity:0.8;fill:#ffffff;fill-opacity:1"
       inkscape:connector-curvature="0"
       id="path50-8"
       d="m 177.29032,89.143011 h -2.12488 c -0.54366,0 -0.84054,-0.197695 -0.84054,-0.873497 0,-0.609216 0.32983,-0.774304 1.18651,-0.939049 l 0.60921,-0.131455 c 1.82868,-0.39539 1.31797,-2.273835 2.719,-2.273835 0.52684,0 0.95518,0.230644 0.95518,1.120272 v 9.359275 c 0,0.856335 -0.32915,1.449763 -1.25207,1.449763 -0.92258,0 -1.25207,-0.593428 -1.25207,-1.449763 v -6.261711 h -3.4e-4 z" />
    <path
       style="opacity:0.8;fill:#ffffff;fill-opacity:1"
       inkscape:connector-curvature="0"
       id="path10-1-1"
       d="m 190.84221,27.363349 h -2.12522 c -0.54366,0 -0.84021,-0.197695 -0.84021,-0.873152 0,-0.60956 0.3295,-0.774305 1.18652,-0.939051 l 0.60956,-0.131797 c 1.82867,-0.395733 1.31762,-2.273835 2.7183,-2.273835 0.52719,0 0.95553,0.230645 0.95553,1.120272 v 9.358589 c 0,0.856679 -0.32949,1.449762 -1.25207,1.449762 -0.92258,0 -1.25207,-0.593083 -1.25207,-1.449762 l -3.4e-4,-6.261026 z" />
    <path
       style="opacity:0.8;fill:#ffffff;fill-opacity:1"
       inkscape:connector-curvature="0"
       id="path12-6-7"
       d="m 202.49042,57.82587 h -2.12522 c -0.54366,0 -0.8402,-0.197695 -0.8402,-0.873494 0,-0.609216 0.32949,-0.774305 1.18651,-0.939051 l 0.60956,-0.131454 c 1.82902,-0.395389 1.31796,-2.273834 2.71865,-2.273834 0.52718,0 0.95552,0.230644 0.95552,1.120271 v 9.358932 c 0,0.856678 -0.32949,1.450106 -1.25207,1.450106 -0.92257,0 -1.25206,-0.593428 -1.25206,-1.450106 v -6.26137 h -6.9e-4 z" />
    <path
       style="opacity:0.8;fill:#ffffff;fill-opacity:1"
       inkscape:connector-curvature="0"
       id="path14-6-8"
       d="m 191.05707,88.715702 h -2.12523 c -0.54366,0 -0.8402,-0.197695 -0.8402,-0.873496 0,-0.608873 0.32949,-0.774305 1.18651,-0.938709 l 0.60956,-0.131795 c 1.82902,-0.395048 1.31797,-2.273836 2.71865,-2.273836 0.52719,0 0.95553,0.230644 0.95553,1.120616 v 9.358931 c 0,0.856678 -0.3295,1.450107 -1.25207,1.450107 -0.92258,0 -1.25207,-0.593429 -1.25207,-1.450107 v -6.261369 h -6.9e-4 z" />
    <path
       style="opacity:0.8;fill:#ffffff;fill-opacity:1"
       inkscape:connector-curvature="0"
       id="path16-3-8"
       d="m 214.84635,42.380955 h -2.12522 c -0.54366,0 -0.8402,-0.197695 -0.8402,-0.873496 0,-0.609216 0.32949,-0.774305 1.18651,-0.93905 l 0.60956,-0.131454 c 1.82902,-0.39539 1.31797,-2.273835 2.71865,-2.273835 0.52719,0 0.95552,0.230644 0.95552,1.120272 v 9.358932 c 0,0.856678 -0.32949,1.449762 -1.25206,1.449762 -0.92258,0 -1.25207,-0.593084 -1.25207,-1.449762 v -6.261369 h -6.9e-4 z" />
    <path
       style="opacity:0.8;fill:#ffffff;fill-opacity:1"
       inkscape:connector-curvature="0"
       id="path18-4-7"
       d="m 241.27432,42.380955 h -2.12488 c -0.54366,0 -0.8402,-0.197695 -0.8402,-0.873496 0,-0.609216 0.32949,-0.774305 1.18651,-0.93905 l 0.60888,-0.131454 c 1.82867,-0.39539 1.3183,-2.273835 2.71899,-2.273835 0.52684,0 0.95518,0.230644 0.95518,1.120272 v 9.358932 c 0,0.856678 -0.32915,1.449762 -1.25173,1.449762 -0.92257,0 -1.25172,-0.593084 -1.25172,-1.449762 v -6.261369 h -0.001 z" />
    <path
       style="opacity:0.8;fill:#ffffff;fill-opacity:1"
       inkscape:connector-curvature="0"
       id="path20-5-8"
       d="m 242.19655,73.270786 h -2.12487 c -0.54366,0 -0.84055,-0.197694 -0.84055,-0.873496 0,-0.608873 0.32983,-0.774305 1.18651,-0.938708 l 0.60922,-0.131796 c 1.82868,-0.395047 1.31796,-2.273835 2.71899,-2.273835 0.52684,0 0.95518,0.230644 0.95518,1.120614 v 9.358932 c 0,0.856678 -0.32915,1.450106 -1.25207,1.450106 -0.92257,0 -1.25172,-0.593428 -1.25172,-1.450106 l -6.9e-4,-6.261711 z" />
    <path
       style="opacity:0.8;fill:#ffffff;fill-opacity:1"
       inkscape:connector-curvature="0"
       id="path22-2-0"
       d="m 227.91,73.270786 h -2.12487 c -0.54366,0 -0.84055,-0.197694 -0.84055,-0.873496 0,-0.608873 0.32984,-0.774305 1.18651,-0.938708 l 0.60922,-0.131796 c 1.82868,-0.395047 1.31797,-2.273835 2.71899,-2.273835 0.52685,0 0.95519,0.230644 0.95519,1.120614 v 9.358932 c 0,0.856678 -0.32915,1.450106 -1.25207,1.450106 -0.92258,0 -1.25173,-0.593428 -1.25173,-1.450106 L 227.91,73.270786 z" />
    <path
       style="opacity:0.8;fill:#ffffff;fill-opacity:1"
       inkscape:connector-curvature="0"
       id="path24-5-5"
       d="m 215.06086,88.715702 h -2.12521 c -0.54367,0 -0.84021,-0.197695 -0.84021,-0.873496 0,-0.608873 0.32949,-0.774305 1.18651,-0.938709 l 0.60956,-0.131795 c 1.82902,-0.395048 1.31797,-2.273836 2.71865,-2.273836 0.52719,0 0.95553,0.230644 0.95553,1.120616 v 9.358931 c 0,0.856678 -0.32949,1.450107 -1.25207,1.450107 -0.92258,0 -1.25207,-0.593429 -1.25207,-1.450107 v -6.261369 h -6.9e-4 z" />
    <path
       style="opacity:0.8;fill:#ffffff;fill-opacity:1"
       inkscape:connector-curvature="0"
       id="path48-8-4"
       d="m 255.52311,27.363349 h -2.12522 c -0.54366,0 -0.8402,-0.197695 -0.8402,-0.873496 0,-0.609216 0.32983,-0.774305 1.18651,-0.93905 l 0.60921,-0.131454 c 1.82868,-0.39539 1.31797,-2.273835 2.71865,-2.273835 0.52719,0 0.95553,0.230645 0.95553,1.120272 v 9.358932 c 0,0.856678 -0.32949,1.449763 -1.25207,1.449763 -0.92258,0 -1.25172,-0.593085 -1.25172,-1.449763 l -6.9e-4,-6.261369 z" />
    <path
       style="opacity:0.8;fill:#ffffff;fill-opacity:1"
       inkscape:connector-curvature="0"
       id="path50-8-6"
       d="m 255.52311,89.143011 h -2.12488 c -0.54366,0 -0.84054,-0.197695 -0.84054,-0.873497 0,-0.609216 0.32983,-0.774304 1.18651,-0.939049 l 0.60921,-0.131455 c 1.82868,-0.39539 1.31797,-2.273835 2.719,-2.273835 0.52684,0 0.95518,0.230644 0.95518,1.120272 v 9.359275 c 0,0.856335 -0.32915,1.449763 -1.25207,1.449763 -0.92258,0 -1.25207,-0.593428 -1.25207,-1.449763 v -6.261711 h -3.4e-4 z" />
    <path
       style="opacity:0.8;fill:#ffffff;fill-opacity:1"
       inkscape:connector-curvature="0"
       id="path10-1-1-1"
       d="m 269.07501,27.363349 h -2.12522 c -0.54366,0 -0.8402,-0.197695 -0.8402,-0.873152 0,-0.60956 0.32949,-0.774305 1.18651,-0.939051 l 0.60956,-0.131797 c 1.82867,-0.395733 1.31762,-2.273835 2.7183,-2.273835 0.52719,0 0.95553,0.230645 0.95553,1.120272 v 9.358589 c 0,0.856679 -0.32949,1.449762 -1.25207,1.449762 -0.92258,0 -1.25207,-0.593083 -1.25207,-1.449762 l -3.4e-4,-6.261026 z" />
    <path
       style="opacity:0.8;fill:#ffffff;fill-opacity:1"
       inkscape:connector-curvature="0"
       id="path12-6-7-6"
       d="M 280.72322,57.82587 H 278.598 c -0.54366,0 -0.8402,-0.197695 -0.8402,-0.873494 0,-0.609216 0.32949,-0.774305 1.18651,-0.939051 l 0.60956,-0.131454 c 1.82902,-0.395389 1.31796,-2.273834 2.71865,-2.273834 0.52718,0 0.95552,0.230644 0.95552,1.120271 v 9.358932 c 0,0.856678 -0.32949,1.450106 -1.25207,1.450106 -0.92257,0 -1.25206,-0.593428 -1.25206,-1.450106 v -6.26137 h -6.9e-4 z" />
    <path
       style="opacity:0.8;fill:#ffffff;fill-opacity:1"
       inkscape:connector-curvature="0"
       id="path14-6-8-0"
       d="m 269.28987,88.715702 h -2.12523 c -0.54366,0 -0.8402,-0.197695 -0.8402,-0.873496 0,-0.608873 0.32949,-0.774305 1.18651,-0.938709 l 0.60956,-0.131795 c 1.82902,-0.395048 1.31797,-2.273836 2.71865,-2.273836 0.52719,0 0.95553,0.230644 0.95553,1.120616 v 9.358931 c 0,0.856678 -0.3295,1.450107 -1.25207,1.450107 -0.92258,0 -1.25207,-0.593429 -1.25207,-1.450107 v -6.261369 h -6.8e-4 z" />
    <path
       style="opacity:0.8;fill:#ffffff;fill-opacity:1"
       inkscape:connector-curvature="0"
       id="path16-3-8-3"
       d="m 293.07915,42.380955 h -2.12522 c -0.54366,0 -0.8402,-0.197695 -0.8402,-0.873496 0,-0.609216 0.32949,-0.774305 1.18651,-0.93905 l 0.60956,-0.131454 c 1.82902,-0.39539 1.31797,-2.273835 2.71865,-2.273835 0.52719,0 0.95552,0.230644 0.95552,1.120272 v 9.358932 c 0,0.856678 -0.32949,1.449762 -1.25206,1.449762 -0.92258,0 -1.25207,-0.593084 -1.25207,-1.449762 v -6.261369 h -6.9e-4 z" />
    <path
       style="opacity:0.8;fill:#ffffff;fill-opacity:1"
       inkscape:connector-curvature="0"
       id="path18-4-7-7"
       d="m 319.50712,42.380955 h -2.12488 c -0.54366,0 -0.8402,-0.197695 -0.8402,-0.873496 0,-0.609216 0.32949,-0.774305 1.18651,-0.93905 l 0.60888,-0.131454 c 1.82867,-0.39539 1.3183,-2.273835 2.71899,-2.273835 0.52684,0 0.95518,0.230644 0.95518,1.120272 v 9.358932 c 0,0.856678 -0.32915,1.449762 -1.25173,1.449762 -0.92257,0 -1.25172,-0.593084 -1.25172,-1.449762 v -6.261369 h -10e-4 z" />
    <path
       style="opacity:0.8;fill:#ffffff;fill-opacity:1"
       inkscape:connector-curvature="0"
       id="path20-5-8-8"
       d="m 320.42935,73.270786 h -2.12487 c -0.54366,0 -0.84055,-0.197694 -0.84055,-0.873496 0,-0.608873 0.32983,-0.774305 1.18651,-0.938708 l 0.60922,-0.131796 c 1.82868,-0.395047 1.31796,-2.273835 2.71899,-2.273835 0.52684,0 0.95518,0.230644 0.95518,1.120614 v 9.358932 c 0,0.856678 -0.32915,1.450106 -1.25207,1.450106 -0.92257,0 -1.25172,-0.593428 -1.25172,-1.450106 l -6.9e-4,-6.261711 z" />
    <path
       style="opacity:0.8;fill:#ffffff;fill-opacity:1"
       inkscape:connector-curvature="0"
       id="path22-2-0-1"
       d="m 306.1428,73.270786 h -2.12487 c -0.54366,0 -0.84055,-0.197694 -0.84055,-0.873496 0,-0.608873 0.32984,-0.774305 1.18651,-0.938708 l 0.60922,-0.131796 c 1.82868,-0.395047 1.31797,-2.273835 2.71899,-2.273835 0.52685,0 0.95519,0.230644 0.95519,1.120614 v 9.358932 c 0,0.856678 -0.32915,1.450106 -1.25207,1.450106 -0.92258,0 -1.25173,-0.593428 -1.25173,-1.450106 l -6.9e-4,-6.261711 z" />
    <path
       style="opacity:0.8;fill:#ffffff;fill-opacity:1"
       inkscape:connector-curvature="0"
       id="path24-5-5-0"
       d="m 293.29367,88.715702 h -2.12522 c -0.54367,0 -0.84021,-0.197695 -0.84021,-0.873496 0,-0.608873 0.32949,-0.774305 1.18651,-0.938709 l 0.60956,-0.131795 c 1.82902,-0.395048 1.31797,-2.273836 2.71865,-2.273836 0.52719,0 0.95553,0.230644 0.95553,1.120616 v 9.358931 c 0,0.856678 -0.32949,1.450107 -1.25207,1.450107 -0.92258,0 -1.25207,-0.593429 -1.25207,-1.450107 v -6.261369 h -6.8e-4 z" />
    <path
       style="opacity:0.8;fill:#ffffff;fill-opacity:1"
       inkscape:connector-curvature="0"
       id="path48-8-4-9"
       d="m 333.75591,27.363349 h -2.12522 c -0.54366,0 -0.8402,-0.197695 -0.8402,-0.873496 0,-0.609216 0.32983,-0.774305 1.18651,-0.93905 l 0.60921,-0.131454 c 1.82868,-0.39539 1.31797,-2.273835 2.71865,-2.273835 0.52719,0 0.95553,0.230645 0.95553,1.120272 v 9.358932 c 0,0.856678 -0.32949,1.449763 -1.25207,1.449763 -0.92258,0 -1.25172,-0.593085 -1.25172,-1.449763 l -6.9e-4,-6.261369 z" />
    <path
       style="opacity:0.8;fill:#ffffff;fill-opacity:1"
       inkscape:connector-curvature="0"
       id="path50-8-6-5"
       d="m 333.75591,89.143011 h -2.12488 c -0.54366,0 -0.84054,-0.197695 -0.84054,-0.873497 0,-0.609216 0.32983,-0.774304 1.18651,-0.939049 l 0.60921,-0.131455 c 1.82868,-0.39539 1.31797,-2.273835 2.719,-2.273835 0.52684,0 0.95518,0.230644 0.95518,1.120272 v 9.359275 c 0,0.856335 -0.32915,1.449763 -1.25207,1.449763 -0.92258,0 -1.25207,-0.593428 -1.25207,-1.449763 v -6.261711 h -3.4e-4 z" />
    <path
       style="opacity:0.8;fill:#ffffff;fill-opacity:1"
       inkscape:connector-curvature="0"
       id="path10-1-9"
       d="m 34.376628,27.363349 h -2.125221 c -0.543661,0 -0.840203,-0.197695 -0.840203,-0.873152 0,-0.60956 0.329491,-0.774305 1.186513,-0.939051 l 0.609559,-0.131797 c 1.828678,-0.395733 1.317623,-2.273835 2.718305,-2.273835 0.527186,0 0.955525,0.230645 0.955525,1.120272 v 9.358589 c 0,0.856679 -0.329491,1.449762 -1.252067,1.449762 -0.922577,0 -1.252068,-0.593083 -1.252068,-1.449762 l -3.43e-4,-6.261026 z" />
    <path
       style="opacity:0.8;fill:#ffffff;fill-opacity:1"
       inkscape:connector-curvature="0"
       id="path12-6-73"
       d="m 46.02484,57.82587 h -2.125221 c -0.543661,0 -0.840203,-0.197695 -0.840203,-0.873494 0,-0.609216 0.329491,-0.774305 1.186513,-0.939051 l 0.609559,-0.131454 c 1.829021,-0.395389 1.317966,-2.273834 2.718648,-2.273834 0.527187,0 0.955526,0.230644 0.955526,1.120271 v 9.358932 c 0,0.856678 -0.329492,1.450106 -1.252068,1.450106 -0.922577,0 -1.252068,-0.593428 -1.252068,-1.450106 v -6.26137 h -6.86e-4 z" />
    <path
       style="opacity:0.8;fill:#ffffff;fill-opacity:1"
       inkscape:connector-curvature="0"
       id="path14-6-83"
       d="m 34.591484,88.715702 h -2.125221 c -0.543661,0 -0.840203,-0.197695 -0.840203,-0.873496 0,-0.608873 0.329491,-0.774305 1.186513,-0.938709 l 0.609559,-0.131795 c 1.829021,-0.395048 1.317966,-2.273836 2.718648,-2.273836 0.527187,0 0.955526,0.230644 0.955526,1.120616 v 9.358931 c 0,0.856678 -0.329492,1.450107 -1.252068,1.450107 -0.922576,0 -1.252068,-0.593429 -1.252068,-1.450107 v -6.261369 h -6.86e-4 z" />
    <path
       style="opacity:0.8;fill:#ffffff;fill-opacity:1"
       inkscape:connector-curvature="0"
       id="path16-3-9"
       d="m 58.380772,42.380955 h -2.125221 c -0.543661,0 -0.840203,-0.197695 -0.840203,-0.873496 0,-0.609216 0.329492,-0.774305 1.186513,-0.93905 l 0.609559,-0.131454 c 1.829021,-0.39539 1.317966,-2.273835 2.718648,-2.273835 0.527187,0 0.955526,0.230644 0.955526,1.120272 v 9.358932 c 0,0.856678 -0.329492,1.449762 -1.252068,1.449762 -0.922576,0 -1.252068,-0.593084 -1.252068,-1.449762 v -6.261369 h -6.86e-4 z" />
    <path
       style="opacity:0.8;fill:#ffffff;fill-opacity:1"
       inkscape:connector-curvature="0"
       id="path18-4-4"
       d="m 84.808739,42.380955 h -2.12488 c -0.54366,0 -0.8402,-0.197695 -0.8402,-0.873496 0,-0.609216 0.32949,-0.774305 1.18651,-0.93905 l 0.60888,-0.131454 c 1.82867,-0.39539 1.3183,-2.273835 2.71899,-2.273835 0.52684,0 0.95518,0.230644 0.95518,1.120272 v 9.358932 c 0,0.856678 -0.32915,1.449762 -1.25173,1.449762 -0.92257,0 -1.25172,-0.593084 -1.25172,-1.449762 v -6.261369 h -0.001 z" />
    <path
       style="opacity:0.8;fill:#ffffff;fill-opacity:1"
       inkscape:connector-curvature="0"
       id="path20-5-0"
       d="m 85.730969,73.270786 h -2.12487 c -0.54366,0 -0.84055,-0.197694 -0.84055,-0.873496 0,-0.608873 0.32983,-0.774305 1.18651,-0.938708 l 0.60922,-0.131796 c 1.82868,-0.395047 1.31796,-2.273835 2.71899,-2.273835 0.52684,0 0.95518,0.230644 0.95518,1.120614 v 9.358932 c 0,0.856678 -0.32915,1.450106 -1.25207,1.450106 -0.92257,0 -1.25172,-0.593428 -1.25172,-1.450106 l -6.9e-4,-6.261711 z" />
    <path
       style="opacity:0.8;fill:#ffffff;fill-opacity:1"
       inkscape:connector-curvature="0"
       id="path22-2-01"
       d="m 71.444424,73.270786 h -2.124877 c -0.543661,0 -0.840546,-0.197694 -0.840546,-0.873496 0,-0.608873 0.329834,-0.774305 1.186512,-0.938708 l 0.609216,-0.131796 c 1.828678,-0.395047 1.317966,-2.273835 2.718988,-2.273835 0.52685,0 0.95519,0.230644 0.95519,1.120614 v 9.358932 c 0,0.856678 -0.32915,1.450106 -1.25207,1.450106 -0.92258,0 -1.251726,-0.593428 -1.251726,-1.450106 l -6.87e-4,-6.261711 z" />
    <path
       style="opacity:0.8;fill:#ffffff;fill-opacity:1"
       inkscape:connector-curvature="0"
       id="path24-5-0"
       d="m 58.595284,88.715702 h -2.12522 c -0.543661,0 -0.840203,-0.197695 -0.840203,-0.873496 0,-0.608873 0.329491,-0.774305 1.186512,-0.938709 l 0.60956,-0.131795 c 1.829021,-0.395048 1.317966,-2.273836 2.718648,-2.273836 0.527186,0 0.955525,0.230644 0.955525,1.120616 v 9.358931 c 0,0.856678 -0.329491,1.450107 -1.252067,1.450107 -0.922577,0 -1.252068,-0.593429 -1.252068,-1.450107 v -6.261369 h -6.87e-4 z" />
    <path
       style="opacity:0.8;fill:#ffffff;fill-opacity:1"
       inkscape:connector-curvature="0"
       id="path48-8-1"
       d="m 99.057529,27.363349 h -2.12522 c -0.54366,0 -0.8402,-0.197695 -0.8402,-0.873496 0,-0.609216 0.32983,-0.774305 1.18651,-0.93905 l 0.60921,-0.131454 c 1.82868,-0.39539 1.31797,-2.273835 2.718651,-2.273835 0.52719,0 0.95553,0.230645 0.95553,1.120272 v 9.358932 c 0,0.856678 -0.32949,1.449763 -1.25207,1.449763 -0.922581,0 -1.251721,-0.593085 -1.251721,-1.449763 l -6.9e-4,-6.261369 z" />
    <path
       style="opacity:0.8;fill:#ffffff;fill-opacity:1"
       inkscape:connector-curvature="0"
       id="path50-8-0"
       d="m 99.057529,89.143011 h -2.12488 c -0.54366,0 -0.84054,-0.197695 -0.84054,-0.873497 0,-0.609216 0.32983,-0.774304 1.18651,-0.939049 l 0.60921,-0.131455 c 1.82868,-0.39539 1.31797,-2.273835 2.719001,-2.273835 0.52684,0 0.95518,0.230644 0.95518,1.120272 v 9.359275 c 0,0.856335 -0.32915,1.449763 -1.25207,1.449763 -0.922581,0 -1.252071,-0.593428 -1.252071,-1.449763 v -6.261711 h -3.4e-4 z" />
  </g>
  <rect
     width="370"
     height="5"
     id="rect4-3"
     x="0"
     y="120"
     style="fill:#1f884b;fill-opacity:1" />
</svg>
