<?xml version="1.0" encoding="UTF-8"?>
<!-- Generator: Adobe Illustrator 16.0.0, SVG Export Plug-In . SVG Version: 6.00 Build 0)  -->
<!DOCTYPE svg PUBLIC "-//W3C//DTD SVG 1.1//EN" "http://www.w3.org/Graphics/SVG/1.1/DTD/svg11.dtd">
<svg version="1.1" id="Layer_1" xmlns="http://www.w3.org/2000/svg" xmlns:xlink="http://www.w3.org/1999/xlink" x="0px" y="0px" width="360px" height="360px" viewBox="0 0 360 360" enable-background="new 0 0 360 360" xml:space="preserve">
<rect fill="#3B97D2" width="360" height="360"/>
<circle opacity="0.8" fill-rule="evenodd" clip-rule="evenodd" fill="#05668C" cx="180" cy="180" r="126"/>
<path fill-rule="evenodd" clip-rule="evenodd" fill="#05668C" d="M177.254,305.97c-69.571-1.518-124.74-59.146-123.223-128.718  c0.453-20.773,5.778-31.702,5.778-31.702s64.615,52.333,113.414,53.397c52.43,1.144,128.359-48.124,128.359-48.124  s4.764,14.78,4.391,31.923C304.455,252.317,246.826,307.486,177.254,305.97z"/>
<g>
	<defs>
		<path id="SVGID_1_" d="M54,180c0-69.588,56.412-126,126-126c26.771,0,114.592-14.236,135,0c32.643,22.77-9,83.183-9,126    c0,69.588-56.412,126-126,126S54,249.588,54,180z"/>
	</defs>
	<clipPath id="SVGID_2_">
		<use xlink:href="#SVGID_1_" overflow="visible"/>
	</clipPath>
	<g clip-path="url(#SVGID_2_)">
		<path fill-rule="evenodd" clip-rule="evenodd" fill="#FFFBF5" d="M149.038,143.102c1.143-0.366,2.165-0.366,2.55-0.861    c12.782-16.398,30.03-22.247,50.252-25.015c21.04-2.882,41.778-8.958,62.178-15.186c18.942-5.782,36.985-14.089,51.441-30.514    c-2.273,22.863-24.931,63.246-43.863,79.58c1.73,0.881,3.396,1.729,5.929,3.021c-9.462,18.471-20.057,36.06-33.281,51.751    c-3.242,3.848-10.524,4.854-16.186,5.968c-7.312,1.437-14.866,1.666-22.934,3.953c6.305,3.033,12.61,6.068,20.41,9.819    c-3.312,4.13-5.222,7.632-8.102,9.901c-10.571,8.313-21.381,16.328-32.268,24.231c-5.737,4.166-12.248,5.151-19.248,3.585    c-8.405-1.878-16.88-3.461-28.086-5.732c7.308,6.32,12.562,10.861,17.926,15.494c-23.006,15.931-81.646,20.642-109.761,8.613    c-0.044-0.093-0.129-0.155,1.338-3.547c0.256-0.595,2.714-4.296,3.602-5.221c18.008-14.086,35.96-29.018,54.847-42.65    c18.872-13.627,38.683-25.959,57.812-39.317c-42.61,17.28-81.652,40.468-117.798,73.383c-0.585-5.009-1.371-8.099-1.242-11.15    c1.481-35.121,18.261-62.538,43.815-85.212c15.835-14.05,34.102-24.415,53.468-32.832c2.038-0.888,4.374-1.088,7.641-1.861    C149.304,137.156,149.172,140.055,149.038,143.102z"/>
	</g>
	<g clip-path="url(#SVGID_2_)">
		<defs>
			<path id="SVGID_3_" d="M36,279c0,0,135-99,153-108s63-27,81-45s45.459-45.475,45-54s36,45,36,45l-81,117L99,315L36,279z"/>
		</defs>
		<clipPath id="SVGID_4_">
			<use xlink:href="#SVGID_3_" overflow="visible"/>
		</clipPath>
		<g opacity="0.2" clip-path="url(#SVGID_4_)">
			<path fill-rule="evenodd" clip-rule="evenodd" fill="#D0D2D3" d="M149.038,143.102c1.143-0.366,2.165-0.366,2.55-0.861     c12.782-16.398,30.03-22.247,50.252-25.015c21.04-2.882,41.778-8.958,62.178-15.186c18.942-5.782,36.985-14.089,51.441-30.514     c-2.273,22.863-24.931,63.246-43.863,79.58c1.73,0.881,3.396,1.729,5.929,3.021c-9.462,18.471-20.057,36.06-33.281,51.751     c-3.242,3.848-10.524,4.854-16.186,5.968c-7.312,1.437-14.866,1.666-22.934,3.953c6.305,3.033,12.61,6.068,20.41,9.819     c-3.312,4.13-5.222,7.632-8.102,9.901c-10.571,8.313-21.381,16.328-32.268,24.231c-5.737,4.166-12.248,5.151-19.248,3.585     c-8.405-1.878-16.88-3.461-28.086-5.732c7.308,6.32,12.562,10.861,17.926,15.494c-23.006,15.931-81.646,20.642-109.761,8.613     c-0.044-0.093-0.129-0.155,1.338-3.547c0.256-0.595,2.714-4.296,3.602-5.221c18.008-14.086,35.96-29.018,54.847-42.65     c18.872-13.627,38.683-25.959,57.812-39.317c-42.61,17.28-81.652,40.468-117.798,73.383c-0.585-5.009-1.371-8.099-1.242-11.15     c1.481-35.121,18.261-62.538,43.815-85.212c15.835-14.05,34.102-24.415,53.468-32.832c2.038-0.888,4.374-1.088,7.641-1.861     C149.304,137.156,149.172,140.055,149.038,143.102z"/>
		</g>
	</g>
</g>
</svg>