<?xml version="1.0" encoding="UTF-8" standalone="no"?>
<!-- Generator: Adobe Illustrator 16.0.0, SVG Export Plug-In . SVG Version: 6.00 Build 0)  -->

<svg
   xmlns:dc="http://purl.org/dc/elements/1.1/"
   xmlns:cc="http://creativecommons.org/ns#"
   xmlns:rdf="http://www.w3.org/1999/02/22-rdf-syntax-ns#"
   xmlns:svg="http://www.w3.org/2000/svg"
   xmlns="http://www.w3.org/2000/svg"
   xmlns:xlink="http://www.w3.org/1999/xlink"
   xmlns:sodipodi="http://sodipodi.sourceforge.net/DTD/sodipodi-0.dtd"
   xmlns:inkscape="http://www.inkscape.org/namespaces/inkscape"
   version="1.1"
   id="Layer_1"
   x="0px"
   y="0px"
   width="370"
   height="125"
   viewBox="0 0 370 125"
   enable-background="new 0 0 360 360"
   xml:space="preserve"
   inkscape:version="0.48.3.1 r9886"
   sodipodi:docname="ch-docs.svg"><metadata
     id="metadata37"><rdf:RDF><cc:Work
         rdf:about=""><dc:format>image/svg+xml</dc:format><dc:type
           rdf:resource="http://purl.org/dc/dcmitype/StillImage" /></cc:Work></rdf:RDF></metadata><defs
     id="defs35"><defs
       id="defs11"><path
         inkscape:connector-curvature="0"
         d="m 54,180 c 0,-69.588 56.412,-126 126,-126 26.771,0 114.592,-14.236 135,0 32.643,22.77 -9,83.183 -9,126 0,69.588 -56.412,126 -126,126 C 110.412,306 54,249.588 54,180 z"
         id="SVGID_1_" /></defs><clipPath
       id="SVGID_2_"><use
         height="360"
         width="360"
         y="0"
         x="0"
         style="overflow:visible"
         id="use15"
         overflow="visible"
         xlink:href="#SVGID_1_" /></clipPath><clipPath
       id="SVGID_2_-7-3"><use
         height="360"
         width="360"
         y="0"
         x="0"
         style="overflow:visible"
         id="use15-5-5"
         overflow="visible"
         xlink:href="#SVGID_1_" /></clipPath><clipPath
       id="SVGID_4_-8-7"><use
         xlink:href="#SVGID_3_-6-3"
         overflow="visible"
         id="use27-7-2"
         style="overflow:visible"
         x="0"
         y="0"
         width="360"
         height="360" /></clipPath><clipPath
       id="SVGID_2_-7-3-1"><use
         height="360"
         width="360"
         y="0"
         x="0"
         style="overflow:visible"
         id="use15-5-5-1"
         overflow="visible"
         xlink:href="#SVGID_1_" /></clipPath><clipPath
       id="SVGID_4_-8-7-3"><use
         xlink:href="#SVGID_3_-6-3-4"
         overflow="visible"
         id="use27-7-2-3"
         style="overflow:visible"
         x="0"
         y="0"
         width="360"
         height="360" /></clipPath><clipPath
       id="SVGID_2_-7-3-10"><use
         height="360"
         width="360"
         y="0"
         x="0"
         style="overflow:visible"
         id="use15-5-5-9"
         overflow="visible"
         xlink:href="#SVGID_1_" /></clipPath><clipPath
       id="SVGID_4_-8-7-6"><use
         xlink:href="#SVGID_3_-6-3-7"
         overflow="visible"
         id="use27-7-2-8"
         style="overflow:visible"
         x="0"
         y="0"
         width="360"
         height="360" /></clipPath><clipPath
       id="SVGID_2_-7-3-1-1"><use
         height="360"
         width="360"
         y="0"
         x="0"
         style="overflow:visible"
         id="use15-5-5-1-9"
         overflow="visible"
         xlink:href="#SVGID_1_" /></clipPath><clipPath
       id="SVGID_4_-8-7-3-5"><use
         xlink:href="#SVGID_3_-6-3-4-8"
         overflow="visible"
         id="use27-7-2-3-6"
         style="overflow:visible"
         x="0"
         y="0"
         width="360"
         height="360" /></clipPath></defs><sodipodi:namedview
     pagecolor="#ffffff"
     bordercolor="#666666"
     borderopacity="1"
     objecttolerance="10"
     gridtolerance="10"
     guidetolerance="10"
     inkscape:pageopacity="0"
     inkscape:pageshadow="2"
     inkscape:window-width="1366"
     inkscape:window-height="706"
     id="namedview33"
     showgrid="false"
     inkscape:zoom="2.6222222"
     inkscape:cx="160.44361"
     inkscape:cy="77.50941"
     inkscape:window-x="0"
     inkscape:window-y="28"
     inkscape:window-maximized="1"
     inkscape:current-layer="Layer_1" /><rect
     width="370"
     height="125"
     id="rect3"
     x="0"
     y="1.4210855e-14"
     style="fill:#3f5770;fill-opacity:1" /><path
     clip-rule="evenodd"
     d="M 174.39875,-49.634455 C -65.812194,-48.440078 -15.040375,32.02434 -12.671614,69.313651 c 0.707326,11.133946 9.0221799,16.991689 9.0221799,16.991689 0,0 100.8945651,-28.049525 177.0928741,-28.619809 81.86801,-0.613163 200.42911,25.793577 200.42911,25.793577 0,0 7.43885,-7.921808 6.85641,-17.11014 -2.37034,-37.288774 33.88073,-117.1978 -206.33021,-116.003423 z"
     id="path7"
     inkscape:connector-curvature="0"
     style="opacity:0.20384617;fill:#2c3e50;fill-opacity:1;fill-rule:evenodd"
     sodipodi:nodetypes="zscsccz" /><g
     id="g3022-1-6"
     transform="matrix(-0.44983343,-0.67785799,-0.67785799,0.44983343,310.45685,123.03486)"><g
       transform="matrix(0.38862109,0,0,0.38862109,9.4814066,-12.790878)"
       clip-path="url(#SVGID_2_-7-3)"
       id="g17-5-7"><path
         clip-rule="evenodd"
         d="m 149.038,143.102 c 1.143,-0.366 2.165,-0.366 2.55,-0.861 12.782,-16.398 30.03,-22.247 50.252,-25.015 21.04,-2.882 41.778,-8.958 62.178,-15.186 18.942,-5.782 36.985,-14.089 51.441,-30.514 -2.273,22.863 -24.931,63.246 -43.863,79.58 1.73,0.881 3.396,1.729 5.929,3.021 -9.462,18.471 -20.057,36.06 -33.281,51.751 -3.242,3.848 -10.524,4.854 -16.186,5.968 -7.312,1.437 -14.866,1.666 -22.934,3.953 6.305,3.033 12.61,6.068 20.41,9.819 -3.312,4.13 -5.222,7.632 -8.102,9.901 -10.571,8.313 -21.381,16.328 -32.268,24.231 -5.737,4.166 -12.248,5.151 -19.248,3.585 -8.405,-1.878 -16.88,-3.461 -28.086,-5.732 7.308,6.32 12.562,10.861 17.926,15.494 -23.006,15.931 -81.646,20.642 -109.761,8.613 -0.044,-0.093 -0.129,-0.155 1.338,-3.547 0.256,-0.595 2.714,-4.296 3.602,-5.221 18.008,-14.086 35.96,-29.018 54.847,-42.65 18.872,-13.627 38.683,-25.959 57.812,-39.317 -42.61,17.28 -81.652,40.468 -117.798,73.383 -0.585,-5.009 -1.371,-8.099 -1.242,-11.15 1.481,-35.121 18.261,-62.538 43.815,-85.212 15.835,-14.05 34.102,-24.415 53.468,-32.832 2.038,-0.888 4.374,-1.088 7.641,-1.861 -0.174,3.853 -0.306,6.752 -0.44,9.799 z"
         id="path19-5-3"
         inkscape:connector-curvature="0"
         style="fill:#fffbf5;fill-rule:evenodd" /></g><g
       transform="matrix(0.38862109,0,0,0.38862109,9.4814066,-12.790878)"
       clip-path="url(#SVGID_2_-7-3)"
       id="g21-6-0"><defs
         id="defs23-1-1"><path
           id="SVGID_3_-6-3"
           d="m 36,279 c 0,0 135,-99 153,-108 18,-9 63,-27 81,-45 18,-18 45.459,-45.475 45,-54 -0.459,-8.525 36,45 36,45 L 270,234 99,315 36,279 z"
           inkscape:connector-curvature="0" /></defs><clipPath
         id="clipPath3825-2"><use
           xlink:href="#SVGID_3_-6-3"
           overflow="visible"
           id="use3827-9"
           style="overflow:visible"
           x="0"
           y="0"
           width="360"
           height="360" /></clipPath><g
         clip-path="url(#SVGID_4_-8-7)"
         id="g29-8-1"
         style="opacity:0.2"><path
           clip-rule="evenodd"
           d="m 149.038,143.102 c 1.143,-0.366 2.165,-0.366 2.55,-0.861 12.782,-16.398 30.03,-22.247 50.252,-25.015 21.04,-2.882 41.778,-8.958 62.178,-15.186 18.942,-5.782 36.985,-14.089 51.441,-30.514 -2.273,22.863 -24.931,63.246 -43.863,79.58 1.73,0.881 3.396,1.729 5.929,3.021 -9.462,18.471 -20.057,36.06 -33.281,51.751 -3.242,3.848 -10.524,4.854 -16.186,5.968 -7.312,1.437 -14.866,1.666 -22.934,3.953 6.305,3.033 12.61,6.068 20.41,9.819 -3.312,4.13 -5.222,7.632 -8.102,9.901 -10.571,8.313 -21.381,16.328 -32.268,24.231 -5.737,4.166 -12.248,5.151 -19.248,3.585 -8.405,-1.878 -16.88,-3.461 -28.086,-5.732 7.308,6.32 12.562,10.861 17.926,15.494 -23.006,15.931 -81.646,20.642 -109.761,8.613 -0.044,-0.093 -0.129,-0.155 1.338,-3.547 0.256,-0.595 2.714,-4.296 3.602,-5.221 18.008,-14.086 35.96,-29.018 54.847,-42.65 18.872,-13.627 38.683,-25.959 57.812,-39.317 -42.61,17.28 -81.652,40.468 -117.798,73.383 -0.585,-5.009 -1.371,-8.099 -1.242,-11.15 1.481,-35.121 18.261,-62.538 43.815,-85.212 15.835,-14.05 34.102,-24.415 53.468,-32.832 2.038,-0.888 4.374,-1.088 7.641,-1.861 -0.174,3.853 -0.306,6.752 -0.44,9.799 z"
           id="path31-1-1"
           inkscape:connector-curvature="0"
           style="fill:#d0d2d3;fill-rule:evenodd" /></g></g></g><g
     id="g3022-1-6-7"
     transform="matrix(0.44983343,-0.67785799,0.67785799,0.44983343,60.026212,123.03486)"><g
       transform="matrix(0.38862109,0,0,0.38862109,9.4814066,-12.790878)"
       clip-path="url(#SVGID_2_-7-3-1)"
       id="g17-5-7-2"><path
         clip-rule="evenodd"
         d="m 149.038,143.102 c 1.143,-0.366 2.165,-0.366 2.55,-0.861 12.782,-16.398 30.03,-22.247 50.252,-25.015 21.04,-2.882 41.778,-8.958 62.178,-15.186 18.942,-5.782 36.985,-14.089 51.441,-30.514 -2.273,22.863 -24.931,63.246 -43.863,79.58 1.73,0.881 3.396,1.729 5.929,3.021 -9.462,18.471 -20.057,36.06 -33.281,51.751 -3.242,3.848 -10.524,4.854 -16.186,5.968 -7.312,1.437 -14.866,1.666 -22.934,3.953 6.305,3.033 12.61,6.068 20.41,9.819 -3.312,4.13 -5.222,7.632 -8.102,9.901 -10.571,8.313 -21.381,16.328 -32.268,24.231 -5.737,4.166 -12.248,5.151 -19.248,3.585 -8.405,-1.878 -16.88,-3.461 -28.086,-5.732 7.308,6.32 12.562,10.861 17.926,15.494 -23.006,15.931 -81.646,20.642 -109.761,8.613 -0.044,-0.093 -0.129,-0.155 1.338,-3.547 0.256,-0.595 2.714,-4.296 3.602,-5.221 18.008,-14.086 35.96,-29.018 54.847,-42.65 18.872,-13.627 38.683,-25.959 57.812,-39.317 -42.61,17.28 -81.652,40.468 -117.798,73.383 -0.585,-5.009 -1.371,-8.099 -1.242,-11.15 1.481,-35.121 18.261,-62.538 43.815,-85.212 15.835,-14.05 34.102,-24.415 53.468,-32.832 2.038,-0.888 4.374,-1.088 7.641,-1.861 -0.174,3.853 -0.306,6.752 -0.44,9.799 z"
         id="path19-5-3-0"
         inkscape:connector-curvature="0"
         style="fill:#fffbf5;fill-rule:evenodd" /></g><g
       transform="matrix(0.38862109,0,0,0.38862109,9.4814066,-12.790878)"
       clip-path="url(#SVGID_2_-7-3-1)"
       id="g21-6-0-7"><defs
         id="defs23-1-1-9"><path
           id="SVGID_3_-6-3-4"
           d="m 36,279 c 0,0 135,-99 153,-108 18,-9 63,-27 81,-45 18,-18 45.459,-45.475 45,-54 -0.459,-8.525 36,45 36,45 L 270,234 99,315 36,279 z"
           inkscape:connector-curvature="0" /></defs><clipPath
         id="clipPath3825-2-2"><use
           xlink:href="#SVGID_3_-6-3-4"
           overflow="visible"
           id="use3827-9-5"
           style="overflow:visible"
           x="0"
           y="0"
           width="360"
           height="360" /></clipPath><g
         clip-path="url(#SVGID_4_-8-7-3)"
         id="g29-8-1-2"
         style="opacity:0.2"><path
           clip-rule="evenodd"
           d="m 149.038,143.102 c 1.143,-0.366 2.165,-0.366 2.55,-0.861 12.782,-16.398 30.03,-22.247 50.252,-25.015 21.04,-2.882 41.778,-8.958 62.178,-15.186 18.942,-5.782 36.985,-14.089 51.441,-30.514 -2.273,22.863 -24.931,63.246 -43.863,79.58 1.73,0.881 3.396,1.729 5.929,3.021 -9.462,18.471 -20.057,36.06 -33.281,51.751 -3.242,3.848 -10.524,4.854 -16.186,5.968 -7.312,1.437 -14.866,1.666 -22.934,3.953 6.305,3.033 12.61,6.068 20.41,9.819 -3.312,4.13 -5.222,7.632 -8.102,9.901 -10.571,8.313 -21.381,16.328 -32.268,24.231 -5.737,4.166 -12.248,5.151 -19.248,3.585 -8.405,-1.878 -16.88,-3.461 -28.086,-5.732 7.308,6.32 12.562,10.861 17.926,15.494 -23.006,15.931 -81.646,20.642 -109.761,8.613 -0.044,-0.093 -0.129,-0.155 1.338,-3.547 0.256,-0.595 2.714,-4.296 3.602,-5.221 18.008,-14.086 35.96,-29.018 54.847,-42.65 18.872,-13.627 38.683,-25.959 57.812,-39.317 -42.61,17.28 -81.652,40.468 -117.798,73.383 -0.585,-5.009 -1.371,-8.099 -1.242,-11.15 1.481,-35.121 18.261,-62.538 43.815,-85.212 15.835,-14.05 34.102,-24.415 53.468,-32.832 2.038,-0.888 4.374,-1.088 7.641,-1.861 -0.174,3.853 -0.306,6.752 -0.44,9.799 z"
           id="path31-1-1-6"
           inkscape:connector-curvature="0"
           style="fill:#d0d2d3;fill-rule:evenodd" /></g></g></g><g
     id="g3022"
     transform="matrix(0.5529358,-0.83322387,0.83322387,0.5529358,92.315391,110.17949)"><g
       transform="matrix(0.38862109,0,0,0.38862109,9.4814066,-12.790878)"
       clip-path="url(#SVGID_2_)"
       id="g17"><path
         clip-rule="evenodd"
         d="m 149.038,143.102 c 1.143,-0.366 2.165,-0.366 2.55,-0.861 12.782,-16.398 30.03,-22.247 50.252,-25.015 21.04,-2.882 41.778,-8.958 62.178,-15.186 18.942,-5.782 36.985,-14.089 51.441,-30.514 -2.273,22.863 -24.931,63.246 -43.863,79.58 1.73,0.881 3.396,1.729 5.929,3.021 -9.462,18.471 -20.057,36.06 -33.281,51.751 -3.242,3.848 -10.524,4.854 -16.186,5.968 -7.312,1.437 -14.866,1.666 -22.934,3.953 6.305,3.033 12.61,6.068 20.41,9.819 -3.312,4.13 -5.222,7.632 -8.102,9.901 -10.571,8.313 -21.381,16.328 -32.268,24.231 -5.737,4.166 -12.248,5.151 -19.248,3.585 -8.405,-1.878 -16.88,-3.461 -28.086,-5.732 7.308,6.32 12.562,10.861 17.926,15.494 -23.006,15.931 -81.646,20.642 -109.761,8.613 -0.044,-0.093 -0.129,-0.155 1.338,-3.547 0.256,-0.595 2.714,-4.296 3.602,-5.221 18.008,-14.086 35.96,-29.018 54.847,-42.65 18.872,-13.627 38.683,-25.959 57.812,-39.317 -42.61,17.28 -81.652,40.468 -117.798,73.383 -0.585,-5.009 -1.371,-8.099 -1.242,-11.15 1.481,-35.121 18.261,-62.538 43.815,-85.212 15.835,-14.05 34.102,-24.415 53.468,-32.832 2.038,-0.888 4.374,-1.088 7.641,-1.861 -0.174,3.853 -0.306,6.752 -0.44,9.799 z"
         id="path19"
         inkscape:connector-curvature="0"
         style="fill:#fffbf5;fill-rule:evenodd" /></g><g
       transform="matrix(0.38862109,0,0,0.38862109,9.4814066,-12.790878)"
       clip-path="url(#SVGID_2_)"
       id="g21"><defs
         id="defs23"><path
           id="SVGID_3_"
           d="m 36,279 c 0,0 135,-99 153,-108 18,-9 63,-27 81,-45 18,-18 45.459,-45.475 45,-54 -0.459,-8.525 36,45 36,45 L 270,234 99,315 36,279 z"
           inkscape:connector-curvature="0" /></defs><clipPath
         id="SVGID_4_"><use
           xlink:href="#SVGID_3_"
           overflow="visible"
           id="use27"
           style="overflow:visible"
           x="0"
           y="0"
           width="360"
           height="360" /></clipPath><g
         clip-path="url(#SVGID_4_)"
         id="g29"
         style="opacity:0.2"><path
           clip-rule="evenodd"
           d="m 149.038,143.102 c 1.143,-0.366 2.165,-0.366 2.55,-0.861 12.782,-16.398 30.03,-22.247 50.252,-25.015 21.04,-2.882 41.778,-8.958 62.178,-15.186 18.942,-5.782 36.985,-14.089 51.441,-30.514 -2.273,22.863 -24.931,63.246 -43.863,79.58 1.73,0.881 3.396,1.729 5.929,3.021 -9.462,18.471 -20.057,36.06 -33.281,51.751 -3.242,3.848 -10.524,4.854 -16.186,5.968 -7.312,1.437 -14.866,1.666 -22.934,3.953 6.305,3.033 12.61,6.068 20.41,9.819 -3.312,4.13 -5.222,7.632 -8.102,9.901 -10.571,8.313 -21.381,16.328 -32.268,24.231 -5.737,4.166 -12.248,5.151 -19.248,3.585 -8.405,-1.878 -16.88,-3.461 -28.086,-5.732 7.308,6.32 12.562,10.861 17.926,15.494 -23.006,15.931 -81.646,20.642 -109.761,8.613 -0.044,-0.093 -0.129,-0.155 1.338,-3.547 0.256,-0.595 2.714,-4.296 3.602,-5.221 18.008,-14.086 35.96,-29.018 54.847,-42.65 18.872,-13.627 38.683,-25.959 57.812,-39.317 -42.61,17.28 -81.652,40.468 -117.798,73.383 -0.585,-5.009 -1.371,-8.099 -1.242,-11.15 1.481,-35.121 18.261,-62.538 43.815,-85.212 15.835,-14.05 34.102,-24.415 53.468,-32.832 2.038,-0.888 4.374,-1.088 7.641,-1.861 -0.174,3.853 -0.306,6.752 -0.44,9.799 z"
           id="path31"
           inkscape:connector-curvature="0"
           style="fill:#d0d2d3;fill-rule:evenodd" /></g></g></g><g
     id="g3022-1-6-6"
     transform="matrix(-0.44983343,-0.67785799,-0.67785799,0.44983343,360.07337,141.54334)"><g
       transform="matrix(0.38862109,0,0,0.38862109,9.4814066,-12.790878)"
       clip-path="url(#SVGID_2_-7-3-10)"
       id="g17-5-7-1"><path
         clip-rule="evenodd"
         d="m 149.038,143.102 c 1.143,-0.366 2.165,-0.366 2.55,-0.861 12.782,-16.398 30.03,-22.247 50.252,-25.015 21.04,-2.882 41.778,-8.958 62.178,-15.186 18.942,-5.782 36.985,-14.089 51.441,-30.514 -2.273,22.863 -24.931,63.246 -43.863,79.58 1.73,0.881 3.396,1.729 5.929,3.021 -9.462,18.471 -20.057,36.06 -33.281,51.751 -3.242,3.848 -10.524,4.854 -16.186,5.968 -7.312,1.437 -14.866,1.666 -22.934,3.953 6.305,3.033 12.61,6.068 20.41,9.819 -3.312,4.13 -5.222,7.632 -8.102,9.901 -10.571,8.313 -21.381,16.328 -32.268,24.231 -5.737,4.166 -12.248,5.151 -19.248,3.585 -8.405,-1.878 -16.88,-3.461 -28.086,-5.732 7.308,6.32 12.562,10.861 17.926,15.494 -23.006,15.931 -81.646,20.642 -109.761,8.613 -0.044,-0.093 -0.129,-0.155 1.338,-3.547 0.256,-0.595 2.714,-4.296 3.602,-5.221 18.008,-14.086 35.96,-29.018 54.847,-42.65 18.872,-13.627 38.683,-25.959 57.812,-39.317 -42.61,17.28 -81.652,40.468 -117.798,73.383 -0.585,-5.009 -1.371,-8.099 -1.242,-11.15 1.481,-35.121 18.261,-62.538 43.815,-85.212 15.835,-14.05 34.102,-24.415 53.468,-32.832 2.038,-0.888 4.374,-1.088 7.641,-1.861 -0.174,3.853 -0.306,6.752 -0.44,9.799 z"
         id="path19-5-3-4"
         inkscape:connector-curvature="0"
         style="fill:#fffbf5;fill-rule:evenodd" /></g><g
       transform="matrix(0.38862109,0,0,0.38862109,9.4814066,-12.790878)"
       clip-path="url(#SVGID_2_-7-3-10)"
       id="g21-6-0-3"><defs
         id="defs23-1-1-4"><path
           id="SVGID_3_-6-3-7"
           d="m 36,279 c 0,0 135,-99 153,-108 18,-9 63,-27 81,-45 18,-18 45.459,-45.475 45,-54 -0.459,-8.525 36,45 36,45 L 270,234 99,315 36,279 z"
           inkscape:connector-curvature="0" /></defs><clipPath
         id="clipPath3825-2-7"><use
           xlink:href="#SVGID_3_-6-3-7"
           overflow="visible"
           id="use3827-9-9"
           style="overflow:visible"
           x="0"
           y="0"
           width="360"
           height="360" /></clipPath><g
         clip-path="url(#SVGID_4_-8-7-6)"
         id="g29-8-1-9"
         style="opacity:0.2"><path
           clip-rule="evenodd"
           d="m 149.038,143.102 c 1.143,-0.366 2.165,-0.366 2.55,-0.861 12.782,-16.398 30.03,-22.247 50.252,-25.015 21.04,-2.882 41.778,-8.958 62.178,-15.186 18.942,-5.782 36.985,-14.089 51.441,-30.514 -2.273,22.863 -24.931,63.246 -43.863,79.58 1.73,0.881 3.396,1.729 5.929,3.021 -9.462,18.471 -20.057,36.06 -33.281,51.751 -3.242,3.848 -10.524,4.854 -16.186,5.968 -7.312,1.437 -14.866,1.666 -22.934,3.953 6.305,3.033 12.61,6.068 20.41,9.819 -3.312,4.13 -5.222,7.632 -8.102,9.901 -10.571,8.313 -21.381,16.328 -32.268,24.231 -5.737,4.166 -12.248,5.151 -19.248,3.585 -8.405,-1.878 -16.88,-3.461 -28.086,-5.732 7.308,6.32 12.562,10.861 17.926,15.494 -23.006,15.931 -81.646,20.642 -109.761,8.613 -0.044,-0.093 -0.129,-0.155 1.338,-3.547 0.256,-0.595 2.714,-4.296 3.602,-5.221 18.008,-14.086 35.96,-29.018 54.847,-42.65 18.872,-13.627 38.683,-25.959 57.812,-39.317 -42.61,17.28 -81.652,40.468 -117.798,73.383 -0.585,-5.009 -1.371,-8.099 -1.242,-11.15 1.481,-35.121 18.261,-62.538 43.815,-85.212 15.835,-14.05 34.102,-24.415 53.468,-32.832 2.038,-0.888 4.374,-1.088 7.641,-1.861 -0.174,3.853 -0.306,6.752 -0.44,9.799 z"
           id="path31-1-1-62"
           inkscape:connector-curvature="0"
           style="fill:#d0d2d3;fill-rule:evenodd" /></g></g></g><g
     id="g4174"><g
       transform="matrix(0.44983343,-0.67785799,0.67785799,0.44983343,10.409684,141.54334)"
       id="g3022-1-6-7-5"><g
         id="g17-5-7-2-3"
         clip-path="url(#SVGID_2_-7-3-1-1)"
         transform="matrix(0.38862109,0,0,0.38862109,9.4814066,-12.790878)"><path
           style="fill:#fffbf5;fill-rule:evenodd"
           inkscape:connector-curvature="0"
           id="path19-5-3-0-9"
           d="m 149.038,143.102 c 1.143,-0.366 2.165,-0.366 2.55,-0.861 12.782,-16.398 30.03,-22.247 50.252,-25.015 21.04,-2.882 41.778,-8.958 62.178,-15.186 18.942,-5.782 36.985,-14.089 51.441,-30.514 -2.273,22.863 -24.931,63.246 -43.863,79.58 1.73,0.881 3.396,1.729 5.929,3.021 -9.462,18.471 -20.057,36.06 -33.281,51.751 -3.242,3.848 -10.524,4.854 -16.186,5.968 -7.312,1.437 -14.866,1.666 -22.934,3.953 6.305,3.033 12.61,6.068 20.41,9.819 -3.312,4.13 -5.222,7.632 -8.102,9.901 -10.571,8.313 -21.381,16.328 -32.268,24.231 -5.737,4.166 -12.248,5.151 -19.248,3.585 -8.405,-1.878 -16.88,-3.461 -28.086,-5.732 7.308,6.32 12.562,10.861 17.926,15.494 -23.006,15.931 -81.646,20.642 -109.761,8.613 -0.044,-0.093 -0.129,-0.155 1.338,-3.547 0.256,-0.595 2.714,-4.296 3.602,-5.221 18.008,-14.086 35.96,-29.018 54.847,-42.65 18.872,-13.627 38.683,-25.959 57.812,-39.317 -42.61,17.28 -81.652,40.468 -117.798,73.383 -0.585,-5.009 -1.371,-8.099 -1.242,-11.15 1.481,-35.121 18.261,-62.538 43.815,-85.212 15.835,-14.05 34.102,-24.415 53.468,-32.832 2.038,-0.888 4.374,-1.088 7.641,-1.861 -0.174,3.853 -0.306,6.752 -0.44,9.799 z"
           clip-rule="evenodd" /></g><g
         id="g21-6-0-7-7"
         clip-path="url(#SVGID_2_-7-3-1-1)"
         transform="matrix(0.38862109,0,0,0.38862109,9.4814066,-12.790878)"><defs
           id="defs23-1-1-9-0"><path
             inkscape:connector-curvature="0"
             d="m 36,279 c 0,0 135,-99 153,-108 18,-9 63,-27 81,-45 18,-18 45.459,-45.475 45,-54 -0.459,-8.525 36,45 36,45 L 270,234 99,315 36,279 z"
             id="SVGID_3_-6-3-4-8" /></defs><clipPath
           id="clipPath3825-2-2-3"><use
             height="360"
             width="360"
             y="0"
             x="0"
             style="overflow:visible"
             id="use3827-9-5-5"
             overflow="visible"
             xlink:href="#SVGID_3_-6-3-4-8" /></clipPath><g
           style="opacity:0.2"
           id="g29-8-1-2-3"
           clip-path="url(#SVGID_4_-8-7-3-5)"><path
             style="fill:#d0d2d3;fill-rule:evenodd"
             inkscape:connector-curvature="0"
             id="path31-1-1-6-6"
             d="m 149.038,143.102 c 1.143,-0.366 2.165,-0.366 2.55,-0.861 12.782,-16.398 30.03,-22.247 50.252,-25.015 21.04,-2.882 41.778,-8.958 62.178,-15.186 18.942,-5.782 36.985,-14.089 51.441,-30.514 -2.273,22.863 -24.931,63.246 -43.863,79.58 1.73,0.881 3.396,1.729 5.929,3.021 -9.462,18.471 -20.057,36.06 -33.281,51.751 -3.242,3.848 -10.524,4.854 -16.186,5.968 -7.312,1.437 -14.866,1.666 -22.934,3.953 6.305,3.033 12.61,6.068 20.41,9.819 -3.312,4.13 -5.222,7.632 -8.102,9.901 -10.571,8.313 -21.381,16.328 -32.268,24.231 -5.737,4.166 -12.248,5.151 -19.248,3.585 -8.405,-1.878 -16.88,-3.461 -28.086,-5.732 7.308,6.32 12.562,10.861 17.926,15.494 -23.006,15.931 -81.646,20.642 -109.761,8.613 -0.044,-0.093 -0.129,-0.155 1.338,-3.547 0.256,-0.595 2.714,-4.296 3.602,-5.221 18.008,-14.086 35.96,-29.018 54.847,-42.65 18.872,-13.627 38.683,-25.959 57.812,-39.317 -42.61,17.28 -81.652,40.468 -117.798,73.383 -0.585,-5.009 -1.371,-8.099 -1.242,-11.15 1.481,-35.121 18.261,-62.538 43.815,-85.212 15.835,-14.05 34.102,-24.415 53.468,-32.832 2.038,-0.888 4.374,-1.088 7.641,-1.861 -0.174,3.853 -0.306,6.752 -0.44,9.799 z"
             clip-rule="evenodd" /></g></g></g></g><rect
     width="370"
     height="5"
     id="rect3-8"
     x="0"
     y="120"
     style="fill:#2c3e50;fill-opacity:1" /></svg>