<?xml version="1.0" encoding="UTF-8" standalone="no"?>
<!-- Created with Inkscape (http://www.inkscape.org/) -->

<svg
   xmlns:dc="http://purl.org/dc/elements/1.1/"
   xmlns:cc="http://creativecommons.org/ns#"
   xmlns:rdf="http://www.w3.org/1999/02/22-rdf-syntax-ns#"
   xmlns:svg="http://www.w3.org/2000/svg"
   xmlns="http://www.w3.org/2000/svg"
   xmlns:sodipodi="http://sodipodi.sourceforge.net/DTD/sodipodi-0.dtd"
   xmlns:inkscape="http://www.inkscape.org/namespaces/inkscape"
   id="svg2"
   version="1.1"
   inkscape:version="0.48.4 r9939"
   width="800"
   height="600"
   sodipodi:docname="cnti-logo.svg">
  <metadata
     id="metadata8">
    <rdf:RDF>
      <cc:Work
         rdf:about="">
        <dc:format>image/svg+xml</dc:format>
        <dc:type
           rdf:resource="http://purl.org/dc/dcmitype/StillImage" />
        <dc:title />
      </cc:Work>
    </rdf:RDF>
  </metadata>
  <defs
     id="defs6" />
  <sodipodi:namedview
     pagecolor="#ffffff"
     bordercolor="#666666"
     borderopacity="1"
     objecttolerance="10"
     gridtolerance="10"
     guidetolerance="10"
     inkscape:pageopacity="0"
     inkscape:pageshadow="2"
     inkscape:window-width="1440"
     inkscape:window-height="844"
     id="namedview4"
     showgrid="false"
     inkscape:zoom="0.921875"
     inkscape:cx="311.71735"
     inkscape:cy="199.5222"
     inkscape:window-x="0"
     inkscape:window-y="27"
     inkscape:window-maximized="1"
     inkscape:current-layer="svg2" />
  <path
     inkscape:connector-curvature="0"
     id="path3419"
     d="m 349.55242,484.37757 c -5.34916,2.12821 -9.68109,3.54524 -9.68109,3.00832 7.23951,-7.4851 15.74797,-15.13603 22.83953,-22.87404 29.87112,-32.80646 47.64791,-75.33793 45.11397,-107.93669 C 406.406,338.32171 396.33496,309.78891 383.42285,289.19004 344.01525,226.32261 105.55058,112.5 105.55058,112.5 c 0,0 66.36822,15.74179 99.12431,25.09191 148.74828,42.45974 253.92128,96.4719 293.21929,146.00991 40.8393,51.48093 7.90027,94.90341 -33.64578,131.84665 -36.51878,32.47303 -77.132,53.984 -114.69598,68.9291 z m 172.60912,-20.2877 c 18.45363,-22.64303 42.64087,-48.5164 49.52332,-76.27554 15.61729,-67.59474 -36.98698,-105.3795 -84.63777,-137.28162 -89.76189,-60.09543 -131.54192,-72.89486 -166.00057,-88.60406 -4.9061,-2.64626 49.09079,10.4449 83.85589,20.33029 117.97915,33.54706 199.08321,70.35173 234.09898,110.45832 10.08737,11.55392 21.65651,26.33354 24.85549,39.35361 7.13043,29.02138 -3.08454,51.69865 -22.28767,69.73045 -32.95305,30.94299 -80.82693,48.01622 -119.40767,62.28855 z m 138.74133,-30.60542 c -0.18757,-0.19136 3.65646,-4.56171 8.54224,-9.71191 10.81709,-11.40263 18.06259,-21.59566 23.99595,-33.75732 6.78993,-13.9176 8.58526,-21.28106 8.62816,-35.38947 0.0914,-30.06527 -7.94501,-52.8815 -52.62784,-85.25144 -46.3836,-33.60206 -150.60328,-71.72082 -165.60552,-77.7358 101.37672,21.11501 200.15141,46.0259 266.48091,101.47109 22.49281,22.59612 32.59834,40.45204 17.52842,69.42197 -6.15172,11.82587 -25.67557,29.94529 -47.02144,42.0741 -21.34586,12.12882 -34.69505,17.88485 -59.92088,28.87878 z M 30.710398,379.91377 c -4.95807,-2.56058 -5.692078,-5.85606 -5.71015,-25.63697 -0.01871,-20.4441 1.011886,-24.54522 6.56409,-26.12131 4.1217,-1.17002 51.269197,-1.1538 55.387991,0.0191 3.709097,1.05621 6.484978,6.60762 6.484978,12.96915 0,3.78885 -0.286134,4.10815 -4.278366,4.77393 -2.353106,0.39243 -5.690231,0.98185 -7.41584,1.30981 -3.051,0.57986 -3.137466,0.44931 -3.137466,-4.73653 l 0,-5.33287 -19.395272,0 -19.395267,0 0,16.88543 0,16.88541 19.395267,0 19.395272,0 0,-5.9488 c 0,-5.58622 0.15646,-5.90902 2.567016,-5.29597 1.411865,0.35904 4.74899,1.00685 7.41584,1.43957 4.83466,0.78448 4.848816,0.80142 4.848816,5.80243 0,7.36423 -1.703737,10.86216 -6.231037,12.79294 -5.309166,2.26421 -52.175896,2.42573 -56.495872,0.19468 z M 132.2233,381.1184 c -0.002,-0.16013 -0.0683,-12.34383 -0.14632,-27.0749 l -0.14176,-26.78379 4.4912,-0.34716 c 4.13255,-0.31944 6.12579,0.83248 24.96086,14.42553 11.25826,8.12498 22.26657,16.18473 24.46279,17.91056 2.19624,1.72583 4.50656,3.43858 5.13404,3.80611 0.73988,0.43336 1.1409,-5.73983 1.1409,-17.56341 l 0,-18.23163 6.27494,0 6.27494,0 0.30622,27.07491 0.30633,27.07491 -5.25954,0 c -5.43615,0 -9.22337,-2.46461 -47.83432,-31.12925 l -6.84539,-5.08198 -0.31421,18.10561 -0.3142,18.10562 -6.24596,0 c -3.43529,0 -6.24802,-0.13101 -6.25052,-0.29113 z m 127.78516,-21.8346 0,-22.12573 -14.26123,0 -14.26123,0 0,-5.2569 0,-5.25689 35.65308,0.30772 35.65306,0.30771 0.35083,4.94919 0.35083,4.94917 -14.32684,0 -14.32683,0 0,22.12573 0,22.12573 -7.41583,0 -7.41584,0 z m 69.59479,-5.29588 0,-27.42158 7.13061,0.34669 7.13062,0.34668 0.30621,27.07491 0.30633,27.07491 -7.43694,0 -7.43683,0 z"
     style="fill:#4375db;fill-opacity:1"
     sodipodi:nodetypes="sccsscssssccscssssccssssccsscsssssssscccccccsssssscscssssscccccsscccscccccccccccccccccccccccaccc" />
</svg>
