<?xml version="1.0" encoding="UTF-8" standalone="no"?>
<!-- Created with Inkscape (http://www.inkscape.org/) -->

<svg
   xmlns:dc="http://purl.org/dc/elements/1.1/"
   xmlns:cc="http://creativecommons.org/ns#"
   xmlns:rdf="http://www.w3.org/1999/02/22-rdf-syntax-ns#"
   xmlns:svg="http://www.w3.org/2000/svg"
   xmlns="http://www.w3.org/2000/svg"
   xmlns:sodipodi="http://sodipodi.sourceforge.net/DTD/sodipodi-0.dtd"
   xmlns:inkscape="http://www.inkscape.org/namespaces/inkscape"
   id="svg3139"
   version="1.1"
   inkscape:version="0.48.4 r9939"
   width="800"
   height="600"
   sodipodi:docname="fidetel-logo.svg">
  <metadata
     id="metadata3145">
    <rdf:RDF>
      <cc:Work
         rdf:about="">
        <dc:format>image/svg+xml</dc:format>
        <dc:type
           rdf:resource="http://purl.org/dc/dcmitype/StillImage" />
        <dc:title />
      </cc:Work>
    </rdf:RDF>
  </metadata>
  <defs
     id="defs3143" />
  <sodipodi:namedview
     pagecolor="#ffffff"
     bordercolor="#666666"
     borderopacity="1"
     objecttolerance="10"
     gridtolerance="10"
     guidetolerance="10"
     inkscape:pageopacity="0"
     inkscape:pageshadow="2"
     inkscape:window-width="1440"
     inkscape:window-height="844"
     id="namedview3141"
     showgrid="false"
     inkscape:zoom="0.57275649"
     inkscape:cx="-21.217483"
     inkscape:cy="115.43478"
     inkscape:window-x="0"
     inkscape:window-y="27"
     inkscape:window-maximized="1"
     inkscape:current-layer="svg3139" />
  <path
     style="fill:#162f64;fill-opacity:1"
     d="M 46.13449,438.63964 25,417.27928 25,322.03047 25,226.78166 68.378331,183.39083 111.75667,140 l 21.66871,21.88858 21.66871,21.8886 0,33.07794 0,33.07796 -19.87549,19.77894 c -10.93151,10.8784 -19.87548,20.61767 -19.87548,21.64279 0,1.02512 9.48812,10.33818 20.91833,21.71227 l 18.68764,18.59586 c 0.44435,21.59457 0,43.90163 0,65.27721 l -20.67891,21.43435 -22.63079,22.68689 -4.92386,-5.90952 -4.92388,-5.90951 -15.31844,15.37882 C 78.048061,453.07952 70.280471,460 69.21189,460 c -1.06858,0 -11.45342,-9.61216 -23.0774,-21.36036 z m 38.98728,1.9297 13.961998,-14.0196 -14.456108,-14.346 -14.45611,-14.34598 0,28.3656 c 0,15.60109 0.22235,28.36561 0.4941,28.36561 0.27176,0 6.777,-6.30883 14.45612,-14.01963 z m 66.26547,-76.33673 -0.19169,-31.73684 -19.70259,-19.60685 -19.70257,-19.60688 -19.657042,18.8775 C 81.32199,322.54218 72.36428,331.64137 72.22736,332.38001 c -0.13696,0.73863 9.10157,10.73778 20.529968,22.22035 l 20.778922,20.87742 0,29.15223 0,29.15222 19.02135,-18.9064 19.02133,-18.90637 z m -17.9755,-11.55144 c 5.39786,-5.45612 17.47061,-20.35817 17.9675,-20.35817 0.49689,0 -10.76278,14.90205 -16.16064,20.35817 -5.39785,5.45613 -21.37431,22.44576 -21.8712,22.44576 -0.49689,0 14.66648,-16.98963 20.06434,-22.44576 z m -42.481782,-43.56312 18.992572,-19.21345 0,-29.20888 0,-29.20886 -19.875492,20.10944 -19.875488,20.10942 0,28.31291 c 0,15.5721 0.39731,28.3129 0.88292,28.3129 0.48561,0 9.42958,-8.64606 19.875488,-19.21348 z M 111.70713,226.40967 152.3393,185.81664 132.04655,165.55968 111.75382,145.3027 71.08909,185.86324 c -22.3656,22.30827 -40.66559,41.24675 -40.66662,42.08547 -0.002,2.14763 36.64657,38.94856 38.84565,39.00644 0.99377,0.0262 20.09133,-18.21931 42.43901,-40.54548 z M 69.759511,186.31541 c 16.98919,15.66394 23.634018,21.88232 40.770899,41.99883 C 92.137158,210.48513 85.15091,203.24525 69.759511,186.31541 z M 197.4961,378.4289 c -0.4994,-1.29909 -0.69035,-23.04524 -0.42436,-48.32474 l 0.48363,-45.96273 38.84754,0 38.84755,0 0.52771,13.97851 0.52773,13.97849 -24.46866,0 c -23.26406,0 -24.46864,0.17767 -24.46864,3.60736 0,3.42981 1.20458,3.60735 24.4752,3.60735 l 24.4752,0 -0.53427,12.17483 -0.53427,12.17482 -23.87613,0.50283 -23.87612,0.50281 -0.51653,17.53396 -0.51651,17.53396 -14.03054,0.52729 c -10.28842,0.38664 -14.27272,-0.10263 -14.93853,-1.83474 z m 88.89669,1.00683 c -0.66253,-0.66133 -1.20458,-22.15474 -1.20458,-47.76309 l 0,-46.56065 4.14073,-1.03742 c 2.2774,-0.57057 8.98538,-0.78897 14.90662,-0.48527 l 10.76588,0.55213 0.48122,48.24838 0.48124,48.24838 -14.18327,0 c -7.80081,0 -14.72534,-0.5411 -15.38784,-1.20246 z m 39.87502,0.12392 c -0.73073,-0.72954 -1.32863,-22.27866 -1.32863,-47.88701 l 0,-46.56065 4.29817,-1.07686 c 2.36397,-0.59227 20.19464,-0.81065 39.62368,-0.48528 32.35708,0.54187 35.75377,0.9055 40.42169,4.32715 9.85936,7.22707 11.41457,13.23038 11.41457,44.06188 0,30.83162 -1.55522,36.83495 -11.41471,44.06191 -4.70862,3.45138 -8.00959,3.77929 -43.39121,4.31033 -21.06222,0.31611 -38.89281,-0.022 -39.62356,-0.75154 z m 61.91157,-47.62077 0,-19.84045 -15.35833,0 -15.35834,0 0,19.84045 0,19.84046 15.35834,0 15.35833,0 z m 40.95556,47.49685 c -0.66252,-0.66133 -1.20458,-22.08338 -1.20458,-47.60449 0,-40.6487 0.35436,-46.53776 2.85807,-47.49683 4.33568,-1.66082 73.59345,-1.25496 76.28134,0.44702 1.64849,1.04383 2.18664,5.19898 1.80686,13.95089 l -0.54088,12.46427 -23.94094,0.50329 c -22.32472,0.46928 -23.94093,0.73972 -23.94093,4.00591 0,3.26619 1.61621,3.53664 23.94093,4.00592 l 23.94094,0.50328 0,11.72389 0,11.72391 -23.94094,0.50328 c -22.44829,0.47188 -23.94093,0.7249 -23.94093,4.05827 0,3.35524 1.31988,3.555 23.48922,3.555 l 23.48921,0 0,14.42941 0,14.42944 -38.54639,0 c -21.20054,0 -39.08848,-0.5411 -39.75098,-1.20246 z m 113.89734,0.0649 c -0.69826,-0.69707 -1.26958,-16.11358 -1.26958,-34.25894 l 0,-32.99156 -14.00318,-0.5268 -14.00319,-0.52678 -0.54202,-11.43046 c -0.32599,-6.87453 0.30232,-12.44606 1.57638,-13.97849 1.71193,-2.05912 9.9634,-2.54274 43.0033,-2.52043 22.48669,0.0145 41.94138,0.6966 43.23264,1.51422 1.64849,1.04383 2.18664,5.19898 1.80686,13.95089 l -0.54089,12.46427 -13.06016,0.52915 -13.06019,0.52913 -0.49128,33.74074 -0.49131,33.74074 -15.4439,0.51582 c -8.49414,0.28368 -16.0152,-0.0545 -16.71348,-0.75154 z m 66.00648,-47.0756 0.48129,-48.28364 38.84755,0 38.84755,0 0.52771,13.97851 0.52773,13.97849 -24.46866,0 c -23.14396,0 -24.46864,0.19246 -24.46864,3.555 0,3.33338 1.49263,3.58639 23.94093,4.05828 l 23.94093,0.50328 0,11.72389 0,11.72391 -23.94093,0.50328 c -22.4483,0.47188 -23.94093,0.7249 -23.94093,4.05827 0,3.36255 1.32468,3.555 24.46864,3.555 l 24.46866,0 -0.52773,13.9785 -0.52771,13.97851 -39.32884,0.48619 -39.32884,0.48618 z m 88.53627,7e-4 0.4813,-48.28434 11.68886,-0.54725 c 21.42531,-1.00308 19.93123,-3.61562 19.93123,34.85148 l 0,33.33368 22.66178,0 22.6618,0 -0.52773,13.9785 -0.52771,13.97851 -38.42541,0.48689 -38.42541,0.48686 z"
     id="path3151"
     inkscape:connector-curvature="0"
     sodipodi:nodetypes="scccccccccsssccccccsssscccsssccccscsccccccsssssscccccsssscccscssccccscccccssscccccccsccscsscccsccscssssssccccccccccccsssscssscccssscccsccscccsscsscccccsccccccccssscccsssccccccccsscccccccc" />
</svg>
