<?xml version="1.0" encoding="UTF-8" standalone="no"?>
<!-- Created with Inkscape (http://www.inkscape.org/) -->

<svg
   xmlns:dc="http://purl.org/dc/elements/1.1/"
   xmlns:cc="http://creativecommons.org/ns#"
   xmlns:rdf="http://www.w3.org/1999/02/22-rdf-syntax-ns#"
   xmlns:svg="http://www.w3.org/2000/svg"
   xmlns="http://www.w3.org/2000/svg"
   xmlns:xlink="http://www.w3.org/1999/xlink"
   xmlns:sodipodi="http://sodipodi.sourceforge.net/DTD/sodipodi-0.dtd"
   xmlns:inkscape="http://www.inkscape.org/namespaces/inkscape"
   width="2000"
   height="300"
   id="svg6660"
   version="1.1"
   inkscape:version="0.48.3.1 r9886"
   sodipodi:docname="intro-slogan-background.svg"
   inkscape:export-filename="/media/desarrollo/tribus/tribus/data/static/img/intro-slogan-background.png"
   inkscape:export-xdpi="90"
   inkscape:export-ydpi="90">
  <defs
     id="defs6662">
    <linearGradient
       id="linearGradient8294">
      <stop
         style="stop-color:#4b6e27;stop-opacity:1;"
         offset="0"
         id="stop8296" />
      <stop
         style="stop-color:#7cbe4b;stop-opacity:1;"
         offset="1"
         id="stop8298" />
    </linearGradient>
    <linearGradient
       id="linearGradient8268">
      <stop
         style="stop-color:#9dc42d;stop-opacity:1;"
         offset="0"
         id="stop8270" />
      <stop
         style="stop-color:#94b140;stop-opacity:0;"
         offset="1"
         id="stop8272" />
    </linearGradient>
    <linearGradient
       id="linearGradient8146">
      <stop
         style="stop-color:#5d8837;stop-opacity:1;"
         offset="0"
         id="stop8148" />
      <stop
         style="stop-color:#a3db57;stop-opacity:1;"
         offset="1"
         id="stop8150" />
    </linearGradient>
    <linearGradient
       id="linearGradient8146-2">
      <stop
         style="stop-color:#5d8837;stop-opacity:1;"
         offset="0"
         id="stop8148-3" />
      <stop
         style="stop-color:#a3db57;stop-opacity:1;"
         offset="1"
         id="stop8150-8" />
    </linearGradient>
    <linearGradient
       id="linearGradient8294-8">
      <stop
         style="stop-color:#4b6e27;stop-opacity:1;"
         offset="0"
         id="stop8296-8" />
      <stop
         style="stop-color:#7cbe4b;stop-opacity:1;"
         offset="1"
         id="stop8298-5" />
    </linearGradient>
    <linearGradient
       id="linearGradient8268-2">
      <stop
         style="stop-color:#9dc42d;stop-opacity:1;"
         offset="0"
         id="stop8270-5" />
      <stop
         style="stop-color:#94b140;stop-opacity:0;"
         offset="1"
         id="stop8272-6" />
    </linearGradient>
    <linearGradient
       id="linearGradient8146-9">
      <stop
         style="stop-color:#5d8837;stop-opacity:1;"
         offset="0"
         id="stop8148-1" />
      <stop
         style="stop-color:#a3db57;stop-opacity:1;"
         offset="1"
         id="stop8150-4" />
    </linearGradient>
    <linearGradient
       id="linearGradient8294-2">
      <stop
         style="stop-color:#4b6e27;stop-opacity:1;"
         offset="0"
         id="stop8296-1" />
      <stop
         style="stop-color:#7cbe4b;stop-opacity:1;"
         offset="1"
         id="stop8298-7" />
    </linearGradient>
    <linearGradient
       id="linearGradient8268-25">
      <stop
         style="stop-color:#9dc42d;stop-opacity:1;"
         offset="0"
         id="stop8270-8" />
      <stop
         style="stop-color:#94b140;stop-opacity:0;"
         offset="1"
         id="stop8272-9" />
    </linearGradient>
    <linearGradient
       id="linearGradient8146-7">
      <stop
         style="stop-color:#5d8837;stop-opacity:1;"
         offset="0"
         id="stop8148-7" />
      <stop
         style="stop-color:#a3db57;stop-opacity:1;"
         offset="1"
         id="stop8150-2" />
    </linearGradient>
    <linearGradient
       id="linearGradient8294-25">
      <stop
         style="stop-color:#4b6e27;stop-opacity:1;"
         offset="0"
         id="stop8296-7" />
      <stop
         style="stop-color:#7cbe4b;stop-opacity:1;"
         offset="1"
         id="stop8298-0" />
    </linearGradient>
    <linearGradient
       id="linearGradient8268-20">
      <stop
         style="stop-color:#9dc42d;stop-opacity:1;"
         offset="0"
         id="stop8270-6" />
      <stop
         style="stop-color:#94b140;stop-opacity:0;"
         offset="1"
         id="stop8272-5" />
    </linearGradient>
    <linearGradient
       id="linearGradient8146-28">
      <stop
         style="stop-color:#5d8837;stop-opacity:1;"
         offset="0"
         id="stop8148-30" />
      <stop
         style="stop-color:#a3db57;stop-opacity:1;"
         offset="1"
         id="stop8150-0" />
    </linearGradient>
    <linearGradient
       id="linearGradient8294-0">
      <stop
         style="stop-color:#4b6e27;stop-opacity:1;"
         offset="0"
         id="stop8296-2" />
      <stop
         style="stop-color:#7cbe4b;stop-opacity:1;"
         offset="1"
         id="stop8298-3" />
    </linearGradient>
    <linearGradient
       id="linearGradient8268-9">
      <stop
         style="stop-color:#9dc42d;stop-opacity:1;"
         offset="0"
         id="stop8270-1" />
      <stop
         style="stop-color:#94b140;stop-opacity:0;"
         offset="1"
         id="stop8272-4" />
    </linearGradient>
    <linearGradient
       id="linearGradient4005-88-9-3">
      <stop
         id="stop4007-5-5-8"
         offset="0"
         style="stop-color:#d0c898;stop-opacity:1" />
      <stop
         id="stop4009-8-3-5"
         offset="1"
         style="stop-color:#938b4c;stop-opacity:1" />
    </linearGradient>
    <linearGradient
       id="linearGradient4014-5-4-2">
      <stop
         id="stop4016-5-7-7"
         offset="0"
         style="stop-color:#aad559;stop-opacity:1" />
      <stop
         id="stop5275-3-5-3"
         offset="0.67002672"
         style="stop-color:#506b31;stop-opacity:1" />
      <stop
         id="stop4018-3-6-9"
         offset="1"
         style="stop-color:#2f481c;stop-opacity:1" />
    </linearGradient>
    <linearGradient
       id="linearGradient8146-6">
      <stop
         style="stop-color:#5d8837;stop-opacity:1;"
         offset="0"
         id="stop8148-9" />
      <stop
         style="stop-color:#a3db57;stop-opacity:1;"
         offset="1"
         id="stop8150-29" />
    </linearGradient>
    <linearGradient
       id="linearGradient8294-4">
      <stop
         style="stop-color:#4b6e27;stop-opacity:1;"
         offset="0"
         id="stop8296-0" />
      <stop
         style="stop-color:#7cbe4b;stop-opacity:1;"
         offset="1"
         id="stop8298-36" />
    </linearGradient>
    <linearGradient
       id="linearGradient8268-3">
      <stop
         style="stop-color:#9dc42d;stop-opacity:1;"
         offset="0"
         id="stop8270-7" />
      <stop
         style="stop-color:#94b140;stop-opacity:0;"
         offset="1"
         id="stop8272-67" />
    </linearGradient>
    <linearGradient
       id="linearGradient8146-79">
      <stop
         style="stop-color:#5d8837;stop-opacity:1;"
         offset="0"
         id="stop8148-8" />
      <stop
         style="stop-color:#a3db57;stop-opacity:1;"
         offset="1"
         id="stop8150-9" />
    </linearGradient>
    <linearGradient
       id="linearGradient8294-3">
      <stop
         style="stop-color:#4b6e27;stop-opacity:1;"
         offset="0"
         id="stop8296-9" />
      <stop
         style="stop-color:#7cbe4b;stop-opacity:1;"
         offset="1"
         id="stop8298-4" />
    </linearGradient>
    <linearGradient
       id="linearGradient8268-8">
      <stop
         style="stop-color:#9dc42d;stop-opacity:1;"
         offset="0"
         id="stop8270-83" />
      <stop
         style="stop-color:#94b140;stop-opacity:0;"
         offset="1"
         id="stop8272-0" />
    </linearGradient>
    <linearGradient
       id="linearGradient8146-79-7">
      <stop
         style="stop-color:#5d8837;stop-opacity:1;"
         offset="0"
         id="stop8148-8-3" />
      <stop
         style="stop-color:#a3db57;stop-opacity:1;"
         offset="1"
         id="stop8150-9-9" />
    </linearGradient>
    <linearGradient
       id="linearGradient8294-3-0">
      <stop
         style="stop-color:#4b6e27;stop-opacity:1;"
         offset="0"
         id="stop8296-9-6" />
      <stop
         style="stop-color:#7cbe4b;stop-opacity:1;"
         offset="1"
         id="stop8298-4-9" />
    </linearGradient>
    <linearGradient
       id="linearGradient8268-8-5">
      <stop
         style="stop-color:#9dc42d;stop-opacity:1;"
         offset="0"
         id="stop8270-83-6" />
      <stop
         style="stop-color:#94b140;stop-opacity:0;"
         offset="1"
         id="stop8272-0-2" />
    </linearGradient>
    <linearGradient
       id="linearGradient8294-34">
      <stop
         style="stop-color:#4b6e27;stop-opacity:1;"
         offset="0"
         id="stop8296-22" />
      <stop
         style="stop-color:#7cbe4b;stop-opacity:1;"
         offset="1"
         id="stop8298-07" />
    </linearGradient>
    <linearGradient
       id="linearGradient8268-0">
      <stop
         style="stop-color:#9dc42d;stop-opacity:1;"
         offset="0"
         id="stop8270-0" />
      <stop
         style="stop-color:#94b140;stop-opacity:0;"
         offset="1"
         id="stop8272-2" />
    </linearGradient>
    <linearGradient
       id="linearGradient8146-2-1">
      <stop
         style="stop-color:#5d8837;stop-opacity:1;"
         offset="0"
         id="stop8148-3-5" />
      <stop
         style="stop-color:#a3db57;stop-opacity:1;"
         offset="1"
         id="stop8150-8-2" />
    </linearGradient>
    <linearGradient
       id="linearGradient8294-8-7">
      <stop
         style="stop-color:#4b6e27;stop-opacity:1;"
         offset="0"
         id="stop8296-8-4" />
      <stop
         style="stop-color:#7cbe4b;stop-opacity:1;"
         offset="1"
         id="stop8298-5-9" />
    </linearGradient>
    <linearGradient
       id="linearGradient8268-2-0">
      <stop
         style="stop-color:#9dc42d;stop-opacity:1;"
         offset="0"
         id="stop8270-5-4" />
      <stop
         style="stop-color:#94b140;stop-opacity:0;"
         offset="1"
         id="stop8272-6-4" />
    </linearGradient>
    <linearGradient
       id="linearGradient8146-8">
      <stop
         style="stop-color:#5d8837;stop-opacity:1;"
         offset="0"
         id="stop8148-4" />
      <stop
         style="stop-color:#a3db57;stop-opacity:1;"
         offset="1"
         id="stop8150-49" />
    </linearGradient>
    <linearGradient
       id="linearGradient8294-1">
      <stop
         style="stop-color:#4b6e27;stop-opacity:1;"
         offset="0"
         id="stop8296-6" />
      <stop
         style="stop-color:#7cbe4b;stop-opacity:1;"
         offset="1"
         id="stop8298-35" />
    </linearGradient>
    <linearGradient
       id="linearGradient8268-6">
      <stop
         style="stop-color:#9dc42d;stop-opacity:1;"
         offset="0"
         id="stop8270-84" />
      <stop
         style="stop-color:#94b140;stop-opacity:0;"
         offset="1"
         id="stop8272-44" />
    </linearGradient>
    <linearGradient
       id="linearGradient8294-05">
      <stop
         style="stop-color:#4b6e27;stop-opacity:1;"
         offset="0"
         id="stop8296-3" />
      <stop
         style="stop-color:#7cbe4b;stop-opacity:1;"
         offset="1"
         id="stop8298-8" />
    </linearGradient>
    <linearGradient
       id="linearGradient8268-94">
      <stop
         style="stop-color:#9dc42d;stop-opacity:1;"
         offset="0"
         id="stop8270-05" />
      <stop
         style="stop-color:#94b140;stop-opacity:0;"
         offset="1"
         id="stop8272-91" />
    </linearGradient>
    <linearGradient
       id="linearGradient8146-2-1-0">
      <stop
         style="stop-color:#5d8837;stop-opacity:1;"
         offset="0"
         id="stop8148-3-5-5" />
      <stop
         style="stop-color:#a3db57;stop-opacity:1;"
         offset="1"
         id="stop8150-8-2-7" />
    </linearGradient>
    <linearGradient
       id="linearGradient8294-8-7-0">
      <stop
         style="stop-color:#4b6e27;stop-opacity:1;"
         offset="0"
         id="stop8296-8-4-9" />
      <stop
         style="stop-color:#7cbe4b;stop-opacity:1;"
         offset="1"
         id="stop8298-5-9-0" />
    </linearGradient>
    <linearGradient
       id="linearGradient8268-2-0-6">
      <stop
         style="stop-color:#9dc42d;stop-opacity:1;"
         offset="0"
         id="stop8270-5-4-4" />
      <stop
         style="stop-color:#94b140;stop-opacity:0;"
         offset="1"
         id="stop8272-6-4-6" />
    </linearGradient>
    <linearGradient
       id="linearGradient8146-87">
      <stop
         style="stop-color:#5d8837;stop-opacity:1;"
         offset="0"
         id="stop8148-99" />
      <stop
         style="stop-color:#a3db57;stop-opacity:1;"
         offset="1"
         id="stop8150-3" />
    </linearGradient>
    <linearGradient
       id="linearGradient8294-5">
      <stop
         style="stop-color:#4b6e27;stop-opacity:1;"
         offset="0"
         id="stop8296-4" />
      <stop
         style="stop-color:#7cbe4b;stop-opacity:1;"
         offset="1"
         id="stop8298-2" />
    </linearGradient>
    <linearGradient
       id="linearGradient8268-4">
      <stop
         style="stop-color:#9dc42d;stop-opacity:1;"
         offset="0"
         id="stop8270-16" />
      <stop
         style="stop-color:#94b140;stop-opacity:0;"
         offset="1"
         id="stop8272-3" />
    </linearGradient>
    <linearGradient
       id="linearGradient8146-23-5-0">
      <stop
         style="stop-color:#5d8837;stop-opacity:1;"
         offset="0"
         id="stop8148-17-0-5" />
      <stop
         style="stop-color:#a3db57;stop-opacity:1;"
         offset="1"
         id="stop8150-98-5-0" />
    </linearGradient>
    <linearGradient
       id="linearGradient8294-49-3-1">
      <stop
         style="stop-color:#4b6e27;stop-opacity:1;"
         offset="0"
         id="stop8296-64-8-3" />
      <stop
         style="stop-color:#7cbe4b;stop-opacity:1;"
         offset="1"
         id="stop8298-6-7-3" />
    </linearGradient>
    <linearGradient
       id="linearGradient8268-69-6-6">
      <stop
         style="stop-color:#9dc42d;stop-opacity:1;"
         offset="0"
         id="stop8270-836-8-8" />
      <stop
         style="stop-color:#94b140;stop-opacity:0;"
         offset="1"
         id="stop8272-08-8-1" />
    </linearGradient>
    <linearGradient
       id="linearGradient8146-0">
      <stop
         style="stop-color:#5d8837;stop-opacity:1;"
         offset="0"
         id="stop8148-2" />
      <stop
         style="stop-color:#a3db57;stop-opacity:1;"
         offset="1"
         id="stop8150-83" />
    </linearGradient>
    <linearGradient
       id="linearGradient8294-19">
      <stop
         style="stop-color:#4b6e27;stop-opacity:1;"
         offset="0"
         id="stop8296-41" />
      <stop
         style="stop-color:#7cbe4b;stop-opacity:1;"
         offset="1"
         id="stop8298-00" />
    </linearGradient>
    <linearGradient
       id="linearGradient8268-91">
      <stop
         style="stop-color:#9dc42d;stop-opacity:1;"
         offset="0"
         id="stop8270-9" />
      <stop
         style="stop-color:#94b140;stop-opacity:0;"
         offset="1"
         id="stop8272-98" />
    </linearGradient>
    <linearGradient
       id="linearGradient8146-8-8">
      <stop
         style="stop-color:#5d8837;stop-opacity:1;"
         offset="0"
         id="stop8148-4-1" />
      <stop
         style="stop-color:#a3db57;stop-opacity:1;"
         offset="1"
         id="stop8150-49-8" />
    </linearGradient>
    <linearGradient
       id="linearGradient8294-1-2">
      <stop
         style="stop-color:#4b6e27;stop-opacity:1;"
         offset="0"
         id="stop8296-6-1" />
      <stop
         style="stop-color:#7cbe4b;stop-opacity:1;"
         offset="1"
         id="stop8298-35-4" />
    </linearGradient>
    <linearGradient
       id="linearGradient8268-6-4">
      <stop
         style="stop-color:#9dc42d;stop-opacity:1;"
         offset="0"
         id="stop8270-84-3" />
      <stop
         style="stop-color:#94b140;stop-opacity:0;"
         offset="1"
         id="stop8272-44-2" />
    </linearGradient>
    <linearGradient
       id="linearGradient4005-88-9-3-4">
      <stop
         id="stop4007-5-5-8-4"
         offset="0"
         style="stop-color:#d0c898;stop-opacity:1" />
      <stop
         id="stop4009-8-3-5-4"
         offset="1"
         style="stop-color:#938b4c;stop-opacity:1" />
    </linearGradient>
    <linearGradient
       id="linearGradient4014-5-4-2-3">
      <stop
         id="stop4016-5-7-7-6"
         offset="0"
         style="stop-color:#aad559;stop-opacity:1" />
      <stop
         id="stop5275-3-5-3-2"
         offset="0.67002672"
         style="stop-color:#506b31;stop-opacity:1" />
      <stop
         id="stop4018-3-6-9-7"
         offset="1"
         style="stop-color:#2f481c;stop-opacity:1" />
    </linearGradient>
    <linearGradient
       id="linearGradient8146-5">
      <stop
         style="stop-color:#5d8837;stop-opacity:1;"
         offset="0"
         id="stop8148-72" />
      <stop
         style="stop-color:#a3db57;stop-opacity:1;"
         offset="1"
         id="stop8150-58" />
    </linearGradient>
    <linearGradient
       id="linearGradient8294-6">
      <stop
         style="stop-color:#4b6e27;stop-opacity:1;"
         offset="0"
         id="stop8296-26" />
      <stop
         style="stop-color:#7cbe4b;stop-opacity:1;"
         offset="1"
         id="stop8298-05" />
    </linearGradient>
    <linearGradient
       id="linearGradient8268-5">
      <stop
         style="stop-color:#9dc42d;stop-opacity:1;"
         offset="0"
         id="stop8270-02" />
      <stop
         style="stop-color:#94b140;stop-opacity:0;"
         offset="1"
         id="stop8272-65" />
    </linearGradient>
    <linearGradient
       id="linearGradient8294-48">
      <stop
         style="stop-color:#4b6e27;stop-opacity:1;"
         offset="0"
         id="stop8296-52" />
      <stop
         style="stop-color:#7cbe4b;stop-opacity:1;"
         offset="1"
         id="stop8298-1" />
    </linearGradient>
    <linearGradient
       id="linearGradient8268-43">
      <stop
         style="stop-color:#9dc42d;stop-opacity:1;"
         offset="0"
         id="stop8270-66" />
      <stop
         style="stop-color:#94b140;stop-opacity:0;"
         offset="1"
         id="stop8272-60" />
    </linearGradient>
    <linearGradient
       id="linearGradient4014-5-4-2-3-3">
      <stop
         id="stop4016-5-7-7-6-3"
         offset="0"
         style="stop-color:#aad559;stop-opacity:1" />
      <stop
         id="stop5275-3-5-3-2-2"
         offset="0.67002672"
         style="stop-color:#506b31;stop-opacity:1" />
      <stop
         id="stop4018-3-6-9-7-7"
         offset="1"
         style="stop-color:#2f481c;stop-opacity:1" />
    </linearGradient>
    <linearGradient
       id="linearGradient4005-88-9-3-4-5-3">
      <stop
         id="stop4007-5-5-8-4-3-9"
         offset="0"
         style="stop-color:#d0c898;stop-opacity:1" />
      <stop
         id="stop4009-8-3-5-4-6-6"
         offset="1"
         style="stop-color:#938b4c;stop-opacity:1" />
    </linearGradient>
    <linearGradient
       id="linearGradient4005-88-9-3-4-5-3-9">
      <stop
         id="stop4007-5-5-8-4-3-9-0"
         offset="0"
         style="stop-color:#d0c898;stop-opacity:1" />
      <stop
         id="stop4009-8-3-5-4-6-6-5"
         offset="1"
         style="stop-color:#938b4c;stop-opacity:1" />
    </linearGradient>
    <linearGradient
       id="linearGradient4005-88-9-3-4-5-3-9-3">
      <stop
         id="stop4007-5-5-8-4-3-9-0-1"
         offset="0"
         style="stop-color:#d0c898;stop-opacity:1" />
      <stop
         id="stop4009-8-3-5-4-6-6-5-0"
         offset="1"
         style="stop-color:#938b4c;stop-opacity:1" />
    </linearGradient>
    <linearGradient
       id="linearGradient4005-88-9-3-4-5-3-9-7">
      <stop
         id="stop4007-5-5-8-4-3-9-0-9"
         offset="0"
         style="stop-color:#d0c898;stop-opacity:1" />
      <stop
         id="stop4009-8-3-5-4-6-6-5-5"
         offset="1"
         style="stop-color:#938b4c;stop-opacity:1" />
    </linearGradient>
    <radialGradient
       inkscape:collect="always"
       xlink:href="#linearGradient4014-5-4-2-3-3"
       id="radialGradient4584"
       gradientUnits="userSpaceOnUse"
       gradientTransform="matrix(0.29971293,0.91000595,-2.487631,0.81930309,1871.8171,439.52631)"
       cx="511.79999"
       cy="201.86"
       fx="495.69"
       fy="177.89999"
       r="81.779999" />
    <linearGradient
       inkscape:collect="always"
       xlink:href="#linearGradient8268-43"
       id="linearGradient4587"
       gradientUnits="userSpaceOnUse"
       gradientTransform="translate(46.967968,1491.6515)"
       x1="800.96149"
       y1="-358.25974"
       x2="1046.4219"
       y2="-358.25974" />
    <linearGradient
       inkscape:collect="always"
       xlink:href="#linearGradient8294-48"
       id="linearGradient4590"
       gradientUnits="userSpaceOnUse"
       gradientTransform="translate(46.967968,1491.6515)"
       x1="800.60614"
       y1="-356.15219"
       x2="1048.9915"
       y2="-356.15219" />
    <linearGradient
       inkscape:collect="always"
       xlink:href="#linearGradient8268-5"
       id="linearGradient4593"
       gradientUnits="userSpaceOnUse"
       gradientTransform="matrix(1.0607862,-0.1203685,0.11714101,1.0323429,1587.2974,1144.7272)"
       x1="-284.29636"
       y1="-36.166924"
       x2="-67.665321"
       y2="-36.166924" />
    <linearGradient
       inkscape:collect="always"
       xlink:href="#linearGradient8294-6"
       id="linearGradient4596"
       gradientUnits="userSpaceOnUse"
       gradientTransform="matrix(0.99362367,-0.1127475,0.1127475,0.99362367,1581.8289,1137.1001)"
       x1="-295.13675"
       y1="-22.930737"
       x2="-66.644264"
       y2="-22.930737" />
    <linearGradient
       inkscape:collect="always"
       xlink:href="#linearGradient8146-5"
       id="linearGradient4599"
       gradientUnits="userSpaceOnUse"
       gradientTransform="matrix(0.99362367,-0.1127475,0.1127475,0.99362367,1581.8289,1137.1001)"
       x1="-317.51904"
       y1="-30.511564"
       x2="-70.602821"
       y2="-30.511564" />
    <radialGradient
       inkscape:collect="always"
       xlink:href="#linearGradient4014-5-4-2-3"
       id="radialGradient4602"
       gradientUnits="userSpaceOnUse"
       gradientTransform="matrix(0.29971293,0.91000595,-2.487631,0.81930309,1689.6138,420.64389)"
       cx="511.79999"
       cy="201.86"
       fx="495.69"
       fy="177.89999"
       r="81.779999" />
    <radialGradient
       inkscape:collect="always"
       xlink:href="#linearGradient4005-88-9-3-4"
       id="radialGradient4605"
       gradientUnits="userSpaceOnUse"
       gradientTransform="matrix(2.0169894,-1.6656372,0.25270154,0.30600686,47.316238,1980.1578)"
       cx="588.23999"
       cy="261.20999"
       fx="588.23999"
       fy="261.20999"
       r="53.919998" />
    <linearGradient
       inkscape:collect="always"
       xlink:href="#linearGradient8268-6-4"
       id="linearGradient4608"
       gradientUnits="userSpaceOnUse"
       gradientTransform="matrix(0.83764008,-0.54622257,0.54622257,0.83764008,52.937769,1561.3179)"
       x1="1071.8573"
       y1="311.7616"
       x2="1320.889"
       y2="311.7616" />
    <linearGradient
       inkscape:collect="always"
       xlink:href="#linearGradient8294-1-2"
       id="linearGradient4611"
       gradientUnits="userSpaceOnUse"
       gradientTransform="matrix(0.83764008,-0.54622257,0.54622257,0.83764008,52.937769,1561.3179)"
       x1="1071.5018"
       y1="314.53708"
       x2="1319.8871"
       y2="314.53708" />
    <linearGradient
       inkscape:collect="always"
       xlink:href="#linearGradient8146-8-8"
       id="linearGradient4614"
       gradientUnits="userSpaceOnUse"
       gradientTransform="matrix(0.83764008,-0.54622257,0.54622257,0.83764008,52.937769,1561.3179)"
       x1="1022.256"
       y1="310.08679"
       x2="1319.8745"
       y2="310.08679" />
    <linearGradient
       inkscape:collect="always"
       xlink:href="#linearGradient8268-91"
       id="linearGradient4617"
       gradientUnits="userSpaceOnUse"
       gradientTransform="matrix(0.56012483,0,0,0.56012483,645.88952,793.03498)"
       x1="714.65906"
       y1="456.05518"
       x2="960.11945"
       y2="456.05518" />
    <linearGradient
       inkscape:collect="always"
       xlink:href="#linearGradient8294-19"
       id="linearGradient4620"
       gradientUnits="userSpaceOnUse"
       gradientTransform="matrix(0.56012483,0,0,0.56012483,645.88952,793.03498)"
       x1="714.30371"
       y1="458.16275"
       x2="962.68896"
       y2="458.16275" />
    <linearGradient
       inkscape:collect="always"
       xlink:href="#linearGradient8146-0"
       id="linearGradient4623"
       gradientUnits="userSpaceOnUse"
       gradientTransform="matrix(0.56012483,0,0,0.56012483,645.88952,793.03498)"
       x1="661.68744"
       y1="451.87939"
       x2="964.81921"
       y2="451.87939" />
    <linearGradient
       inkscape:collect="always"
       xlink:href="#linearGradient8268-69-6-6"
       id="linearGradient4626"
       gradientUnits="userSpaceOnUse"
       gradientTransform="matrix(-0.46192226,0.01281681,0.01281681,0.46192226,1036.6986,873.66574)"
       x1="-125.6736"
       y1="356.76199"
       x2="131.44052"
       y2="356.76199" />
    <linearGradient
       inkscape:collect="always"
       xlink:href="#linearGradient8294-49-3-1"
       id="linearGradient4629"
       gradientUnits="userSpaceOnUse"
       gradientTransform="matrix(-0.46192226,0.01281681,0.01281681,0.46192226,1036.6986,873.66574)"
       x1="-121.82991"
       y1="357.22543"
       x2="135.16551"
       y2="357.22543" />
    <linearGradient
       inkscape:collect="always"
       xlink:href="#linearGradient8146-23-5-0"
       id="linearGradient4632"
       gradientUnits="userSpaceOnUse"
       gradientTransform="matrix(-0.46192226,0.01281681,0.01281681,0.46192226,1036.6986,873.66574)"
       x1="-162.10246"
       y1="353.62744"
       x2="131.75201"
       y2="353.62744" />
    <linearGradient
       inkscape:collect="always"
       xlink:href="#linearGradient8268-4"
       id="linearGradient4635"
       gradientUnits="userSpaceOnUse"
       gradientTransform="matrix(-1.0607862,-0.1203685,-0.11714101,1.0323429,782.78437,1098.9913)"
       x1="-284.29636"
       y1="-36.166924"
       x2="-67.665321"
       y2="-36.166924" />
    <linearGradient
       inkscape:collect="always"
       xlink:href="#linearGradient8294-5"
       id="linearGradient4638"
       gradientUnits="userSpaceOnUse"
       gradientTransform="matrix(-0.99362367,-0.1127475,-0.1127475,0.99362367,788.25292,1091.3642)"
       x1="-295.13675"
       y1="-22.930737"
       x2="-66.644264"
       y2="-22.930737" />
    <linearGradient
       inkscape:collect="always"
       xlink:href="#linearGradient8146-87"
       id="linearGradient4641"
       gradientUnits="userSpaceOnUse"
       gradientTransform="matrix(-0.99362367,-0.1127475,-0.1127475,0.99362367,788.25292,1091.3642)"
       x1="-317.51904"
       y1="-30.511564"
       x2="-70.602821"
       y2="-30.511564" />
    <linearGradient
       inkscape:collect="always"
       xlink:href="#linearGradient8268-2-0-6"
       id="linearGradient4644"
       gradientUnits="userSpaceOnUse"
       gradientTransform="translate(-800.50425,813.16286)"
       x1="1419.0651"
       y1="318.44125"
       x2="1668.0968"
       y2="318.44125" />
    <linearGradient
       inkscape:collect="always"
       xlink:href="#linearGradient8294-8-7-0"
       id="linearGradient4647"
       gradientUnits="userSpaceOnUse"
       gradientTransform="translate(-800.50425,813.16286)"
       x1="1418.7096"
       y1="324.34216"
       x2="1667.0948"
       y2="324.34216" />
    <linearGradient
       inkscape:collect="always"
       xlink:href="#linearGradient8146-2-1-0"
       id="linearGradient4650"
       gradientUnits="userSpaceOnUse"
       gradientTransform="translate(-800.50425,813.16286)"
       x1="1378.626"
       y1="316.76645"
       x2="1667.0823"
       y2="316.76645" />
    <linearGradient
       inkscape:collect="always"
       xlink:href="#linearGradient8294-05"
       id="linearGradient4656"
       gradientUnits="userSpaceOnUse"
       gradientTransform="matrix(0.70111493,-0.60129331,0.60129331,0.70111493,-643.46776,1786.077)"
       x1="1499.7839"
       y1="308.80493"
       x2="1623.4095"
       y2="265.99149" />
    <linearGradient
       inkscape:collect="always"
       xlink:href="#linearGradient8268-2-0"
       id="linearGradient4659"
       gradientUnits="userSpaceOnUse"
       gradientTransform="translate(-1283.3613,790.02001)"
       x1="1419.0651"
       y1="318.44125"
       x2="1668.0968"
       y2="318.44125" />
    <linearGradient
       inkscape:collect="always"
       xlink:href="#linearGradient8294-8-7"
       id="linearGradient4662"
       gradientUnits="userSpaceOnUse"
       gradientTransform="translate(-1283.3613,790.02001)"
       x1="1418.7096"
       y1="324.34216"
       x2="1667.0948"
       y2="324.34216" />
    <linearGradient
       inkscape:collect="always"
       xlink:href="#linearGradient8146-2-1"
       id="linearGradient4665"
       gradientUnits="userSpaceOnUse"
       gradientTransform="translate(-1283.3613,790.02001)"
       x1="1378.626"
       y1="316.76645"
       x2="1667.0823"
       y2="316.76645" />
    <linearGradient
       inkscape:collect="always"
       xlink:href="#linearGradient8268-0"
       id="linearGradient4668"
       gradientUnits="userSpaceOnUse"
       gradientTransform="matrix(0.95467586,-0.29764745,0.29764745,0.95467586,-789.96927,1627.5)"
       x1="981.45294"
       y1="-193.69746"
       x2="1281.7777"
       y2="-193.69746" />
    <linearGradient
       inkscape:collect="always"
       xlink:href="#linearGradient8294-34"
       id="linearGradient4671"
       gradientUnits="userSpaceOnUse"
       gradientTransform="matrix(0.95467586,-0.29764745,0.29764745,0.95467586,-789.96927,1627.5)"
       x1="984.82971"
       y1="-190.77306"
       x2="1296.873"
       y2="-190.77306" />
    <linearGradient
       inkscape:collect="always"
       xlink:href="#linearGradient8268-8-5"
       id="linearGradient4674"
       gradientUnits="userSpaceOnUse"
       gradientTransform="matrix(-0.85015743,-0.52652857,-0.52652857,0.85015743,299.76947,913.0943)"
       x1="-125.6736"
       y1="356.76199"
       x2="131.44052"
       y2="356.76199" />
    <linearGradient
       inkscape:collect="always"
       xlink:href="#linearGradient8294-3-0"
       id="linearGradient4677"
       gradientUnits="userSpaceOnUse"
       gradientTransform="matrix(-0.85015743,-0.52652857,-0.52652857,0.85015743,299.76947,913.0943)"
       x1="-121.82991"
       y1="357.22543"
       x2="135.16551"
       y2="357.22543" />
    <linearGradient
       inkscape:collect="always"
       xlink:href="#linearGradient8146-79-7"
       id="linearGradient4680"
       gradientUnits="userSpaceOnUse"
       gradientTransform="matrix(-0.85015743,-0.52652857,-0.52652857,0.85015743,299.76947,913.0943)"
       x1="-162.10246"
       y1="353.62744"
       x2="131.75201"
       y2="353.62744" />
    <linearGradient
       inkscape:collect="always"
       xlink:href="#linearGradient8268-8"
       id="linearGradient4683"
       gradientUnits="userSpaceOnUse"
       gradientTransform="matrix(-0.85015743,-0.52652857,-0.52652857,0.85015743,385.2105,832.14419)"
       x1="-125.6736"
       y1="356.76199"
       x2="131.44052"
       y2="356.76199" />
    <linearGradient
       inkscape:collect="always"
       xlink:href="#linearGradient8294-3"
       id="linearGradient4686"
       gradientUnits="userSpaceOnUse"
       gradientTransform="matrix(-0.85015743,-0.52652857,-0.52652857,0.85015743,385.2105,832.14419)"
       x1="-121.82991"
       y1="357.22543"
       x2="135.16551"
       y2="357.22543" />
    <linearGradient
       inkscape:collect="always"
       xlink:href="#linearGradient8146-79"
       id="linearGradient4689"
       gradientUnits="userSpaceOnUse"
       gradientTransform="matrix(-0.85015743,-0.52652857,-0.52652857,0.85015743,385.2105,832.14419)"
       x1="-162.10246"
       y1="353.62744"
       x2="131.75201"
       y2="353.62744" />
    <linearGradient
       inkscape:collect="always"
       xlink:href="#linearGradient8268-3"
       id="linearGradient4692"
       gradientUnits="userSpaceOnUse"
       gradientTransform="matrix(0.45325079,0,0,0.45325079,-151.28564,1261.7345)"
       x1="327.06393"
       y1="-278.52667"
       x2="563.59515"
       y2="-278.52667" />
    <linearGradient
       inkscape:collect="always"
       xlink:href="#linearGradient8294-4"
       id="linearGradient4695"
       gradientUnits="userSpaceOnUse"
       gradientTransform="matrix(0.45325079,0,0,0.45325079,-151.28564,1261.7345)"
       x1="327.65768"
       y1="-274.71594"
       x2="567.1264"
       y2="-274.71594" />
    <linearGradient
       inkscape:collect="always"
       xlink:href="#linearGradient8146-6"
       id="linearGradient4698"
       gradientUnits="userSpaceOnUse"
       gradientTransform="matrix(0.45325079,0,0,0.45325079,-151.28564,1261.7345)"
       x1="262.62634"
       y1="-282.73941"
       x2="566.2522"
       y2="-282.73941" />
    <linearGradient
       inkscape:collect="always"
       xlink:href="#linearGradient8268-9"
       id="linearGradient4701"
       gradientUnits="userSpaceOnUse"
       gradientTransform="matrix(-0.04709894,-0.77488313,0.78279368,-0.04757976,1673.5559,1419.1142)"
       x1="245.93602"
       y1="118.14169"
       x2="559.92554"
       y2="118.14169" />
    <linearGradient
       inkscape:collect="always"
       xlink:href="#linearGradient8294-0"
       id="linearGradient4704"
       gradientUnits="userSpaceOnUse"
       gradientTransform="matrix(-0.04437292,-0.73003404,0.75562438,-0.04592836,1675.56,1404.2116)"
       x1="252.57564"
       y1="139.06999"
       x2="577.95813"
       y2="139.06999" />
    <linearGradient
       inkscape:collect="always"
       xlink:href="#linearGradient8146-28"
       id="linearGradient4707"
       gradientUnits="userSpaceOnUse"
       gradientTransform="matrix(-0.04642681,-0.76382508,0.76382508,-0.04642681,1674.2632,1412.8567)"
       x1="241.32603"
       y1="114.72661"
       x2="564.63568"
       y2="114.72661" />
    <linearGradient
       inkscape:collect="always"
       xlink:href="#linearGradient8268-20"
       id="linearGradient4710"
       gradientUnits="userSpaceOnUse"
       gradientTransform="translate(1851.9461,734.50727)"
       x1="-125.6736"
       y1="356.76199"
       x2="131.44052"
       y2="356.76199" />
    <linearGradient
       inkscape:collect="always"
       xlink:href="#linearGradient8294-25"
       id="linearGradient4713"
       gradientUnits="userSpaceOnUse"
       gradientTransform="translate(1851.9461,734.50727)"
       x1="-121.82991"
       y1="357.22543"
       x2="135.16551"
       y2="357.22543" />
    <linearGradient
       inkscape:collect="always"
       xlink:href="#linearGradient8146-7"
       id="linearGradient4716"
       gradientUnits="userSpaceOnUse"
       gradientTransform="translate(1851.9461,734.50727)"
       x1="-162.10246"
       y1="353.62744"
       x2="131.75201"
       y2="353.62744" />
    <linearGradient
       inkscape:collect="always"
       xlink:href="#linearGradient8268-25"
       id="linearGradient4719"
       gradientUnits="userSpaceOnUse"
       gradientTransform="matrix(-1,0,0,1,3084.8015,821.64234)"
       x1="1071.8573"
       y1="311.7616"
       x2="1320.889"
       y2="311.7616" />
    <linearGradient
       inkscape:collect="always"
       xlink:href="#linearGradient8294-2"
       id="linearGradient4722"
       gradientUnits="userSpaceOnUse"
       gradientTransform="matrix(-1,0,0,1,3084.8015,821.64234)"
       x1="1071.5018"
       y1="314.53708"
       x2="1319.8871"
       y2="314.53708" />
    <linearGradient
       inkscape:collect="always"
       xlink:href="#linearGradient8146-9"
       id="linearGradient4725"
       gradientUnits="userSpaceOnUse"
       gradientTransform="matrix(-1,0,0,1,3084.8015,821.64234)"
       x1="1022.256"
       y1="310.08679"
       x2="1319.8745"
       y2="310.08679" />
    <linearGradient
       inkscape:collect="always"
       xlink:href="#linearGradient8268-2"
       id="linearGradient4728"
       gradientUnits="userSpaceOnUse"
       gradientTransform="matrix(0.39107879,0.11552961,-0.11552961,0.39107879,-155.82991,754.07642)"
       x1="1419.0651"
       y1="318.44125"
       x2="1668.0968"
       y2="318.44125" />
    <linearGradient
       inkscape:collect="always"
       xlink:href="#linearGradient8294-8"
       id="linearGradient4731"
       gradientUnits="userSpaceOnUse"
       gradientTransform="matrix(0.39107879,0.11552961,-0.11552961,0.39107879,-155.82991,754.07642)"
       x1="1418.7096"
       y1="324.34216"
       x2="1667.0948"
       y2="324.34216" />
    <linearGradient
       inkscape:collect="always"
       xlink:href="#linearGradient8146-2"
       id="linearGradient4734"
       gradientUnits="userSpaceOnUse"
       gradientTransform="matrix(0.39107879,0.11552961,-0.11552961,0.39107879,-155.82991,754.07642)"
       x1="1378.626"
       y1="316.76645"
       x2="1667.0823"
       y2="316.76645" />
    <linearGradient
       inkscape:collect="always"
       xlink:href="#linearGradient8268"
       id="linearGradient4737"
       gradientUnits="userSpaceOnUse"
       gradientTransform="matrix(0.30540116,-0.96741621,0.97729228,0.30851891,256.05886,1418.3542)"
       x1="245.93602"
       y1="118.14169"
       x2="559.92554"
       y2="118.14169" />
    <linearGradient
       inkscape:collect="always"
       xlink:href="#linearGradient8294"
       id="linearGradient4740"
       gradientUnits="userSpaceOnUse"
       gradientTransform="matrix(0.28772499,-0.91142359,0.94337229,0.2978108,265.48251,1401.1114)"
       x1="252.57564"
       y1="139.06999"
       x2="577.95813"
       y2="139.06999" />
    <linearGradient
       inkscape:collect="always"
       xlink:href="#linearGradient8146"
       id="linearGradient4743"
       gradientUnits="userSpaceOnUse"
       gradientTransform="matrix(0.3010429,-0.9536106,0.9536106,0.3010429,259.85201,1411.0512)"
       x1="241.32603"
       y1="114.72661"
       x2="564.63568"
       y2="114.72661" />
    <linearGradient
       inkscape:collect="always"
       xlink:href="#linearGradient8268"
       id="linearGradient4746"
       gradientUnits="userSpaceOnUse"
       gradientTransform="matrix(-0.93876901,-0.50839809,-0.49476622,0.91359743,1481.7207,1113.3251)"
       x1="-284.29636"
       y1="-36.166924"
       x2="-67.665321"
       y2="-36.166924" />
    <linearGradient
       inkscape:collect="always"
       xlink:href="#linearGradient8294"
       id="linearGradient4749"
       gradientUnits="userSpaceOnUse"
       gradientTransform="matrix(-0.87933189,-0.47620943,-0.47620943,0.87933189,1489.6451,1108.297)"
       x1="-295.13675"
       y1="-22.930737"
       x2="-66.644264"
       y2="-22.930737" />
    <linearGradient
       inkscape:collect="always"
       xlink:href="#linearGradient8146"
       id="linearGradient4752"
       gradientUnits="userSpaceOnUse"
       gradientTransform="matrix(-0.87933189,-0.47620943,-0.47620943,0.87933189,1489.6451,1108.297)"
       x1="-317.51904"
       y1="-30.511564"
       x2="-70.602821"
       y2="-30.511564" />
    <linearGradient
       inkscape:collect="always"
       xlink:href="#linearGradient8268"
       id="linearGradient4755"
       gradientUnits="userSpaceOnUse"
       gradientTransform="matrix(0.89055948,0.24498898,-0.24498898,0.89055948,655.34958,468.36575)"
       x1="1419.0651"
       y1="318.44125"
       x2="1668.0968"
       y2="318.44125" />
    <linearGradient
       inkscape:collect="always"
       xlink:href="#linearGradient8294"
       id="linearGradient4758"
       gradientUnits="userSpaceOnUse"
       gradientTransform="matrix(0.89055948,0.24498898,-0.24498898,0.89055948,655.34958,468.36575)"
       x1="1418.7096"
       y1="324.34216"
       x2="1667.0948"
       y2="324.34216" />
    <linearGradient
       inkscape:collect="always"
       xlink:href="#linearGradient8146"
       id="linearGradient4761"
       gradientUnits="userSpaceOnUse"
       gradientTransform="matrix(0.89055948,0.24498898,-0.24498898,0.89055948,655.34958,468.36575)"
       x1="1378.626"
       y1="316.76645"
       x2="1667.0823"
       y2="316.76645" />
    <linearGradient
       inkscape:collect="always"
       xlink:href="#linearGradient8268-6"
       id="linearGradient4764"
       gradientUnits="userSpaceOnUse"
       gradientTransform="matrix(0.83764008,-0.54622257,0.54622257,0.83764008,-1098.8776,1497.1183)"
       x1="1071.8573"
       y1="311.7616"
       x2="1320.889"
       y2="311.7616" />
    <linearGradient
       inkscape:collect="always"
       xlink:href="#linearGradient8294-1"
       id="linearGradient4767"
       gradientUnits="userSpaceOnUse"
       gradientTransform="matrix(0.83764008,-0.54622257,0.54622257,0.83764008,-1098.8776,1497.1183)"
       x1="1071.5018"
       y1="314.53708"
       x2="1319.8871"
       y2="314.53708" />
    <linearGradient
       inkscape:collect="always"
       xlink:href="#linearGradient8146-8"
       id="linearGradient4770"
       gradientUnits="userSpaceOnUse"
       gradientTransform="matrix(0.83764008,-0.54622257,0.54622257,0.83764008,-1098.8776,1497.1183)"
       x1="1022.256"
       y1="310.08679"
       x2="1319.8745"
       y2="310.08679" />
    <radialGradient
       inkscape:collect="always"
       xlink:href="#linearGradient4014-5-4-2"
       id="radialGradient4773"
       gradientUnits="userSpaceOnUse"
       gradientTransform="matrix(0.60784962,-0.06962511,0.19032709,1.6616429,201.58302,728.42727)"
       cx="511.79999"
       cy="201.86"
       fx="495.69"
       fy="177.89999"
       r="81.779999" />
    <radialGradient
       inkscape:collect="always"
       xlink:href="#linearGradient4005-88-9-3"
       id="radialGradient4776"
       gradientUnits="userSpaceOnUse"
       gradientTransform="matrix(-0.78048643,-1.4768892,0.22406573,-0.11841121,964.2088,1957.2735)"
       cx="588.23999"
       cy="261.20999"
       fx="588.23999"
       fy="261.20999"
       r="53.919998" />
    <linearGradient
       inkscape:collect="always"
       xlink:href="#linearGradient8268"
       id="linearGradient4779"
       gradientUnits="userSpaceOnUse"
       gradientTransform="matrix(0.64485361,0.19487517,-0.19487517,0.64485361,-155.21605,637.34335)"
       x1="1071.8573"
       y1="311.7616"
       x2="1320.889"
       y2="311.7616" />
    <linearGradient
       inkscape:collect="always"
       xlink:href="#linearGradient8294"
       id="linearGradient4782"
       gradientUnits="userSpaceOnUse"
       gradientTransform="matrix(0.64485361,0.19487517,-0.19487517,0.64485361,-155.21605,637.34335)"
       x1="1071.5018"
       y1="314.53708"
       x2="1319.8871"
       y2="314.53708" />
    <linearGradient
       inkscape:collect="always"
       xlink:href="#linearGradient8146"
       id="linearGradient4785"
       gradientUnits="userSpaceOnUse"
       gradientTransform="matrix(0.64485361,0.19487517,-0.19487517,0.64485361,-155.21605,637.34335)"
       x1="1022.256"
       y1="310.08679"
       x2="1319.8745"
       y2="310.08679" />
    <radialGradient
       inkscape:collect="always"
       xlink:href="#linearGradient4005-88-9-3-4-5-3"
       id="radialGradient4788"
       gradientUnits="userSpaceOnUse"
       gradientTransform="matrix(-2.1290743,-1.5197487,0.23056817,-0.32301174,2199.7549,2016.8966)"
       cx="588.23999"
       cy="261.20999"
       fx="588.23999"
       fy="261.20999"
       r="53.919998" />
    <radialGradient
       inkscape:collect="always"
       xlink:href="#linearGradient4005-88-9-3-4-5-3-9"
       id="radialGradient4791"
       gradientUnits="userSpaceOnUse"
       gradientTransform="matrix(-2.8832924,-2.0581151,0.31224624,-0.43743767,1843.1847,2427.3591)"
       cx="588.23999"
       cy="261.20999"
       fx="588.23999"
       fy="261.20999"
       r="53.919998" />
    <radialGradient
       inkscape:collect="always"
       xlink:href="#linearGradient4005-88-9-3-4-5-3-9-3"
       id="radialGradient4794"
       gradientUnits="userSpaceOnUse"
       gradientTransform="matrix(-1.4240146,-3.24367,0.49211227,-0.21604384,2020.3105,3118.0472)"
       cx="588.23999"
       cy="261.20999"
       fx="588.23999"
       fy="261.20999"
       r="53.919998" />
    <radialGradient
       inkscape:collect="always"
       xlink:href="#linearGradient4005-88-9-3-4-5-3-9-7"
       id="radialGradient4797"
       gradientUnits="userSpaceOnUse"
       gradientTransform="matrix(0.89951446,-1.5230581,-0.23107022,-0.1364695,851.8726,2013.8779)"
       cx="588.23999"
       cy="261.20999"
       fx="588.23999"
       fy="261.20999"
       r="53.919998" />
    <linearGradient
       inkscape:collect="always"
       xlink:href="#linearGradient8268-94"
       id="linearGradient4678"
       gradientUnits="userSpaceOnUse"
       gradientTransform="matrix(0.70111493,-0.60129331,0.60129331,0.70111493,-643.46776,1786.077)"
       x1="1419.0651"
       y1="318.44125"
       x2="1668.0968"
       y2="318.44125" />
  </defs>
  <sodipodi:namedview
     id="base"
     pagecolor="#ffffff"
     bordercolor="#666666"
     borderopacity="1.0"
     inkscape:pageopacity="0.0"
     inkscape:pageshadow="2"
     inkscape:zoom="0.49497475"
     inkscape:cx="1121.8871"
     inkscape:cy="-58.521078"
     inkscape:document-units="px"
     inkscape:current-layer="layer1"
     showgrid="false"
     inkscape:window-width="1366"
     inkscape:window-height="706"
     inkscape:window-x="0"
     inkscape:window-y="28"
     inkscape:window-maximized="1" />
  <metadata
     id="metadata6665">
    <rdf:RDF>
      <cc:Work
         rdf:about="">
        <dc:format>image/svg+xml</dc:format>
        <dc:type
           rdf:resource="http://purl.org/dc/dcmitype/StillImage" />
        <dc:title />
      </cc:Work>
    </rdf:RDF>
  </metadata>
  <g
     inkscape:label="Capa 1"
     inkscape:groupmode="layer"
     id="layer1"
     transform="translate(0,-752.36215)">
    <path
       inkscape:connector-curvature="0"
       d="m 1330.1929,992.70057 c 9.1964,51.87093 -19.4415,98.24473 -81.0444,159.11633 -6.1778,5.0993 1.2882,14.6318 6.9395,8.9589 l 0,0 c 58.0301,-57.414 91.8564,-115.5542 78.2839,-169.93933 -4.1258,-16.5328 -6.3592,-10.4256 -4.1789,1.8642 z"
       style="fill:url(#radialGradient4797);fill-opacity:1"
       id="path3978-9-1-2-0-6-8-8-5" />
    <path
       inkscape:connector-curvature="0"
       d="m 1313.6554,973.10356 c -30.7007,100.93614 15.1422,199.99814 123.061,335.77674 11.0632,11.6179 -6.0634,28.7849 -15.9423,16.1526 l 0,0 c -101.6426,-128.0485 -154.9856,-251.7481 -114.9819,-356.6359 12.1606,-31.88571 15.1395,-19.20775 7.8632,4.70654 z"
       style="fill:url(#radialGradient4794);fill-opacity:1"
       id="path3978-9-1-2-0-6-8-8-7" />
    <path
       inkscape:connector-curvature="0"
       d="m 138.45252,946.13217 c 25.2743,102.42983 115.3522,164.08063 277.55144,225.51113 15.45006,4.3202 9.52036,27.8333 -5.43134,22.0355 l 0,0 c -152.85128,-58.0009 -261.98048,-136.9811 -281.2842,-247.56656 -5.86865,-33.61751 3.17829,-24.24957 9.1641,0.0199 z"
       style="fill:url(#radialGradient4791);fill-opacity:1"
       id="path3978-9-1-2-0-6-8-8" />
    <path
       inkscape:connector-curvature="0"
       d="m 940.95049,923.13237 c 18.66299,75.63603 85.17811,121.16003 204.94891,166.52143 11.4086,3.1901 7.03,20.5526 -4.0106,16.2714 l 0,0 c -112.8681,-42.8289 -193.45104,-101.1493 -207.70525,-182.80755 -4.33351,-24.82376 2.34691,-17.90631 6.76694,0.0147 z"
       style="fill:url(#radialGradient4788);fill-opacity:1"
       id="path3978-9-1-2-0-6-8" />
    <path
       sodipodi:nodetypes="ccccc"
       d="m 432.28727,1185.5679 c -62.43008,-109.5093 86.5402,-157.3083 120.58766,-175.2777 43.44538,37.2566 30.2453,41.0764 6.96214,-4.4625 18.88874,-7.90729 105.6909,-44.7204 117.99517,-51.45391 -4.9381,14.75973 -234.90395,248.57141 -245.54497,231.19411 z"
       style="fill:url(#linearGradient4785);fill-opacity:1"
       id="path3886-8-1-6"
       inkscape:connector-curvature="0" />
    <path
       sodipodi:nodetypes="ccccccccc"
       d="m 433.15952,1185.6164 c 14.7497,8.6593 238.95395,-217.73407 244.67272,-231.24261 -5.86977,19.98233 -15.54666,44.5958 -27.9853,70.55891 -35.8759,-12.1908 -13.234,-4.9862 -1.50098,2.5191 -34.42215,75.9766 -66.28023,108.3285 -86.35933,129.8497 -91.20873,-60.9558 -13.52419,-8.1577 -2.29464,3.0783 -4.60447,4.7707 -2.84753,5.0009 -15.19879,15.8972 -28.01973,-11.3578 -86.59505,-79.7589 -6.54731,7.2962 -27.34436,10.813 -81.43216,31.4539 -104.78637,2.0432 z"
       style="fill:url(#linearGradient4782);fill-opacity:1"
       id="path3890-1-5-7"
       inkscape:connector-curvature="0" />
    <path
       d="M 432.72447,1187.8967 C 435.32372,1176.408 628.89232,1021.9171 678.3659,954.97039 624.25029,1032.6882 431.05602,1195.2842 432.72447,1187.8967 z"
       style="fill:url(#linearGradient4779);fill-opacity:1"
       id="path3888-9-0-00"
       inkscape:connector-curvature="0" />
    <path
       inkscape:connector-curvature="0"
       d="m 558.61983,972.62527 c -10.99198,48.51923 13.95094,93.54333 69.34237,153.71543 5.59981,5.0861 -1.86873,13.7447 -6.94621,8.1411 l 0,0 c -52.17562,-56.751 -81.48728,-113.1061 -66.25497,-163.80156 4.63039,-15.41128 6.46434,-9.55045 3.85881,1.94503 z"
       style="fill:url(#radialGradient4776);fill-opacity:1"
       id="path3978-9-1-2" />
    <path
       inkscape:connector-curvature="0"
       d="m 544.29506,960.18184 c -0.27894,5.80618 1.06811,15.88879 8.76702,15.78062 3.66783,-7.23723 -5.47284,-12.14675 -8.76702,-15.78062 z m 8.78458,-5.80216 c -1.34998,4.21128 -2.33612,11.92858 3.34956,13.36723 4.13066,-4.60201 -1.64714,-10.04553 -3.34956,-13.36723 z m -13.373,17.97204 c -0.34493,6.94264 1.28886,19.01374 10.49413,18.88707 4.39291,-8.6574 -6.55939,-14.54158 -10.49413,-18.88707 z m 23.62388,-21.67456 c -1.99779,2.55767 -7.81878,6.24184 -5.05754,10.84422 5.09376,-0.29703 5.52186,-7.02189 5.05754,-10.84422 z m -33.05566,37.2573 c 1.7538,9.47413 7.78381,25.24914 20.17388,22.15134 3.17764,-13.08606 -13.47894,-17.53484 -20.17388,-22.15134 z m 30.36861,-22.92359 c -1.79465,1.84629 -3.10233,4.0523 -1.73357,6.75299 5.09502,0.066 5.98281,-6.599 5.79373,-10.44427 -0.95186,1.05184 -2.65784,2.25762 -4.06016,3.69128 z m -2.51982,11.60542 c -1.72734,1.6958 -2.72945,3.84034 -2.10686,6.77363 7.28991,2.05524 11.12295,-7.19907 12.32876,-12.78722 -2.53043,1.63766 -7.35935,3.18687 -10.2219,6.01359 z m -31.99851,37.98361 c 5.68844,7.7813 17.96828,19.3672 27.78467,11.2004 -2.81466,-13.1682 -19.75481,-9.9469 -27.78467,-11.2004 z m 33.36133,-25.65401 c -3.25055,3.26396 -5.36458,7.2169 -3.23145,12.24601 10.33008,0.8514 13.09395,-12.57795 13.2485,-20.39331 -2.37395,2.28393 -6.77129,4.87831 -10.01705,8.1473 z m -37.45724,48.36711 c 8.87762,8.5823 26.93855,20.4711 37.86742,7.7637 -6.28668,-16.1244 -27.31447,-8.045 -37.86742,-7.7637 z m 48.72947,-36.903 c -4.8723,6.5172 -19.23367,16.0485 -12.05063,27.436 12.73356,-1.0198 13.41515,-17.8877 12.05063,-27.436 z m -41.90615,66.2794 c 12.07703,7.9071 35.38776,17.6631 44.84401,1.041 -10.89259,-16.9638 -32.92478,-3.5171 -44.84401,-1.041 z m 53.42102,-50.1202 c -5.96225,8.851 -24.15308,22.2753 -13.98627,36.7301 16.63088,-2.169 16.40164,-24.3119 13.98627,-36.7301 z m 7.87839,11.0212 c -3.48789,13.5546 -20.10692,38.141 -1.2139,51.5651 19.60544,-9.9622 9.63817,-37.269 1.2139,-51.5651 z m -51.84117,68.2334 c 14.79211,9.678 43.32859,21.6564 54.90861,1.2926 -13.3339,-20.7787 -40.30282,-4.3285 -54.90861,-1.2926 z m 72.60615,-43.8951 c -3.7148,14.442 -21.42083,40.6117 -1.29261,54.9086 20.88622,-10.6089 10.26388,-39.6775 1.29261,-54.9086 z"
       style="fill:url(#radialGradient4773);fill-opacity:1"
       id="path3958-3-6-7" />
    <path
       sodipodi:nodetypes="ccccc"
       d="M 85.309074,1353.7348 C -98.743006,1319.9886 -10.6648,1105.0971 1.4636476,1049.2504 85.302944,1035.5086 77.0264,1054.1528 3.048585,1037.0775 12.119045,1008.0655 53.261486,874.28771 57.372369,853.87651 69.418043,873.59144 115.217,1358.2557 85.309074,1353.7348 z"
       style="fill:url(#linearGradient4770);fill-opacity:1"
       id="path3886-8-1-6-4"
       inkscape:connector-curvature="0" />
    <path
       sodipodi:nodetypes="ccccccccc"
       d="m 86.197864,1352.7905 c 23.932046,-8.478 -18.947098,-479.50809 -28.825495,-498.91399 17.087435,25.76445 35.796726,60.27923 53.399621,99.22084 -48.133799,29.09931 -18.311476,10.26665 1.42686,4.11242 53.40168,111.70993 59.70207,178.81513 64.95754,222.19013 -156.405893,45.3449 -22.19108,7.5653 1.30362,5.5484 1.01834,9.7894 2.9589,8.0137 3.53144,32.4566 -39.67939,20.972 -173.3543495,22.1343 2.03023,14.4099 -13.851,41.3935 -42.09758,122.5564 -97.823816,120.9757 z"
       style="fill:url(#linearGradient4767);fill-opacity:1"
       id="path3890-1-5-7-8"
       inkscape:connector-curvature="0" />
    <path
       d="M 88.372168,1355.4639 C 77.80669,1341.5318 87.320338,974.01695 58.560047,853.84053 95.118379,989.58359 95.168795,1364.4193 88.372168,1355.4639 z"
       style="fill:url(#linearGradient4764);fill-opacity:1"
       id="path3888-9-0-00-7"
       inkscape:connector-curvature="0" />
    <path
       sodipodi:nodetypes="ccccccccc"
       d="m 1786.994,1290.6545 c -39.8744,-47.7046 -3.3314,-133.1303 28.685,-171.0884 62.3869,63.1071 125.9238,124.3633 3.8911,-3.6358 9.5808,-8.547 14.0672,-9.3446 28.0356,-20.4063 49.4949,80.9621 76.951,116.4871 4.0273,-0.5487 29.1685,-16.6467 59.1932,-38.46 82.3087,-48.6724 49.6769,67.7205 52.0236,74.206 9.3257,-3.636 25.6189,-11.4861 155.7213,-67.67183 172.3553,-77.32323 -6.2621,20.39996 -313.4474,348.76423 -328.6287,325.31083 z"
       style="fill:url(#linearGradient4761);fill-opacity:1"
       id="path3886-8-1-67"
       inkscape:connector-curvature="0" />
    <path
       sodipodi:nodetypes="ccccccccc"
       d="m 1788.1913,1290.6911 c 20.5138,11.363 320.0563,-306.63565 327.4314,-325.34743 -7.3601,27.59031 -19.7795,61.65893 -35.9381,97.67223 -30.175,-3.9792 -19.2492,-0.4805 -2.9097,9.4043 -12.9205,25.0739 -17.5139,41.9512 -32.9419,65.6824 -106.4038,-48.7242 -19.3418,-8.8091 -3.5645,6.2065 -15.4965,20.4547 -54.1361,88.1973 -129.0133,153.8846 -36.1702,-24.1482 -104.3311,-118.7551 -9.6461,8.6031 -37.109,15.7588 -80.3983,23.4054 -113.4178,-16.1057 z"
       style="fill:url(#linearGradient4758);fill-opacity:1"
       id="path3890-1-5-2"
       inkscape:connector-curvature="0" />
    <path
       d="m 1787.6732,1293.8315 c 3.1686,-15.8362 263.1863,-234.2302 328.7015,-327.68839 -71.5084,108.38089 -330.735,337.87139 -328.7015,327.68839 z"
       style="fill:url(#linearGradient4755);fill-opacity:1"
       id="path3888-9-0-2"
       inkscape:connector-curvature="0" />
    <path
       d="m 1651.1071,963.86031 c 7.9411,45.79839 25.6996,89.15959 45.4796,130.97879 15.5133,33.7387 31.6829,67.4981 41.1258,103.5581 7.1227,31.5266 6.2109,64.3422 1.441,96.1414 -3.5524,22.6215 -10.8432,45.4015 -25.5589,63.3363 -7.8372,9.6426 -18.1823,18.2964 -30.7266,20.5213 -5.6701,-0.227 -8.892,-6.1191 -9.6284,-11.1402 -10.6453,-41.1956 -23.7067,-81.7865 -32.19,-123.5229 -6.4362,-30.899 -9.7673,-62.3785 -10.9121,-93.902 -1.6638,-45.9394 0.8441,-92.0366 7.4922,-137.5221 2.8864,-17.86732 7.0075,-35.56027 12.8336,-52.70657 0.2146,1.41929 0.4292,2.83859 0.6438,4.25788 z"
       style="fill:url(#linearGradient4752);fill-opacity:1"
       id="path3886-8-1-8"
       inkscape:connector-curvature="0"
       sodipodi:nodetypes="ccccccc" />
    <path
       d="m 1650.3056,962.71546 c -14.0851,55.49764 -17.2563,113.07324 -17.0116,170.12074 0.6994,57.8687 9.5231,115.5727 25.5649,171.1597 6.8535,25.3143 15.164,50.4161 18.3047,76.5539 -0.071,4.2794 -4.942,6.4223 -8.6902,5.6773 -5.6958,-0.614 -11.0555,-2.867 -16.4263,-4.7275 -20.1434,-8.147 -36.4064,-24.1977 -46.8842,-43.0293 -17.3943,-28.7132 -32.8086,-59.439 -38.5807,-92.8057 -0.578,-4.3759 -1.5414,-8.8524 -0.9534,-13.2616 0.8376,-3.9185 4.7166,-5.9789 8.4103,-6.4074 5.3689,-1.0857 10.9898,-0.7773 16.2263,-2.533 -9.2853,-0.2663 -18.5705,-0.5327 -27.8558,-0.7991 -1.4499,-51.2616 6.6957,-103.0184 25.8189,-150.7023 1.9776,-9.9933 14.0209,-16.3792 23.4089,-12.4483 -4.1374,-3.4017 -10.1347,-3.3009 -14.075,-7.0182 6.6809,-17.6464 16.5336,-33.8345 25.8965,-50.1394 9.0533,-14.98725 18.6445,-29.63958 28.2018,-44.30776 -0.4517,1.55597 -0.9034,3.11195 -1.3551,4.66792 z"
       style="fill:url(#linearGradient4749);fill-opacity:1"
       id="path3890-1-5-29"
       inkscape:connector-curvature="0"
       sodipodi:nodetypes="ccccccc" />
    <path
       d="m 1649.1965,955.98331 c -16.0882,57.80989 -17.9775,118.73619 -14.2097,178.69159 3.9743,57.6317 15.0263,114.7658 30.2176,170.748 6.4149,24.102 12.8422,48.3181 15.8063,73.0377 0.01,1.466 0.9335,3.7089 -0.4338,4.6599 -2.5478,0.8351 -4.1307,-2.2547 -3.9307,-4.3482 -10.9001,-43.4603 -26.7617,-85.6975 -36.272,-129.4862 -8.4952,-37.2316 -13.298,-75.213 -14.0394,-113.2033 -1.5974,-52.7636 2.2271,-105.9363 15.845,-156.79067 2.1896,-7.95474 4.5564,-15.85889 7.1142,-23.69908 -0.033,0.13006 -0.065,0.26018 -0.098,0.39024 z"
       style="fill:url(#linearGradient4746);fill-opacity:1"
       id="path3888-9-0-9"
       inkscape:connector-curvature="0"
       sodipodi:nodetypes="ccc" />
    <path
       d="m 484.11581,894.54168 c -6.77616,50.21609 -23.84551,98.82983 -48.58353,142.97972 -11.51417,22.3071 -19.79454,46.8638 -20.06608,72.1737 -0.77027,29.0642 6.48845,58.7825 23.02348,82.9281 12.32649,18.0097 30.62588,32.4808 51.92941,38.0462 4.24498,0.963 9.73431,1.4281 12.75588,-2.3799 3.0796,-4.6429 1.98108,-10.4784 2.79543,-15.7082 3.4875,-47.0319 1.27507,-94.2359 -1.48957,-141.243 -2.30481,-39.4686 -4.50047,-78.97902 -9.1071,-118.26094 -2.33578,-19.23663 -5.03384,-38.46633 -9.25606,-57.39054 -0.43675,-1.82154 -0.96482,-4.44155 -1.40406,-5.75263 -0.19908,1.5353 -0.3985,3.0715 -0.5978,4.60749 z"
       style="fill:url(#linearGradient4743);fill-opacity:1"
       id="path3886-8-1-0"
       inkscape:connector-curvature="0"
       sodipodi:nodetypes="ccccccc" />
    <path
       d="m 486.34325,896.75319 c 11.1244,62.73021 14.46112,126.26371 18.1453,189.58021 2.30436,43.1294 2.79689,86.3619 0.0217,129.3837 -0.0308,3.0535 -0.0958,7.1469 3.23094,8.7272 5.34841,1.681 10.73128,-0.5808 15.84751,-1.8077 17.66109,-5.4866 32.32747,-18.9305 38.93135,-35.7665 3.63251,-9.2527 5.90027,-18.9806 7.87561,-28.7043 6.00053,-31.7201 3.3151,-64.7105 -4.84257,-96.1063 -9.56291,-37.4204 -26.28001,-72.80203 -45.01074,-106.7984 -11.54639,-21.43888 -23.4901,-42.67727 -35.23636,-64.0155 0.34564,1.836 0.69149,3.67166 1.0372,5.50758 z"
       style="fill:url(#linearGradient4740);fill-opacity:1"
       id="path3890-1-5-1"
       inkscape:connector-curvature="0"
       sodipodi:nodetypes="ccccccc" />
    <path
       d="m 482.89886,894.45306 c 11.41084,55.3161 14.03896,111.89424 14.75734,168.15044 1.03066,55.1173 1.28731,110.2841 4.93156,165.3259 0.32331,2.5889 0.52485,5.5215 2.57103,7.4291 2.67008,-0.7518 1.79638,-4.0708 1.99837,-6.1353 0.91385,-36.7752 2.49116,-73.5887 0.58743,-110.3765 -1.83992,-45.7486 -4.00804,-91.5395 -9.30854,-137.06366 -3.44352,-29.42265 -8.65949,-58.64434 -15.54596,-87.48524 l 0.01,0.15569 z"
       style="fill:url(#linearGradient4737);fill-opacity:1"
       id="path3888-9-0-5"
       inkscape:connector-curvature="0"
       sodipodi:nodetypes="ccc" />
    <path
       sodipodi:nodetypes="ccccccccc"
       d="m 336.88033,1126.4373 c -17.20568,-21.3884 -0.36633,-58.794 14.08119,-75.2839 27.01538,28.3742 54.55377,55.9409 1.74777,-1.5726 4.30001,-3.6934 6.28703,-4.0082 12.54471,-8.7752 21.17652,36.1488 33.00154,52.058 1.78229,-0.2088 13.01363,-7.1063 26.44803,-16.4861 36.7364,-20.8023 21.36668,30.3052 22.34875,33.1875 4.14673,-1.5277 11.40393,-4.8577 69.29979,-28.58007 76.72243,-32.70243 -2.93346,8.95301 -141.25473,151.35173 -147.76152,140.87293 z"
       style="fill:url(#linearGradient4734);fill-opacity:1"
       id="path3886-8-1-67-0"
       inkscape:connector-curvature="0" />
    <path
       sodipodi:nodetypes="ccccccccc"
       d="m 337.4085,1126.4634 c 8.96097,5.186 143.82261,-132.70045 147.23335,-140.89903 -3.47776,12.11787 -9.24251,27.05343 -16.67394,42.81643 -13.28685,-2.0068 -8.49298,-0.3718 -1.36242,4.1271 -5.91133,10.9609 -8.07895,18.3728 -15.08599,28.7203 -46.56462,-22.3904 -8.46478,-4.049 -1.62494,2.7101 -7.01009,8.9006 -24.62827,38.483 -58.2254,66.8577 -15.76597,-10.9595 -45.06884,-53.2863 -4.32936,3.7175 -16.51134,6.6485 -35.68355,9.6648 -49.9313,-8.0501 z"
       style="fill:url(#linearGradient4731);fill-opacity:1"
       id="path3890-1-5-2-2"
       inkscape:connector-curvature="0" />
    <path
       d="m 337.15376,1127.8454 c 1.53004,-6.9642 118.11849,-101.211 147.81337,-141.9219 -32.46417,47.2484 -148.79545,146.4 -147.81337,141.9219 z"
       style="fill:url(#linearGradient4728);fill-opacity:1"
       id="path3888-9-0-2-3"
       inkscape:connector-curvature="0" />
    <path
       sodipodi:nodetypes="ccccc"
       d="m 2014.56,1348.3681 c 135.7364,-128.8006 -55.42,-260.6921 -96.084,-300.8467 -77.7332,34.2843 -60.6166,45.3806 -7.9767,-9.3307 -23.4448,-19.3471 -130.9798,-108.93185 -145.5723,-123.78363 0.6788,23.09363 227.0503,454.08423 249.633,433.96103 z"
       style="fill:url(#linearGradient4725);fill-opacity:1"
       id="path3886-8-1-6-9"
       inkscape:connector-curvature="0" />
    <path
       sodipodi:nodetypes="ccccccccc"
       d="m 2013.2997,1348.0626 c -24.6773,5.9707 -246.0473,-412.00457 -248.3727,-433.65553 -0.24,30.91487 2.9411,70.04527 9.467,112.27943 56.2135,-1.917 20.9463,-1.4024 1.0511,4.2241 16.2871,122.7419 47.664,182.3933 66.9542,221.5966 155.7803,-47.4496 22.7205,-5.7842 1.9387,5.3596 4.4942,8.7563 1.8988,8.3289 14.7705,29.116 44.6924,-4.1068 157.2988,-76.1495 6.1704,13.1793 34.2122,27.1071 102.2057,79.6635 148.0208,47.9005 z"
       style="fill:url(#linearGradient4722);fill-opacity:1"
       id="path3890-1-5-7-7"
       inkscape:connector-curvature="0" />
    <path
       d="m 2012.9387,1351.4896 c 1.24,-17.4413 -207.4739,-320.0898 -249.0262,-436.46394 43.5232,133.67284 248.2247,447.67774 249.0262,436.46394 z"
       style="fill:url(#linearGradient4719);fill-opacity:1"
       id="path3888-9-0-00-6"
       inkscape:connector-curvature="0" />
    <path
       d="m 1983.2616,857.72173 c -35.0785,26.11216 -69.64,53.8183 -96.9794,88.24324 -43.3675,54.05943 -83.3095,110.73683 -125.4611,165.72883 -22.6321,30.1577 -44.7773,61.0559 -60.9484,95.2594 -10.6727,23.4545 -13.5714,51.0583 -5.0574,75.6462 5.2707,14.8933 15.4845,28.6731 29.9955,35.5528 5.2599,1.7576 10.1395,-2.2228 12.9685,-6.2941 8.7971,-12.897 17.6871,-25.7457 26.2486,-38.8085 25.6446,-38.8052 49.7685,-78.5914 73.1613,-118.7874 20.5321,-34.9258 40.7591,-70.0573 59.1524,-106.168 26.1954,-50.79247 50.462,-102.55452 73.9251,-154.6573 4.4684,-10.36371 9.2193,-20.65083 12.7535,-31.37866 0.2517,-1.36043 1.0315,-3.23858 0.4914,-4.36776 l -0.125,0 -0.125,0.0312 z"
       style="fill:url(#linearGradient4716);fill-opacity:1"
       id="path3886-8-1-85-7"
       inkscape:connector-curvature="0"
       sodipodi:nodetypes="ccccccc" />
    <path
       d="m 1977.5429,872.84673 c -37.3612,78.84428 -74.035,158.12277 -116.4752,234.41137 -23.4524,42.3624 -48.443,83.8555 -74.2616,124.8134 -16.0513,25.5844 -32.6248,50.8362 -48.8221,76.327 -2.5431,4.2836 -5.5153,8.3859 -7.6548,12.8654 -0.92,3.0868 1.2404,6.6681 4.5465,6.8813 7.57,2.5609 15.73,2.1831 23.596,1.8488 24.8842,-2.4182 47.7298,-17.1294 61.8235,-37.5414 31.7778,-38.9588 56.3311,-83.1264 78.8727,-127.8871 29.7613,-58.5358 57.3683,-118.7886 73.2238,-182.75493 10.4117,-41.8391 15.973,-85.06177 14.4803,-128.20856 -0.044,-1.3561 -0.8359,1.42001 -1.2096,1.88482 -2.7065,5.78663 -5.413,11.57327 -8.1195,17.3599 z"
       style="fill:url(#linearGradient4713);fill-opacity:1"
       id="path3890-1-5-8-8"
       inkscape:connector-curvature="0"
       sodipodi:nodetypes="ccccccc" />
    <path
       d="m 1982.9804,861.03423 c -28.6477,59.91937 -57.6671,119.68638 -89.0048,178.25607 -19.5086,36.5723 -39.9346,72.6572 -61.4936,108.062 -28.6782,47.3613 -58.5425,93.9899 -87.4489,141.2105 -6.2064,10.4097 -12.7605,20.6397 -18.4902,31.3152 -1.2589,2.3342 2.2135,3.3149 3.5312,1.7187 16.7991,-23.7743 33.4349,-47.7615 49.174,-72.2882 23.8663,-37.0191 46.3,-74.9345 68.8393,-112.7688 12.4516,-20.9237 24.749,-41.9432 36.3103,-63.3754 21.4112,-39.3526 40.9636,-79.68904 59.3535,-120.53352 13.8085,-30.564 26.8735,-61.45779 39.6354,-92.47155 -0.1354,0.29167 -0.2708,0.58333 -0.4062,0.875 z"
       style="fill:url(#linearGradient4710);fill-opacity:1"
       id="path3888-9-0-7-4"
       inkscape:connector-curvature="0"
       sodipodi:nodetypes="ccc" />
    <path
       d="m 1692.8449,982.35744 c 8.9291,37.73326 10.0652,77.14436 4.4986,115.46926 -2.1089,19.094 -1.2906,38.9083 5.4558,57.0645 7.4196,20.9751 20.7546,40.2159 39.1887,52.9317 13.7447,9.4862 30.7863,14.8066 47.532,12.9409 3.2968,-0.4762 7.346,-1.6491 8.4604,-5.1982 0.927,-4.1614 -1.458,-8.0292 -2.3103,-11.9887 -10.4055,-34.5566 -24.9302,-67.6732 -39.7955,-100.4977 -12.4695,-27.565 -24.8726,-55.1897 -38.9354,-81.9901 -6.9437,-13.1024 -14.1444,-26.10057 -22.3502,-38.4625 -0.8115,-1.18157 -1.9072,-2.90854 -2.5805,-3.72475 0.2788,1.15143 0.5576,2.3036 0.8364,3.45559 z"
       style="fill:url(#linearGradient4707);fill-opacity:1"
       id="path3886-8-1-0-8"
       inkscape:connector-curvature="0"
       sodipodi:nodetypes="ccccccc" />
    <path
       d="m 1695.0426,983.32657 c 25.1492,41.76493 44.9549,86.23923 64.9495,130.46323 13.4731,30.1804 25.68,60.9313 35.4947,92.4278 0.8153,2.1898 1.8914,5.1321 4.7014,5.3488 4.282,-0.2657 7.5073,-3.3576 10.826,-5.6371 11.1128,-8.7627 17.9042,-22.389 18.0054,-36.2278 0.058,-7.6064 -0.9896,-15.178 -2.2448,-22.6664 -4.4113,-24.3068 -15.3764,-47.1392 -29.8136,-67.3319 -17.0932,-24.1114 -38.7384,-44.8044 -61.4423,-63.9557 -14.1278,-12.15 -28.4845,-24.04788 -42.7276,-36.07121 0.7504,1.21689 1.5009,2.43348 2.2513,3.65029 z"
       style="fill:url(#linearGradient4704);fill-opacity:1"
       id="path3890-1-5-1-8"
       inkscape:connector-curvature="0"
       sodipodi:nodetypes="ccccccc" />
    <path
       d="m 1691.9512,982.62784 c 23.3207,36.38966 40.7129,76.08926 56.6526,116.08246 15.8504,39.0941 31.1614,78.4357 48.8584,116.7591 0.9409,1.7608 1.889,3.8007 3.8739,4.6024 1.7014,-1.2693 0.1671,-3.4008 -0.2547,-4.9311 -9.4315,-26.5234 -18.3996,-53.256 -29.8475,-79.0158 -13.8595,-32.1789 -27.9651,-64.2981 -44.2354,-95.3678 -10.5282,-20.0757 -22.2677,-39.5218 -35.0962,-58.23778 l 0.05,0.10853 z"
       style="fill:url(#linearGradient4701);fill-opacity:1"
       id="path3888-9-0-5-1"
       inkscape:connector-curvature="0"
       sodipodi:nodetypes="ccc" />
    <path
       d="m 105.1983,1036.5331 c -18.150316,16.9988 -38.249128,31.7296 -58.451667,46.164 -12.657387,8.9995 -25.615333,17.6173 -37.6442867,27.4629 -12.0143776,9.9011 -23.1703163,21.1799 -31.1256923,34.6608 -5.097889,8.726 -8.961593,18.3725 -9.971142,28.4901 -1.160544,11.9705 1.656709,24.2827 7.941947,34.5402 5.1958,8.9772 12.231186,17.0622 21.0308366,22.6429 2.3599862,0.7223 4.4333185,-1.218 5.74785,-2.9494 9.9687704,-11.669 17.9097244,-24.8718 25.4056314,-38.2136 5.948083,-10.5699 11.858174,-21.1612 17.78664,-31.742 14.958196,-26.8268 29.856092,-53.7285 42.786158,-81.608 5.591402,-11.8721 11.033511,-23.8255 15.944805,-35.9954 0.37824,-1.1186 0.73204,-2.2738 0.71889,-3.4666 -0.0578,-0.01 -0.11371,0 -0.16997,0.014 z"
       style="fill:url(#linearGradient4698);fill-opacity:1"
       id="path3886-8-1-2-7"
       inkscape:connector-curvature="0"
       sodipodi:nodetypes="ccccccc" />
    <path
       d="m 104.47593,1038.4453 c -13.078275,28.9776 -26.879004,57.6623 -42.442539,85.3973 -11.310892,20.0398 -22.655016,40.0619 -33.785437,60.2029 -8.258197,15.0084 -16.461049,30.2779 -27.8247983,43.2225 -1.00222362,1.3557 -2.557531,2.3247 -3.1976934,3.9222 0.7249928,1.9207 2.89973993,2.5714 4.5104074,3.5572 10.9894553,5.5553 24.2925473,5.5563 35.6637803,1.1257 7.621629,-2.912 14.23983,-7.8687 20.436878,-13.0759 12.647465,-10.933 22.352834,-25.0692 28.653609,-40.516 7.300977,-17.6006 10.982684,-36.4687 13.138589,-55.3314 2.044934,-17.5924 2.982694,-35.2865 4.174734,-52.9504 0.84778,-12.8642 1.95632,-25.7256 1.9614,-38.6277 -0.42964,1.0245 -0.85928,2.049 -1.28893,3.0736 z"
       style="fill:url(#linearGradient4695);fill-opacity:1"
       id="path3890-1-5-4-5"
       inkscape:connector-curvature="0"
       sodipodi:nodetypes="ccccccc" />
    <path
       d="m 103.41362,1040.3291 c -10.403203,24.4225 -22.585927,48.0952 -36.510861,70.6976 -15.117432,24.2218 -31.226183,47.8503 -45.05549,72.8549 -5.95174,10.6723 -11.716329,21.4491 -17.3919399,32.2704 -2.598174,5.1389 -5.28122833,10.275 -7.4989844,15.5764 0.1835665,1.2049 2.0220378,0.9252 2.37034295,-0.059 2.28960545,-3.0358 4.81140215,-5.8905 7.04934605,-8.9683 10.7237503,-14.1526 19.3875213,-29.6951 28.3937013,-44.9569 8.088233,-13.8478 16.181116,-27.6946 24.056254,-41.665 10.967604,-19.5998 21.397929,-39.5343 30.24106,-60.1938 5.338714,-12.3491 10.271565,-24.8689 15.097271,-37.4259 -0.25023,0.6233 -0.50047,1.2465 -0.7507,1.8697 z"
       style="fill:url(#linearGradient4692);fill-opacity:1"
       id="path3888-9-0-50-6"
       inkscape:connector-curvature="0"
       sodipodi:nodetypes="ccc" />
    <path
       d="m 208.6957,867.75451 c 16.07344,40.66927 30.86809,82.42147 35.98519,126.08308 8.40541,68.79321 12.52005,138.00861 19.40072,206.95451 3.36197,37.5551 5.92013,75.4836 1.6589,113.0765 -3.27591,25.5595 -15.34582,50.5533 -35.53025,66.974 -12.32269,9.8865 -28.26142,16.2237 -44.22047,14.432 -5.39719,-1.2752 -7.44983,-7.2285 -7.71126,-12.1793 -0.6883,-15.5963 -1.48097,-31.2006 -1.88165,-46.8139 -1.36984,-46.4932 -0.93038,-93.0196 0.34636,-139.5095 0.93385,-40.5032 2.23554,-81.0205 5.61159,-121.405 4.47351,-56.9742 11.09729,-113.75711 18.58352,-170.40669 1.65797,-11.16352 3.03545,-22.41065 5.67927,-33.39189 0.50238,-1.28907 0.82826,-3.29643 1.882,-3.97201 l 0.10627,0.0658 0.0898,0.0923 z"
       style="fill:url(#linearGradient4689);fill-opacity:1"
       id="path3886-8-1-85-4"
       inkscape:connector-curvature="0"
       sodipodi:nodetypes="ccccccc" />
    <path
       d="m 205.59379,883.62422 c -9.75086,86.70179 -20.31477,173.41078 -24.40205,260.61418 -2.36677,48.3629 -2.96816,96.7969 -2.58374,145.2118 0.17521,30.2022 0.9695,60.3967 1.31811,90.5962 -0.0935,4.9807 0.27349,10.0333 -0.26624,14.9681 -0.84318,3.1086 -4.56541,5.0158 -7.48837,3.4563 -7.78411,-1.8087 -14.52248,-6.4263 -21.03387,-10.8522 -19.88216,-15.1581 -31.5587,-39.6938 -32.79303,-64.468 -6.50324,-49.853 -4.12192,-100.3304 0.28203,-150.2528 5.51896,-65.4348 13.77348,-131.1951 33.97388,-193.92493 13.17789,-41.05189 31.20791,-80.72612 55.19492,-116.62176 0.75185,-1.12947 -0.037,1.6474 0.036,2.23931 -0.74588,6.3446 -1.49175,12.68921 -2.23763,19.0338 z"
       style="fill:url(#linearGradient4686);fill-opacity:1"
       id="path3890-1-5-8-3"
       inkscape:connector-curvature="0"
       sodipodi:nodetypes="ccccccc" />
    <path
       d="m 207.19068,870.71874 c -7.19426,66.02469 -13.99223,132.11566 -18.18886,198.40936 -2.67095,41.364 -4.30538,82.7967 -4.61848,124.2478 -0.55606,55.3644 0.28192,110.7305 -0.006,166.0954 -0.20455,12.1178 -0.019,24.2659 -0.76872,36.3585 -0.15878,2.6473 -3.62728,1.6527 -3.90708,-0.3981 -1.76395,-29.0571 -3.27712,-58.2092 -3.74386,-87.3479 -0.79846,-44.0383 0.0929,-88.0844 0.8518,-132.1171 0.43111,-24.3444 1.04374,-48.6894 2.49947,-72.9974 2.51738,-44.7295 7.1331,-89.3167 13.0045,-133.72382 4.35349,-33.25474 9.51259,-66.39845 14.99261,-99.48453 -0.0384,0.31927 -0.0769,0.63852 -0.11534,0.95779 z"
       style="fill:url(#linearGradient4683);fill-opacity:1"
       id="path3888-9-0-7-6"
       inkscape:connector-curvature="0"
       sodipodi:nodetypes="ccc" />
    <path
       d="m 123.25467,948.70462 c 16.07344,40.66927 30.86809,82.42148 35.98519,126.08308 8.40541,68.7932 12.52005,138.0086 19.40072,206.9545 3.36197,37.5552 5.92013,75.4836 1.6589,113.0765 -3.27591,25.5595 -15.34582,50.5533 -35.53025,66.974 -12.32269,9.8865 -28.26142,16.2237 -44.22047,14.432 -5.397186,-1.2752 -7.44983,-7.2284 -7.711259,-12.1793 -0.688296,-15.5963 -1.480968,-31.2006 -1.881649,-46.8139 -1.369845,-46.4931 -0.930381,-93.0196 0.346357,-139.5095 0.933847,-40.5032 2.235542,-81.0205 5.611588,-121.4049 4.473513,-56.9743 11.097293,-113.7572 18.583523,-170.40678 1.65797,-11.16352 3.03545,-22.41065 5.67927,-33.39189 0.50238,-1.28907 0.82826,-3.29643 1.882,-3.97201 l 0.10627,0.0658 0.0898,0.0923 z"
       style="fill:url(#linearGradient4680);fill-opacity:1"
       id="path3886-8-1-85-4-7"
       inkscape:connector-curvature="0"
       sodipodi:nodetypes="ccccccc" />
    <path
       d="m 120.15276,964.57433 c -9.75086,86.70177 -20.314775,173.41077 -24.402048,260.61417 -2.366774,48.3629 -2.968161,96.7969 -2.583742,145.2118 0.175214,30.2022 0.969495,60.3967 1.318107,90.5962 -0.09346,4.9807 0.273492,10.0333 -0.266241,14.9681 -0.843172,3.1086 -4.565406,5.0158 -7.488362,3.4563 -7.78411,-1.8087 -14.522483,-6.4263 -21.033869,-10.8522 -19.882161,-15.1581 -31.558709,-39.6938 -32.79304,-64.468 -6.503232,-49.853 -4.12191,-100.3304 0.282032,-150.2528 5.518962,-65.4348 13.773479,-131.195 33.973881,-193.9249 13.177889,-41.0519 31.207913,-80.72614 55.194922,-116.62178 0.75185,-1.12947 -0.037,1.6474 0.036,2.23931 -0.74588,6.3446 -1.49175,12.68921 -2.23763,19.0338 z"
       style="fill:url(#linearGradient4677);fill-opacity:1"
       id="path3890-1-5-8-3-1"
       inkscape:connector-curvature="0"
       sodipodi:nodetypes="ccccccc" />
    <path
       d="m 121.74965,951.66885 c -7.19426,66.02465 -13.99223,132.11565 -18.18886,198.40935 -2.67095,41.364 -4.305383,82.7967 -4.618483,124.2478 -0.556053,55.3644 0.281924,110.7305 -0.006,166.0954 -0.204542,12.1179 -0.01898,24.2659 -0.768712,36.3585 -0.15878,2.6473 -3.627283,1.6527 -3.90709,-0.3981 -1.763943,-29.0571 -3.277119,-58.2092 -3.743853,-87.3479 -0.798462,-44.0383 0.09289,-88.0844 0.851797,-132.117 0.431113,-24.3445 1.043737,-48.6895 2.499473,-72.9975 2.517376,-44.7295 7.133098,-89.3167 13.004498,-133.7238 4.35349,-33.2548 9.51259,-66.39846 14.99261,-99.48454 -0.0385,0.31927 -0.0769,0.63852 -0.11534,0.95779 z"
       style="fill:url(#linearGradient4674);fill-opacity:1"
       id="path3888-9-0-7-6-8"
       inkscape:connector-curvature="0"
       sodipodi:nodetypes="ccc" />
    <path
       d="m 313.58319,857.10767 c 4.15901,35.11371 -4.22048,70.98135 -20.61623,102.06902 -22.80215,46.70601 -36.98762,96.87811 -54.52115,145.64741 -16.35986,46.3452 -33.79124,92.3133 -49.32334,138.9489 -11.19838,32.9712 -22.86327,65.803 -32.98805,99.1231 -1.30199,3.5294 -2.45732,8.8918 2.02487,10.6597 5.24787,2.5205 11.19021,0.8511 16.74323,0.8201 28.92063,-2.305 56.19278,-18.2374 73.0532,-41.7473 30.23693,-37.3147 51.26956,-81.3116 65.96207,-126.8329 17.92702,-55.0736 26.78235,-112.5998 32.74505,-170.0626 1.96008,-20.27355 4.53278,-40.53949 4.80842,-60.92786 0.10703,-24.49818 -5.80012,-49.06254 -17.67379,-70.53696 -5.85113,-10.81928 -12.96246,-20.9155 -20.66323,-30.4904 0.14965,1.10994 0.2993,2.21986 0.44895,3.32979 z"
       style="fill:url(#linearGradient4671);fill-opacity:1"
       id="path3890-1-5-9-9-5"
       inkscape:connector-curvature="0"
       sodipodi:nodetypes="ccccccc" />
    <path
       d="m 313.68562,863.00052 c 3.47215,34.81425 -6.09826,70.11798 -23.72832,100.06687 -28.10498,55.46641 -47.10945,114.83901 -70.15753,172.44561 -23.01287,58.8769 -46.2641,117.9408 -61.34095,179.4568 -2.63713,11.4124 -5.34991,22.8693 -7.07437,34.4396 0.64527,2.806 5.02997,1.5864 5.57278,-0.7708 0.98434,-5.169 3.16841,-10.1282 4.84464,-15.1457 19.3363,-54.4719 38.91417,-108.864 59.46358,-162.8926 13.71475,-35.7478 27.36161,-71.5351 39.55174,-107.8387 12.376,-36.588 25.32492,-73.03036 40.84468,-108.42143 8.93101,-21.73571 16.08148,-44.94946 14.83352,-68.71316 -0.37216,-8.6535 -1.56629,-17.25025 -3.16382,-25.75673 0.11801,1.04342 0.23603,2.08683 0.35405,3.13024 z"
       style="fill:url(#linearGradient4668);fill-opacity:1"
       id="path3888-9-0-0-1-8"
       inkscape:connector-curvature="0"
       sodipodi:nodetypes="ccc" />
    <path
       sodipodi:nodetypes="ccccccccc"
       d="m 134.088,1323.4254 c -55.3238,-38.3476 -41.7086,-138.0167 -19.1874,-186.835 83.2475,47.9613 167.164,93.6602 3.0178,-4.9128 7.5468,-11.6733 12.0011,-13.7943 23.406,-29.3528 74.9171,70.3021 113.78,99.5018 4.0465,-1.7293 25.6683,-25.7537 50.7466,-57.1465 71.944,-74.4453 71.3045,56.4271 75.6166,62.5234 8.6909,-6.4736 23.4448,-19.3472 143.1227,-115.36043 157.7152,-130.21221 -0.6788,23.09363 -227.0503,454.08421 -249.633,433.96101 z"
       style="fill:url(#linearGradient4665);fill-opacity:1"
       id="path3886-8-1-67-0-3"
       inkscape:connector-curvature="0" />
    <path
       sodipodi:nodetypes="ccccccccc"
       d="m 135.3483,1323.1199 c 24.6773,5.9707 246.0473,-412.00455 248.3727,-433.65551 0.2399,30.91487 -2.9411,70.04527 -9.467,112.27941 -32.6421,4.5116 -20.232,5.0262 -0.3368,10.6527 -6.2871,29.8848 -6.2355,48.8219 -15.5257,78.0252 -125.066,-20.3068 -22.7204,-3.6414 -1.9387,7.5024 -10.3026,25.8026 -31.1845,107.6146 -90.4847,197.6875 -44.6924,-14.8212 -143.0131,-94.0067 -7.599,11.7507 -34.2122,27.1071 -77.2057,47.5206 -123.0208,15.7576 z"
       style="fill:url(#linearGradient4662);fill-opacity:1"
       id="path3890-1-5-2-2-4"
       inkscape:connector-curvature="0" />
    <path
       d="m 135.7093,1326.5469 c -1.24,-17.4412 207.4739,-320.0898 249.0262,-436.46392 -43.5232,133.67282 -248.2247,447.67782 -249.0262,436.46392 z"
       style="fill:url(#linearGradient4659);fill-opacity:1"
       id="path3888-9-0-2-3-6"
       inkscape:connector-curvature="0" />
    <path
       sodipodi:nodetypes="ccccccccc"
       d="m 671.76008,1306.7807 c 20.89183,-10.6521 -75.2281,-436.80916 -86.61634,-453.38718 18.75714,21.53059 40.05573,50.87822 60.87545,84.41319 -20.17309,22.79059 -11.16279,15.68933 6.16921,7.67133 13.56158,24.73299 24.98449,37.97912 36.03074,64.04006 -99.89599,60.964 -18.11916,11.1086 3.15192,6.4259 8.29162,24.2854 42.84402,94.2011 55.42798,193.0094 -40.24634,16.4819 -156.7942,20.0833 1.73781,12.8078 -7.68734,39.5768 -25.55623,79.7407 -76.77677,85.0195 z"
       style="fill:url(#linearGradient4656);fill-opacity:1"
       id="path3890-1-5-2-1"
       inkscape:connector-curvature="0" />
    <path
       d="m 674.07388,1308.9663 c -11.3567,-11.4827 -47.00484,-349.17237 -87.84686,-455.74914 49.86179,119.89024 95.15161,463.12944 87.84686,455.74914 z"
       style="fill:url(#linearGradient4678);fill-opacity:1"
       id="path3888-9-0-2-7"
       inkscape:connector-curvature="0" />
    <path
       sodipodi:nodetypes="ccccccccc"
       d="m 616.94505,1346.5683 c -55.3238,-38.3476 -41.7086,-138.0168 -19.1874,-186.835 83.2475,47.9612 167.164,93.6601 3.0178,-4.9128 7.5468,-11.6734 12.0011,-13.7944 23.406,-29.3529 74.9171,70.3021 113.78,99.5018 4.0465,-1.7293 25.6683,-25.7536 50.7466,-57.1465 71.944,-74.4453 71.3045,56.4272 75.6166,62.5234 8.6909,-6.4736 23.4448,-19.3471 143.1227,-115.36038 157.7152,-130.21216 -0.6788,23.09363 -227.0503,454.08426 -249.633,433.96106 z"
       style="fill:url(#linearGradient4650);fill-opacity:1"
       id="path3886-8-1-67-0-3-0"
       inkscape:connector-curvature="0" />
    <path
       sodipodi:nodetypes="ccccccccc"
       d="m 618.20535,1346.2627 c 24.6773,5.9708 246.0473,-412.0045 248.3727,-433.65546 0.2399,30.91487 -2.9411,70.04527 -9.467,112.27946 -32.6421,4.5115 -20.232,5.0261 -0.3368,10.6527 -6.2871,29.8847 -6.2355,48.8219 -15.5257,78.0251 -125.066,-20.3068 -22.7204,-3.6414 -1.9387,7.5025 -10.3026,25.8026 -31.1845,107.6146 -90.4847,197.6874 -44.6924,-14.8211 -143.0131,-94.0066 -7.599,11.7507 -34.2122,27.1071 -77.2057,47.5206 -123.0208,15.7576 z"
       style="fill:url(#linearGradient4647);fill-opacity:1"
       id="path3890-1-5-2-2-4-5"
       inkscape:connector-curvature="0" />
    <path
       d="m 618.56635,1349.6898 c -1.24,-17.4413 207.4739,-320.0899 249.0262,-436.46397 -43.5232,133.67287 -248.2247,447.67777 -249.0262,436.46397 z"
       style="fill:url(#linearGradient4644);fill-opacity:1"
       id="path3888-9-0-2-3-6-9"
       inkscape:connector-curvature="0" />
    <path
       d="m 883.9717,897.01953 c 24.49475,39.50396 57.18267,73.07568 91.16854,104.46107 27.00666,25.4875 54.62966,50.7486 76.87466,80.6592 18.3976,26.5742 29.8261,57.349 37.2962,88.6242 5.1667,22.3082 6.9254,46.1617 -0.014,68.2989 -3.6617,11.8741 -10.0192,23.7691 -20.8207,30.5245 -5.3435,1.9103 -10.5354,-2.3491 -13.0964,-6.7303 -25.281,-34.2238 -52.5766,-66.9831 -76.05482,-102.5172 -17.52619,-26.2488 -32.38982,-54.1975 -45.24231,-83.0047 -18.72574,-41.9826 -33.64166,-85.67204 -44.48907,-130.34263 -4.00604,-17.65 -6.80174,-35.60016 -7.81174,-53.68106 0.72988,1.236 1.45976,2.47202 2.18964,3.70802 z"
       style="fill:url(#linearGradient4641);fill-opacity:1"
       id="path3886-8-1-8-6"
       inkscape:connector-curvature="0"
       sodipodi:nodetypes="ccccccc" />
    <path
       d="m 882.80014,896.25758 c 7.69505,56.73767 26.2891,111.32042 47.8535,164.13562 22.29328,53.4067 52.05967,103.6221 87.72826,149.1742 15.8243,20.9135 32.9205,41.085 45.6096,64.1509 1.5346,3.9954 -2.1811,7.8046 -5.9359,8.5156 -5.5121,1.561 -11.3254,1.4762 -17.0023,1.7595 -21.7286,-0.021 -42.81456,-8.8242 -59.57541,-22.3699 -26.87137,-20.1231 -52.65924,-42.8533 -70.49262,-71.6392 -2.17275,-3.8421 -4.74054,-7.6333 -5.84441,-11.9424 -0.6888,-3.9474 2.13798,-7.3091 5.40328,-9.0881 4.57319,-3.0149 9.90146,-4.8313 14.10113,-8.4182 -8.71093,3.226 -17.42185,6.4519 -26.13278,9.6778 -20.51812,-46.9985 -32.32233,-98.0453 -32.42242,-149.4208 -1.90371,-10.0076 6.87694,-20.4346 17.05381,-20.3004 -5.10949,-1.60732 -10.63375,0.7294 -15.67841,-1.24437 -0.40438,-18.86442 2.67839,-37.56275 5.26316,-56.18618 2.7905,-17.28561 6.20504,-34.46179 9.58238,-51.64005 0.16305,1.61199 0.32609,3.22399 0.48913,4.83598 z"
       style="fill:url(#linearGradient4638);fill-opacity:1"
       id="path3890-1-5-29-9"
       inkscape:connector-curvature="0"
       sodipodi:nodetypes="ccccccc" />
    <path
       d="m 879.25353,890.4289 c 6.70216,59.6313 27.73833,116.842 53.65779,171.0363 25.2419,51.9621 56.86155,100.8154 91.88928,147.0523 14.9641,19.9532 29.9825,40.0076 41.9773,61.8243 0.5561,1.3565 2.253,3.0905 1.3407,4.4839 -2.0506,1.7275 -4.6743,-0.546 -5.2718,-2.5623 -26.3644,-36.2289 -56.8727,-69.4677 -82.07106,-106.5209 -21.80435,-31.3517 -40.46466,-64.7799 -55.36184,-99.7354 -21.21663,-48.3364 -37.5579,-99.0801 -43.94952,-151.33677 -0.94468,-8.19632 -1.70605,-16.41202 -2.26637,-24.63984 0.0185,0.1328 0.037,0.26561 0.0555,0.39841 z"
       style="fill:url(#linearGradient4635);fill-opacity:1"
       id="path3888-9-0-9-4"
       inkscape:connector-curvature="0"
       sodipodi:nodetypes="ccc" />
    <path
       d="m 977.62025,932.26429 c 16.53821,11.61219 32.85805,23.96731 45.92795,39.51855 20.7253,24.4154 39.9018,50.08406 60.0774,74.94586 10.8408,13.6404 21.4662,27.6291 29.3743,43.2213 5.2306,10.6973 6.9234,23.411 3.3057,34.8778 -2.2438,6.9471 -6.7851,13.4432 -13.3999,16.807 -2.4071,0.8794 -4.7122,-0.8967 -6.0711,-2.7411 -4.2289,-5.8447 -8.5001,-11.6658 -12.6222,-17.5901 -12.3432,-17.5963 -23.9965,-35.6653 -35.3173,-53.9329 -9.9319,-15.8698 -19.7255,-31.8386 -28.6846,-48.2832 -12.7512,-23.1264 -24.62391,-46.72542 -36.12986,-70.49213 -2.19687,-4.72996 -4.52325,-9.42092 -6.29331,-14.33105 -0.13367,-0.62518 -0.51798,-1.48275 -0.28296,-2.01126 l 0.0577,-0.002 0.0581,0.0128 z"
       style="fill:url(#linearGradient4632);fill-opacity:1"
       id="path3886-8-1-85-46-4-1"
       inkscape:connector-curvature="0"
       sodipodi:nodetypes="ccccccc" />
    <path
       d="m 980.45573,939.17757 c 18.2685,35.94107 36.22507,72.09153 56.80687,106.78703 11.3761,19.2675 23.4517,38.1138 35.9028,56.7022 7.7424,11.6123 15.7217,23.0643 23.5303,34.6315 1.2296,1.9461 2.6551,3.8029 3.7008,5.8447 0.4645,1.414 -0.4875,3.096 -2.0119,3.2368 -3.464,1.28 -7.2381,1.2101 -10.8759,1.1565 -11.5255,-0.7981 -22.267,-7.3007 -29.0388,-16.5489 -15.1782,-17.5886 -27.086,-37.6759 -38.0721,-58.063 -14.4977,-26.6575 -28.0222,-54.1358 -36.16607,-83.48003 -5.34565,-19.19297 -8.46849,-39.0872 -8.33201,-59.0368 0.003,-0.62698 0.40436,0.64522 0.58293,0.85514 1.32435,2.63828 2.64872,5.27657 3.97308,7.91486 z"
       style="fill:url(#linearGradient4629);fill-opacity:1"
       id="path3890-1-5-8-81-4-8"
       inkscape:connector-curvature="0"
       sodipodi:nodetypes="ccccccc" />
    <path
       d="m 977.79263,933.7908 c 14.00095,27.31092 28.17167,54.5467 43.39797,81.1997 9.4802,16.6435 19.3779,33.0501 29.7903,49.1281 13.8541,21.5097 28.2467,42.6657 42.2044,64.1074 3.0003,4.729 6.1589,9.3704 8.9424,14.2282 0.6114,1.0621 -0.98,1.5596 -1.6091,0.8392 -8.0646,-10.7666 -16.0565,-21.6336 -23.6411,-32.7613 -11.4988,-16.794 -22.3474,-34.0205 -33.2437,-51.2081 -6.0198,-9.5055 -11.9697,-19.0573 -17.5848,-28.8091 -10.3947,-17.9034 -19.9434,-36.28513 -28.96159,-54.91641 -6.77015,-13.94121 -13.20116,-28.04429 -19.49365,-42.20666 0.0663,0.13299 0.13257,0.26598 0.19887,0.39897 z"
       style="fill:url(#linearGradient4626);fill-opacity:1"
       id="path3888-9-0-7-7-3-8"
       inkscape:connector-curvature="0"
       sodipodi:nodetypes="ccc" />
    <path
       d="m 1046.4831,1167.4887 c -63.32259,-52.9579 -13.2621,-108.6727 30.6464,-149.5884 l 27.7281,-24.44977 c 12.7771,-10.82445 25.5807,-21.19214 37.4539,-30.88161 l 11.2694,-9.22727 c 13.1321,-10.83682 24.5542,-20.60643 32.7278,-28.92528 -0.3802,12.93532 -127.1765,254.34383 -139.8256,243.07233 z"
       style="fill:url(#linearGradient4623);fill-opacity:1"
       id="path3886-8-1-1"
       inkscape:connector-curvature="0"
       sodipodi:nodetypes="ccccccc" />
    <path
       d="m 1045.9888,1167.3176 c 13.8223,3.3443 137.8172,-230.77399 139.1197,-242.90123 0.1344,17.31619 -1.6474,39.2341 -5.3027,62.8905 l -5.3899,29.57213 c -3.5215,16.7392 -7.8936,33.7477 -13.0972,50.1052 l -9.4878,26.6073 c -16.7661,47.1729 -64.0878,101.6084 -105.8421,73.7261 z"
       style="fill:url(#linearGradient4620);fill-opacity:1"
       id="path3890-1-5-298"
       inkscape:connector-curvature="0"
       sodipodi:nodetypes="ccccccc" />
    <path
       d="m 1046.1909,1170.0373 c -0.6945,-9.7693 114.2109,-178.08997 137.4854,-243.274 -24.3785,74.8735 -130.635,249.5552 -137.4854,243.274 z"
       style="fill:url(#linearGradient4617);fill-opacity:1"
       id="path3888-9-0-72"
       inkscape:connector-curvature="0"
       sodipodi:nodetypes="ccc" />
    <path
       sodipodi:nodetypes="ccccc"
       d="m 1237.1244,1417.9344 c -184.052,-33.7462 -95.9738,-248.6377 -83.8454,-304.4844 83.8393,-13.7418 75.5628,4.9024 1.585,-12.1729 9.0704,-29.012 50.2129,-162.78979 54.3237,-183.20099 12.0457,19.71493 57.8447,504.37919 27.9367,499.85829 z"
       style="fill:url(#linearGradient4614);fill-opacity:1"
       id="path3886-8-1-6-4-0"
       inkscape:connector-curvature="0" />
    <path
       sodipodi:nodetypes="ccccccccc"
       d="m 1238.0132,1416.9901 c 23.9321,-8.478 -18.9471,-479.50809 -28.8255,-498.91399 17.0875,25.76445 35.7968,60.27923 53.3997,99.22089 -48.1338,29.0993 -18.3115,10.2666 1.4268,4.1124 53.4017,111.7099 59.7021,178.8151 64.9576,222.1901 -156.4059,45.3449 -22.1911,7.5653 1.3036,5.5484 1.0183,9.7894 2.9589,8.0137 3.5314,32.4566 -39.6794,20.972 -173.3543,22.1343 2.0303,14.4099 -13.8511,41.3935 -42.0976,122.5564 -97.8239,120.9757 z"
       style="fill:url(#linearGradient4611);fill-opacity:1"
       id="path3890-1-5-7-8-5"
       inkscape:connector-curvature="0" />
    <path
       d="m 1240.1875,1419.6635 c -10.5654,-13.9321 -1.0518,-381.4469 -29.8121,-501.62337 36.5583,135.74307 36.6088,510.57877 29.8121,501.62337 z"
       style="fill:url(#linearGradient4608);fill-opacity:1"
       id="path3888-9-0-00-7-7"
       inkscape:connector-curvature="0" />
    <path
       inkscape:connector-curvature="0"
       d="m 1428.4807,1045.6562 c -77.8909,-1.4544 -139.0155,51.086 -213.7039,155.1261 -6.0218,10.2015 -21.67,1.4973 -14.6888,-8.0675 l 0,0 c 70.463,-98.0229 147.5764,-160.8593 230.1504,-153.5933 25.1023,2.2086 16.6971,6.8812 -1.7577,6.5347 z"
       style="fill:url(#radialGradient4605);fill-opacity:1"
       id="path3978-9-1-2-0" />
    <path
       inkscape:connector-curvature="0"
       d="m 1443.0151,1019.74 c -8.9921,1.4153 -24.0257,6.6814 -21.416,18.453 12.2622,3.3271 16.8893,-12.248 21.416,-18.453 z m 11.6857,11.629 c -6.8863,-0.7334 -19.0334,0.2041 -19.4347,9.3795 8.3681,4.8733 14.8814,-5.7145 19.4347,-9.3795 z m -31.8041,-14.802 c -10.7557,1.6748 -28.7475,8.0118 -25.6313,22.0874 14.6701,3.9882 20.2167,-14.6744 25.6313,-22.0874 z m 40.7356,29.3459 c -4.5562,-2.2516 -12.0534,-10.0084 -18.2344,-4.3132 2.0723,7.7167 12.5205,6.2385 18.2344,4.3132 z m -67.6248,-38.8628 c -13.9714,5.6967 -36.2476,19.9508 -27.5643,37.967 21.0755,0.719 22.6102,-26.2352 27.5643,-37.967 z m 44.7919,39.2923 c -3.4009,-2.166 -7.1988,-3.471 -10.9057,-0.5148 1.5161,7.8339 12.0183,7.0796 17.8549,5.5691 -1.9151,-1.1257 -4.3057,-3.359 -6.9492,-5.0543 z m -18.5962,-0.1802 c -3.1487,-2.1105 -6.7554,-2.9665 -11.0558,-1.0807 -0.8376,11.8311 14.5701,14.7714 23.522,14.8466 -3.3145,-3.3605 -7.2229,-10.2736 -12.4662,-13.7659 z m -68.4031,-37.0112 c -10.1265,11.1929 -23.995,33.7011 -8.3558,46.1617 19.2994,-8.4961 8.9825,-33.4504 8.3558,-46.1617 z m 49.9289,43.0147 c -6.037,-3.9485 -12.7696,-5.9355 -19.8043,-1.0681 1.9733,16.1109 23.4439,16.0864 35.4774,13.8426 -4.2559,-2.9154 -9.63,-8.8349 -15.6731,-12.7745 z m -86.0584,-42.0859 c -10.3426,16.3376 -22.8404,47.807 0.1147,60.5322 22.7305,-14.7586 3.6665,-44.439 -0.1147,-60.5322 z m 72.0568,63.0103 c -11.5404,-5.4027 -30.7148,-24.3997 -45.8969,-9.7702 5.6057,19.2026 31.6882,14.8935 45.8969,9.7702 z m -114.9382,-43.2223 c -8.2916,21.0295 -15.8525,59.8721 12.6383,69.0965 22.5555,-22.088 -5.0578,-51.6049 -12.6383,-69.0965 z m 93.814,66.0091 c -15.4652,-6.3333 -41.8248,-29.9668 -60.7633,-9.7882 8.6051,24.8141 42.4874,17.4339 60.7633,9.7882 z m -14.3997,15.5795 c -21.8924,-1.0459 -64.8697,-18.7261 -79.4578,14.5066 21.4998,26.9017 60.2096,2.9495 79.4578,-14.5066 z m -121.088,-57.8369 c -10.1455,25.755 -19.4556,73.3165 15.4471,84.6099 27.6306,-27.0425 -6.1555,-63.1763 -15.4471,-84.6099 z m 90.3578,97.4045 c -23.3252,-1.1122 -69.0755,-19.9566 -84.6099,15.4472 22.8981,28.6604 64.1014,3.1445 84.6099,-15.4472 z"
       style="fill:url(#radialGradient4602);fill-opacity:1"
       id="path3958-3-6-7-6" />
    <path
       d="m 1486.1101,942.75543 c -24.4947,39.50396 -57.1826,73.07567 -91.1685,104.46107 -27.0067,25.4875 -54.6297,50.7486 -76.8747,80.6592 -18.3976,26.5742 -29.8261,57.349 -37.2962,88.6242 -5.1666,22.3082 -6.9254,46.1617 0.014,68.2989 3.6618,11.8741 10.0192,23.7691 20.8207,30.5245 5.3435,1.9103 10.5354,-2.3491 13.0964,-6.7303 25.281,-34.2238 52.5766,-66.9831 76.0548,-102.5172 17.5262,-26.2488 32.3899,-54.1975 45.2424,-83.0047 18.7257,-41.9826 33.6416,-85.672 44.489,-130.34263 4.0061,-17.65 6.8018,-35.60016 7.8118,-53.68106 -0.7299,1.236 -1.4598,2.47202 -2.1897,3.70802 z"
       style="fill:url(#linearGradient4599);fill-opacity:1"
       id="path3886-8-1-8-7"
       inkscape:connector-curvature="0"
       sodipodi:nodetypes="ccccccc" />
    <path
       d="m 1487.2817,941.99348 c -7.6951,56.73767 -26.2891,111.32042 -47.8535,164.13562 -22.2933,53.4067 -52.0597,103.6221 -87.7283,149.1742 -15.8243,20.9135 -32.9205,41.085 -45.6096,64.1509 -1.5346,3.9954 2.1812,7.8046 5.9359,8.5156 5.5121,1.561 11.3255,1.4762 17.0023,1.7595 21.7286,-0.021 42.8146,-8.8242 59.5754,-22.3699 26.8714,-20.1231 52.6593,-42.8533 70.4927,-71.6392 2.1727,-3.8421 4.7405,-7.6333 5.8444,-11.9424 0.6888,-3.9474 -2.138,-7.3091 -5.4033,-9.0881 -4.5732,-3.0149 -9.9015,-4.8313 -14.1011,-8.4182 8.7109,3.226 17.4218,6.4519 26.1327,9.6778 20.5182,-46.9985 32.3224,-98.0453 32.4224,-149.4208 1.9038,-10.0076 -6.8769,-20.4346 -17.0538,-20.3004 5.1095,-1.6073 10.6338,0.7294 15.6785,-1.2444 0.4043,-18.8644 -2.6784,-37.5627 -5.2632,-56.18615 -2.7905,-17.28561 -6.2051,-34.46179 -9.5824,-51.64005 -0.163,1.61199 -0.3261,3.22399 -0.4891,4.83598 z"
       style="fill:url(#linearGradient4596);fill-opacity:1"
       id="path3890-1-5-29-97"
       inkscape:connector-curvature="0"
       sodipodi:nodetypes="ccccccc" />
    <path
       d="m 1490.8283,936.1648 c -6.7022,59.6313 -27.7383,116.842 -53.6578,171.0363 -25.2419,51.9621 -56.8615,100.8154 -91.8893,147.0523 -14.9641,19.9532 -29.9825,40.0076 -41.9773,61.8243 -0.5561,1.3565 -2.253,3.0905 -1.3407,4.4839 2.0506,1.7275 4.6743,-0.546 5.2718,-2.5623 26.3644,-36.2289 56.8728,-69.4677 82.0711,-106.5209 21.8043,-31.3517 40.4646,-64.7799 55.3618,-99.7354 21.2167,-48.3364 37.5579,-99.0801 43.9495,-151.33677 0.9447,-8.19632 1.7061,-16.41202 2.2664,-24.63984 -0.018,0.1328 -0.037,0.26561 -0.056,0.39841 z"
       style="fill:url(#linearGradient4593);fill-opacity:1"
       id="path3888-9-0-9-3"
       inkscape:connector-curvature="0"
       sodipodi:nodetypes="ccc" />
    <path
       d="m 847.5741,1345.5494 c 24.67728,5.9708 246.0473,-412.00452 248.3727,-433.65548 0.24,30.91487 -2.9411,70.04527 -9.467,112.27948 l -9.6225,52.7955 c -6.2871,29.8848 -14.0926,60.2505 -23.3828,89.4537 l -16.9388,47.5025 c -29.9327,84.2186 -114.41683,181.4031 -188.9616,131.6243 z"
       style="fill:url(#linearGradient4590);fill-opacity:1"
       id="path3890-1-5-9-91"
       inkscape:connector-curvature="0"
       sodipodi:nodetypes="ccccccc" />
    <path
       d="M 847.93506,1350.405 C 846.69513,1332.9638 1051.8376,1032.4581 1093.3899,916.08394 1049.8667,1049.7568 860.16515,1361.6189 847.93506,1350.405 z"
       style="fill:url(#linearGradient4587);fill-opacity:1"
       id="path3888-9-0-0-0"
       inkscape:connector-curvature="0"
       sodipodi:nodetypes="ccc" />
    <path
       inkscape:connector-curvature="0"
       d="m 1625.2183,1038.6225 c -8.992,1.4153 -24.0256,6.6813 -21.4159,18.4529 12.2622,3.3272 16.8892,-12.248 21.4159,-18.4529 z m 11.6858,11.6289 c -6.8863,-0.7333 -19.0334,0.2041 -19.4348,9.3795 8.3682,4.8734 14.8815,-5.7145 19.4348,-9.3795 z m -31.8041,-14.802 c -10.7557,1.6748 -28.7475,8.0118 -25.6313,22.0874 14.6701,3.9882 20.2166,-14.6743 25.6313,-22.0874 z m 40.7356,29.346 c -4.5562,-2.2517 -12.0534,-10.0084 -18.2345,-4.3133 2.0724,7.7167 12.5205,6.2386 18.2345,4.3133 z m -67.6249,-38.8628 c -13.9714,5.6966 -36.2475,19.9508 -27.5642,37.967 21.0754,0.7189 22.6102,-26.2353 27.5642,-37.967 z m 44.7919,39.2922 c -3.4008,-2.166 -7.1987,-3.471 -10.9056,-0.5148 1.5161,7.8339 12.0183,7.0797 17.8548,5.5691 -1.9151,-1.1257 -4.3056,-3.359 -6.9492,-5.0543 z m -18.5961,-0.1802 c -3.1488,-2.1105 -6.7554,-2.9664 -11.0558,-1.0806 -0.8376,11.8311 14.5701,14.7713 23.522,14.8465 -3.3145,-3.3604 -7.223,-10.2736 -12.4662,-13.7659 z m -68.4032,-37.0111 c -10.1264,11.1928 -23.9949,33.701 -8.3557,46.1616 19.2994,-8.496 8.9825,-33.4504 8.3557,-46.1616 z m 49.9289,43.0146 c -6.0369,-3.9484 -12.7696,-5.9354 -19.8043,-1.068 1.9734,16.1109 23.4439,16.0863 35.4775,13.8425 -4.2559,-2.9153 -9.6301,-8.8349 -15.6732,-12.7745 z m -86.0584,-42.0858 c -10.3425,16.3376 -22.8404,47.8069 0.1148,60.5321 22.7305,-14.7586 3.6664,-44.439 -0.1148,-60.5321 z m 72.0569,63.0102 c -11.5404,-5.4027 -30.7149,-24.3996 -45.8969,-9.7702 5.6057,19.2026 31.6881,14.8935 45.8969,9.7702 z m -114.9382,-43.2222 c -8.2916,21.0294 -15.8525,59.872 12.6383,69.0964 22.5555,-22.0879 -5.0578,-51.6049 -12.6383,-69.0964 z m 93.8139,66.009 c -15.4651,-6.3332 -41.8247,-29.9668 -60.7633,-9.7882 8.6052,24.8141 42.4874,17.4339 60.7633,9.7882 z m -14.3997,15.5796 c -21.8923,-1.046 -64.8696,-18.7261 -79.4577,14.5065 21.4997,26.9017 60.2095,2.9496 79.4577,-14.5065 z m -121.088,-57.8369 c -10.1454,25.755 -19.4555,73.3165 15.4472,84.6098 27.6306,-27.0425 -6.1555,-63.1763 -15.4472,-84.6098 z m 90.3579,97.4045 c -23.3252,-1.1123 -69.0755,-19.9567 -84.6099,15.4471 22.8981,28.6605 64.1014,3.1446 84.6099,-15.4471 z"
       style="fill:url(#radialGradient4584);fill-opacity:1"
       id="path3958-3-6-7-6-0" />
  </g>
</svg>
