<?xml version="1.0" encoding="UTF-8" standalone="no"?>
<!-- Created with Inkscape (http://www.inkscape.org/) -->

<svg
   xmlns:dc="http://purl.org/dc/elements/1.1/"
   xmlns:cc="http://creativecommons.org/ns#"
   xmlns:rdf="http://www.w3.org/1999/02/22-rdf-syntax-ns#"
   xmlns:svg="http://www.w3.org/2000/svg"
   xmlns="http://www.w3.org/2000/svg"
   xmlns:xlink="http://www.w3.org/1999/xlink"
   xmlns:sodipodi="http://sodipodi.sourceforge.net/DTD/sodipodi-0.dtd"
   xmlns:inkscape="http://www.inkscape.org/namespaces/inkscape"
   width="2000"
   height="1200"
   id="svg6660"
   version="1.1"
   inkscape:version="0.48.4 r9939"
   sodipodi:docname="package-slogan-background.svg"
   inkscape:export-filename="/media/desarrollo/tribus/tribus/data/static/img/intro-slogan-background.png"
   inkscape:export-xdpi="90"
   inkscape:export-ydpi="90">
  <defs
     id="defs6662">
    <clipPath
       id="c">
      <use
         height="360"
         width="360"
         y="0"
         x="0"
         style="overflow:visible"
         id="use37"
         overflow="visible"
         xlink:href="#b" />
    </clipPath>
  </defs>
  <sodipodi:namedview
     id="base"
     pagecolor="#ffffff"
     bordercolor="#666666"
     borderopacity="1.0"
     inkscape:pageopacity="0.0"
     inkscape:pageshadow="2"
     inkscape:zoom="0.5"
     inkscape:cx="1024.9105"
     inkscape:cy="1001.115"
     inkscape:document-units="px"
     inkscape:current-layer="svg6660"
     showgrid="false"
     inkscape:window-width="1438"
     inkscape:window-height="875"
     inkscape:window-x="0"
     inkscape:window-y="0"
     inkscape:window-maximized="1"
     showguides="true"
     inkscape:guide-bbox="true"
     borderlayer="true" />
  <metadata
     id="metadata6665">
    <rdf:RDF>
      <cc:Work
         rdf:about="">
        <dc:format>image/svg+xml</dc:format>
        <dc:type
           rdf:resource="http://purl.org/dc/dcmitype/StillImage" />
        <dc:title />
      </cc:Work>
    </rdf:RDF>
  </metadata>
  <rect
     style="opacity:1;fill:#ffffff;fill-opacity:1;stroke:none"
     id="rect5563"
     width="2000"
     height="1200"
     x="0"
     y="-8.8817842e-15" />
  <path
     style="fill:#4fa40c;fill-opacity:1"
     inkscape:connector-curvature="0"
     id="path27-6-6-6-0-0"
     d="m 1909.305,264.15943 c 3.5242,0 6.3833,2.85963 6.3833,6.38307 v 44.68111 c 0,3.52344 -2.8591,6.383 -6.3833,6.383 h -44.6803 c -3.5242,0 -6.3832,-2.85956 -6.3832,-6.383 V 270.5425 c 0,-3.52344 2.859,-6.38307 6.3832,-6.38307 h 44.6803 m 0,-21.27672 h -44.6803 c -15.251,0 -27.6598,12.40863 -27.6598,27.65979 v 44.68111 c 0,15.25116 12.4088,27.65972 27.6598,27.65972 h 44.6803 c 15.2519,0 27.6599,-12.40856 27.6599,-27.65972 V 270.5425 c 0,-15.25116 -12.408,-27.65979 -27.6599,-27.65979 z" />
  <path
     style="fill:#4fa40c;fill-opacity:1"
     inkscape:connector-curvature="0"
     id="path27-6-6-6-0"
     d="m 1404.2288,41.276099 c 3.5242,0 6.3833,2.85963 6.3833,6.38307 V 92.34028 c 0,3.52344 -2.8591,6.383 -6.3833,6.383 h -44.6803 c -3.5242,0 -6.3832,-2.85956 -6.3832,-6.383 V 47.659169 c 0,-3.52344 2.859,-6.38307 6.3832,-6.38307 h 44.6803 m 0,-21.27672 h -44.6803 c -15.251,0 -27.6598,12.40863 -27.6598,27.65979 V 92.34028 c 0,15.25116 12.4088,27.65972 27.6598,27.65972 h 44.6803 c 15.2519,0 27.6599,-12.40856 27.6599,-27.65972 V 47.659169 c 0,-15.25116 -12.408,-27.65979 -27.6599,-27.65979 z" />
  <path
     style="font-size:medium;font-style:normal;font-variant:normal;font-weight:normal;font-stretch:normal;text-indent:0;text-align:start;text-decoration:none;line-height:normal;letter-spacing:normal;word-spacing:normal;text-transform:none;direction:ltr;block-progression:tb;writing-mode:lr-tb;text-anchor:start;baseline-shift:baseline;color:#000000;fill:#4fa40c;fill-opacity:1;stroke:none;stroke-width:14.18388844;marker:none;visibility:visible;display:inline;overflow:visible;enable-background:accumulate;font-family:Sans;-inkscape-font-specification:Sans"
     d="m 1511.3438,74.9375 6.0624,0.03125 0.094,0 14.0312,0.21875 0,-0.03125 13.6563,0.34375 0.094,0 8.4063,0.28125 0.4687,-14.1875 -8.5,-0.28125 -0.031,0 -0.031,0 -13.8126,-0.3125 -0.031,0 -0.031,0 -14.0938,-0.21875 -0.031,0 -0.031,0 -6.1563,0 z m -53.5313,-13.65625 -0.031,0 -0.031,0 -15.6562,0.46875 -0.031,0 -0.031,0 -16,0.5625 0.5313,14.1875 15.9375,-0.59375 0,0.03125 15.625,-0.46875 0.031,0 10.8126,-0.21875 -0.2813,-14.1875 z m 138.1563,16.625 1.0937,0.09375 0.094,0 12.2188,0.9375 0,-0.03125 11.8125,1.0625 0.094,0 11.5313,1.15625 0.094,0 5.0938,0.59375 1.5938,-14.09375 -5.1876,-0.59375 -0.062,0 -0.031,0 -11.7187,-1.1875 -0.031,0 -0.031,0 -12,-1.0625 -0.062,0 -0.031,0 -12.3125,-0.9375 -0.031,0 -0.031,0 L 1596.875,63.75 z M 1679.75,87.5 l 6.75,1.125 0.094,0.03125 9.7812,1.8125 0.094,0.03125 9.5,1.90625 0,0.03125 9.2812,2.03125 0.125,0.03125 5.5938,1.34375 3.3124,-13.78125 -5.7187,-1.375 -0.062,-0.03125 -0.062,0 -9.4375,-2.09375 -0.031,0 -0.063,0 -9.7187,-2 -0.062,0 -0.062,0 -9.9687,-1.875 -0.063,0 -0.062,0 -6.8438,-1.1875 z m 81.375,20.03125 4.1562,1.4375 0.1563,0.0625 7.2187,2.6875 0.125,0.0625 0.031,0 6.9687,2.8125 0.1563,0.0625 6.8437,2.96875 6.4688,2.96875 0,0.0312 3.1875,1.53125 0.094,0.0625 2.9063,1.46875 6.4063,-12.65625 -3,-1.53125 -0.031,-0.0312 -0.062,0 -3.2812,-1.59375 -0.063,-0.0625 -0.062,0 -6.75,-3.15625 -0.094,-0.0312 -0.094,-0.0312 -7,-3.03125 -0.094,-0.0312 -0.094,-0.0312 -7.2813,-2.9375 -0.062,-0.03125 -0.094,-0.03125 -7.5312,-2.8125 -0.062,-0.03125 -0.094,-0.03125 -4.2813,-1.5 z m 72.8438,38.25 0.5624,0.4375 0.094,0.0937 2.1562,1.78125 0.094,0.0937 2.0938,1.8125 0.094,0.0937 2.0625,1.8125 0.094,0.0937 1.9687,1.84375 0.094,0.0937 1.9376,1.84375 0.062,0.0625 0.031,0.0312 1.8437,1.875 0.125,0.125 1.7813,1.875 0.094,0.0937 1.75,1.90625 0.094,0.125 1.7188,1.90625 0.094,0.0937 1.625,1.9375 0.094,0.125 1.5938,1.9375 0.094,0.125 1.5,1.96875 0.062,0.0937 0.031,0.0312 1.4687,1.96875 0.094,0.125 1.4375,2 0.094,0.125 0.5938,0.90625 11.7188,-7.96875 -0.6876,-1.03125 -0.031,-0.0625 -0.062,-0.0625 -1.5937,-2.25 -0.031,-0.0625 -0.062,-0.0625 -1.625,-2.21875 -0.062,-0.0625 -0.031,-0.0625 -1.7187,-2.1875 -0.031,-0.0625 -0.062,-0.0625 -1.7813,-2.1875 -0.031,-0.0312 -0.062,-0.0625 -1.8126,-2.15625 -0.031,-0.0625 -0.062,-0.0625 -1.875,-2.125 -0.062,-0.0625 -0.031,-0.0625 -1.9376,-2.09375 -0.062,-0.0625 -0.031,-0.0312 -2,-2.09375 -0.062,-0.0625 -0.062,-0.0625 -2.0313,-2.0625 -0.062,-0.0312 -0.063,-0.0625 -2.0937,-2.03125 -0.062,-0.0625 -0.062,-0.0312 -2.1563,-2.03125 -0.062,-0.0625 -0.031,-0.0312 -2.25,-2 -0.031,-0.0625 -0.062,-0.0312 -2.3126,-1.96875 -0.031,-0.0625 -0.062,-0.0312 -2.3437,-1.96875 -0.063,-0.0312 -0.031,-0.0312 -0.6562,-0.53125 z m 44.0624,65.75 0.375,1.53125 0.031,0.125 0.5625,2.3125 0.031,0.15625 0.5,2.34375 0.031,0.125 0.4375,2.375 0.031,0.125 0.4063,2.375 0.031,0.15625 0.375,2.53125 0.031,0 0.2812,2.40625 0.031,0.15625 0.2813,2.4375 0,0.125 0.25,2.46875 -0.031,0 0.2187,2.625 0,0.125 0.125,2.5 0,0.125 0.094,2.53125 0,0.125 0.062,2.5 0,0.15625 0,0.0312 -0.031,5.21875 0,0.21875 -0.125,2.21875 14.1876,0.59375 0.094,-2.4375 0,-0.125 0,-0.125 0.062,-5.65625 0,-0.0937 0,-0.0937 -0.062,-2.78125 0,-0.0625 0,-0.0937 -0.094,-2.78125 0,-0.0625 0,-0.0625 -0.1563,-2.75 0,-0.0625 0,-0.0625 -0.2187,-2.75 0,-0.0625 0,-0.0937 -0.25,-2.71875 -0.031,-0.0625 0,-0.0625 -0.3125,-2.71875 0,-0.0625 0,-0.0625 -0.3438,-2.71875 -0.031,-0.0625 0,-0.0625 -0.4062,-2.6875 0,-0.0625 -0.031,-0.0625 -0.4375,-2.65625 -0.031,-0.0625 0,-0.0937 -0.5,-2.625 -0.031,-0.0625 0,-0.0937 -0.5625,-2.59375 -0.031,-0.0937 0,-0.0625 -0.625,-2.59375 0,-0.0937 -0.031,-0.0625 L 1891.75,208 z"
     id="line29-1"
     inkscape:connector-curvature="0" />
  <path
     style="fill:#4fa40c;fill-opacity:1"
     inkscape:connector-curvature="0"
     id="path27-6-6-6"
     d="m 127.39596,371.2356 c 3.5242,0 6.3833,2.85963 6.3833,6.38307 v 44.68111 c 0,3.52344 -2.8591,6.383 -6.3833,6.383 H 82.715659 c -3.5242,0 -6.3832,-2.85956 -6.3832,-6.383 v -44.68111 c 0,-3.52344 2.859,-6.38307 6.3832,-6.38307 h 44.680301 m 0,-21.27672 H 82.715659 c -15.250995,0 -27.659795,12.40863 -27.659795,27.65979 v 44.68111 c 0,15.25116 12.4088,27.65972 27.659795,27.65972 h 44.680301 c 15.2519,0 27.6599,-12.40856 27.6599,-27.65972 v -44.68111 c 0,-15.25116 -12.408,-27.65979 -27.6599,-27.65979 z" />
  <path
     style="fill:#4fa40c;fill-opacity:1"
     inkscape:connector-curvature="0"
     id="path27-6-6-6-4"
     d="m 725.40626,41.276099 c 3.5242,0 6.3833,2.85963 6.3833,6.38307 V 92.34028 c 0,3.52344 -2.8591,6.383 -6.3833,6.383 h -44.6803 c -3.5242,0 -6.3832,-2.85956 -6.3832,-6.383 V 47.659169 c 0,-3.52344 2.859,-6.38307 6.3832,-6.38307 h 44.6803 m 0,-21.27672 h -44.6803 c -15.25099,0 -27.65979,12.40863 -27.65979,27.65979 V 92.34028 c 0,15.25116 12.4088,27.65972 27.65979,27.65972 h 44.6803 c 15.2519,0 27.6599,-12.40856 27.6599,-27.65972 V 47.659169 c 0,-15.25116 -12.408,-27.65979 -27.6599,-27.65979 z" />
  <path
     style="font-size:medium;font-style:normal;font-variant:normal;font-weight:normal;font-stretch:normal;text-indent:0;text-align:start;text-decoration:none;line-height:normal;letter-spacing:normal;word-spacing:normal;text-transform:none;direction:ltr;block-progression:tb;writing-mode:lr-tb;text-anchor:start;baseline-shift:baseline;color:#000000;fill:#4fa40c;fill-opacity:1;stroke:none;stroke-width:14.18388844;marker:none;visibility:visible;display:inline;overflow:visible;enable-background:accumulate;font-family:Sans;-inkscape-font-specification:Sans"
     d="m 569.25,55.84375 -0.0312,0 -0.0312,0 -14.90625,0.25 -0.0312,0 -0.0312,0 -14.6875,0.40625 -0.0312,0 -0.0312,0 -4.59375,0.1875 0.5625,14.1875 4.5,-0.1875 0.0625,0 14.53125,-0.40625 0.0937,0 14.71875,-0.25 0.0937,0 8.3125,-0.09375 -0.125,-14.15625 z m 50.84375,14.34375 10.5625,0.1875 0.0625,0 15.75,0.4375 0.0625,0 16,0.59375 0.5,-14.1875 -16.0625,-0.5625 -0.0312,0 -0.0312,0 -15.875,-0.4375 -0.0312,0 -0.0312,0 L 620.375,56 z M 482.53125,59.625 482.5,59.65625 l -0.0312,0 -13.65625,1.15625 -0.0312,0 -0.0625,0 -13.40625,1.3125 -0.0625,0 -0.0312,0 -5.71875,0.625 1.5625,14.09375 5.625,-0.625 0.0625,0 13.25,-1.28125 0.0937,0 13.46875,-1.15625 0.0937,0 9.53125,-0.6875 -1.03125,-14.15625 z m -79.125,9.3125 -0.0625,0.03125 -0.0625,0 -12.3125,2.09375 -0.0312,0 -0.0625,0 -6.0625,1.125 -0.0312,0 -0.0312,0 -6,1.15625 -0.0312,0 -0.0312,0 -5.96875,1.1875 -0.0312,0 -0.0312,0.03125 -5.90625,1.21875 -0.0312,0 -0.0312,0 -1.90625,0.4375 3,13.84375 1.875,-0.40625 0.0625,0 5.78125,-1.21875 0.0625,0 5.84375,-1.1875 0,0.03125 5.9375,-1.15625 0.0625,0 5.9375,-1.09375 0.0937,0 12.125,-2.0625 0.0937,-0.03125 3.53125,-0.53125 -2.15625,-14 z m -82.25,18.28125 -0.0312,0 -0.0312,0.03125 -5.375,1.59375 -0.0312,0 -0.0625,0.03125 -5.3125,1.625 -0.0312,0.03125 -0.0312,0 -5.25,1.6875 -0.0312,0.03125 -0.0312,0 -5.1875,1.71875 -0.0312,0.03125 -0.0625,0 -5.125,1.78125 -0.0312,0 -0.0312,0.03125 -5.0625,1.8125 -0.0312,0 -0.0625,0.03125 -5,1.84375 -0.0312,0.03125 -0.0312,0 -2.125,0.8125 5.09375,13.25 2.03125,-0.78125 0.0937,-0.0312 4.84375,-1.8125 0.0937,-0.0312 4.90625,-1.75 0.0625,-0.0312 4.96875,-1.71875 0.0937,-0.0312 5.03125,-1.6875 0.0625,0 0,-0.0312 5.125,-1.625 0.0625,-0.0312 5.15625,-1.59375 0.0937,-0.0312 5.21875,-1.5625 0.0625,0 0,-0.0312 1.84375,-0.5 -3.90625,-13.625 z m -79.8125,31.34375 -0.0312,0 -0.0625,0.0312 -4.34375,2.3125 -0.0625,0.0312 -0.0312,0 -4.3125,2.34375 -0.0625,0.0312 -0.0312,0.0312 -4.25,2.40625 -0.0312,0 -0.0625,0.0312 -4.1875,2.4375 -0.0312,0.0312 -0.0625,0.0312 -4.09375,2.5 -0.0625,0 -0.0312,0.0312 -4.0625,2.53125 -0.0312,0.0312 -0.0625,0.0312 -3.96875,2.59375 -0.0625,0.0312 -0.0312,0.0312 -3.9375,2.59375 -0.0312,0.0312 -0.0625,0.0312 -2.09375,1.46875 8.0625,11.65625 2.03125,-1.375 0.0937,-0.0625 3.71875,-2.5 0.0312,0 0.0625,-0.0625 3.8125,-2.46875 0.0937,-0.0625 3.84375,-2.40625 0.0937,-0.0625 3.9375,-2.375 0.0937,-0.0312 0,-0.0312 4,-2.3125 0.0937,-0.0625 4.0625,-2.28125 0.0937,-0.0625 4.125,-2.25 0.0937,-0.0312 4.1875,-2.21875 0.0937,-0.0312 1.125,-0.59375 -6.40625,-12.625 z m -70.3125,49.65625 -0.0625,0.0312 -0.0312,0.0625 -3.1875,3.125 -0.0312,0.0625 -0.0625,0.0312 -3.09375,3.1875 -0.0625,0.0625 -0.0312,0.0312 -3.03125,3.25 -0.0625,0.0625 -0.0312,0.0312 -2.96875,3.28125 -0.0625,0.0625 -0.0312,0.0625 -2.90625,3.3125 -0.0312,0.0625 -0.0625,0.0625 -2.8125,3.375 -0.0312,0.0312 -0.0625,0.0625 -2.75,3.4375 -0.0312,0.0625 -0.0625,0.0312 -2.6875,3.5 -0.0312,0.0625 -0.0312,0.0312 -2.625,3.53125 -0.0312,0.0625 -0.0312,0.0625 -1.25,1.75 11.5625,8.21875 1.15625,-1.65625 0.0937,-0.0937 2.4375,-3.3125 0.0312,-0.0312 0.0625,-0.0937 2.5,-3.25 0.0937,-0.0937 2.5625,-3.21875 0.0937,-0.125 2.65625,-3.15625 0.0937,-0.0937 2.71875,-3.15625 0.0937,-0.0937 2.78125,-3.0625 0.0937,-0.125 2.84375,-3.03125 0.0937,-0.0937 2.90625,-3 0.0625,-0.0625 0.0312,-0.0312 3,-2.96875 0.0937,-0.0625 0.34375,-0.34375 -9.78125,-10.28125 z m -51.625,74.375 -0.0312,0.0625 -0.0312,0.0625 -1.75,4.125 -0.0312,0.0937 -0.0312,0.0625 -1.65625,4.1875 -0.0312,0.0625 -0.0312,0.0625 -1.59375,4.21875 0,0.0625 -0.0312,0.0625 -1.53125,4.3125 0,0.0625 -0.0312,0.0625 -1.4375,4.34375 -0.0312,0.0625 -0.0312,0.0625 -1.34375,4.375 -0.0312,0.0625 0,0.0625 -1.3125,4.46875 0,0.0625 -0.0312,0.0625 -1.21875,4.5 0,0.0625 -0.0312,0.0625 -0.53125,2.0625 13.78125,3.46875 0.46875,-1.96875 0,-0.0312 0.0312,-0.0937 1.15625,-4.25 0.0312,-0.125 1.21875,-4.1875 0.0312,-0.125 1.3125,-4.125 0.0312,-0.125 1.40625,-4.21875 1.40625,-4.03125 0.0625,-0.125 1.5,-4 0.0312,-0.125 1.5625,-3.90625 0.0625,-0.125 1.625,-3.875 0.0625,-0.15625 1.53125,-3.40625 -12.96875,-5.75 z m -20.34375,84.6875 -0.03125,0.0625 0,0.0312 -0.34375,5.09375 -0.03125,0.0625 0,0.0625 -0.28125,5.125 0,0.0625 0,0.0625 -0.1875,5.1875 -0.03125,0.0625 0,0.0625 -0.125,5.25 0,0.0312 0,0.0625 -0.03125,5.3125 0,0.0625 0,0.0312 0.03125,5.375 14.1875,-0.0937 -0.0312,-5.25 0,-0.0625 0,-0.0625 0.0312,-5.0625 0,-0.125 0.125,-5.03125 0,-0.0937 0.21875,-5.09375 -0.0312,0 0.3125,-5.03125 -0.0312,0 0.375,-4.84375 0,-0.125 0.34375,-3.78125 -14.125,-1.25 z"
     id="line29"
     inkscape:connector-curvature="0" />
  <path
     style="opacity:0.7;fill:#ecf7f9;fill-opacity:1"
     d="M 720.25 -245.0625 C 651.53268 -245.0625 590.31304 -212.98287 550.71875 -163 C 522.09926 -194.17777 481.03274 -213.75 435.375 -213.75 C 381.18499 -213.75 333.41921 -186.2122 305.3125 -144.375 C 269.2095 -171.4446 224.37832 -187.5 175.78125 -187.5 C 56.395211 -187.5 -40.40625 -90.698541 -40.40625 28.6875 C -40.40625 68.000745 -29.90291 104.86267 -11.5625 136.625 C -21.889624 147.03117 -28.28125 161.36843 -28.28125 177.1875 C -28.28125 196.47938 -18.783608 213.52154 -4.21875 223.96875 C -52.735216 254.0885 -85.0625 307.85034 -85.0625 369.15625 C -85.0625 463.46719 -8.5921934 539.90625 85.71875 539.90625 C 180.02969 539.90625 256.46875 463.46719 256.46875 369.15625 C 256.46875 362.60584 256.09301 356.13974 255.375 349.78125 C 300.4159 337.93684 333.625 296.94656 333.625 248.1875 C 333.625 243.75076 333.34647 239.38589 332.8125 235.09375 C 338.88818 236.18678 345.14086 236.78125 351.53125 236.78125 C 409.54919 236.78125 456.59375 189.73669 456.59375 131.71875 C 456.59375 120.14305 454.70825 109.00855 451.25 98.59375 C 465.94302 97.113309 480.04118 93.602012 493.25 88.34375 C 504.66864 103.63425 522.91746 113.53125 543.46875 113.53125 C 547.91584 113.53125 552.25262 113.03764 556.4375 112.15625 C 596.07893 158.14632 654.76947 187.28125 720.25 187.28125 C 785.11681 187.28125 843.28388 158.6821 882.90625 113.4375 C 891.16889 116.12177 899.96736 117.5625 909.125 117.5625 C 949.26204 117.5625 982.89571 89.693095 991.71875 52.25 C 1002.9135 55.958589 1014.8738 57.96875 1027.3125 57.96875 C 1037.6417 57.96875 1047.6491 56.593168 1057.1562 54 C 1075.6486 113.08467 1130.8501 155.96875 1196.0312 155.96875 C 1204.6425 155.96875 1213.081 155.21636 1221.2812 153.78125 C 1235.7522 194.4905 1274.6074 223.65625 1320.2812 223.65625 C 1356.2987 223.65625 1388.0741 205.53393 1407 177.90625 C 1420.0681 180.73262 1433.6486 182.21875 1447.5625 182.21875 C 1497.2881 182.21875 1542.5576 163.21234 1576.5312 132.0625 C 1596.4185 159.84205 1628.5625 178.22991 1665.0625 179.34375 C 1675.9382 291.63338 1770.5753 379.40625 1885.7188 379.40625 C 1890.9509 379.40625 1896.1397 379.23155 1901.2812 378.875 C 1913.1565 423.87032 1954.117 457.0625 2002.8438 457.0625 C 2060.8617 457.0625 2107.9062 410.01794 2107.9062 352 C 2107.9062 321.44034 2094.8611 293.94631 2074.0312 274.75 C 2095.1841 240.78304 2107.4062 200.6797 2107.4062 157.71875 C 2107.4062 35.27534 2008.1622 -64 1885.7188 -64 C 1833.2144 -64 1784.9804 -45.723042 1747 -15.21875 C 1726.6618 -34.792389 1699.0188 -46.84375 1668.5625 -46.84375 C 1657.0766 -46.84375 1646.0076 -45.119662 1635.5625 -41.9375 C 1619.8351 -131.53331 1541.6653 -199.59375 1447.5625 -199.59375 C 1377.6423 -199.59375 1316.5082 -162.00867 1283.25 -105.9375 C 1258.9504 -124.1688 1228.748 -134.96875 1196.0312 -134.96875 C 1169.4517 -134.96875 1144.5352 -127.82538 1123.0938 -115.375 C 1103.0648 -147.15713 1067.6546 -168.28125 1027.3125 -168.28125 C 981.2449 -168.28125 941.61432 -140.7597 923.96875 -101.25 C 894.20496 -185.0447 814.25321 -245.0625 720.25 -245.0625 z "
     id="path4616-3-3-3-5-5-6-4-1" />
  <path
     style="fill:none;stroke:#dcb75f;stroke-width:8.64099979;stroke-linejoin:bevel;stroke-miterlimit:10"
     inkscape:connector-curvature="0"
     id="path39"
     d="m 252,198 c 0,0 10.5,-99 126,-135"
     stroke-miterlimit="10"
     clip-path="url(#c)"
     transform="matrix(0.27966102,0,0,0.27966102,1292.4904,448.64044)" />
  <path
     style="opacity:0.69999999999999996;fill:#ecf7f9;fill-opacity:1"
     d="M 1694.9375 975.8125 C 1632.7677 975.8125 1576.7478 1002.0788 1537.3125 1044.0938 C 1511.3866 1020.1557 1476.7257 1005.5312 1438.6562 1005.5312 C 1358.3226 1005.5312 1293.2188 1070.6351 1293.2188 1150.9688 C 1293.2188 1153.5004 1293.2785 1156.0314 1293.4062 1158.5312 C 1277.5257 1150.0345 1259.3637 1145.2188 1240.0938 1145.2188 C 1206.1785 1145.2188 1175.7665 1160.1423 1155.0312 1183.7812 C 1136.1171 1165.4285 1110.3426 1154.125 1081.9062 1154.125 C 1042.3625 1154.125 1007.9239 1175.9656 990 1208.25 C 962.11384 1191.6789 929.66184 1182.0109 894.96875 1181.5938 C 887.63667 1068.8459 793.88271 979.65625 679.28125 979.65625 C 619.03267 979.65625 564.54528 1004.3002 525.34375 1044.0625 C 510.17113 1036.5027 493.07182 1032.25 474.96875 1032.25 C 419.25646 1032.25 372.94173 1072.5107 363.5625 1125.5312 C 362.82378 1125.5054 362.08877 1125.4688 361.34375 1125.4688 C 338.31103 1125.4688 318.19027 1137.9154 307.3125 1156.4375 C 266.64365 1107.8519 205.5663 1076.9375 137.25 1076.9375 C 14.806587 1076.9375 -84.46875 1176.2128 -84.46875 1298.6562 C -84.46875 1421.0997 14.806587 1520.3438 137.25 1520.3438 C 223.71572 1520.3438 298.60272 1470.8316 335.15625 1398.625 C 349.40523 1439.7423 388.4719 1469.25 434.4375 1469.25 C 490.8849 1469.25 536.92327 1424.7493 539.375 1368.9062 C 541.01838 1367.5082 542.60239 1366.0577 544.15625 1364.5625 C 551.40328 1370.3736 559.03194 1375.7409 567 1380.5938 C 566.96019 1381.6614 566.9375 1382.7351 566.9375 1383.8125 C 566.9375 1430.6726 604.92115 1468.6562 651.78125 1468.6562 C 676.588 1468.6562 698.92299 1458.0346 714.4375 1441.0625 C 741.99501 1512.6101 811.36572 1563.375 892.625 1563.375 C 998.06375 1563.375 1083.5625 1477.9075 1083.5625 1372.4688 C 1083.5625 1369.688 1083.4927 1366.9393 1083.375 1364.1875 C 1111.621 1363.8009 1137.1535 1352.2631 1155.8125 1333.7812 C 1176.5271 1356.9125 1206.5991 1371.4688 1240.0938 1371.4688 C 1276.3121 1371.4688 1308.5746 1354.4464 1329.2812 1327.9688 C 1313.7232 1353.712 1304.7812 1383.8825 1304.7812 1416.1562 C 1304.7812 1510.4672 1381.2203 1586.9375 1475.5312 1586.9375 C 1560.6733 1586.9375 1631.267 1524.6325 1644.1875 1443.125 C 1671.4654 1466.2159 1706.7433 1480.1562 1745.2812 1480.1562 C 1820.8326 1480.1562 1883.9057 1426.6277 1898.625 1355.4375 C 1952.6133 1351.0555 1995.0625 1305.8674 1995.0625 1250.75 C 1995.0625 1248.7047 1994.9903 1246.6727 1994.875 1244.6562 C 2009.8254 1234.257 2019.625 1216.9667 2019.625 1197.375 C 2019.625 1165.578 1993.8595 1139.8125 1962.0625 1139.8125 C 1948.6046 1139.8125 1936.2406 1144.4503 1926.4375 1152.1875 C 1920.0319 1149.8186 1913.3303 1148.0547 1906.4062 1146.9688 C 1885.6975 1049.1847 1798.8898 975.8125 1694.9375 975.8125 z M 373.9375 1249.4375 C 369.56343 1260.2319 366.94683 1271.9261 366.40625 1284.1562 C 363.7585 1286.4081 361.22428 1288.7811 358.8125 1291.2812 C 358.35475 1277.2297 356.58017 1263.5226 353.625 1250.25 C 356.15581 1250.5613 358.72878 1250.7188 361.34375 1250.7188 C 365.65649 1250.7188 369.87007 1250.2677 373.9375 1249.4375 z M 1352.7812 1268.375 C 1358.8648 1272.8327 1365.3119 1276.8292 1372.0625 1280.3125 C 1359.3099 1290.0414 1347.946 1301.528 1338.375 1314.4062 C 1346.2589 1300.6166 1351.3194 1285.0174 1352.7812 1268.375 z "
     id="path4616-3-3-3-5-5-6-4-1-9" />
  <g
     id="g5238"
     transform="matrix(0.86573024,0,0,0.86573024,99.711267,25.579933)"
     style="opacity:0.6">
    <rect
       id="rect3"
       height="29.879745"
       width="829.73755"
       y="244.87482"
       x="-478.7742"
       style="fill:#333333" />
    <path
       id="path97"
       d="M 403.82739,863.15573 V 261.45582 c 0,-18.04507 -15.25246,-32.67006 -33.29293,-32.67006 h -848.09978 c -18.04277,0 -31.08872,14.62499 -31.08872,32.67006 V 863.15573 H 403.82739 z M -54.169334,255.64536 c 2.886843,0 5.226657,2.33981 5.226657,5.22665 0,2.88685 -2.342112,5.22666 -5.226657,5.22666 -2.884545,0 -5.226657,-2.34211 -5.226657,-5.22666 0,-2.88914 2.342112,-5.22665 5.226657,-5.22665 z M 339.47102,782.71026 H -446.59611 V 290.84369 h 786.06713 v 491.86657 z"
       inkscape:connector-curvature="0"
       style="fill:#030302" />
    <g
       id="g99"
       transform="matrix(2.2984419,0,0,2.2984419,-684.81352,178.80614)">
      <path
         id="path101"
         d="m 518.59,300.745 h -0.211 v 0.031 c 0,0.049 0.3,-0.031 0.211,-0.031 z"
         inkscape:connector-curvature="0"
         style="fill:#a09f9f" />
    </g>
    <path
       id="path103"
       d="m -614.38237,863.15573 v 6.23797 c 0,0.35856 -0.42751,0.65735 0.21605,0.65735 18.47488,11.49221 39.63204,18.38754 62.1154,18.38754 h 997.07099 c 22.48336,0 43.64051,-6.89533 62.11539,-18.38754 h 0.12182 v -6.89532 H -614.38237 z"
       inkscape:connector-curvature="0"
       style="fill:#838384" />
    <path
       id="path105"
       d="m 25.47857,840.17131 c -0.65965,6.89532 -6.25406,11.49221 -12.99998,11.49221 h -131.98573 c -6.74593,0 -12.34034,-4.59689 -12.99999,-11.49221 h -482.48203 v 29.22239 c 0,0.35856 0.17928,0.65735 0.82055,0.65735 H 506.65049 V 840.17131 H 25.47857 z"
       inkscape:connector-curvature="0"
       style="fill:#a09f9f" />
  </g>
  <g
     id="g5105"
     transform="matrix(0.79868754,0,0,0.79868754,819.09283,184.15078)"
     style="opacity:0.6">
    <g
       transform="matrix(1.0027483,0,0,1.0002892,-846.42277,255.63836)"
       id="g3089">
      <path
         style="fill:#bbc1c6"
         d="m 2046.1159,-283.73265 -5.5,2.59375 c -8.1572,3.8711 -14.4075,9.94643 -18.2187,17.6875 l -3.2813,6.65625 -0.9374,683.25 3.2812,6.6875 9.875,12.40625 0.094,0.0625 9.1874,6.03125 5.5,2.625 441.0624,-0.84375 5.5,-2.625 c 8.1572,-3.87109 14.3762,-9.9152 18.1874,-17.65625 l 3.3126,-6.6875 0.9374,-683.25 -3.2812,-6.65625 c -3.8112,-7.74105 -10.0614,-13.81641 -18.2188,-17.6875 l -5.5,-2.59375 z m 0.5,73.5 442,0 -0.9374,589 -441.0626,0 z"
         id="path3003"
         inkscape:connector-curvature="0"
         sodipodi:nodetypes="cccccccccccccccccccccccc" />
      <path
         inkscape:connector-curvature="0"
         id="path2995"
         d="m 2259.8586,437.35673 c -4.8605,-1.48763 -10.6215,-7.75086 -12.1497,-13.20891 -4.1799,-14.92939 9.0202,-28.18009 24.1604,-24.25279 9.2824,2.40783 15.9371,12.3965 14.2848,21.4416 -0.9659,5.28803 -5.004,11.61685 -8.98,14.07413 -4.0264,2.48849 -12.4499,3.43514 -17.3155,1.94597 z M 2042.8472,381.2274 c -1.7481,-1.74809 -1.7481,-592.85191 0,-594.6 1.7469,-1.74685 445.8532,-1.74685 447.6,0 1.7481,1.74809 1.7481,592.8519 0,594.6 -1.7468,1.74685 -445.8531,1.74685 -447.6,0 z m 444.8,-297.300005 0,-294.499995 -221,0 -221,0 0,294.499995 0,294.500005 221,0 221,0 z M 2263.2186,-243.14403 c -1.865,-1.86505 -2.0541,-5.54582 -0.3714,-7.22857 1.5469,-1.54692 6.0531,-1.54692 7.6,0 2.8281,2.82807 0.2493,8.8 -3.8,8.8 -1.0214,0 -2.5643,-0.70714 -3.4286,-1.57143 z"
         style="fill:#94a4a6"
         sodipodi:nodetypes="scscssssccsccccccccccsssc" />
      <path
         inkscape:connector-curvature="0"
         id="path2991"
         d="m 2043.2186,382.19592 c -1.4214,-1.42148 -1.5714,-29.75541 -1.5714,-296.928566 0,-267.173164 0.15,-295.507104 1.5714,-296.928574 1.4192,-1.41913 23.0736,-1.57143 223.4286,-1.57143 200.355,0 222.0094,0.1523 223.4286,1.57143 1.4215,1.42147 1.5714,29.75541 1.5714,296.928574 0,267.173156 -0.1499,295.507086 -1.5714,296.928566 -1.4192,1.41913 -23.0736,1.57143 -223.4286,1.57143 -200.355,0 -222.0094,-0.1523 -223.4286,-1.57143 z m 444.4286,-296.928566 0,-294.500004 -221,0 -221,0 0,294.500004 0,294.499996 221,0 221,0 0,-294.499996 z"
         style="fill:#32475d" />
    </g>
    <path
       sodipodi:nodetypes="cssscccsscccsssssssssssssscccccsscsscsscssscsscsssscssssssssccscscsssccscc"
       style="fill:#dbac98"
       d="m 1508.0822,817.61658 c -14.7084,-11.81061 -23.375,-16.71096 -38.5,-21.76905 -14.1633,-4.73649 -36.3429,-14.66649 -60.5,-27.08643 -32.892,-16.91082 -60.3939,-34.00868 -82.776,-51.46167 l -9.776,-7.62306 165.2974,-0.5 165.2973,-0.5 6.6012,-3.24993 c 7.8262,-3.85298 13.9711,-10.12956 17.6957,-18.07492 l 2.6604,-5.67515 0.264,-136.9532 0.264,-136.95319 -2.4712,-19.04681 c -6.1066,-47.0673 -6.2303,-79.05989 -0.4113,-106.43659 1.1235,-5.28561 2.3945,-12.9129 2.8245,-16.94952 1.0406,-9.76888 5.8873,-17.18335 14.03,-21.46308 4.7999,-2.52282 6.2814,-2.83062 11.6392,-2.41824 7.6303,0.5873 16.3106,4.43702 19.2212,8.52462 4.1697,5.85583 4.5211,11.64216 2.1371,35.19601 -2.7555,27.22473 -3.7731,78.51996 -2.0845,105.08288 2.0184,31.7511 3.8216,45.99531 16.2569,128.41712 5.2469,34.7772 5.2823,42.16715 0.3414,71.34396 -4.035,23.82787 -7.3891,39.49593 -11.1649,52.15604 -5.5201,18.50843 -5.7714,19.94233 -4.5306,25.85777 0.6341,3.02311 2.3621,7.32935 3.8399,9.5694 4.782,7.24852 46.1189,57.91287 98.5789,120.82282 l 24.8082,29.75 -163.2714,-0.0605 -163.2714,-0.0605 -13,-10.43876 z M 1159.8784,665.71164 c -16.2863,-4.6223 -19.7167,-6.2667 -25.4968,-12.22231 -5.8286,-6.00543 -8.2459,-12.37765 -8.2748,-21.81296 -0.029,-9.42633 2.8352,-16.7931 8.8786,-22.83658 9.5885,-9.58848 29.4231,-13.76181 39.665,-8.34577 6.88,3.63824 9.4455,9.56349 9.3814,21.66705 -0.044,8.27211 -0.4291,10.36452 -2.9485,16.0153 -2.6084,5.8504 -2.9337,7.77422 -3.2551,19.25 -0.2542,9.07316 -0.7016,12.72842 -1.5516,12.67517 -0.6569,-0.0412 -8.0361,-2.01661 -16.3982,-4.3899 z m 0.076,-115.50069 c -19.1296,-7.50595 -22.8029,-9.48331 -27.4511,-14.77729 -8.7957,-10.01776 -10.9338,-24.0369 -5.4913,-36.00477 3.1234,-6.86804 8.8084,-12.78446 15.7209,-16.3606 6.832,-3.53451 19.3816,-3.82362 27.8494,-0.64159 l 6.5,2.44258 0.5931,4.90354 c 0.3262,2.69695 1.3387,6.5766 2.25,8.62143 2.1886,4.91096 2.1549,15.2673 -0.068,20.90639 -1.2864,3.26326 -1.8584,8.60307 -2.25,21.00327 l -0.5251,16.62755 z m -2.5767,-119.99945 c -23.8608,-18.83565 -26.1287,-20.98453 -29.5694,-28.01742 -2.2844,-4.66946 -2.7014,-6.82766 -2.7127,-14.03874 -0.012,-7.6335 0.3304,-9.21919 3.2865,-15.22384 3.6522,-7.41871 8.7839,-12.3046 16.7799,-15.97625 6.8362,-3.1391 19.8693,-3.20335 26.5448,-0.13086 3.8905,1.79067 5.0809,3.05886 7.5,7.99023 2.4958,5.08772 2.871,6.98415 2.8411,14.36175 -0.027,6.68257 -0.5053,9.46215 -2.2368,13 -2.0614,4.21206 -2.2192,6.07049 -2.4656,29.04495 l -0.2632,24.54494 z m -1.6424,-106.56313 c -11.5678,-8.54039 -22.8682,-17.61366 -25.1121,-20.16282 -15.2793,-17.35826 -3.3197,-45.56715 20.3549,-48.01058 7.2155,-0.7447 13.8021,0.9988 20.8455,5.5178 l 5.7412,3.6836 0.01,37.25 c 0,20.4875 -0.1746,37.25 -0.3986,37.25 -0.2241,0 -9.8719,-6.9876 -21.4397,-15.52799 z"
       id="path3001"
       inkscape:connector-curvature="0" />
    <path
       sodipodi:nodetypes="csscccsscccsssscccssssscscccssssscscscscsscsccscccssssscsscssssscccs"
       style="fill:#e09170"
       d="m 1508.0876,817.1478 c -16.1121,-12.64227 -22.7273,-16.38482 -37.9779,-21.48611 -39.9046,-13.3479 -106.2443,-49.68394 -143.5275,-78.61381 l -9.5,-7.37152 165.5,-0.5 165.5,-0.5 5.5333,-2.71754 c 7.0638,-3.46917 14.28,-10.68538 17.7492,-17.74913 l 2.7175,-5.53333 0.2638,-139.37371 0.2637,-139.37372 -2.5048,-18.9702 c -5.5317,-41.89531 -5.5361,-75.36232 -0.013,-102.32564 1.347,-6.5762 2.4584,-13.56407 2.4698,-15.52859 0.061,-10.51926 9.056,-22.54605 18.5536,-24.80689 12.2851,-2.92435 27.1852,4.52868 29.0628,14.53722 0.8313,4.43154 0.076,19.29766 -2.1502,42.34153 -2.3398,24.2151 -2.3661,76.22101 -0.053,104 2.1127,25.36873 4.1038,40.91725 11.5888,90.5 7.8804,52.20186 8.4069,56.94557 7.7029,69.39745 -1.0936,19.34151 -9.9025,64.58395 -16.7182,85.86451 -3.3126,10.3429 -3.7044,16.71591 -1.4367,23.37114 2.0098,5.89843 21.7635,30.53742 94.4971,117.8669 16.2617,19.525 29.9097,36.0625 30.3289,36.75 0.6087,0.99803 -31.9547,1.24518 -161.5467,1.22611 l -162.309,-0.0239 -13.9946,-10.98078 z M 1159.9733,665.31883 c -9.2751,-2.70035 -17.8314,-5.82983 -20.1691,-7.37687 -11.6679,-7.72143 -16.6282,-23.61559 -11.783,-37.75572 2.8849,-8.41915 11.1143,-16.17123 20.1371,-18.96915 16.8563,-5.22702 28.2303,-3.11716 33.0086,6.12304 4.0311,7.7953 3.5295,22.53837 -1.1116,32.67605 -2.2067,4.81995 -2.4731,6.73541 -2.4731,17.78102 0,6.80854 -0.3375,12.34146 -0.75,12.29538 -0.4125,-0.0461 -7.999,-2.19426 -16.8589,-4.77375 z m -1.5149,-116.00746 c -18.5848,-7.47707 -23.6876,-10.54708 -28.0363,-16.86776 -4.6192,-6.71367 -6.1025,-12.21146 -5.6787,-21.04802 0.6221,-12.97432 7.0501,-22.62476 18.6908,-28.06082 7.7222,-3.60615 18.8496,-3.72043 27.898,-0.28648 l 6.25,2.37192 0,4.42774 c 0,2.43525 0.7686,5.86788 1.7081,7.62807 2.3236,4.35357 2.3126,17.72812 -0.019,23.07246 -1.3521,3.09944 -1.6892,7.04059 -1.6892,19.75 0,12.08281 -0.2988,15.85674 -1.25,15.78944 -0.6875,-0.0486 -8.7307,-3.09809 -17.8738,-6.77655 z m -1.8762,-120.08618 c -22.5699,-17.72465 -25.1536,-20.22003 -28.5238,-27.54883 -6.0142,-13.07807 -3.0123,-28.03746 7.6648,-38.19586 9.1413,-8.69724 24.6515,-11.29266 36.1168,-6.04367 3.1582,1.44588 5.7422,3.1867 5.7422,3.86848 0,0.68178 0.9976,3.29418 2.2169,5.80533 2.9011,5.97506 3.0077,16.72902 0.2236,22.56572 -1.6751,3.51167 -1.971,7.15268 -2.4243,29.82399 l -0.5162,25.82399 z m -0.5,-105.71824 c -24.7533,-18.2195 -25.7634,-19.12565 -29.2397,-26.23107 -6.926,-14.15625 -0.4378,-31.46228 14.5435,-38.79196 10.4885,-5.13153 23.5387,-3.2131 33.4707,4.92034 l 2.7746,2.2721 -0.2746,36.64375 -0.2745,36.64375 z"
       id="path2999"
       inkscape:connector-curvature="0" />
    <path
       sodipodi:nodetypes="cssccsssssssssscssssssssscccsssssssscscsssssssscsscssscssssssscsssscscsscsssssssscccsssssss"
       style="fill:#d48969"
       d="m 1516.5822,823.58052 c -21.2702,-17.4785 -28.9918,-22.16412 -46,-27.91363 -40.0177,-13.52772 -106.7903,-49.92894 -142.3055,-77.57824 l -10.8055,-8.41229 c 9.8853,0.12981 20.1045,-0.17893 30.1603,0.0157 l 7.8677,5.42109 c 24.3773,16.79667 54.1099,35.78953 77.9054,45.53372 19.1178,7.82871 32.9638,10.66017 52.1776,10.6702 20.8915,0.0109 38.4828,-5.08794 61.5,-17.82582 35.5614,-19.67989 41.0424,-21.83451 72.1877,-28.37725 23.9452,-5.03021 30.6912,-7.02699 39.781,-11.77508 13.7275,-7.17065 24.7313,-20.2682 35.8506,-42.67242 13.7479,-27.70028 25.3224,-69.59739 29.3738,-106.3262 2.1812,-19.77485 1.5137,-27.21752 -7.0998,-79.16394 -10.3472,-62.40149 -13.2896,-89.17024 -12.1979,-110.97163 1.9056,-38.05682 13.4691,-119.46621 16.6866,-117.47766 1.3314,0.82282 1.0709,13.97696 -0.5732,28.94929 -2.9368,26.74414 -3.993,62.37539 -2.6876,90.67043 1.8295,39.65654 3.2295,52.22741 13.1782,118.32957 9.6837,64.34076 9.6256,62.7371 3.5542,98.09916 -4.0789,23.75729 -7.309,38.17864 -12.0672,53.87626 -3.9227,12.94146 -4.4053,20.1789 -1.7841,26.75433 1.7851,4.47804 15.0859,21.3552 54.1976,68.77024 21.0037,25.46278 66.0169,79.7093 69.9098,84.25 1.428,1.66566 -6.3264,1.74816 -160.9047,1.71186 l -162.405,-0.0381 -5.5,-4.51956 z m -356,-158.24991 c -18.5773,-5.30012 -23.8424,-8.18137 -28.8982,-15.81421 -10.2665,-15.4996 -5.5512,-36.30553 10.2866,-45.38945 6.5725,-3.76973 8.354,-3.82362 2.5574,-0.0774 -13.5073,8.7295 -19.5147,22.77811 -15.559,36.38532 2.2042,7.58231 6.9598,13.52884 13.6315,17.04511 4.8257,2.54336 6.2596,2.83569 11.9817,2.44258 7.7772,-0.5343 13.5237,-3.22275 19.0413,-8.90819 l 3.9587,-4.07916 0,11.62058 c 0,6.39131 -0.1125,11.58946 -0.25,11.55143 -0.1375,-0.038 -7.675,-2.1875 -16.75,-4.77661 z m -2.197,-116.25491 c -19.8563,-7.85241 -25.6478,-11.88173 -30.6035,-21.29174 -2.3727,-4.50523 -2.6899,-6.22798 -2.6899,-14.60759 0,-8.34995 0.3215,-10.11015 2.6557,-14.54015 3.2352,-6.13998 10.3651,-12.89536 16.659,-15.78401 6.865,-3.15075 18.5495,-3.00949 26.9257,0.32552 6.1463,2.44718 6.25,2.55201 6.25,6.32027 l 0,3.83182 -2.7091,-3.21963 c -3.5824,-4.25738 -11.5896,-7.91172 -17.3628,-7.92405 -10.6355,-0.0227 -21.0227,6.90118 -26.4641,17.64053 -2.5941,5.11957 -2.964,6.91063 -2.964,14.3497 0,7.55013 0.331,9.09763 2.9623,13.848 9.0223,16.28862 32.055,16.84465 43.4966,1.05006 l 3.0411,-4.19815 0,15.65004 c 0,8.60752 -0.3375,15.62705 -0.75,15.59895 -0.4125,-0.0281 -8.7136,-3.2004 -18.447,-7.04957 z m -0.303,-118.96857 c -22.1716,-17.55664 -26.817,-21.88839 -29.5683,-27.57186 -4.1992,-8.6744 -4.1399,-21.11014 0.1407,-29.50074 4.5788,-8.9752 14.1343,-16.19178 22.9845,-17.35851 l 4.4431,-0.58573 -3.6177,1.37973 c -9.2287,3.51963 -17.3433,11.1897 -21.7211,20.5312 -3.5894,7.65918 -3.7741,19.5116 -0.4031,25.86721 7.7825,14.67305 26.7046,15.01373 40.9919,0.73803 l 6.25,-6.24491 0,23.90741 c 0,13.14908 -0.1125,23.90201 -0.25,23.8954 -0.1375,-0.007 -8.8,-6.78235 -19.25,-15.05723 z m 16,-70.57273 -3,-2.57005 3.25,1.82162 c 1.7875,1.00189 3.25,2.17459 3.25,2.60601 0,1.09703 -0.1343,1.02576 -3.5,-1.85758 z m -17,-35.51421 c -23.9268,-17.61684 -26.9224,-20.34057 -30.1677,-27.42923 -6.442,-14.07105 -0.5532,-29.93754 13.8354,-37.27761 9.0659,-4.62479 17.2766,-4.69356 26.2107,-0.21954 3.3669,1.68608 7.1398,3.86312 8.3842,4.83786 l 2.2625,1.77225 -0.2625,36.52096 -0.2626,36.52097 z m -12.8801,-49.9263 c 2.4641,-1.69536 7.2702,-4.00836 10.6801,-5.13999 9.5168,-3.15822 10.7233,-4.67991 5.7497,-7.25185 -3.6623,-1.89381 -12.0351,-1.97645 -16.3785,-0.16165 -4.6362,1.93712 -8.6712,7.07719 -8.6712,11.04602 0,5.65026 2.0719,6.0126 8.6199,1.50747 z"
       id="path2993"
       inkscape:connector-curvature="0" />
  </g>
</svg>
