<?xml version="1.0" encoding="utf-8"?>
<!-- Generator: Adobe Illustrator 15.0.0, SVG Export Plug-In . SVG Version: 6.00 Build 0)  -->
<!DOCTYPE svg PUBLIC "-//W3C//DTD SVG 1.1//EN" "http://www.w3.org/Graphics/SVG/1.1/DTD/svg11.dtd">
<svg version="1.1" id="Layer_1" xmlns="http://www.w3.org/2000/svg" xmlns:xlink="http://www.w3.org/1999/xlink" x="0px" y="0px"
	 width="180px" height="180px" viewBox="0 0 180 180" enable-background="new 0 0 180 180" xml:space="preserve">
<circle fill="#999999" cx="90" cy="90" r="90"/>
<g enable-background="new    ">
	<path fill="#FFFFFF" d="M64.875,77.875c0.533-1.717,1.333-3.217,2.4-4.5c1.066-1.283,2.408-2.283,4.025-3
		c1.616-0.717,3.475-1.075,5.575-1.075c1.6,0,3.125,0.25,4.575,0.75s2.725,1.218,3.825,2.15c1.1,0.934,1.975,2.083,2.625,3.45
		c0.65,1.367,0.975,2.899,0.975,4.6c0,1.768-0.283,3.283-0.85,4.55c-0.567,1.268-1.317,2.393-2.25,3.375
		c-0.934,0.983-1.992,1.875-3.175,2.675c-1.184,0.801-2.375,1.593-3.575,2.375c-1.2,0.784-2.367,1.625-3.5,2.525
		c-1.134,0.9-2.134,1.95-3,3.15h16.55v6.1h-25.7c0-2.033,0.292-3.8,0.875-5.3c0.583-1.5,1.375-2.842,2.375-4.025
		c1-1.183,2.175-2.274,3.525-3.274c1.35-1,2.775-2.017,4.275-3.051c0.766-0.532,1.583-1.074,2.45-1.625
		c0.867-0.55,1.658-1.157,2.375-1.824s1.316-1.417,1.8-2.25c0.483-0.833,0.725-1.783,0.725-2.851c0-1.7-0.492-3.024-1.475-3.975
		c-0.984-0.95-2.242-1.425-3.775-1.425c-1.034,0-1.909,0.242-2.625,0.725c-0.717,0.483-1.292,1.117-1.725,1.9
		c-0.434,0.783-0.742,1.649-0.925,2.6c-0.184,0.95-0.275,1.893-0.275,2.825h-6.8C64.108,81.45,64.342,79.592,64.875,77.875z"/>
</g>
<g enable-background="new    ">
	<path fill="#FFFFFF" d="M100.425,75.85l-1.399,7.95l0.1,0.101c0.967-0.967,2-1.658,3.1-2.075c1.101-0.417,2.351-0.625,3.75-0.625
		c1.733,0,3.267,0.317,4.601,0.95c1.333,0.633,2.458,1.483,3.375,2.55c0.916,1.067,1.616,2.325,2.1,3.774
		c0.483,1.45,0.726,2.992,0.726,4.625c0,1.801-0.351,3.476-1.051,5.025c-0.699,1.55-1.642,2.893-2.824,4.025
		c-1.184,1.133-2.559,2.008-4.125,2.625c-1.567,0.616-3.234,0.907-5,0.875c-1.7,0-3.325-0.226-4.875-0.676
		c-1.551-0.449-2.926-1.141-4.125-2.074c-1.2-0.934-2.159-2.092-2.875-3.476c-0.718-1.383-1.093-2.991-1.125-4.825h7.1
		c0.166,1.601,0.767,2.875,1.8,3.825s2.351,1.425,3.95,1.425c0.933,0,1.775-0.191,2.525-0.574s1.383-0.883,1.899-1.5
		s0.917-1.333,1.2-2.15c0.283-0.816,0.425-1.658,0.425-2.525c0-0.899-0.134-1.75-0.399-2.55c-0.268-0.8-0.668-1.5-1.2-2.1
		c-0.534-0.601-1.167-1.066-1.9-1.4c-0.733-0.333-1.583-0.5-2.55-0.5c-1.268,0-2.3,0.226-3.1,0.675
		c-0.801,0.45-1.551,1.159-2.25,2.125h-6.4L95.325,70h19.55v5.85H100.425z"/>
</g>
</svg>
