<?xml version="1.0" encoding="utf-8"?>
<!-- Generator: Adobe Illustrator 15.0.0, SVG Export Plug-In . SVG Version: 6.00 Build 0)  -->
<!DOCTYPE svg PUBLIC "-//W3C//DTD SVG 1.1//EN" "http://www.w3.org/Graphics/SVG/1.1/DTD/svg11.dtd">
<svg version="1.1" id="Layer_1" xmlns="http://www.w3.org/2000/svg" xmlns:xlink="http://www.w3.org/1999/xlink" x="0px" y="0px"
	 width="100px" height="100px" viewBox="0 0 100 100" enable-background="new 0 0 100 100" xml:space="preserve">
<circle fill="#808080" cx="50" cy="50" r="50"/>
<g enable-background="new    ">
	<path fill="#FFFFFF" d="M42.615,60V47.742h-4.752v-2.89c0.666,0.019,1.31-0.03,1.931-0.148c0.621-0.116,1.179-0.323,1.674-0.62
		c0.495-0.298,0.913-0.689,1.255-1.175c0.342-0.486,0.567-1.089,0.675-1.81h3.051V60H42.615z"/>
</g>
<g enable-background="new    ">
	<path fill="#FFFFFF" d="M54.82,44.259l-0.756,4.293l0.054,0.055c0.522-0.522,1.08-0.896,1.674-1.121
		c0.595-0.225,1.269-0.337,2.024-0.337c0.937,0,1.765,0.171,2.484,0.513c0.721,0.342,1.328,0.801,1.822,1.377
		c0.495,0.576,0.873,1.256,1.135,2.038c0.26,0.783,0.391,1.616,0.391,2.498c0,0.972-0.188,1.876-0.566,2.713
		s-0.887,1.562-1.525,2.174c-0.639,0.612-1.382,1.085-2.228,1.418c-0.847,0.332-1.746,0.49-2.7,0.472
		c-0.918,0-1.795-0.121-2.633-0.364c-0.836-0.243-1.579-0.616-2.227-1.12c-0.648-0.504-1.166-1.13-1.553-1.877
		c-0.387-0.746-0.589-1.615-0.607-2.605h3.834c0.09,0.864,0.414,1.553,0.972,2.065c0.558,0.514,1.269,0.77,2.133,0.77
		c0.504,0,0.958-0.104,1.364-0.311c0.404-0.206,0.746-0.477,1.025-0.81s0.495-0.72,0.648-1.161c0.152-0.44,0.229-0.896,0.229-1.363
		c0-0.486-0.072-0.945-0.215-1.377c-0.145-0.433-0.361-0.811-0.648-1.134c-0.288-0.324-0.631-0.576-1.026-0.757
		c-0.396-0.18-0.854-0.27-1.377-0.27c-0.685,0-1.241,0.121-1.674,0.364s-0.837,0.626-1.215,1.147h-3.456L52.066,41.1h10.557v3.159
		H54.82z"/>
</g>
</svg>
